<?xml version="1.0" encoding="UTF-8"?>
<!DOCTYPE svg PUBLIC "-//W3C//DTD SVG 1.1//EN" "http://www.w3.org/Graphics/SVG/1.1/DTD/svg11.dtd">
<!-- Creator: CorelDRAW X7 -->
<svg xmlns="http://www.w3.org/2000/svg" xml:space="preserve" width="3in" height="3in" version="1.1" style="shape-rendering:geometricPrecision; text-rendering:geometricPrecision; image-rendering:optimizeQuality; fill-rule:evenodd; clip-rule:evenodd"
viewBox="0 0 3000 3000"
 xmlns:xlink="http://www.w3.org/1999/xlink">
 <defs>
  <style type="text/css">
   <![CDATA[
    .str0 {stroke:#373435;stroke-width:27.7795}
    .str1 {stroke:#373435;stroke-width:6.94488;stroke-dasharray:13.889764 20.834646}
    .fil0 {fill:none}
    .fil1 {fill:#373435;fill-rule:nonzero}
   ]]>
  </style>
 </defs>
 <g id="Layer_x0020_1">
  <metadata id="CorelCorpID_0Corel-Layer"/>
  <rect class="fil0 str0" x="607" y="855" width="2193" height="1542"/>
  <g>
   <path class="fil1" d="M395 860l24 0 71 110 -24 15 -71 -110 24 0 -24 -15zm0 0l12 -18 12 18 -24 0zm-59 117l-12 -7 71 -110 24 15 -72 110 -11 -8zm57 1378l0 -1466 28 0 0 1466 -28 0zm2 29l24 -15 -24 0 71 -110 24 15 -71 110 -24 0zm0 0l24 0 -12 18 -12 -18zm-59 -117l11 -8 72 110 -24 15 -71 -110 12 -7z"/>
  </g>
  <g>
   <path class="fil1" d="M608 2608l0 -23 110 -71 15 23 -110 71 0 -23 -15 23zm0 0l-18 -11 18 -12 0 23zm117 60l-7 11 -110 -71 15 -23 110 71 -8 12zm2029 -57l-2117 0 0 -28 2117 0 0 28zm29 -3l-15 -23 0 23 -110 -71 15 -23 110 71 0 23zm0 0l0 -23 18 12 -18 11zm-118 60l-7 -12 110 -71 15 23 -110 71 -8 -11z"/>
  </g>
  <path class="fil1" d="M1506 2807l-31 -101 18 0 16 59 6 21c0,-1 2,-8 5,-21l16 -59 18 0 15 59 5 19 6 -19 17 -59 17 0 -32 101 -18 0 -16 -60 -4 -17 -20 77 -18 0z"/>
  <path id="1" class="fil1" d="M1628 2687l0 -19 17 0 0 19 -17 0zm0 120l0 -101 17 0 0 101 -17 0z"/>
  <path id="2" class="fil1" d="M1736 2807l0 -13c-6,10 -15,15 -28,15 -8,0 -15,-2 -22,-6 -7,-5 -12,-11 -16,-19 -3,-8 -5,-17 -5,-27 0,-10 2,-19 5,-28 3,-8 8,-14 15,-18 7,-5 14,-7 22,-7 7,0 12,1 17,4 4,3 8,6 11,10l0 -50 17 0 0 139 -16 0zm-54 -50c0,13 3,22 9,29 5,6 11,9 19,9 7,0 14,-3 19,-9 5,-6 8,-15 8,-28 0,-13 -3,-24 -8,-30 -6,-6 -12,-10 -20,-10 -8,0 -14,3 -19,10 -5,6 -8,16 -8,29z"/>
  <path id="3" class="fil1" d="M1817 2792l2 15c-5,1 -9,2 -13,2 -6,0 -11,-1 -14,-3 -4,-2 -6,-5 -8,-8 -1,-3 -2,-10 -2,-20l0 -58 -12 0 0 -14 12 0 0 -25 17 -10 0 35 18 0 0 14 -18 0 0 59c0,5 1,8 1,9 1,1 2,3 3,3 2,1 4,2 6,2 2,0 4,-1 8,-1z"/>
  <path id="4" class="fil1" d="M1833 2807l0 -139 18 0 0 50c7,-9 18,-14 30,-14 7,0 13,2 19,5 5,3 9,7 12,12 2,5 3,12 3,22l0 64 -17 0 0 -64c0,-8 -2,-14 -5,-18 -4,-4 -9,-6 -16,-6 -5,0 -10,1 -14,4 -5,2 -8,6 -10,11 -2,4 -2,10 -2,18l0 55 -18 0z"/>
  <path class="fil1" d="M315 1880l-139 0 0 -17 50 0c-10,-8 -14,-18 -14,-31 0,-7 1,-13 4,-19 3,-5 7,-9 12,-12 6,-2 13,-3 23,-3l64 0 0 17 -64 0c-8,0 -15,2 -19,5 -3,4 -5,9 -5,16 0,5 1,10 4,14 2,5 6,8 10,10 5,2 11,3 19,3l55 0 0 17z"/>
  <path id="1" class="fil1" d="M282 1703l3 -18c10,3 18,8 23,15 6,8 9,17 9,29 0,15 -5,27 -14,35 -9,9 -21,13 -38,13 -17,0 -30,-4 -39,-13 -10,-9 -14,-20 -14,-34 0,-13 4,-24 14,-33 9,-8 22,-13 38,-13 1,0 3,0 5,0l0 76c11,-1 19,-4 25,-10 6,-5 9,-12 9,-21 0,-6 -2,-11 -5,-16 -3,-4 -9,-8 -16,-10zm-27 56l0 -57c-9,1 -15,3 -19,7 -7,5 -10,12 -10,21 0,8 2,14 8,20 5,5 12,8 21,9z"/>
  <path id="2" class="fil1" d="M195 1663l-19 0 0 -17 19 0 0 17zm120 0l-101 0 0 -17 101 0 0 17z"/>
  <path id="3" class="fil1" d="M323 1623l3 -16c5,-1 8,-3 11,-6 3,-4 5,-10 5,-17 0,-8 -2,-14 -5,-19 -3,-4 -8,-7 -13,-9 -4,0 -11,-1 -22,-1 8,8 13,17 13,28 0,14 -5,25 -15,32 -10,8 -22,12 -36,12 -10,0 -19,-2 -27,-5 -8,-4 -14,-9 -19,-16 -4,-6 -6,-14 -6,-23 0,-12 5,-22 14,-29l-12 0 0 -16 87 0c16,0 27,2 33,5 7,3 12,8 16,15 4,7 6,15 6,25 0,12 -3,22 -8,30 -6,7 -14,11 -25,10zm-60 -14c13,0 23,-2 29,-8 6,-5 9,-11 9,-19 0,-8 -3,-15 -9,-20 -6,-5 -16,-8 -29,-8 -12,0 -21,3 -28,8 -6,6 -9,12 -9,20 0,8 3,14 9,19 6,6 16,8 28,8z"/>
  <path id="4" class="fil1" d="M315 1512l-139 0 0 -17 50 0c-10,-8 -14,-18 -14,-30 0,-8 1,-14 4,-20 3,-5 7,-9 12,-11 6,-3 13,-4 23,-4l64 0 0 17 -64 0c-8,0 -15,2 -19,6 -3,3 -5,9 -5,15 0,5 1,10 4,15 2,4 6,7 10,9 5,2 11,3 19,3l55 0 0 17z"/>
  <path id="5" class="fil1" d="M300 1367l15 -3c1,5 1,9 1,13 0,6 -1,11 -3,15 -2,3 -4,5 -7,7 -4,1 -10,2 -21,2l-58 0 0 13 -13 0 0 -13 -25 0 -10 -17 35 0 0 -17 13 0 0 17 59 0c5,0 8,0 10,-1 1,-1 2,-2 3,-3 1,-1 1,-3 1,-6 0,-2 0,-4 0,-7z"/>
  <path class="fil1" d="M819 579l2 13c-4,1 -8,1 -11,1 -5,0 -9,-1 -12,-2 -3,-2 -5,-4 -7,-7 -1,-3 -1,-8 -1,-17l0 -50 -11 0 0 -11 11 0 0 -22 14 -9 0 31 15 0 0 11 -15 0 0 51c0,4 1,7 1,8 1,1 1,2 3,3 1,0 2,1 5,1 1,0 3,-1 6,-1z"/>
  <path id="1" class="fil1" d="M846 750l15 2c-2,9 -6,16 -13,21 -6,5 -15,7 -25,7 -12,0 -22,-4 -30,-12 -7,-7 -11,-18 -11,-32 0,-15 4,-26 12,-34 7,-8 17,-12 29,-12 11,0 21,4 28,12 7,8 11,19 11,33 0,1 0,2 0,4l-65 0c1,9 4,17 8,22 5,5 11,7 18,7 6,0 10,-1 14,-4 4,-3 7,-7 9,-14zm-48 -23l48 0c0,-7 -2,-13 -5,-17 -5,-5 -11,-8 -18,-8 -7,0 -13,2 -17,7 -5,4 -7,10 -8,18z"/>
  <path id="2" class="fil1" d="M781 939l15 -3c1,6 3,11 7,14 3,3 9,4 15,4 7,0 12,-1 15,-4 4,-2 5,-6 5,-9 0,-4 -1,-6 -4,-8 -2,-2 -7,-3 -15,-5 -11,-3 -18,-5 -23,-7 -4,-2 -7,-5 -9,-8 -2,-4 -3,-8 -3,-12 0,-4 1,-7 2,-11 2,-3 5,-6 8,-8 2,-1 5,-3 9,-4 4,-1 8,-2 13,-2 6,0 12,1 17,3 6,2 9,5 12,8 2,3 4,8 5,14l-15 2c0,-5 -2,-9 -5,-11 -3,-3 -8,-4 -13,-4 -7,0 -12,1 -15,4 -3,2 -4,4 -4,7 0,2 1,4 2,5 1,2 3,3 5,4 2,1 6,2 13,4 11,3 18,5 22,7 4,2 7,4 10,8 2,3 3,7 3,12 0,5 -1,10 -4,14 -3,4 -7,7 -12,10 -6,2 -12,3 -19,3 -11,0 -20,-2 -25,-7 -6,-4 -10,-11 -12,-20z"/>
  <path id="3" class="fil1" d="M819 1138l2 13c-4,0 -8,1 -11,1 -5,0 -9,-1 -12,-3 -3,-1 -5,-4 -7,-6 -1,-3 -1,-9 -1,-18l0 -49 -11 0 0 -12 11 0 0 -21 14 -9 0 30 15 0 0 12 -15 0 0 50c0,4 1,7 1,8 1,1 1,2 3,3 1,1 2,1 5,1 1,0 3,0 6,0z"/>
  <path class="fil1" d="M1231 1167l2 13c-4,0 -7,1 -11,1 -5,0 -9,-1 -12,-3 -3,-1 -5,-4 -6,-6 -1,-3 -2,-9 -2,-18l0 -50 -11 0 0 -11 11 0 0 -21 15 -9 0 30 14 0 0 11 -14 0 0 51c0,4 0,7 1,8 0,1 1,2 2,3 1,1 3,1 5,1 2,0 4,0 6,0z"/>
  <path id="1" class="fil1" d="M1259 1338l15 2c-3,9 -7,16 -13,20 -7,5 -15,8 -25,8 -13,0 -23,-4 -30,-12 -7,-8 -11,-19 -11,-33 0,-14 4,-25 11,-33 7,-8 17,-12 29,-12 12,0 21,3 28,11 8,8 11,19 11,33 0,1 0,3 0,4l-64 0c0,10 3,17 8,22 5,5 11,8 18,8 5,0 10,-2 14,-5 3,-2 6,-7 9,-13zm-48 -24l48 0c-1,-7 -3,-12 -6,-16 -4,-6 -10,-8 -18,-8 -7,0 -12,2 -17,6 -4,5 -7,11 -7,18z"/>
  <path id="2" class="fil1" d="M1194 1526l14 -2c1,6 3,10 7,13 4,3 9,5 16,5 6,0 11,-1 15,-4 3,-3 5,-6 5,-10 0,-3 -2,-6 -5,-8 -2,-1 -7,-3 -15,-5 -10,-2 -18,-5 -22,-7 -4,-2 -7,-4 -9,-8 -3,-3 -4,-7 -4,-11 0,-4 1,-8 3,-11 2,-3 4,-6 7,-8 2,-2 6,-3 9,-5 4,-1 9,-1 13,-1 7,0 13,1 18,3 5,2 9,4 11,8 3,3 4,7 5,13l-14 2c-1,-4 -3,-8 -6,-11 -3,-2 -7,-3 -13,-3 -7,0 -11,1 -14,3 -3,2 -5,5 -5,8 0,2 1,3 2,5 1,2 3,3 6,4 1,0 6,2 13,4 10,2 17,5 21,6 5,2 8,5 10,8 2,3 4,8 4,13 0,4 -2,9 -5,13 -2,5 -7,8 -12,10 -5,3 -11,4 -18,4 -11,0 -20,-2 -26,-7 -6,-5 -10,-12 -11,-21z"/>
  <path id="3" class="fil1" d="M1231 1725l2 13c-4,1 -7,1 -11,1 -5,0 -9,0 -12,-2 -3,-2 -5,-4 -6,-7 -1,-3 -2,-8 -2,-17l0 -50 -11 0 0 -11 11 0 0 -22 15 -8 0 30 14 0 0 11 -14 0 0 51c0,4 0,7 1,8 0,1 1,2 2,3 1,0 3,1 5,1 2,0 4,0 6,-1z"/>
  <path class="fil1" d="M977 1729l2 13c-4,1 -7,1 -11,1 -5,0 -9,-1 -12,-2 -3,-2 -5,-4 -6,-7 -1,-3 -2,-8 -2,-17l0 -50 -11 0 0 -11 11 0 0 -22 15 -9 0 31 14 0 0 11 -14 0 0 51c0,4 0,7 0,8 1,1 2,2 3,3 1,0 3,1 5,1 2,0 4,-1 6,-1z"/>
  <path id="1" class="fil1" d="M1004 1900l16 2c-3,9 -7,16 -14,21 -6,5 -14,7 -24,7 -13,0 -23,-4 -30,-11 -8,-8 -11,-19 -11,-33 0,-15 3,-26 11,-34 7,-8 17,-12 29,-12 11,0 21,4 28,12 7,8 11,19 11,33 0,1 0,2 0,4l-64 0c0,9 3,17 8,22 5,5 11,7 18,7 5,0 10,-1 13,-4 4,-3 7,-7 9,-14zm-48 -23l49 0c-1,-7 -3,-13 -6,-17 -5,-5 -11,-8 -18,-8 -7,0 -12,2 -17,7 -4,4 -7,10 -8,18z"/>
  <path id="2" class="fil1" d="M940 2089l14 -3c1,6 3,11 7,14 4,3 9,4 16,4 6,0 11,-1 15,-4 3,-2 4,-6 4,-9 0,-4 -1,-6 -4,-8 -2,-1 -7,-3 -15,-5 -11,-3 -18,-5 -22,-7 -4,-2 -7,-5 -10,-8 -2,-4 -3,-8 -3,-12 0,-4 1,-7 3,-11 2,-3 4,-6 7,-8 2,-1 5,-3 9,-4 4,-1 8,-2 13,-2 7,0 13,1 18,3 5,2 9,5 11,8 3,3 4,8 5,14l-14 2c-1,-5 -3,-8 -6,-11 -3,-3 -7,-4 -13,-4 -7,0 -12,1 -14,4 -3,2 -5,4 -5,7 0,2 1,4 2,5 1,2 3,3 6,4 1,1 5,2 13,4 10,3 17,5 21,7 4,2 8,4 10,8 2,3 3,7 3,12 0,5 -1,10 -4,14 -3,4 -7,7 -12,10 -6,2 -12,3 -18,3 -12,0 -20,-2 -26,-7 -6,-4 -10,-11 -11,-20z"/>
  <path id="3" class="fil1" d="M977 2288l2 13c-4,0 -7,1 -11,1 -5,0 -9,-1 -12,-3 -3,-1 -5,-4 -6,-6 -1,-3 -2,-9 -2,-18l0 -49 -11 0 0 -12 11 0 0 -21 15 -9 0 30 14 0 0 12 -14 0 0 50c0,4 0,7 0,8 1,2 2,2 3,3 1,1 3,1 5,1 2,0 4,0 6,0z"/>
  <path class="fil1" d="M2315 352l2 13c-4,1 -8,1 -11,1 -6,0 -10,-1 -13,-2 -2,-2 -5,-4 -6,-7 -1,-3 -2,-9 -2,-17l0 -50 -10 0 0 -12 10 0 0 -21 15 -9 0 30 15 0 0 12 -15 0 0 50c0,5 0,7 1,9 0,1 1,2 2,2 2,1 3,1 5,1 2,0 4,0 7,0z"/>
  <path id="1" class="fil1" d="M2342 523l15 2c-2,9 -7,16 -13,21 -7,5 -15,7 -25,7 -12,0 -22,-4 -30,-12 -7,-7 -11,-18 -11,-32 0,-15 4,-26 11,-34 8,-8 18,-12 29,-12 12,0 21,4 29,12 7,7 11,19 11,33 0,1 0,2 0,4l-65 0c1,9 3,16 8,21 5,5 11,8 18,8 6,0 10,-1 14,-4 4,-3 7,-8 9,-14zm-48 -23l48 0c0,-8 -2,-13 -5,-17 -5,-5 -11,-8 -18,-8 -7,0 -13,2 -17,7 -5,4 -8,10 -8,18z"/>
  <path id="2" class="fil1" d="M2277 712l15 -3c0,6 3,10 6,14 4,3 9,4 16,4 7,0 12,-1 15,-4 3,-3 5,-6 5,-10 0,-3 -1,-5 -4,-7 -2,-2 -7,-3 -15,-5 -11,-3 -19,-5 -23,-7 -4,-2 -7,-5 -9,-9 -2,-3 -3,-7 -3,-11 0,-4 1,-8 2,-11 2,-3 4,-6 7,-8 3,-2 6,-3 10,-4 4,-1 8,-2 12,-2 7,0 13,1 18,3 5,2 9,5 12,8 2,3 4,8 5,13l-15 2c0,-4 -2,-8 -5,-10 -3,-3 -8,-4 -14,-4 -6,0 -11,1 -14,3 -3,3 -4,5 -4,8 0,2 0,4 2,5 1,2 3,3 5,4 2,1 6,2 13,4 10,3 18,5 22,7 4,1 7,4 9,7 3,4 4,8 4,13 0,5 -1,9 -4,14 -3,4 -7,7 -13,10 -5,2 -11,3 -18,3 -11,0 -20,-2 -26,-7 -5,-4 -9,-11 -11,-20z"/>
  <path id="3" class="fil1" d="M2315 910l2 13c-4,1 -8,2 -11,2 -6,0 -10,-1 -13,-3 -2,-2 -5,-4 -6,-6 -1,-3 -2,-9 -2,-18l0 -50 -10 0 0 -11 10 0 0 -21 15 -9 0 30 15 0 0 11 -15 0 0 51c0,4 0,7 1,8 0,1 1,2 2,3 2,1 3,1 5,1 2,0 4,0 7,-1z"/>
  <path class="fil1" d="M1611 833l2 13c-4,1 -8,1 -11,1 -6,0 -10,0 -13,-2 -3,-2 -5,-4 -6,-7 -1,-2 -2,-8 -2,-17l0 -50 -11 0 0 -11 11 0 0 -22 15 -8 0 30 15 0 0 11 -15 0 0 51c0,4 0,7 1,8 0,1 1,2 2,3 1,0 3,1 5,1 2,0 4,0 7,-1z"/>
  <path id="1" class="fil1" d="M1638 1005l15 2c-2,8 -7,15 -13,20 -7,5 -15,7 -25,7 -13,0 -23,-4 -30,-11 -7,-8 -11,-19 -11,-33 0,-15 4,-26 11,-34 8,-8 17,-12 29,-12 12,0 21,4 29,12 7,8 10,19 10,33 0,1 0,2 0,4l-64 0c1,9 3,17 8,22 5,5 11,7 18,7 5,0 10,-1 14,-4 4,-3 7,-7 9,-13zm-48 -24l48 0c-1,-7 -3,-13 -6,-16 -4,-6 -10,-9 -18,-9 -6,0 -12,2 -17,7 -4,4 -7,10 -7,18z"/>
  <path id="2" class="fil1" d="M1573 1193l14 -2c1,5 4,10 7,13 4,3 9,5 16,5 7,0 12,-2 15,-5 3,-2 5,-6 5,-9 0,-4 -2,-6 -5,-8 -2,-1 -7,-3 -15,-5 -10,-3 -18,-5 -22,-7 -4,-2 -7,-5 -9,-8 -2,-4 -4,-8 -4,-12 0,-4 1,-7 3,-10 2,-4 4,-6 7,-9 3,-1 6,-3 10,-4 4,-1 8,-2 12,-2 7,0 13,1 18,3 5,2 9,5 11,8 3,4 5,8 5,14l-14 2c0,-5 -2,-8 -5,-11 -4,-2 -8,-4 -14,-4 -6,0 -11,1 -14,4 -3,2 -4,5 -4,8 0,1 0,3 1,5 2,1 3,3 6,4 2,0 6,1 13,3 10,3 18,5 22,7 4,2 7,4 9,8 3,3 4,7 4,12 0,5 -2,10 -4,14 -3,4 -7,8 -13,10 -5,2 -11,4 -18,4 -11,0 -20,-3 -26,-7 -6,-5 -9,-12 -11,-21z"/>
  <path id="3" class="fil1" d="M1611 1392l2 13c-4,1 -8,1 -11,1 -6,0 -10,-1 -13,-2 -3,-2 -5,-4 -6,-7 -1,-3 -2,-9 -2,-17l0 -50 -11 0 0 -12 11 0 0 -21 15 -9 0 30 15 0 0 12 -15 0 0 50c0,5 0,7 1,8 0,2 1,3 2,3 1,1 3,1 5,1 2,0 4,0 7,0z"/>
  <path class="fil1" d="M1873 1696l2 13c-4,1 -8,1 -11,1 -5,0 -9,-1 -12,-3 -3,-1 -5,-3 -6,-6 -2,-3 -2,-9 -2,-18l0 -49 -11 0 0 -12 11 0 0 -21 14 -9 0 30 15 0 0 12 -15 0 0 50c0,5 1,7 1,8 1,2 2,3 3,3 1,1 3,1 5,1 1,0 4,0 6,0z"/>
  <path id="1" class="fil1" d="M1900 1867l15 2c-2,9 -6,16 -13,21 -6,4 -14,7 -24,7 -13,0 -23,-4 -30,-12 -8,-8 -12,-18 -12,-33 0,-14 4,-25 12,-33 7,-8 17,-12 29,-12 11,0 21,4 28,11 7,8 11,19 11,34 0,0 0,2 0,4l-65 0c1,9 4,16 9,21 4,5 10,8 18,8 5,0 10,-2 13,-4 4,-3 7,-8 9,-14zm-48 -23l48 0c0,-8 -2,-13 -5,-17 -5,-5 -11,-8 -18,-8 -7,0 -13,2 -17,6 -5,5 -7,11 -8,19z"/>
  <path id="2" class="fil1" d="M1835 2055l15 -2c1,6 3,10 7,13 4,3 9,5 15,5 7,0 12,-1 15,-4 4,-3 5,-6 5,-10 0,-3 -1,-6 -4,-8 -2,-1 -7,-2 -15,-4 -11,-3 -18,-6 -22,-7 -5,-2 -8,-5 -10,-9 -2,-3 -3,-7 -3,-11 0,-4 1,-8 3,-11 1,-3 4,-6 7,-8 2,-2 5,-3 9,-4 4,-2 8,-2 13,-2 7,0 12,1 18,3 5,2 9,4 11,8 2,3 4,8 5,13l-14 2c-1,-4 -3,-8 -6,-10 -3,-3 -7,-4 -13,-4 -7,0 -12,1 -15,3 -2,2 -4,5 -4,8 0,2 1,4 2,5 1,2 3,3 6,4 1,1 5,2 12,4 11,3 18,5 22,7 4,1 7,4 10,7 2,4 3,8 3,13 0,5 -1,9 -4,14 -3,4 -7,7 -12,10 -6,2 -12,3 -19,3 -11,0 -19,-2 -25,-7 -6,-5 -10,-11 -12,-21z"/>
  <path id="3" class="fil1" d="M1873 2254l2 13c-4,1 -8,2 -11,2 -5,0 -9,-1 -12,-3 -3,-2 -5,-4 -6,-7 -2,-2 -2,-8 -2,-17l0 -50 -11 0 0 -11 11 0 0 -22 14 -8 0 30 15 0 0 11 -15 0 0 51c0,4 1,7 1,8 1,1 2,2 3,3 1,1 3,1 5,1 1,0 4,0 6,-1z"/>
  <path class="fil1" d="M2336 2196l2 13c-4,1 -8,1 -11,1 -6,0 -10,-1 -13,-3 -3,-1 -5,-3 -6,-6 -1,-3 -2,-9 -2,-18l0 -49 -11 0 0 -12 11 0 0 -21 15 -9 0 30 15 0 0 12 -15 0 0 50c0,5 0,7 1,8 0,2 1,3 2,3 1,1 3,1 5,1 2,0 4,0 7,0z"/>
  <path id="1" class="fil1" d="M2363 2367l15 2c-2,9 -7,16 -13,21 -7,4 -15,7 -25,7 -13,0 -23,-4 -30,-12 -7,-8 -11,-18 -11,-33 0,-14 4,-25 11,-33 8,-8 17,-12 29,-12 12,0 21,4 29,11 7,8 10,19 10,34 0,0 0,2 0,4l-64 0c1,9 3,16 8,21 5,5 11,8 18,8 5,0 10,-2 14,-4 4,-3 7,-8 9,-14zm-48 -23l48 0c-1,-8 -3,-13 -6,-17 -4,-5 -10,-8 -18,-8 -6,0 -12,2 -17,6 -4,5 -7,11 -7,19z"/>
  <path id="2" class="fil1" d="M2298 2555l14 -2c1,6 4,10 7,13 4,3 9,5 16,5 7,0 12,-1 15,-4 3,-3 5,-6 5,-10 0,-3 -2,-6 -5,-8 -2,-1 -7,-2 -15,-4 -10,-3 -18,-6 -22,-7 -4,-2 -7,-5 -9,-9 -2,-3 -4,-7 -4,-11 0,-4 1,-8 3,-11 2,-3 4,-6 7,-8 3,-2 6,-3 10,-4 4,-2 8,-2 12,-2 7,0 13,1 18,3 5,2 9,4 11,8 3,3 5,8 5,13l-14 2c0,-4 -2,-8 -5,-10 -4,-3 -8,-4 -14,-4 -6,0 -11,1 -14,3 -3,2 -4,5 -4,8 0,2 0,4 1,5 2,2 3,3 6,4 2,1 6,2 13,4 10,3 18,5 22,7 4,1 7,4 9,7 3,4 4,8 4,13 0,5 -2,9 -4,14 -3,4 -7,7 -13,10 -5,2 -11,3 -18,3 -11,0 -20,-2 -26,-7 -6,-5 -9,-11 -11,-21z"/>
  <path id="3" class="fil1" d="M2336 2754l2 13c-4,1 -8,2 -11,2 -6,0 -10,-1 -13,-3 -3,-2 -5,-4 -6,-7 -1,-2 -2,-8 -2,-17l0 -50 -11 0 0 -11 11 0 0 -22 15 -8 0 30 15 0 0 11 -15 0 0 51c0,4 0,7 1,8 0,1 1,2 2,3 1,1 3,1 5,1 2,0 4,0 7,-1z"/>
  <path class="fil1" d="M2665 1404l2 13c-4,1 -8,1 -11,1 -6,0 -10,-1 -13,-2 -2,-2 -5,-4 -6,-7 -1,-3 -2,-8 -2,-17l0 -50 -10 0 0 -11 10 0 0 -22 15 -9 0 31 15 0 0 11 -15 0 0 51c0,4 0,7 1,8 0,1 1,2 2,3 2,0 3,1 5,1 2,0 4,-1 7,-1z"/>
  <path id="1" class="fil1" d="M2692 1575l15 2c-2,9 -7,16 -13,21 -7,5 -15,7 -25,7 -12,0 -22,-4 -30,-11 -7,-8 -11,-19 -11,-33 0,-15 4,-26 11,-34 8,-8 18,-12 29,-12 12,0 21,4 29,12 7,8 11,19 11,33 0,1 0,2 0,4l-65 0c1,9 3,17 8,22 5,5 11,7 18,7 6,0 10,-1 14,-4 4,-3 7,-7 9,-14zm-48 -23l48 0c0,-7 -2,-13 -5,-17 -5,-5 -11,-8 -18,-8 -7,0 -13,2 -17,7 -5,4 -8,10 -8,18z"/>
  <path id="2" class="fil1" d="M2627 1764l15 -3c0,6 3,11 6,14 4,3 9,4 16,4 7,0 12,-1 15,-4 3,-2 5,-6 5,-9 0,-4 -1,-6 -4,-8 -2,-1 -7,-3 -15,-5 -11,-3 -19,-5 -23,-7 -4,-2 -7,-5 -9,-8 -2,-4 -3,-8 -3,-12 0,-4 1,-7 2,-11 2,-3 4,-6 7,-8 3,-1 6,-3 10,-4 4,-1 8,-2 12,-2 7,0 13,1 18,3 5,2 9,5 12,8 2,3 4,8 5,14l-15 2c0,-5 -2,-8 -5,-11 -3,-3 -8,-4 -14,-4 -6,0 -11,1 -14,4 -3,2 -4,4 -4,7 0,2 0,4 2,5 1,2 3,3 5,4 2,1 6,2 13,4 10,3 18,5 22,7 4,2 7,4 9,8 3,3 4,7 4,12 0,5 -1,10 -4,14 -3,4 -7,7 -13,10 -5,2 -11,3 -18,3 -11,0 -20,-2 -26,-7 -5,-4 -9,-11 -11,-20z"/>
  <path id="3" class="fil1" d="M2665 1963l2 13c-4,0 -8,1 -11,1 -6,0 -10,-1 -13,-3 -2,-1 -5,-4 -6,-6 -1,-3 -2,-9 -2,-18l0 -49 -10 0 0 -12 10 0 0 -21 15 -9 0 30 15 0 0 12 -15 0 0 50c0,4 0,7 1,8 0,2 1,2 2,3 2,1 3,1 5,1 2,0 4,0 7,0z"/>
  <rect class="fil0 str1" x="729" y="439" width="183" height="750"/>
  <path class="fil1" d="M436 429c-8,-10 -15,-22 -21,-35 -5,-14 -8,-28 -8,-43 0,-13 2,-25 6,-37 5,-14 13,-27 23,-41l10 0c-6,11 -11,19 -13,24 -3,8 -6,15 -8,24 -2,10 -3,20 -3,30 0,26 8,52 24,78l-10 0z"/>
  <path id="1" class="fil1" d="M453 394l32 -44 -29 -42 18 0 13 20c3,4 5,7 6,10 3,-4 5,-7 7,-10l14 -20 18 0 -29 42 31 44 -18 0 -18 -26 -4 -7 -23 33 -18 0z"/>
  <path id="2" class="fil1" d="M550 394l0 -16 17 0 0 16c0,6 -1,11 -3,15 -2,4 -6,7 -11,9l-4 -6c3,-2 6,-4 7,-6 2,-3 3,-7 3,-12l-9 0z"/>
  <path id="3" class="fil1" d="M592 428l-1 -14c3,1 6,1 8,1 3,0 6,0 8,-1 2,-1 3,-3 5,-5 0,-1 2,-5 4,-11 0,-1 1,-2 1,-3l-32 -87 15 0 18 50c3,6 5,13 7,20 1,-7 3,-13 6,-20l18 -50 15 0 -33 88c-4,9 -6,16 -8,19 -3,5 -6,9 -9,11 -4,2 -8,3 -12,3 -3,0 -6,0 -10,-1z"/>
  <path id="4" class="fil1" d="M686 429l-11 0c17,-26 25,-52 25,-78 0,-10 -1,-20 -4,-30 -2,-8 -4,-16 -8,-24 -2,-4 -6,-13 -13,-24l11 0c10,14 18,27 22,41 5,12 7,24 7,37 0,15 -3,29 -9,43 -5,13 -12,25 -20,35z"/>
 </g>
</svg>
