<svg xmlns="http://www.w3.org/2000/svg" width="256" height="256" viewBox="0 0 256 256" preserveAspectRatio="xMidYMid" version="1"><style>.a{fill:none;stroke-linecap:round;stroke-width:6;stroke:#000;}.b{fill:none;stroke-linecap:round;stroke-linejoin:round;stroke-width:6;stroke:#000;}</style><path d="M127.5 21.9V227.9" class="a"/><path d="M97.8 85.5A29.9 29.9 0 0 1 68.9 58.4 29.9 29.9 0 0 1 92.3 26.4 29.9 29.9 0 0 1 126.9 45.8" class="b"/><path d="m126 191.9c0 18.3-14.8 33.1-33.1 33.1-18.3 0-33.1-14.8-33.2-33.1 0-18.3 14.7-33.1 33-33.2" class="b"/><path d="M61.2 201.4A33.6 33.6 0 0 1 32.6 187.1 33.6 33.6 0 0 1 28.9 155.4" class="b"/><path d="m39.9 87.4c-2.2-9.6-0.1-19.6 5.8-27.5 5.8-7.9 14.8-12.8 24.6-13.5" class="b"/><path d="M28.3 155.2C19.6 145.1 15.9 131.7 18 118.6 20.2 105.5 28 94 39.5 87.3" class="b"/><path d="m44.1 110.4c5.2 0 10.1 2.8 12.7 7.4 2.6 4.6 2.6 10.2-0.1 14.7-2.7 4.5-7.5 7.3-12.8 7.2" class="b"/><path d="M127.4 116C94.2 83.7 87.6 140.3 58.7 125.3" class="a"/><path d="m92.8 158.8c4.3-10.7 9.9-16.5 16.6-18.9" class="a"/><path d="M65.3 173.6C55.8 171.2 50.6 165.8 47.8 158.6" class="a"/><path d="m127.3 172.8c-18.1-1.6-23.8 7.5-29.1 17.1" class="a"/><path d="M75.9 75.4C64.5 81.1 62.2 86.9 60 92.7" class="a"/><path d="M127.5 68.4C111.7 68.1 103.9 61.6 98.3 53.4" class="a"/><path d="M93.2 112.9C85.5 109.4 75.4 109.7 75.2 94.2" class="a"/><path d="m76.2 125.8c6.2 12.6 0.6 19.3-6.6 25.2" class="a"/><circle cx="182.7" cy="47.2" r="13.3" class="b"/><circle cx="216.4" cy="76.7" r="13.3" class="b"/><circle cx="220.7" cy="122.6" r="13.3" class="b"/><circle cx="216" cy="169.1" r="13.3" class="b"/><circle cx="182.2" cy="207" r="13.3" class="b"/><path d="M174 196.7 152.9 165.2H127.5" class="a"/><path d="M202.4 169.1H190.6L174.3 144.3h-46" class="a"/><path d="M207.1 122.6H127.8" class="a"/><path d="m202.7 76.3h-12l-16.7 24.4h-45.9" class="a"/><path d="m173.6 56.7-19.2 23.1h-26.1" class="a"/></svg>