<?xml version="1.0" encoding="UTF-8" standalone="no"?>
<svg
   xmlns:dc="http://purl.org/dc/elements/1.1/"
   xmlns:cc="http://creativecommons.org/ns#"
   xmlns:rdf="http://www.w3.org/1999/02/22-rdf-syntax-ns#"
   xmlns:svg="http://www.w3.org/2000/svg"
   xmlns="http://www.w3.org/2000/svg"
   xmlns:sodipodi="http://sodipodi.sourceforge.net/DTD/sodipodi-0.dtd"
   xmlns:inkscape="http://www.inkscape.org/namespaces/inkscape"
   version="1.1"
   id="svg2"
   width="1067"
   height="887"
   viewBox="0 0 1067 887"
   sodipodi:docname="github.svg"
   inkscape:version="1.0.1 (1.0.1+r73)">
  <metadata
     id="metadata8">
    <rdf:RDF>
      <cc:Work
         rdf:about="">
        <dc:format>image/svg+xml</dc:format>
        <dc:type
           rdf:resource="http://purl.org/dc/dcmitype/StillImage" />
        <dc:title />
      </cc:Work>
    </rdf:RDF>
  </metadata>
  <defs
     id="defs6" />
  <sodipodi:namedview
     pagecolor="#ffffff"
     bordercolor="#666666"
     borderopacity="1"
     objecttolerance="10"
     gridtolerance="10"
     guidetolerance="10"
     inkscape:pageopacity="0"
     inkscape:pageshadow="2"
     inkscape:window-width="2560"
     inkscape:window-height="1376"
     id="namedview4"
     showgrid="false"
     showguides="true"
     inkscape:guide-bbox="true"
     inkscape:zoom="1.1364149"
     inkscape:cx="510.63583"
     inkscape:cy="460.68235"
     inkscape:window-x="0"
     inkscape:window-y="27"
     inkscape:window-maximized="1"
     inkscape:current-layer="g10"
     inkscape:document-rotation="0" />
  <g
     inkscape:groupmode="layer"
     inkscape:label="Image"
     id="g10">
    <circle
       style="fill:#ffffff;fill-opacity:1;stroke-width:3.90874;stroke-dasharray:11.7263, 11.7263"
       id="path853"
       cx="533.5"
       cy="447.5"
       r="429.90134" />
    <path
       d="m 533.45964,9.941879 c -242.04398,0 -438.337961,196.267131 -438.337961,438.391841 0,193.65677 125.597041,357.97964 299.796441,415.97432 21.93312,4.00991 29.9259,-9.52675 29.9259,-21.15261 0,-10.41483 -0.37744,-37.97236 -0.59139,-74.54539 -121.93692,26.48114 -147.66458,-58.77518 -147.66458,-58.77518 -19.94158,-50.64779 -48.6833,-64.13055 -48.6833,-64.13055 -39.80242,-27.18091 3.01405,-26.6426 3.01405,-26.6426 44.00065,3.09478 67.1448,45.18464 67.1448,45.18464 39.10265,66.98333 102.61437,47.63373 127.58837,36.41155 3.98307,-28.311 15.31283,-47.63374 27.82678,-58.58667 -97.33974,-11.08777 -199.68486,-48.6833 -199.68486,-216.66629 0,-47.87594 17.08881,-86.97859 45.13095,-117.63111 -4.52117,-11.08756 -19.56495,-55.65336 4.30581,-116.0164 0,0 36.78838,-11.78734 120.53757,44.91558 34.95832,-9.71506 72.47331,-14.55917 109.74591,-14.74749 37.24594,0.18166 74.7339,5.03243 109.74611,14.74749 83.6953,-56.70292 120.42979,-44.91558 120.42979,-44.91558 23.92445,60.36304 8.88086,104.92884 4.38654,116.0164 28.09583,30.65252 45.05021,69.75517 45.05021,117.63111 0,168.41351 -102.50659,205.47095 -200.14222,216.3163 15.71631,13.53666 29.73738,40.28684 29.73738,81.19272 0,58.58687 -0.53891,105.87061 -0.53891,120.24147 0,11.73365 7.91204,25.37789 30.14105,21.09892 174.06498,-58.10246 299.55424,-222.2909 299.55424,-415.92063 0,-242.12471 -196.29398,-438.391841 -438.41868,-438.391841"
       style="fill:#1b1817;fill-opacity:1;fill-rule:evenodd;stroke:none;stroke-width:2.69116"
       id="path16" />
  </g>
</svg>
