<?xml version="1.0" encoding="UTF-8" standalone="no"?>
<svg
   xmlns:dc="http://purl.org/dc/elements/1.1/"
   xmlns:cc="http://creativecommons.org/ns#"
   xmlns:rdf="http://www.w3.org/1999/02/22-rdf-syntax-ns#"
   xmlns:svg="http://www.w3.org/2000/svg"
   xmlns="http://www.w3.org/2000/svg"
   xmlns:sodipodi="http://sodipodi.sourceforge.net/DTD/sodipodi-0.dtd"
   xmlns:inkscape="http://www.inkscape.org/namespaces/inkscape"
   width="256"
   height="256"
   viewBox="0 0 256 256"
   version="1.1"
   preserveAspectRatio="xMidYMid"
   id="svg7"
   sodipodi:docname="system.svg"
   inkscape:version="1.0.1 (1.0.1+r73)">
  <metadata
     id="metadata13">
    <rdf:RDF>
      <cc:Work
         rdf:about="">
        <dc:format>image/svg+xml</dc:format>
        <dc:type
           rdf:resource="http://purl.org/dc/dcmitype/StillImage" />
        <dc:title />
      </cc:Work>
    </rdf:RDF>
  </metadata>
  <defs
     id="defs11" />
  <sodipodi:namedview
     pagecolor="#ffffff"
     bordercolor="#666666"
     borderopacity="1"
     objecttolerance="10"
     gridtolerance="10"
     guidetolerance="10"
     inkscape:pageopacity="0"
     inkscape:pageshadow="2"
     inkscape:window-width="2560"
     inkscape:window-height="1376"
     id="namedview9"
     showgrid="false"
     showguides="true"
     inkscape:guide-bbox="true"
     inkscape:zoom="3.9375"
     inkscape:cx="181.43344"
     inkscape:cy="143.29348"
     inkscape:window-x="0"
     inkscape:window-y="27"
     inkscape:window-maximized="1"
     inkscape:current-layer="svg7"
     inkscape:document-rotation="0" />
  <path
     d="m 120.71439,18.96293 c -0.57678,2.162896 -1.20161,4.42192 -1.39388,5.022726 l -0.31241,1.105479 -1.51403,0.168235 c -0.8171,0.09612 -2.21096,0.336451 -3.10015,0.528707 -0.88919,0.216297 -1.73032,0.31242 -1.85048,0.240323 -0.12015,-0.09612 -1.44193,-1.898542 -2.9079,-4.061438 -1.49,-2.138865 -2.78773,-3.989341 -2.88385,-4.085472 -0.12015,-0.144182 -6.32047,2.475316 -6.65691,2.811766 -0.048,0.02403 0.52871,2.30709 1.27369,5.046758 0.72096,2.763702 1.29774,5.022726 1.24967,5.046759 -0.62483,0.456611 -3.220292,2.523379 -4.013362,3.220312 l -1.08146,0.937253 -4.638205,-2.234991 -4.638205,-2.234994 -2.042742,2.883862 c -1.129497,1.586123 -2.042742,2.955957 -2.042742,3.052088 0,0.09612 1.634203,1.77838 3.604831,3.773052 l 3.60483,3.604826 -0.793048,1.922574 c -0.456623,1.057417 -0.937254,2.427251 -1.105489,3.052089 -0.360478,1.321769 -0.04797,1.22564 -5.551428,1.634186 -1.778387,0.144183 -3.700963,0.31242 -4.22967,0.384516 l -0.985319,0.120152 -0.31242,3.460634 c -0.168235,1.922574 -0.264352,3.556763 -0.168235,3.628859 0.07209,0.07209 2.234992,0.720966 4.806452,1.4179 2.571433,0.696931 4.80644,1.321769 4.9506,1.417897 0.144138,0.09612 0.264357,0.576772 0.264357,1.057416 0,0.480644 0.216319,1.850479 0.4566,3.052087 0.240327,1.177577 0.408562,2.234993 0.360501,2.331122 -0.07218,0.09612 -1.94662,1.44193 -4.181605,2.97999 -2.259017,1.538059 -4.085463,2.907893 -4.085463,3.028054 0,0.264354 2.619496,6.008046 2.835792,6.248368 0.144138,0.144205 7.353844,-1.586124 9.564798,-2.30709 0.408562,-0.120152 0.72098,0.144205 1.850476,1.586124 0.72098,0.961288 1.658233,2.066768 2.066772,2.451283 0.40854,0.408546 0.745012,0.793062 0.745012,0.88919 0,0.09612 -0.985338,2.259025 -2.162895,4.782404 -1.201611,2.547412 -2.162917,4.662238 -2.114856,4.686268 0.600828,0.528714 5.647571,3.965311 5.839841,3.965311 0.14414,0 1.850472,-1.61015 3.821102,-3.580779 l 3.5808,-3.580805 1.22564,0.55274 c 0.6729,0.288387 1.99468,0.769031 2.9079,1.081449 0.93726,0.288385 1.75434,0.624835 1.87451,0.696933 0.0962,0.09612 0.33645,2.379179 0.55274,5.094812 0.21632,2.691612 0.4566,4.974685 0.55273,5.070805 0.0722,0.0962 1.70629,0.31242 3.60483,0.48063 2.81176,0.26436 3.46064,0.28839 3.55677,0.024 0.0722,-0.16835 0.69692,-2.403223 1.39387,-4.950643 l 1.24967,-4.61418 0.81708,-0.168123 c 0.45662,-0.09617 1.92259,-0.360492 3.29241,-0.600814 l 2.45129,-0.456611 2.95596,4.253696 c 2.83579,4.085462 2.95596,4.229662 3.53274,3.965312 0.33645,-0.14414 1.80239,-0.8171 3.29239,-1.51403 l 2.69161,-1.249672 -1.20161,-4.518051 c -0.64887,-2.475316 -1.24967,-4.73434 -1.32177,-5.022727 -0.0962,-0.408547 0.12016,-0.696932 1.15355,-1.417898 0.69693,-0.504676 1.82645,-1.465962 2.52338,-2.114833 l 1.24967,-1.177575 4.71032,2.210959 c 2.57143,1.225643 4.73432,2.186929 4.78238,2.138866 0.33645,-0.384516 3.7971,-5.359178 3.86919,-5.575468 0.048,-0.168235 -1.51403,-1.970637 -3.46062,-4.013374 -3.17227,-3.292408 -3.55677,-3.773052 -3.31645,-4.205631 0.14414,-0.264355 0.64887,-1.610156 1.15355,-3.004023 l 0.88917,-2.523379 2.95597,-0.264353 c 1.6342,-0.168235 3.96531,-0.360483 5.16692,-0.456611 l 2.18692,-0.168235 0.28839,-2.907893 c 0.14413,-1.610156 0.26435,-3.268378 0.26435,-3.652891 v -0.720966 l -4.92659,-1.321771 c -4.2537,-1.129512 -4.95062,-1.369834 -5.02274,-1.802413 -0.048,-0.264355 -0.26433,-1.562091 -0.4566,-2.883862 -0.21631,-1.321769 -0.43257,-2.571442 -0.52871,-2.763699 -0.0962,-0.264355 1.05743,-1.177578 4.18161,-3.340474 l 4.30175,-2.955957 -1.48999,-3.220313 c -0.91323,-1.994672 -1.61015,-3.19628 -1.82645,-3.220312 -0.19233,0 -2.37919,0.552739 -4.8545,1.201608 -4.59015,1.225642 -5.23901,1.345803 -5.23901,1.009351 0,-0.120152 -0.86516,-1.249673 -1.92257,-2.54741 l -1.94662,-2.331122 2.06677,-4.373857 c 1.15355,-2.403218 2.13887,-4.494016 2.21096,-4.63821 0.048,-0.168235 -1.22564,-1.225641 -2.85982,-2.355155 l -2.93194,-2.066765 -3.65289,3.628858 -3.65289,3.652891 -2.13886,-0.865159 c -1.15355,-0.456612 -2.57144,-0.961286 -3.10015,-1.10548 -1.15355,-0.312418 -1.03337,0.168235 -1.56209,-6.801106 l -0.28839,-3.773054 -0.98531,-0.144183 c -0.96128,-0.120152 -5.79175,-0.600805 -6.1282,-0.600805 -0.0722,0 -0.62484,1.75435 -1.20161,3.893214 z m 4.54208,14.251082 c 9.37254,1.4179 17.27912,8.026749 20.30718,16.96672 0.88919,2.619507 1.32178,5.263047 1.32178,8.26707 0,5.911916 -1.8745,11.271092 -5.52739,15.813176 -3.53274,4.397887 -8.09886,7.377878 -13.60223,8.84384 -2.73966,0.744999 -8.36321,0.913225 -11.15093,0.336453 C 106.9199,81.470632 99.373818,74.477267 96.778331,65.032619 95.913169,61.9565 95.696873,57.005873 96.273647,53.929752 97.307045,48.49848 99.806388,43.884301 103.81975,40.01512 c 5.76773,-5.551433 13.53014,-8.026749 21.43672,-6.801108 z"
     id="path839"
     style="fill:#000000;stroke:none;stroke-width:0.0240322" />
  <path
     d="m 186.65457,122.54195 -1.27371,5.04677 -1.82644,0.28839 c -1.00937,0.14414 -2.45128,0.43257 -3.24435,0.62483 -0.76904,0.19234 -1.41791,0.33645 -1.46597,0.28839 -0.024,-0.048 -1.32176,-1.85047 -2.88385,-4.0374 -1.53806,-2.18692 -2.90791,-4.06145 -3.00403,-4.15757 -0.26435,-0.28839 -6.75304,2.85982 -6.60885,3.24435 0.24032,0.67289 2.73967,9.66092 2.6916,9.709 -1.70629,1.32176 -3.1482,2.52337 -3.94127,3.29239 l -1.00935,0.96131 -4.59014,-2.09081 c -2.5234,-1.12951 -4.66226,-2.06677 -4.78241,-2.06677 -0.12015,0 -1.10549,1.32176 -2.18693,2.90791 l -1.99468,2.93191 3.67692,3.62886 3.6529,3.62886 -0.40854,1.08146 c -0.24033,0.6008 -0.69693,1.9466 -1.0334,3.004 -0.33645,1.05743 -0.64887,1.97065 -0.69693,2.01871 -0.048,0.0722 -2.37919,0.33645 -5.19095,0.60081 l -5.09483,0.50468 -0.16812,1.92257 c -0.0962,1.05743 -0.21632,2.69161 -0.31242,3.62886 l -0.14413,1.70629 5.04676,1.2737 5.04677,1.2737 0.16812,1.10549 c 0.14414,1.03338 0.60081,3.50869 0.91323,4.83045 0.12015,0.55275 -0.21632,0.84113 -4.08547,3.5808 -2.30709,1.6342 -4.1816,3.05209 -4.13354,3.14823 0.84113,2.06675 3.00403,6.24836 3.24435,6.24836 0.19234,0 2.45128,-0.60081 5.07078,-1.3458 l 4.73435,-1.32178 0.6008,0.76904 c 0.33645,0.43257 1.29773,1.58612 2.13887,2.57143 l 1.51402,1.75436 -2.06677,4.51805 c -1.12952,2.49934 -2.06677,4.61418 -2.06677,4.73435 0,0.12015 1.32178,1.1295 2.95596,2.23499 l 2.93194,1.99465 3.62886,-3.77304 c 3.48465,-3.62886 3.65289,-3.77304 4.20561,-3.46063 0.31242,0.16813 1.70629,0.69693 3.10017,1.17756 l 2.52337,0.86516 0.48066,4.92662 c 0.26433,2.69158 0.55272,5.02271 0.64886,5.16692 0.12015,0.16812 1.44192,0.33645 3.24433,0.43257 1.7063,0.0962 3.24435,0.21632 3.46065,0.28839 0.31242,0.0722 0.6008,-0.81711 1.65821,-4.95063 1.12952,-4.3979 1.34581,-5.0708 1.77838,-5.14289 0.28839,-0.048 1.49,-0.26435 2.66758,-0.48065 1.20161,-0.21632 2.42725,-0.43257 2.7637,-0.52871 0.57678,-0.12016 0.84113,0.19233 3.48466,3.89321 1.58614,2.21096 2.95596,4.10952 3.02805,4.22967 0.0722,0.12015 1.58612,-0.50468 3.36451,-1.36982 2.42725,-1.20161 3.19629,-1.68227 3.14823,-1.99468 -0.0482,-0.21632 -0.67292,-2.47532 -1.39388,-4.97466 l -1.2737,-4.56611 0.76902,-0.60081 c 0.40856,-0.33644 1.53806,-1.2737 2.49936,-2.11483 0.96129,-0.8171 1.80242,-1.49 1.87451,-1.49 0.0722,0 2.18692,0.93726 4.71029,2.06678 2.5234,1.15352 4.66226,1.97062 4.75838,1.8745 0.0962,-0.12015 1.03338,-1.44193 2.06678,-2.95596 l 1.8745,-2.71564 -3.67692,-3.67692 -3.67692,-3.67692 0.86516,-2.37919 c 0.48063,-1.29774 0.96129,-2.69161 1.08144,-3.07612 l 0.21632,-0.72096 5.07077,-0.50468 c 2.81178,-0.28839 5.14289,-0.55274 5.19097,-0.60081 0.12015,-0.14413 0.64887,-6.99336 0.55272,-7.08948 -0.048,-0.0722 -2.30707,-0.6729 -5.04674,-1.36985 l -4.92659,-1.24967 -0.28839,-1.85047 c -0.14414,-1.03338 -0.43259,-2.49935 -0.62484,-3.24436 -0.19233,-0.74498 -0.26435,-1.41788 -0.16834,-1.51402 0.0962,-0.0962 1.92256,-1.39386 4.0374,-2.88386 2.11483,-1.48999 3.94128,-2.78772 4.03742,-2.88387 0.31242,-0.26433 -2.85984,-6.75304 -3.24435,-6.60883 -0.16835,0.0722 -2.25904,0.67289 -4.63821,1.32176 -2.37919,0.6729 -4.49402,1.2737 -4.71032,1.32176 -0.26435,0.0962 -0.6008,-0.16812 -0.98531,-0.76902 -0.33645,-0.50468 -1.29773,-1.65823 -2.11483,-2.5474 l -1.49,-1.6342 2.06677,-4.54208 c 1.12952,-2.52338 2.06677,-4.66224 2.06677,-4.78241 0,-0.12016 -1.32178,-1.10547 -2.9079,-2.18693 l -2.90788,-1.97063 -3.67695,3.65289 -3.67692,3.67693 -1.0574,-0.4326 c -0.55275,-0.2403 -1.9466,-0.72095 -3.07612,-1.08143 l -2.04274,-0.64887 -0.48065,-5.14289 -0.48063,-5.14288 -2.04275,-0.16813 c -1.12951,-0.0722 -2.76369,-0.21632 -3.62886,-0.31242 l -1.58612,-0.14413 z m 6.84915,13.38593 c 5.57549,1.15355 11.10288,4.59017 14.68368,9.08417 1.80242,2.25903 3.91725,6.36852 4.63821,9.06013 2.45128,9.08417 -0.0962,18.50479 -6.8011,25.06556 -9.90127,9.68497 -25.9788,9.61288 -35.71183,-0.12015 -5.04675,-5.04675 -7.49803,-10.91062 -7.54611,-17.97607 -0.048,-6.48868 1.94662,-11.8719 6.22434,-16.91867 3.72499,-4.37385 9.92528,-7.71432 15.86124,-8.53142 2.23498,-0.31242 6.27241,-0.14414 8.65157,0.33645 z"
     id="path845"
     style="fill:#000000;stroke:none;stroke-width:0.0240322" />
  <path
     d="m 64.973027,79.839134 -1.27371,5.04677 -1.82644,0.28839 c -1.00937,0.14414 -2.45128,0.43257 -3.24435,0.62483 -0.76904,0.19234 -1.41791,0.33645 -1.46597,0.28839 -0.024,-0.048 -1.32176,-1.85047 -2.88385,-4.0374 -1.53806,-2.18692 -2.90791,-4.06145 -3.00403,-4.15757 -0.26435,-0.28839 -6.75304,2.85982 -6.60885,3.24435 0.24032,0.67289 2.73967,9.660916 2.6916,9.708996 -1.70629,1.32176 -3.1482,2.52337 -3.94127,3.29239 l -1.00935,0.96131 -4.59014,-2.09081 c -2.5234,-1.12951 -4.66226,-2.06677 -4.78241,-2.06677 -0.12015,0 -1.10549,1.32176 -2.18693,2.90791 l -1.99468,2.931907 3.67692,3.628863 3.6529,3.62886 -0.40854,1.08146 c -0.24033,0.6008 -0.69693,1.9466 -1.0334,3.004 -0.33645,1.05743 -0.64887,1.97065 -0.69693,2.01871 -0.048,0.0722 -2.37919,0.33645 -5.19095,0.60081 l -5.09483,0.50468 -0.16812,1.92257 c -0.0962,1.05743 -0.21632,2.69161 -0.31242,3.62886 l -0.14413,1.70629 5.04676,1.2737 5.04677,1.2737 0.16812,1.10549 c 0.14414,1.03338 0.60081,3.50869 0.91323,4.83045 0.12015,0.55275 -0.21632,0.84113 -4.08547,3.5808 -2.30709,1.6342 -4.1816,3.05209 -4.13354,3.14823 0.84113,2.06675 3.00403,6.24836 3.24435,6.24836 0.19234,0 2.45128,-0.60081 5.07078,-1.3458 l 4.73435,-1.32178 0.6008,0.76904 c 0.33645,0.43257 1.29773,1.58612 2.13887,2.57143 l 1.51402,1.75436 -2.06677,4.51805 c -1.12952,2.49934 -2.06677,4.61418 -2.06677,4.73435 0,0.12015 1.32178,1.1295 2.95596,2.23499 l 2.93194,1.99465 3.62886,-3.77304 c 3.48465,-3.62886 3.65289,-3.77304 4.20561,-3.46063 0.31242,0.16813 1.70629,0.69693 3.10017,1.17756 l 2.52337,0.86516 0.48066,4.92662 c 0.26433,2.69158 0.55272,5.02271 0.64886,5.16692 0.12015,0.16812 1.44192,0.33645 3.24433,0.43257 1.7063,0.0962 3.24435,0.21632 3.46065,0.28839 0.31242,0.0722 0.6008,-0.81711 1.65821,-4.95063 1.12952,-4.3979 1.34581,-5.0708 1.77838,-5.14289 0.28839,-0.048 1.49,-0.26435 2.66758,-0.48065 1.20161,-0.21632 2.42725,-0.43257 2.7637,-0.52871 0.57678,-0.12016 0.84113,0.19233 3.48466,3.89321 1.58614,2.21096 2.95596,4.10952 3.02805,4.22967 0.0722,0.12015 1.58612,-0.50468 3.36451,-1.36982 2.42725,-1.20161 3.19629,-1.68227 3.14823,-1.99468 -0.0482,-0.21632 -0.67292,-2.47532 -1.39388,-4.97466 l -1.2737,-4.56611 0.76902,-0.60081 c 0.40856,-0.33644 1.53806,-1.2737 2.49936,-2.11483 0.96129,-0.8171 1.80242,-1.49 1.87451,-1.49 0.0722,0 2.18692,0.93726 4.71029,2.06678 2.523401,1.15352 4.662263,1.97062 4.758383,1.8745 0.0962,-0.12015 1.03338,-1.44193 2.06678,-2.95596 l 1.8745,-2.71564 -3.67692,-3.67692 -3.676923,-3.67692 0.865161,-2.37919 c 0.48063,-1.29774 0.96129,-2.69161 1.08144,-3.07612 l 0.21632,-0.72096 5.070772,-0.50468 c 2.81178,-0.28839 5.14289,-0.55274 5.19097,-0.60081 0.12015,-0.14413 0.64887,-6.99336 0.55272,-7.08948 -0.048,-0.0722 -2.30707,-0.6729 -5.04674,-1.36985 l -4.926592,-1.24967 -0.28839,-1.85047 c -0.14414,-1.03338 -0.43259,-2.49935 -0.62484,-3.24436 -0.19233,-0.74498 -0.26435,-1.41788 -0.16834,-1.51402 0.0962,-0.0962 1.922562,-1.39386 4.037402,-2.88386 2.11483,-1.48999 3.94128,-2.78772 4.03742,-2.88387 0.31242,-0.26433 -2.85984,-6.753043 -3.24435,-6.608833 -0.16835,0.0722 -2.25904,0.67289 -4.638212,1.32176 -2.379191,0.6729 -4.494021,1.2737 -4.710321,1.32176 -0.26435,0.0962 -0.6008,-0.16812 -0.98531,-0.76902 -0.33645,-0.50468 -1.29773,-1.65823 -2.11483,-2.547397 l -1.49,-1.6342 2.06677,-4.54208 c 1.12952,-2.523376 2.06677,-4.662236 2.06677,-4.782406 0,-0.12016 -1.32178,-1.10547 -2.9079,-2.18693 l -2.90788,-1.97063 -3.67695,3.65289 -3.67692,3.676926 -1.0574,-0.4326 c -0.55275,-0.240296 -1.9466,-0.720946 -3.07612,-1.081426 l -2.04274,-0.64887 -0.48065,-5.14289 -0.48063,-5.14288 -2.04275,-0.16813 c -1.12951,-0.0722 -2.76369,-0.21632 -3.62886,-0.31242 l -1.58612,-0.14413 z m 6.84915,13.385926 c 5.57549,1.15355 11.10288,4.590167 14.68368,9.08417 1.80242,2.25903 3.91725,6.36852 4.63821,9.06013 2.45128,9.08417 -0.0962,18.50479 -6.8011,25.06556 -9.90127,9.68497 -25.9788,9.61288 -35.71183,-0.12015 -5.04675,-5.04675 -7.49803,-10.91062 -7.54611,-17.97607 -0.048,-6.48868 1.94662,-11.8719 6.22434,-16.91867 3.72499,-4.373853 9.92528,-7.71432 15.86124,-8.53142 2.23498,-0.31242 6.27241,-0.14414 8.65157,0.33645 z"
     id="path845-3"
     style="fill:#000000;stroke:none;stroke-width:0.0240322" />
  <path
     d="m 108.86828,148.22689 -1.27371,5.04677 -1.82644,0.28839 c -1.00937,0.14414 -2.45128,0.43257 -3.24435,0.62483 -0.76904,0.19234 -1.41791,0.33645 -1.46597,0.28839 -0.024,-0.048 -1.321762,-1.85047 -2.883852,-4.0374 -1.53806,-2.18692 -2.90791,-4.06145 -3.00403,-4.15757 -0.26435,-0.28839 -6.75304,2.85982 -6.60885,3.24435 0.24032,0.67289 2.73967,9.66092 2.6916,9.709 -1.70629,1.32176 -3.1482,2.52337 -3.94127,3.29239 l -1.00935,0.96131 -4.59014,-2.09081 c -2.5234,-1.12951 -4.66226,-2.06677 -4.78241,-2.06677 -0.12015,0 -1.10549,1.32176 -2.18693,2.90791 l -1.99468,2.9319 3.67692,3.62886 3.6529,3.62886 -0.40854,1.08146 c -0.24033,0.6008 -0.69693,1.9466 -1.0334,3.004 -0.33645,1.05743 -0.64887,1.97065 -0.69693,2.01871 -0.048,0.0722 -2.37919,0.33645 -5.19095,0.60081 l -5.09483,0.50468 -0.16812,1.92257 c -0.0962,1.05743 -0.21632,2.69161 -0.31242,3.62886 l -0.14413,1.70629 5.04676,1.2737 5.04677,1.2737 0.16812,1.10549 c 0.14414,1.03338 0.60081,3.50869 0.91323,4.83045 0.12015,0.55275 -0.21632,0.84113 -4.08547,3.5808 -2.30709,1.6342 -4.1816,3.05209 -4.13354,3.14823 0.84113,2.06675 3.00403,6.24836 3.24435,6.24836 0.19234,0 2.45128,-0.60081 5.07078,-1.3458 l 4.73435,-1.32178 0.6008,0.76904 c 0.33645,0.43257 1.29773,1.58612 2.13887,2.57143 l 1.51402,1.75436 -2.06677,4.51805 c -1.12952,2.49934 -2.06677,4.61418 -2.06677,4.73435 0,0.12015 1.32178,1.1295 2.95596,2.23499 l 2.93194,1.99465 3.62886,-3.77304 c 3.48465,-3.62886 3.65289,-3.77304 4.20561,-3.46063 0.31242,0.16813 1.70629,0.69693 3.10017,1.17756 l 2.523372,0.86516 0.48066,4.92662 c 0.26433,2.69158 0.55272,5.02271 0.64886,5.16692 0.12015,0.16812 1.44192,0.33645 3.24433,0.43257 1.7063,0.0962 3.24435,0.21632 3.46065,0.28839 0.31242,0.0722 0.6008,-0.81711 1.65821,-4.95063 1.12952,-4.3979 1.34581,-5.0708 1.77838,-5.14289 0.28839,-0.048 1.49,-0.26435 2.66758,-0.48065 1.20161,-0.21632 2.42725,-0.43257 2.7637,-0.52871 0.57678,-0.12016 0.84113,0.19233 3.48466,3.89321 1.58614,2.21096 2.95596,4.10952 3.02805,4.22967 0.0722,0.12015 1.58612,-0.50468 3.36451,-1.36982 2.42725,-1.20161 3.19629,-1.68227 3.14823,-1.99468 -0.0482,-0.21632 -0.67292,-2.47532 -1.39388,-4.97466 l -1.2737,-4.56611 0.76902,-0.60081 c 0.40856,-0.33644 1.53806,-1.2737 2.49936,-2.11483 0.96129,-0.8171 1.80242,-1.49 1.87451,-1.49 0.0722,0 2.18692,0.93726 4.71029,2.06678 2.52341,1.15352 4.66227,1.97062 4.75839,1.8745 0.0962,-0.12015 1.03338,-1.44193 2.06678,-2.95596 l 1.8745,-2.71564 -3.67692,-3.67692 -3.67693,-3.67692 0.86517,-2.37919 c 0.48063,-1.29774 0.96129,-2.69161 1.08144,-3.07612 l 0.21632,-0.72096 5.07077,-0.50468 c 2.81178,-0.28839 5.14289,-0.55274 5.19097,-0.60081 0.12015,-0.14413 0.64887,-6.99336 0.55272,-7.08948 -0.048,-0.0722 -2.30707,-0.6729 -5.04674,-1.36985 l -4.92659,-1.24967 -0.28839,-1.85047 c -0.14414,-1.03338 -0.43259,-2.49935 -0.62484,-3.24436 -0.19233,-0.74498 -0.26435,-1.41788 -0.16834,-1.51402 0.0962,-0.0962 1.92256,-1.39386 4.0374,-2.88386 2.11483,-1.48999 3.94128,-2.78772 4.03742,-2.88387 0.31242,-0.26433 -2.85984,-6.75304 -3.24435,-6.60883 -0.16835,0.0722 -2.25904,0.67289 -4.63821,1.32176 -2.3792,0.6729 -4.49403,1.2737 -4.71033,1.32176 -0.26435,0.0962 -0.6008,-0.16812 -0.98531,-0.76902 -0.33645,-0.50468 -1.29773,-1.65823 -2.11483,-2.54739 l -1.49,-1.6342 2.06677,-4.54208 c 1.12952,-2.52338 2.06677,-4.66224 2.06677,-4.78241 0,-0.12016 -1.32178,-1.10547 -2.9079,-2.18693 l -2.90788,-1.97063 -3.67695,3.65289 -3.67692,3.67693 -1.0574,-0.4326 c -0.55275,-0.2403 -1.9466,-0.72095 -3.07612,-1.08143 l -2.04274,-0.64887 -0.48065,-5.14289 -0.48063,-5.14288 -2.04275,-0.16813 c -1.12951,-0.0722 -2.76369,-0.21632 -3.62886,-0.31242 l -1.58612,-0.14413 z m 6.84915,13.38593 c 5.57549,1.15355 11.10288,4.59016 14.68368,9.08416 1.80242,2.25903 3.91725,6.36852 4.63821,9.06013 2.45128,9.08417 -0.0962,18.50479 -6.8011,25.06556 -9.90127,9.68497 -25.9788,9.61288 -35.711832,-0.12015 -5.04675,-5.04675 -7.49803,-10.91062 -7.54611,-17.97607 -0.048,-6.48868 1.94662,-11.8719 6.22434,-16.91867 3.72499,-4.37385 9.925282,-7.71431 15.861242,-8.53141 2.23498,-0.31242 6.27241,-0.14414 8.65157,0.33645 z"
     id="path845-3-6"
     style="fill:#000000;stroke:none;stroke-width:0.0240322" />
</svg>
