<?xml version="1.0" encoding="UTF-8" standalone="no"?>
<!-- Creator: CorelDRAW X7 -->

<svg
   xml:space="preserve"
   width="1024in"
   height="256in"
   version="1.1"
   style="clip-rule:evenodd;fill-rule:evenodd;image-rendering:optimizeQuality;shape-rendering:geometricPrecision;text-rendering:geometricPrecision"
   viewBox="0 0 1024000 256000"
   id="svg83"
   sodipodi:docname="gate2011A24.svg"
   inkscape:version="1.1.2 (0a00cf5339, 2022-02-04)"
   xmlns:inkscape="http://www.inkscape.org/namespaces/inkscape"
   xmlns:sodipodi="http://sodipodi.sourceforge.net/DTD/sodipodi-0.dtd"
   xmlns="http://www.w3.org/2000/svg"
   xmlns:svg="http://www.w3.org/2000/svg"><sodipodi:namedview
   id="namedview85"
   pagecolor="#ffffff"
   bordercolor="#666666"
   borderopacity="1.0"
   inkscape:pageshadow="2"
   inkscape:pageopacity="0.0"
   inkscape:pagecheckerboard="0"
   inkscape:document-units="in"
   showgrid="false"
   width="1024in"
   inkscape:zoom="0.014021676"
   inkscape:cx="66254.563"
   inkscape:cy="18507.06"
   inkscape:window-width="3840"
   inkscape:window-height="2117"
   inkscape:window-x="0"
   inkscape:window-y="0"
   inkscape:window-maximized="1"
   inkscape:current-layer="Layer_x0020_1" />
 <defs
   id="defs4">
  <style
   type="text/css"
   id="style2">
   <![CDATA[
    .str0 {stroke:#373435;stroke-width:27.7795}
    .str1 {stroke:#373435;stroke-width:20.8346}
    .fil0 {fill:none}
    .fil1 {fill:#373435;fill-rule:nonzero}
   ]]>
  </style>
 </defs>
 <g
   id="Layer_x0020_1"
   inkscape:label="Layer 1"
   inkscape:groupmode="layer">
  <metadata
   id="CorelCorpID_0Corel-Layer" />
  <line
   class="fil0 str0"
   x1="52000.625"
   y1="51625.773"
   x2="52000.625"
   y2="231963.03"
   id="line7"
   style="stroke-width:3678.27;stroke-miterlimit:4;stroke-dasharray:none" />
  <line
   class="fil0 str0"
   x1="141983.19"
   y1="51439.672"
   x2="141983.19"
   y2="231776.94"
   id="line9"
   style="stroke-width:3678.27;stroke-miterlimit:4;stroke-dasharray:none" />
  <line
   class="fil0 str0"
   x1="231965.69"
   y1="51439.672"
   x2="231965.69"
   y2="231776.94"
   id="line11"
   style="stroke-width:3678.27;stroke-miterlimit:4;stroke-dasharray:none" />
  <line
   class="fil0 str0"
   x1="321855.16"
   y1="51439.672"
   x2="321855.16"
   y2="231776.94"
   id="line13"
   style="stroke-width:3678.27;stroke-miterlimit:4;stroke-dasharray:none" />
  <line
   class="fil0 str0"
   x1="411837.66"
   y1="51439.672"
   x2="411837.66"
   y2="231776.94"
   id="line15"
   style="stroke-width:3678.27;stroke-miterlimit:4;stroke-dasharray:none" />
  <line
   class="fil0 str0"
   x1="52000.625"
   y1="51625.773"
   x2="411837.66"
   y2="51439.672"
   id="line17"
   style="stroke-width:3678.27;stroke-miterlimit:4;stroke-dasharray:none" />
  <line
   class="fil0 str0"
   x1="52000.625"
   y1="231963.03"
   x2="411837.66"
   y2="231963.03"
   id="line19"
   style="stroke-width:3678.27;stroke-miterlimit:4;stroke-dasharray:none" />
  <line
   class="fil0 str0"
   x1="52000.625"
   y1="141794.42"
   x2="411837.66"
   y2="141794.42"
   id="line21"
   style="stroke-width:3678.27;stroke-miterlimit:4;stroke-dasharray:none" />
  <line
   class="fil0 str0"
   x1="52000.625"
   y1="51625.773"
   x2="8451.6973"
   y2="8169.9043"
   id="line23"
   style="stroke-width:3678.27;stroke-miterlimit:4;stroke-dasharray:none" />
  <path
   class="fil1"
   d="m 56839.398,66979.57 c 0,-2605.492 279.158,-4652.664 837.479,-6327.623 465.265,-1581.903 1302.745,-2791.597 2326.331,-3722.13 1116.641,-837.48 2419.385,-1209.692 4094.344,-1209.692 1116.639,0 2233.278,186.106 3070.757,651.374 930.533,465.265 1674.96,1209.691 2233.278,2140.224 558.321,837.479 1023.588,1954.118 1395.8,3256.863 279.16,1302.747 465.265,3070.759 465.265,5210.984 0,2605.492 -279.159,4745.716 -744.424,6327.622 -558.32,1674.959 -1395.8,2884.655 -2419.386,3722.138 -1116.638,930.536 -2419.385,1302.747 -4001.29,1302.747 -2140.226,0 -3815.184,-744.43 -5117.93,-2233.283 -1395.798,-1861.069 -2140.224,-4931.829 -2140.224,-9119.224 z m 2791.597,93.053 c 0,3629.077 372.213,6048.463 1302.745,7258.155 837.479,1209.691 1861.065,1768.016 3163.812,1768.016 1209.693,0 2233.278,-558.325 3163.811,-1768.016 837.479,-1209.692 1209.692,-3629.078 1209.692,-7258.155 0,-3722.131 -372.213,-6141.514 -1209.692,-7351.208 -930.533,-1209.692 -1954.118,-1768.013 -3256.864,-1768.013 -1209.694,0 -2233.28,558.321 -2977.705,1581.907 -930.533,1395.8 -1395.799,3815.183 -1395.799,7537.314 z"
   id="path25"
   style="stroke-width:93.0536" />
  <path
   class="fil1"
   d="m 155382.82,77959.866 h -2791.59 V 60558.895 c -651.37,651.373 -1488.86,1302.746 -2512.44,1954.118 -1116.64,558.32 -2047.18,1023.586 -2884.65,1395.799 v -2698.544 c 1488.85,-651.373 2791.6,-1581.907 4001.29,-2605.492 1116.64,-930.533 1954.11,-1954.119 2419.39,-2884.651 h 1768 z"
   id="path27"
   style="stroke-width:93.0536" />
  <path
   class="fil1"
   d="m 237083.6,72097.498 2791.58,-372.212 c 279.16,1581.906 837.48,2698.545 1581.91,3349.918 744.44,651.371 1674.97,1023.59 2791.59,1023.59 1209.71,0 2326.34,-465.272 3256.87,-1302.751 837.49,-930.533 1302.75,-2047.171 1302.75,-3349.916 0,-1209.694 -465.26,-2233.28 -1209.69,-3070.759 -837.47,-837.478 -1861.06,-1209.692 -3163.81,-1209.692 -558.31,0 -1116.65,93.053 -1954.12,279.159 l 372.22,-2419.384 c 93.06,0 279.16,93.054 372.22,93.054 1209.68,0 2233.27,-372.213 3163.8,-930.533 930.53,-651.373 1395.79,-1581.906 1395.79,-2791.598 0,-1023.586 -372.2,-1861.065 -1023.57,-2512.439 -651.38,-651.371 -1581.91,-930.533 -2605.49,-930.533 -1023.59,0 -1954.12,279.162 -2698.56,930.533 -651.37,744.426 -1116.63,1674.96 -1302.75,3070.759 l -2791.59,-465.267 c 372.22,-1861.066 1116.63,-3256.863 2326.34,-4280.449 1209.69,-1023.588 2605.49,-1488.853 4373.49,-1488.853 1209.69,0 2326.34,186.106 3349.93,744.426 1023.57,558.319 1861.06,1209.692 2326.32,2140.225 558.33,837.48 837.49,1861.065 837.49,2791.598 0,1023.586 -279.16,1861.065 -744.44,2698.545 -558.31,744.426 -1302.74,1395.798 -2326.33,1861.065 1302.75,279.16 2326.33,930.533 3070.77,1861.066 744.41,930.532 1116.63,2140.224 1116.63,3536.024 0,1954.118 -744.42,3629.077 -2140.22,5024.878 -1395.8,1302.748 -3163.81,1954.125 -5397.08,1954.125 -1954.12,0 -3536.03,-558.317 -4838.78,-1768.019 -1302.74,-1116.642 -2047.17,-2605.494 -2233.27,-4466.56 z"
   id="path29"
   style="stroke-width:93.0536" />
  <path
   class="fil1"
   d="m 344094.84,75354.364 v 2605.502 h -14702.41 c 0,-651.378 93.05,-1302.755 372.21,-1861.072 372.22,-1023.59 930.54,-1954.122 1768.01,-2977.708 837.49,-930.532 2047.17,-2047.173 3629.08,-3349.918 2326.34,-1954.118 4001.3,-3536.024 4838.77,-4652.663 837.47,-1209.693 1302.75,-2326.331 1302.75,-3349.919 0,-1023.586 -372.22,-1954.118 -1209.69,-2698.542 -744.43,-744.427 -1768.02,-1116.642 -2977.71,-1116.642 -1302.75,0 -2419.38,372.215 -3163.81,1209.694 -837.49,744.425 -1209.68,1861.066 -1209.68,3256.864 l -2791.62,-279.159 c 186.12,-2140.225 930.54,-3722.131 2140.24,-4838.77 1302.75,-1116.641 2977.69,-1581.906 5117.93,-1581.906 2047.16,0 3815.18,558.32 5024.87,1768.012 1209.69,1116.639 1861.06,2605.492 1861.06,4373.504 0,837.478 -186.1,1768.011 -558.31,2605.49 -372.22,837.48 -930.53,1768.013 -1768.02,2698.545 -837.48,930.532 -2326.33,2326.333 -4280.44,3908.237 -1581.91,1395.8 -2605.5,2326.332 -3070.77,2791.597 -465.26,558.321 -930.54,1023.586 -1209.69,1488.854 z"
   id="path31"
   style="stroke-width:93.0536" />
  <path
   class="fil1"
   d="m 66516.936,169059.02 v -5304.04 h -9677.538 v -2512.44 l 10142.806,-14330.2 h 2233.277 v 14330.2 h 2977.704 v 2512.44 h -2977.704 v 5304.04 z m 0,-7816.48 v -9956.69 l -6978.993,9956.69 z"
   id="path33"
   style="stroke-width:93.0536" />
  <path
   class="fil1"
   d="m 147194.14,163010.55 2791.6,-279.16 c 279.16,1395.81 744.42,2419.39 1488.85,3163.82 744.43,651.37 1674.95,1023.59 2791.6,1023.59 1395.8,0 2512.43,-465.28 3349.91,-1488.86 930.53,-930.53 1395.8,-2233.27 1395.8,-3908.24 0,-1581.91 -465.27,-2791.59 -1302.74,-3722.13 -837.49,-837.47 -2047.17,-1302.74 -3442.97,-1302.74 -837.49,0 -1674.96,186.11 -2419.39,558.32 -651.37,465.26 -1209.69,930.53 -1581.9,1581.9 l -2605.5,-372.21 2140.23,-11352.5 h 10980.29 v 2605.49 h -8840.06 l -1116.64,5955.41 c 1302.74,-930.53 2698.54,-1395.8 4187.39,-1395.8 1861.06,0 3536.02,651.38 4838.77,2047.17 1395.8,1302.75 2047.17,3070.76 2047.17,5117.93 0,2047.18 -651.37,3815.19 -1768.01,5210.98 -1395.79,1861.07 -3349.92,2698.55 -5862.35,2698.55 -1954.12,0 -3629.08,-558.32 -4931.83,-1674.96 -1209.69,-1116.64 -1954.12,-2605.48 -2140.22,-4466.56 z"
   id="path35"
   style="stroke-width:93.0536" />
  <path
   class="fil1"
   d="m 237083.6,149517.83 v -2605.49 h 14423.25 v 2047.17 c -1395.81,1488.85 -2884.65,3536.03 -4187.4,6048.47 -1395.8,2512.43 -2512.43,5024.87 -3256.87,7723.41 -558.31,1861.07 -930.52,3815.19 -1023.58,6048.47 h -2791.6 c 0,-1768.01 372.22,-3815.18 1023.59,-6327.62 651.38,-2512.45 1581.91,-4838.77 2791.59,-7165.1 1209.69,-2326.33 2512.44,-4187.4 3908.25,-5769.31 z"
   id="path37"
   style="stroke-width:93.0536" />
  <path
   class="fil1"
   d="m 343722.62,152402.48 -2698.53,186.11 c -279.16,-1023.58 -651.37,-1861.07 -1023.59,-2326.33 -744.43,-744.43 -1674.96,-1116.64 -2791.59,-1116.64 -837.49,0 -1674.96,186.1 -2326.34,651.37 -837.47,651.37 -1488.84,1581.91 -2047.18,2791.6 -465.25,1209.69 -744.41,2884.65 -744.41,5117.93 651.38,-1023.58 1488.84,-1768.01 2419.37,-2233.28 930.54,-465.26 1954.13,-744.42 2977.72,-744.42 1861.06,0 3349.9,651.37 4652.65,2047.17 1302.75,1302.74 1954.12,3070.75 1954.12,5210.98 0,1395.8 -279.16,2698.54 -930.53,3815.18 -558.31,1209.7 -1395.8,2140.23 -2512.44,2791.6 -1023.59,651.37 -2233.27,930.53 -3536.02,930.53 -2233.28,0 -4094.34,-837.47 -5583.2,-2512.43 -1395.79,-1674.96 -2140.22,-4373.51 -2140.22,-8188.69 0,-4373.5 837.47,-7444.26 2419.39,-9398.38 1395.79,-1674.96 3256.85,-2512.44 5583.19,-2512.44 1768.02,0 3163.81,465.27 4280.46,1395.8 1116.63,1023.58 1768,2326.33 2047.15,4094.34 z m -11166.38,9584.49 c 0,930.53 186.12,1861.07 558.31,2698.54 372.21,837.49 930.55,1488.86 1674.96,1954.13 744.44,465.26 1488.87,651.37 2233.28,651.37 1209.71,0 2233.28,-465.27 2977.71,-1395.8 837.47,-930.53 1302.75,-2140.23 1302.75,-3722.13 0,-1581.91 -465.28,-2791.6 -1209.69,-3629.08 -837.49,-930.53 -1861.06,-1395.8 -3163.81,-1395.8 -1209.7,0 -2233.28,465.27 -3070.77,1395.8 -930.53,837.48 -1302.74,1954.12 -1302.74,3442.97 z"
   id="path39"
   style="stroke-width:93.0536" />
  <path
   class="fil1"
   d="M 103179.94,116949.19 H 99085.601 V 90894.28 c -1023.589,930.529 -2326.329,1954.118 -3908.235,2884.647 -1581.906,930.536 -3070.759,1581.906 -4280.454,2047.17 v -3908.235 c 2233.276,-1116.642 4280.454,-2419.382 5955.413,-3908.235 1768.012,-1581.906 2977.699,-3070.759 3629.075,-4466.56 h 2698.54 z"
   id="path41"
   style="stroke-width:93.0536" />
  <path
   class="fil1"
   d="m 103179.94,207676.13 h -4094.339 v -26054.92 c -1023.589,930.53 -2326.329,1954.12 -3908.235,2884.65 -1581.906,930.54 -3070.759,1581.91 -4280.454,2047.17 v -3908.23 c 2233.276,-1116.65 4280.454,-2419.39 5955.413,-3908.24 1768.012,-1581.9 2977.699,-3070.76 3629.075,-4466.56 h 2698.54 z"
   id="path43"
   style="stroke-width:93.0536" />
  <path
   class="fil1"
   d="m 193069.4,207676.13 h -4094.35 v -26054.92 c -930.53,930.53 -2233.27,1954.12 -3815.18,2884.65 -1674.96,930.54 -3070.76,1581.91 -4373.51,2047.17 v -3908.23 c 2326.34,-1116.65 4280.46,-2419.39 6048.47,-3908.24 1674.96,-1581.9 2884.65,-3070.76 3629.08,-4466.56 h 2605.49 z"
   id="path45"
   style="stroke-width:93.0536" />
  <path
   class="fil1"
   d="m 374523.26,207117.81 h -4094.35 v -26054.92 c -930.52,930.53 -2233.27,1861.07 -3815.18,2791.6 -1674.96,930.53 -3070.74,1674.96 -4373.49,2140.22 v -4001.29 c 2326.31,-1023.58 4280.43,-2326.33 6048.46,-3908.24 1674.96,-1488.85 2884.65,-2977.7 3629.08,-4466.55 h 2605.48 z"
   id="path47"
   style="stroke-width:93.0536" />
  <path
   class="fil1"
   d="m 282400.54,207117.81 h -4094.36 v -26054.92 c -930.53,930.53 -2233.28,1861.07 -3815.18,2791.6 -1674.96,930.53 -3070.75,1674.96 -4373.49,2140.22 v -4001.29 c 2326.33,-1023.58 4280.43,-2326.33 6048.45,-3908.24 1674.96,-1488.85 2884.66,-2977.7 3629.09,-4466.55 h 2605.49 z"
   id="path49"
   style="stroke-width:93.0536" />
  <rect
   class="fil0 str1"
   x="76101.398"
   y="69212.82"
   width="46526.633"
   height="149629.64"
   rx="13213.564"
   ry="13213.564"
   id="rect51"
   style="stroke-width:2206.96;stroke-miterlimit:4;stroke-dasharray:none" />
  <rect
   class="fil0 str1"
   x="65214.156"
   y="171571.47"
   width="331921"
   height="49597.391"
   rx="10515.02"
   ry="9305.3262"
   id="rect53"
   style="stroke-width:2206.96;stroke-miterlimit:4;stroke-dasharray:none" />
  <path
   class="fil1"
   d="m 96759.272,33108.182 c 1302.74,930.532 2605.488,1581.904 3722.128,2047.171 l -837.482,2047.172 c -1581.906,-558.319 -3163.812,-1488.851 -4745.718,-2698.545 -1674.959,930.532 -3442.971,1302.747 -5490.141,1302.747 -1954.118,0 -3815.182,-465.267 -5397.088,-1395.8 -1674.959,-1023.586 -2884.654,-2326.331 -3815.19,-4094.343 -837.483,-1768.012 -1302.747,-3722.131 -1302.747,-5955.409 0,-2140.225 465.264,-4187.397 1302.747,-5955.409 930.536,-1768.012 2140.231,-3163.812 3815.19,-4094.344 1581.906,-930.533 3442.97,-1395.8 5490.141,-1395.8 2047.17,0 3908.235,465.267 5490.141,1395.8 1674.966,1023.586 2977.707,2419.385 3815.19,4094.344 837.475,1768.012 1302.737,3722.131 1302.737,5955.409 0,1861.064 -279.156,3442.97 -837.473,4931.823 -558.317,1488.851 -1395.8,2698.545 -2512.435,3815.184 z m -6513.73,-3722.131 c 1768.012,465.266 3163.805,1116.639 4187.394,2047.172 1768.012,-1581.906 2605.495,-3908.237 2605.495,-7072.048 0,-1768.012 -279.159,-3349.918 -930.536,-4652.664 -558.317,-1395.799 -1488.853,-2419.385 -2605.488,-3163.811 -1209.694,-744.425 -2512.442,-1116.639 -4001.295,-1116.639 -2140.223,0 -4001.288,744.427 -5397.088,2233.278 -1488.854,1488.853 -2233.277,3722.131 -2233.277,6699.836 0,2884.65 744.423,5117.93 2140.224,6699.836 1488.853,1488.851 3256.865,2233.277 5490.141,2233.277 1023.589,0 2047.17,-186.106 2977.706,-558.32 -930.536,-558.318 -1861.064,-1023.586 -2884.653,-1302.745 z"
   id="path55"
   style="stroke-width:93.0536" />
  <path
   id="1"
   class="fil1"
   d="M 104110.48,35434.512 V 13287.836 h 9863.64 c 1954.12,0 3442.98,186.107 4466.56,558.32 1023.59,465.266 1861.06,1116.639 2512.44,2140.225 558.32,1023.586 930.53,2140.225 930.53,3349.917 0,1581.906 -558.32,2884.652 -1581.91,4001.291 -1023.58,1023.586 -2605.48,1768.012 -4652.66,2047.171 744.43,372.214 1302.75,744.426 1768.02,1116.641 837.47,744.424 1674.96,1768.011 2419.38,2884.65 l 3815.18,6048.461 h -3629.08 l -2977.7,-4559.61 c -837.48,-1395.797 -1581.91,-2419.383 -2140.23,-3070.757 -558.31,-744.427 -1023.58,-1209.692 -1488.85,-1488.852 -372.21,-279.16 -837.47,-465.266 -1302.75,-558.319 -372.21,-93.054 -930.52,-186.107 -1674.95,-186.107 h -3349.92 v 9863.645 z m 2977.7,-12376.083 h 6327.62 c 1302.75,0 2326.34,-93.054 3070.76,-372.213 744.42,-279.16 1395.8,-744.427 1768.01,-1395.799 372.21,-558.32 558.32,-1209.692 558.32,-1954.119 0,-1023.586 -372.21,-1954.118 -1116.63,-2605.491 -744.43,-651.373 -1954.12,-1023.586 -3629.09,-1023.586 h -6978.99 z"
   style="stroke-width:93.0536" />
  <path
   class="fil1"
   d="m 188975.05,33108.182 c 1395.8,930.532 2698.55,1581.904 3815.18,2047.171 l -837.47,2047.172 c -1581.91,-558.319 -3256.87,-1488.851 -4838.77,-2698.545 -1581.91,930.532 -3442.97,1302.747 -5397.09,1302.747 -2047.17,0 -3815.18,-465.267 -5490.14,-1395.8 -1581.91,-1023.586 -2884.66,-2326.331 -3722.13,-4094.343 -930.54,-1768.012 -1395.8,-3722.131 -1395.8,-5955.409 0,-2140.225 465.26,-4187.397 1395.8,-5955.409 837.47,-1768.012 2140.22,-3163.812 3815.18,-4094.344 1581.91,-930.533 3442.97,-1395.8 5490.14,-1395.8 2047.17,0 3815.18,465.267 5490.14,1395.8 1674.96,1023.586 2884.66,2419.385 3815.19,4094.344 837.48,1768.012 1209.69,3722.131 1209.69,5955.409 0,1861.064 -279.16,3442.97 -837.48,4931.823 -465.27,1488.851 -1395.8,2698.545 -2512.44,3815.184 z m -6420.67,-3722.131 c 1674.95,465.266 3070.75,1116.639 4187.4,2047.172 1768.01,-1581.906 2605.48,-3908.237 2605.48,-7072.048 0,-1768.012 -279.15,-3349.918 -930.52,-4652.664 -651.38,-1395.799 -1488.86,-2419.385 -2698.55,-3163.811 -1116.64,-744.425 -2512.44,-1116.639 -3908.24,-1116.639 -2233.27,0 -4001.29,744.427 -5490.14,2233.278 -1395.8,1488.853 -2140.22,3722.131 -2140.22,6699.836 0,2884.65 744.42,5117.93 2140.22,6699.836 1395.79,1488.851 3256.87,2233.277 5490.14,2233.277 1023.59,0 2047.17,-186.106 2977.71,-558.32 -930.54,-558.318 -1954.12,-1023.586 -2977.71,-1302.745 z"
   id="path58"
   style="stroke-width:93.0536" />
  <path
   id="path60"
   class="fil1"
   d="M 196419.31,35434.512 V 13287.836 h 9863.66 c 1954.11,0 3442.96,186.107 4466.55,558.32 1023.59,465.266 1861.06,1116.639 2512.43,2140.225 558.32,1023.586 837.48,2140.225 837.48,3349.917 0,1581.906 -465.26,2884.652 -1488.85,4001.291 -1023.59,1023.586 -2605.49,1768.012 -4745.71,2047.171 837.47,372.214 1395.8,744.426 1768,1116.641 930.53,744.424 1674.97,1768.011 2419.4,2884.65 l 3908.24,6048.461 h -3722.15 l -2884.65,-4559.61 c -837.47,-1395.797 -1581.9,-2419.383 -2140.21,-3070.757 -558.32,-744.427 -1023.59,-1209.692 -1488.85,-1488.852 -465.27,-279.16 -930.55,-465.266 -1302.75,-558.319 -372.22,-93.054 -930.53,-186.107 -1674.96,-186.107 h -3442.98 v 9863.645 z m 2884.65,-12376.083 h 6327.63 c 1395.78,0 2419.37,-93.054 3163.81,-372.213 744.43,-279.16 1302.75,-744.427 1674.96,-1395.799 465.26,-558.32 651.38,-1209.692 651.38,-1954.119 0,-1023.586 -372.22,-1954.118 -1116.65,-2605.491 -837.48,-651.373 -2047.16,-1023.586 -3629.09,-1023.586 h -7072.04 z"
   style="stroke-width:93.0536" />
  <path
   class="fil1"
   d="m 280539.46,33108.182 c 1302.74,930.532 2605.49,1581.904 3722.14,2047.171 l -837.49,2047.172 c -1581.91,-558.319 -3163.81,-1488.851 -4745.71,-2698.545 -1674.97,930.532 -3442.97,1302.747 -5490.15,1302.747 -1954.12,0 -3815.18,-465.267 -5397.08,-1395.8 -1674.97,-1023.586 -2884.65,-2326.331 -3815.18,-4094.343 -837.48,-1768.012 -1302.75,-3722.131 -1302.75,-5955.409 0,-2140.225 465.27,-4187.397 1302.75,-5955.409 930.53,-1768.012 2140.21,-3163.812 3815.18,-4094.344 1581.9,-930.533 3442.96,-1395.8 5490.14,-1395.8 2047.18,0 3908.24,465.267 5490.15,1395.8 1674.96,1023.586 2977.7,2419.385 3815.18,4094.344 837.47,1768.012 1302.75,3722.131 1302.75,5955.409 0,1861.064 -279.16,3442.97 -837.48,4931.823 -558.33,1488.851 -1395.81,2698.545 -2512.45,3815.184 z m -6513.71,-3722.131 c 1767.99,465.266 3163.8,1116.639 4187.39,2047.172 1768.01,-1581.906 2605.47,-3908.237 2605.47,-7072.048 0,-1768.012 -279.15,-3349.918 -930.52,-4652.664 -558.32,-1395.799 -1488.85,-2419.385 -2605.5,-3163.811 -1209.69,-744.425 -2512.43,-1116.639 -4001.28,-1116.639 -2140.22,0 -4001.3,744.427 -5397.08,2233.278 -1488.87,1488.853 -2233.28,3722.131 -2233.28,6699.836 0,2884.65 744.41,5117.93 2140.22,6699.836 1488.84,1488.851 3256.86,2233.277 5490.14,2233.277 1023.59,0 2047.18,-186.106 2977.71,-558.32 -930.53,-558.318 -1861.08,-1023.586 -2884.65,-1302.745 z"
   id="path62"
   style="stroke-width:93.0536" />
  <path
   id="path64"
   class="fil1"
   d="M 287890.67,35434.512 V 13287.836 h 9863.65 c 1954.13,0 3442.97,186.107 4466.56,558.32 1023.59,465.266 1861.06,1116.639 2512.44,2140.225 558.31,1023.586 930.53,2140.225 930.53,3349.917 0,1581.906 -558.32,2884.652 -1581.91,4001.291 -1023.59,1023.586 -2605.49,1768.012 -4652.67,2047.171 744.43,372.214 1302.75,744.426 1768.02,1116.641 837.47,744.424 1674.96,1768.011 2419.38,2884.65 l 3815.2,6048.461 h -3629.09 l -2977.7,-4559.61 c -837.48,-1395.797 -1581.91,-2419.383 -2140.22,-3070.757 -558.32,-744.427 -1023.6,-1209.692 -1488.87,-1488.852 -372.19,-279.16 -837.47,-465.266 -1302.75,-558.319 -372.19,-93.054 -930.52,-186.107 -1674.94,-186.107 h -3349.92 v 9863.645 z m 2977.71,-12376.083 h 6327.61 c 1302.75,0 2326.34,-93.054 3070.77,-372.213 744.44,-279.16 1395.78,-744.427 1768,-1395.799 372.22,-558.32 558.34,-1209.692 558.34,-1954.119 0,-1023.586 -372.22,-1954.118 -1116.65,-2605.491 -744.43,-651.373 -1954.12,-1023.586 -3629.09,-1023.586 h -6978.98 z"
   style="stroke-width:93.0536" />
  <path
   class="fil1"
   d="m 369312.29,33108.182 c 1395.78,930.532 2605.49,1581.904 3815.18,2047.171 l -930.53,2047.172 c -1581.91,-558.319 -3163.81,-1488.851 -4745.73,-2698.545 -1674.95,930.532 -3442.97,1302.747 -5490.13,1302.747 -1954.12,0 -3815.2,-465.267 -5397.1,-1395.8 -1674.95,-1023.586 -2884.66,-2326.331 -3815.18,-4094.343 -837.48,-1768.012 -1302.75,-3722.131 -1302.75,-5955.409 0,-2140.225 465.27,-4187.397 1302.75,-5955.409 930.52,-1768.012 2140.23,-3163.812 3815.18,-4094.344 1674.96,-930.533 3442.98,-1395.8 5490.14,-1395.8 2047.18,0 3908.24,465.267 5583.2,1395.8 1581.91,1023.586 2884.65,2419.385 3722.13,4094.344 837.49,1768.012 1302.74,3722.131 1302.74,5955.409 0,1861.064 -279.15,3442.97 -837.47,4931.823 -558.32,1488.851 -1395.81,2698.545 -2512.43,3815.184 z m -6420.68,-3722.131 c 1674.94,465.266 3070.75,1116.639 4187.4,2047.172 1674.95,-1581.906 2512.44,-3908.237 2512.44,-7072.048 0,-1768.012 -279.16,-3349.918 -930.53,-4652.664 -558.34,-1395.799 -1488.87,-2419.385 -2605.5,-3163.811 -1209.69,-744.425 -2512.43,-1116.639 -4001.3,-1116.639 -2140.22,0 -4001.28,744.427 -5397.09,2233.278 -1488.84,1488.853 -2140.21,3722.131 -2140.21,6699.836 0,2884.65 651.37,5117.93 2140.21,6699.836 1395.81,1488.851 3163.81,2233.277 5397.09,2233.277 1116.65,0 2047.18,-186.106 2977.71,-558.32 -930.53,-558.318 -1861.06,-1023.586 -2884.65,-1302.745 z"
   id="path66"
   style="stroke-width:93.0536" />
  <path
   id="path68"
   class="fil1"
   d="M 376663.49,35434.512 V 13287.836 h 9863.64 c 1954.12,0 3442.97,186.107 4559.62,558.32 1023.59,465.266 1768,1116.639 2419.37,2140.225 651.38,1023.586 930.54,2140.225 930.54,3349.917 0,1581.906 -558.32,2884.652 -1581.91,4001.291 -930.53,1023.586 -2512.43,1768.012 -4652.65,2047.171 744.41,372.214 1302.75,744.426 1768,1116.641 837.49,744.424 1674.96,1768.011 2419.39,2884.65 l 3815.19,6048.461 h -3629.09 l -2977.7,-4559.61 c -837.48,-1395.797 -1581.91,-2419.383 -2140.23,-3070.757 -558.31,-744.427 -1023.59,-1209.692 -1488.84,-1488.852 -372.21,-279.16 -837.49,-465.266 -1302.74,-558.319 -372.22,-93.054 -837.5,-186.107 -1674.97,-186.107 h -3349.93 v 9863.645 z m 2977.69,-12376.083 h 6327.64 c 1302.74,0 2326.32,-93.054 3070.75,-372.213 837.49,-279.16 1395.81,-744.427 1768.02,-1395.799 372.19,-558.32 558.31,-1209.692 558.31,-1954.119 0,-1023.586 -372.21,-1954.118 -1116.64,-2605.491 -744.41,-651.373 -1954.12,-1023.586 -3629.07,-1023.586 h -6979.01 z"
   style="stroke-width:93.0536" />
  <line
   class="fil0 str0"
   x1="80288.789"
   y1="7983.7974"
   x2="121418.41"
   y2="7983.7974"
   id="line70" />
  <line
   class="fil0 str0"
   x1="172597.7"
   y1="7983.7974"
   x2="192418.05"
   y2="7983.7974"
   id="line72" />
  <line
   class="fil0 str0"
   x1="374988.56"
   y1="7983.7974"
   x2="396297.78"
   y2="7983.7974"
   id="line74" />
  <path
   class="fil1"
   d="M 13662.682,111365.99 V 89126.269 h 8374.794 c 1488.853,0 2605.492,93.053 3442.971,279.158 1023.586,186.106 1954.118,465.265 2698.544,1023.582 744.427,465.271 1395.8,1209.694 1768.012,2140.223 465.268,930.536 744.427,1861.065 744.427,2977.706 0,1954.118 -651.373,3536.024 -1861.065,4838.772 -1209.692,1302.75 -3349.918,1954.12 -6513.729,1954.12 h -5676.249 v 9026.16 z m 2977.705,-11631.65 h 5769.302 c 1861.066,0 3163.812,-372.219 4001.29,-1116.642 837.479,-651.37 1209.694,-1674.959 1209.694,-2977.707 0,-930.528 -279.161,-1674.959 -744.427,-2326.329 -465.267,-651.377 -1023.586,-1116.641 -1861.065,-1302.747 -465.266,-186.106 -1395.799,-279.159 -2698.545,-279.159 h -5676.249 z"
   id="path76"
   style="stroke-width:93.0536" />
  <path
   class="fil1"
   d="M 13662.682,202092.93 V 179853.2 h 8374.794 c 1488.853,0 2605.492,93.05 3442.971,279.15 1023.586,186.11 1954.118,465.28 2698.544,1023.59 744.427,465.27 1395.8,1209.7 1768.012,2140.23 465.268,930.53 744.427,1861.06 744.427,2977.7 0,1954.12 -651.373,3536.03 -1861.065,4838.77 -1209.692,1302.74 -3349.918,1954.12 -6513.729,1954.12 h -5676.249 v 9026.17 z m 2977.705,-11631.66 h 5769.302 c 1861.066,0 3163.812,-372.21 4001.29,-1116.64 837.479,-651.38 1209.694,-1674.96 1209.694,-2977.7 0,-930.53 -279.161,-1674.96 -744.427,-2326.33 -465.267,-651.38 -1023.586,-1116.64 -1861.065,-1302.75 -465.266,-186.11 -1395.799,-279.16 -2698.545,-279.16 h -5676.249 z"
   id="path78"
   style="stroke-width:93.0536" />
  <line
   class="fil0 str0"
   x1="12452.987"
   y1="85124.93"
   x2="30691.436"
   y2="85124.93"
   id="line80" />
 </g>
</svg>
