<?xml version="1.0" encoding="UTF-8" standalone="no"?>
<!-- Creator: CorelDRAW X7 -->

<svg
   xml:space="preserve"
   width="1024in"
   height="820in"
   version="1.1"
   style="clip-rule:evenodd;fill-rule:evenodd;image-rendering:optimizeQuality;shape-rendering:geometricPrecision;text-rendering:geometricPrecision"
   viewBox="0 0 1024000 820000"
   id="svg177"
   sodipodi:docname="gate2011Q15.svg"
   inkscape:version="1.1.2 (0a00cf5339, 2022-02-04)"
   xmlns:inkscape="http://www.inkscape.org/namespaces/inkscape"
   xmlns:sodipodi="http://sodipodi.sourceforge.net/DTD/sodipodi-0.dtd"
   xmlns="http://www.w3.org/2000/svg"
   xmlns:svg="http://www.w3.org/2000/svg"><sodipodi:namedview
   id="namedview179"
   pagecolor="#ffffff"
   bordercolor="#666666"
   borderopacity="1.0"
   inkscape:pageshadow="2"
   inkscape:pageopacity="0.0"
   inkscape:pagecheckerboard="0"
   inkscape:document-units="in"
   showgrid="false"
   width="1024in"
   inkscape:zoom="0.01"
   inkscape:cx="11000"
   inkscape:cy="33050"
   inkscape:window-width="3840"
   inkscape:window-height="2117"
   inkscape:window-x="0"
   inkscape:window-y="0"
   inkscape:window-maximized="1"
   inkscape:current-layer="Layer_x0020_1" />
 <defs
   id="defs4">
  <style
   type="text/css"
   id="style2">
   <![CDATA[
    .str1 {stroke:#373435;stroke-width:13.8898}
    .str0 {stroke:black;stroke-width:13.8898}
    .fil3 {fill:none;fill-rule:nonzero}
    .fil0 {fill:#030303}
    .fil1 {fill:white}
    .fil2 {fill:#373435;fill-rule:nonzero}
   ]]>
  </style>
 </defs>
 <g
   id="Layer_x0020_1"
   inkscape:label="Layer 1"
   inkscape:groupmode="layer">
  <metadata
   id="CorelCorpID_0Corel-Layer" />
  <path
   class="fil0 str0"
   d="m 793266,73801.942 c -5065.03,3256.099 -11094.86,14592.143 -15556.9,20742.549 l -49565.04,70910.589 c -17848.25,482.39 -26531.16,3376.7 -32802.16,16280.49 -2773.73,5547.43 -3376.71,15195.12 -1205.98,21586.72 2894.3,8562.34 7476.98,9527.1 10371.27,14953.94 L 659524.8,289066.2 c -1808.92,964.77 -33163.94,-723.58 -33163.94,29666.66 0,23395.66 28340.09,36781.86 46670.72,21586.73 14592.14,-12059.62 16762.87,-33525.75 -6271.01,-48238.48 l -3014.9,-2170.74 c 5547.42,-11336.04 14833.35,-23998.64 21827.91,-35214.09 7235.77,-11697.83 15918.72,-23636.86 22069.12,-35093.5 15074.52,4944.45 15798.11,4220.87 29425.48,-1326.55 11939.02,21586.72 33405.15,50288.61 42932.26,69101.62 -4100.3,3617.89 -21707.34,7597.57 -21707.34,28943.1 0,26531.16 32078.61,38108.4 49685.65,19415.99 12300.8,-13265.59 9768.28,-34008.13 -6271.01,-44017.62 -21224.92,-13386.18 -3979.66,17124.65 -40158.53,-40158.54 L 739600.7,215743.7 c 18451.23,-15195.12 11577.24,-38349.59 -7476.98,-48479.67 l 60418.72,-88276.45 c 241.18,-120.597 482.39,-482.385 723.56,-602.982 l 1447.15,-1447.154 c 6753.39,4462.061 10974.26,11094.852 22792.7,11577.235 10853.66,482.386 18933.59,-5185.635 23395.66,-11094.849 3497.28,2653.116 6029.8,7356.368 8562.34,10733.061 l 38470.18,55715.469 c 4703.26,6873.99 11818.42,15436.32 15195.13,22913.28 -3738.49,4944.45 -12903.79,8321.14 -12903.79,26410.57 0,11939.03 7476.95,16280.49 11577.22,22551.49 -6873.96,14471.55 -41123.3,63313.01 -44258.81,71634.15 -48720.87,-241.19 -40279.13,57524.39 -5065.03,57403.79 13989.16,0 25928.18,-10733.05 28219.52,-24119.22 3135.5,-18330.63 -8803.52,-25325.22 -17486.47,-31475.62 -1808.93,-1326.56 -1085.37,-723.58 -2050.13,-1808.95 3738.49,-7356.36 41243.9,-66930.89 44500.01,-69704.61 20621.96,5788.62 14712.74,1567.75 28460.72,-723.57 9165.29,10009.48 34008.1,55836.04 43776.41,68016.26 -4220.87,3617.89 -22430.89,8321.14 -22430.89,28822.5 0,38711.39 57765.78,37384.81 57524.58,0 -120.6,-22310.31 -17848.43,-25807.6 -28581.51,-28701.9 -5547.41,-1447.16 -10130.06,-11456.64 -13024.39,-16039.3 -6632.78,-10371.28 -31958,-49082.66 -33887.53,-54509.49 4341.48,-6271 7356.37,-8321.14 9406.51,-17486.45 1447.15,-6753.39 -120.6,-14592.14 -3859.09,-20260.16 -7718.15,-11939.03 -19898.35,-16762.88 -36661.23,-11336.05 L 848016.68,80796.522 c -8562.32,-11697.832 -602.99,-6873.982 -602.99,-20863.145 241.21,-27857.723 -36781.83,-40279.134 -53182.92,-15556.911 -6150.4,9406.505 -4703.25,19415.992 -964.77,29425.476 z"
   id="path7" />
  <path
   class="fil0"
   d="m 793507.21,533273.54 c -10250.7,13747.95 -62107.05,90808.94 -65001.37,92376.69 -5306.24,1929.53 -12783.18,-120.6 -19416,3135.5 -20621.93,10250.67 -21345.52,37746.62 -4462.04,48841.45 -2532.52,9527.11 -36902.46,56800.84 -44138.23,72357.75 -49203.26,1447.14 -40399.71,57524.39 -5185.64,57524.39 15195.13,0 26169.39,-11456.64 28219.52,-24601.63 3376.71,-21224.95 -14953.92,-28219.51 -19777.78,-31958 l 43897.03,-70428.18 c 16039.28,3979.66 14833.34,3979.66 29546.05,-1205.97 l 43294.07,68860.43 -8079.96,4220.87 c -31355.02,18451.23 -5065.03,66689.72 26772.37,50771.01 23757.43,-11939.02 20863.14,-45223.57 -3497.29,-53303.53 -15315.72,-5065.03 -5306.23,8321.14 -27616.55,-27495.92 L 739600.7,676662.42 c 17968.81,-16401.07 12059.62,-38952.56 -7718.15,-48479.67 l 62830.6,-91050.15 c 16401.1,16159.89 35093.5,16401.1 46067.76,1205.97 3617.88,2411.91 5788.62,6391.61 8200.53,10009.49 l 23154.48,33405.15 c 10250.7,14833.32 21466.13,29907.87 30752.03,44741.18 -964.76,2653.12 -120.57,723.59 -1447.14,2532.52 -4944.43,6391.61 -11215.44,8200.56 -11215.44,25204.62 0,12059.62 7959.33,15798.11 11456.64,22551.49 -4100.29,8562.34 -16401.09,26048.78 -22189.72,35696.49 -3497.28,5909.19 -7356.37,12059.62 -11215.43,17848.21 -4220.87,6271.01 -6873.99,12662.61 -11456.66,17365.87 -1085.34,602.98 -33163.95,-1085.37 -33163.95,29546.08 0,23636.84 28460.69,36661.23 46670.75,21707.31 14592.14,-12180.23 16039.28,-34852.3 -5426.84,-47876.69 l -3859.09,-2653.12 c 7356.37,-14833.34 38831.98,-59695.13 43897.02,-70307.6 14350.96,4703.25 16280.49,4220.87 29425.48,-1205.95 l 43294.04,69101.61 c -5065.03,4100.3 -22189.69,8079.96 -22189.69,28822.5 0,26048.78 32199.18,38711.39 49685.78,19416 12180.3,-13386.17 9768.4,-34249.31 -6391.74,-44017.63 -17848.25,-10733.05 -10371.27,8079.96 -28701.9,-22672.07 -9647.71,-16039.31 -25325.22,-37264.24 -32922.77,-52941.74 24481.03,-27737.14 723.56,-58006.78 -30269.64,-48479.68 l -46308.97,-66569.12 c -2653.12,-3859.06 -14833.31,-20260.15 -15918.68,-23154.45 -1808.96,-5065.06 7115.16,-15556.93 -723.59,-29425.48 -11215.43,-19777.78 -37384.81,-19536.6 -48720.88,-3014.9 -5185.63,7356.37 -8562.31,20863.14 -1688.32,29304.88 z"
   id="path9"
   style="stroke-width:120.596" />
  <path
   class="fil0"
   d="m 214524.79,537833.47 c -241.19,241.18 -602.98,361.78 -723.58,844.17 -361.79,1326.57 -844.17,844.19 -1326.56,1447.17 -1085.36,1205.94 -1447.15,1447.15 -2411.92,2894.3 l -28098.92,40882.12 c -10853.66,15677.51 -20863.14,31596.19 -32922.77,46670.72 -30269.64,-2050.14 -39193.76,21827.93 -34008.13,37384.84 2411.93,7356.37 6994.58,10250.66 10491.87,14953.92 -7235.77,13506.77 -41846.903,65483.75 -44379.422,71634.15 -43173.445,-844.16 -43052.848,49323.86 -11456.641,56680.23 33646.353,7838.76 50891.623,-42570.47 14953.931,-55112.48 844.174,-3135.5 38229.022,-64277.78 44258.832,-71031.17 19898.37,3376.71 11215.45,3014.9 29546.07,-1326.54 l 43173.44,68257.44 c -5185.63,4703.26 -16521.68,5788.62 -21345.52,21224.93 -4100.28,12903.81 2411.92,24481.02 9888.88,30510.85 20139.57,16159.89 49685.64,-1326.58 46308.95,-26169.38 -1567.75,-11215.43 -9768.29,-20380.76 -19295.4,-23395.66 -8200.54,-2532.52 -10491.87,482.38 -14953.93,-6271 -3014.9,-4582.65 -4944.44,-8441.74 -8200.54,-13265.6 -4582.65,-6873.99 -31234.42,-48238.46 -32802.17,-53062.32 3014.91,-5788.62 19415.99,-21827.91 2773.72,-41364.5 -1688.35,-1929.53 -2653.12,-2894.33 -5306.24,-4703.26 l -5909.21,-4462.07 c 9888.89,-10491.85 55594.85,-83452.57 62830.62,-89241.19 13747.97,8924.12 22189.71,21948.51 46670.74,723.59 5065.04,4823.85 59695.12,85261.52 61745.25,88879.41 -1085.37,1808.92 -241.18,602.98 -1688.32,2291.31 -1085.37,1205.97 -1447.18,1567.75 -2532.55,2653.12 -1688.32,1567.75 -2653.12,2291.34 -4220.87,4582.67 -10371.27,15074.53 -2411.91,29304.86 7115.19,39434.95 -1929.53,6512.21 -17245.25,28098.91 -22069.11,36058.27 -4703.25,8079.96 -19777.78,29907.87 -22069.1,35817.09 -43414.64,-964.8 -42932.25,49444.44 -12059.62,56800.81 32199.19,7597.54 53182.94,-40037.96 15315.71,-55474.27 2291.33,-7356.37 35937.67,-56559.63 43776.42,-71031.16 16401.1,3617.88 14109.76,4462.04 29907.87,-1205.97 7597.58,13144.99 40399.74,62227.64 43052.86,69825.22 -38108.4,11939.02 -22189.72,62227.62 11697.81,56197.82 30752.03,-5547.41 34490.52,-54388.89 -7115.16,-57042.01 l -44620.61,-71151.77 c 3859.09,-6873.96 17124.68,-18813.01 5426.84,-37746.59 -8321.14,-13506.8 -20018.98,-14833.35 -36781.86,-11094.86 l -30510.82,-44741.19 c -3979.7,-5547.44 -30269.66,-42449.87 -31113.83,-45464.77 -1688.35,-5668.04 7115.17,-15074.55 -844.18,-29425.48 -9888.89,-17607.04 -35575.88,-20983.75 -48841.46,-2170.74 -5065.04,7356.37 -7718.16,21707.31 -1326.56,29304.88 z"
   id="path11"
   style="stroke-width:120.596" />
  <path
   class="fil0"
   d="m 185340.51,84052.621 -44741.2,70669.399 c -43655.847,-723.58 -39676.18,44500 -21345.53,51976.97 l -46670.753,73322.5 c -11215.449,-1326.56 -16642.278,-2170.74 -25445.8,3376.69 -5788.618,3738.48 -10974.256,10130.08 -12783.198,18692.41 -8200.544,40279.13 56921.411,47514.9 56921.411,5426.84 0,-17245.27 -9647.696,-18813.02 -15436.317,-26410.58 2773.713,-6150.41 7356.371,-12542.01 10974.256,-18330.62 L 121786.3,208266.74 c 16401.09,13386.18 53062.33,-8321.14 38831.98,-37987.81 -4823.85,-10009.48 -8924.12,-8321.14 -16159.89,-14833.33 5788.62,-13144.99 39073.17,-60056.935 43535.23,-70307.614 12421.41,3979.676 15436.32,3376.693 27495.94,-1085.365 7235.77,13989.16 37023.04,55112.489 42811.65,68739.859 -32078.59,1326.56 -38711.38,38831.98 -17486.45,51494.58 -5065.04,13747.97 -36058.26,54991.88 -44982.38,73201.9 -20863.15,-1205.96 -35455.29,8321.14 -35455.29,28701.89 0,11697.85 5306.23,14712.75 9165.31,21345.53 l -41726.29,65724.96 c -3979.67,723.56 -9044.71,-2773.72 -17848.24,-482.38 -18813.028,4703.25 -27978.338,26651.76 -17607.065,42811.65 14712.755,23033.88 52941.755,16280.46 52941.755,-16280.49 0,-13145 -7718.15,-17486.47 -13747.96,-23878.07 l 41364.49,-65242.55 c 14230.36,4703.25 32560.98,7959.36 41967.49,-12180.2 8682.92,-18451.23 -2773.72,-33284.56 -15798.11,-39073.18 2291.33,-5909.21 41967.48,-68739.84 45464.77,-71634.15 11577.24,3979.67 16280.5,4220.87 27616.54,-1205.96 3256.09,2773.71 40761.53,62107.05 44138.21,68739.84 -3014.9,2291.33 -25928.18,10009.48 -21948.51,32922.75 2532.51,13868.59 14953.92,26531.17 31596.22,24601.63 34008.13,-3859.06 35817.06,-56921.4 -6029.83,-57524.38 -2411.91,-5547.43 -7597.55,-12421.41 -10974.25,-17968.84 -7476.98,-12300.81 -30269.65,-45344.17 -33163.96,-54027.1 16159.9,-12180.22 12542.01,-39073.17 -6271,-47273.72 -10250.68,-4582.65 -9647.7,-6753.38 -19174.8,-22189.7 L 218142.68,82967.253 c 4582.65,-7115.174 11336.04,-11094.85 11336.04,-24239.839 0,-21104.336 -23878.05,-36178.861 -43294.04,-24481.029 -6994.58,4220.867 -14230.35,12783.197 -14230.35,24481.029 0,13506.778 7597.56,18089.433 13386.18,25325.207 z"
   id="path13"
   style="stroke-width:120.596" />
  <path
   class="fil1"
   d="m 810511.26,496612.29 c -30510.82,9165.29 -17245.26,58006.77 15556.91,48238.46 30631.45,-9165.3 18933.61,-58489.16 -15556.91,-48238.46 z"
   id="path15"
   style="stroke-width:120.596" />
  <path
   class="fil1"
   d="m 233217.2,783367.36 c 0,-16762.88 -10371.27,-27616.53 -26410.57,-27616.53 -20260.16,0 -32560.98,26289.95 -17727.64,42811.65 14712.73,16280.5 44138.21,5788.62 44138.21,-15195.12 z"
   id="path17"
   style="stroke-width:120.596" />
  <path
   class="fil1"
   d="m 160377.09,184388.69 c 0,-16039.3 -10733.06,-26410.57 -27616.53,-26410.57 -20621.95,0 -31234.44,27978.32 -15798.11,43414.64 15556.92,15556.91 43414.64,3979.67 43414.64,-17004.07 z"
   id="path19"
   style="stroke-width:120.596" />
  <path
   class="fil1"
   d="m 232011.24,181856.17 c 0,14471.54 12059.62,25084.01 26289.97,25084.01 21104.34,0 32802.16,-27616.53 17124.66,-43414.63 -15556.91,-15798.11 -43414.63,-5306.24 -43414.63,18330.62 z"
   id="path21"
   style="stroke-width:120.596" />
  <path
   class="fil1"
   d="m 69206.332,758886.33 c -32078.593,8803.52 -19174.798,57524.4 13506.777,48720.88 31837.421,-8562.34 19415.991,-57765.6 -13506.777,-48720.88 z"
   id="path23"
   style="stroke-width:120.596" />
  <path
   class="fil1"
   d="m 680387.95,778566.22 c 0,-14592.14 -12059.63,-25084.01 -26410.56,-25084.01 -21224.95,0 -32681.59,27737.13 -17004.08,43414.64 15436.33,15677.5 43414.64,5426.84 43414.64,-18330.63 z"
   id="path25"
   style="stroke-width:120.596" />
  <path
   class="fil1"
   d="m 365149.47,657826.69 c 0,-16039.28 -10853.68,-26410.55 -27737.13,-26410.55 -20260.19,0 -31234.44,28219.51 -15677.51,43414.64 15677.51,15556.9 43414.64,3979.66 43414.64,-17004.09 z"
   id="path27"
   style="stroke-width:120.596" />
  <path
   class="fil1 str0"
   d="m 911570.9,167625.82 c -33163.97,10371.27 -17004.08,58609.75 15074.52,48117.88 30752.03,-9888.89 17124.66,-58006.77 -15074.52,-48117.88 z"
   id="path29" />
  <path
   class="fil1"
   d="m 242020.73,499483.87 c -38590.79,0 -34611.12,50529.83 -2532.53,50529.83 34611.12,120.57 31234.42,-50529.83 2532.53,-50529.83 z"
   id="path31"
   style="stroke-width:120.596" />
  <path
   class="fil1"
   d="m 37248.337,307517.43 c 0,33646.32 50771.004,33766.93 50650.41,0 -241.195,-33766.95 -50650.41,-32681.58 -50650.41,0 z"
   id="path33"
   style="stroke-width:120.596" />
  <path
   class="fil1"
   d="m 195591.18,34487.576 c -33405.15,7838.754 -22189.7,55956.642 11094.85,49203.257 30993.23,-6150.409 22310.3,-56921.413 -11094.85,-49203.257 z"
   id="path35"
   style="stroke-width:120.596" />
  <path
   class="fil1"
   d="m 267707.72,756353.82 c -32440.38,7356.37 -22189.7,56559.6 11456.64,49203.23 31596.21,-6994.57 21586.72,-56800.81 -11456.64,-49203.23 z"
   id="path37"
   style="stroke-width:120.596" />
  <path
   class="fil1"
   d="m 180637.25,282071.62 c -32319.78,10853.66 -14953.93,57765.59 16883.47,47514.92 29425.48,-9647.71 17245.26,-58850.97 -16883.47,-47514.92 z"
   id="path39"
   style="stroke-width:120.596" />
  <path
   class="fil1 str0"
   d="m 852478.75,341404.96 c 13627.38,0 25204.62,-11215.46 25204.62,-25084.01 0,-23395.67 -27857.74,-34008.14 -43414.64,-18330.63 -15677.51,15677.51 -5065.06,43414.64 18210.02,43414.64 z"
   id="path41" />
  <path
   class="fil1"
   d="m 141443.49,684116.68 c 16159.89,0 26410.56,-11094.86 26410.56,-26289.99 0,-20380.76 -27495.93,-32560.95 -43414.63,-17124.65 -15436.32,15195.12 -5426.83,43414.64 17004.07,43414.64 z"
   id="path43"
   style="stroke-width:120.596" />
  <path
   class="fil1 str0"
   d="m 713431.32,170278.93 c -31837.4,10250.68 -16039.29,58850.95 16762.87,47514.91 29304.88,-10130.08 16762.88,-58247.97 -16762.87,-47514.91 z"
   id="path45" />
  <path
   class="fil1"
   d="m 779759.23,753120.43 c -32922.76,10250.66 -17124.65,58006.78 14953.92,47997.28 30872.63,-9527.1 17245.26,-58006.77 -14953.92,-47997.28 z"
   id="path47"
   style="stroke-width:120.596" />
  <path
   class="fil1 str0"
   d="m 818591.22,85137.986 c 32922.77,0 33525.72,-50529.813 0,-50650.41 -33766.96,-120.594 -33284.57,50650.41 0,50650.41 z"
   id="path49" />
  <path
   class="fil1"
   d="m 317031.58,279418.5 c -32922.78,8321.14 -20983.75,55594.85 11336.03,49082.67 31596.22,-6271 22672.1,-57645 -11336.03,-49082.67 z"
   id="path51"
   style="stroke-width:120.596" />
  <path
   class="fil1"
   d="m 91275.44,421842.63 c 0,29907.87 51976.99,34249.31 50650.43,-2653.12 -241.19,-7476.97 -3738.48,-14230.36 -7959.35,-17486.46 l -4944.44,-2532.52 c -361.8,-120.57 -723.58,-241.17 -964.77,-361.78 l -2532.53,-1326.54 c -3738.48,-1808.96 -4462.05,-2411.94 -10371.27,-2170.74 -13989.18,723.56 -23878.07,11939.02 -23878.07,26531.16 z"
   id="path53"
   style="stroke-width:120.596" />
  <path
   class="fil1"
   d="m 718134.57,629991.7 c -36058.27,7235.77 -24601.63,55594.84 8682.91,49444.44 31596.23,-5788.62 22430.9,-55715.44 -8682.91,-49444.44 z"
   id="path55"
   style="stroke-width:120.596" />
  <path
   class="fil1"
   d="m 843916.41,753120.43 c -31113.81,10371.27 -15918.68,58127.38 16883.48,47514.9 29304.88,-9527.11 17365.86,-58850.94 -16883.48,-47514.9 z"
   id="path57"
   style="stroke-width:120.596" />
  <path
   class="fil1"
   d="m 917841.9,677988.99 c 14833.32,0 26410.56,-11215.46 26410.56,-26289.98 0,-20742.54 -26772.37,-33405.15 -43294.04,-16883.48 -16521.67,16401.1 -3738.48,43173.46 16883.48,43173.46 z"
   id="path59"
   style="stroke-width:120.596" />
  <path
   class="fil1"
   d="m 978260.59,750587.91 c -33043.37,7718.15 -20621.93,57644.97 12903.79,48600.27 30511.02,-8321.13 20139.82,-56439.02 -12903.79,-48600.27 z"
   id="path61"
   style="stroke-width:120.596" />
  <path
   class="fil1 str0"
   d="m 979587.17,289548.58 c -34731.73,7838.76 -22430.93,56318.43 10853.65,49082.66 30269.88,-6632.79 21828.08,-56439.02 -10853.65,-49082.66 z"
   id="path63" />
  <path
   class="fil1 str0"
   d="m 780965.2,292081.11 c -33163.97,7718.17 -20501.36,57644.99 12903.79,48479.66 12180.22,-3256.08 21586.73,-16039.29 17486.46,-30872.61 -3256.1,-12059.62 -15315.73,-21224.94 -30390.25,-17607.05 z"
   id="path65" />
  <path
   class="fil1"
   d="m 396866.26,755509.62 c -31475.61,10250.7 -15315.72,58247.99 16762.88,47514.91 29304.88,-9888.89 17607.04,-58730.34 -16762.88,-47514.91 z"
   id="path67"
   style="stroke-width:120.596" />
  <path
   class="fil1 str0"
   d="m 646500.42,294613.61 c -29787.27,10250.7 -16401.1,58609.77 17004.08,47514.91 29666.66,-9888.89 16883.45,-59092.13 -17004.08,-47514.91 z"
   id="path69" />
  <path
   class="fil2"
   d="m 183652.16,48356.142 6512.19,-3135.502 h 602.99 v 22430.896 c 0,1567.751 0,2411.922 241.19,2894.308 120.59,361.788 361.79,602.982 723.57,844.174 361.79,120.597 1205.97,241.191 2411.93,241.191 v 723.58 h -10009.49 v -723.58 c 1205.97,0 2050.14,-120.594 2411.93,-241.191 361.79,-241.192 602.98,-482.386 723.58,-844.174 120.59,-241.192 241.19,-1205.963 241.19,-2894.308 V 53300.585 c 0,-1929.539 -120.6,-3135.501 -241.19,-3738.481 0,-361.788 -241.2,-723.577 -482.39,-964.771 -241.19,-120.594 -482.39,-241.191 -844.17,-241.191 -482.39,0 -1205.97,241.191 -2050.14,602.979 z"
   id="path71"
   style="stroke-width:120.596" />
  <path
   id="1"
   class="fil2"
   d="m 200535.63,59209.8 c 0,-3014.904 361.79,-5668.02 1326.56,-7838.754 964.77,-2170.73 2170.73,-3859.078 3617.88,-4823.846 1205.96,-964.771 2411.93,-1326.56 3738.49,-1326.56 1929.54,0 3859.08,1085.365 5426.83,3135.502 2050.13,2532.522 3014.9,6029.811 3014.9,10491.87 0,3014.904 -361.79,5668.023 -1326.56,7838.753 -844.17,2170.734 -2050.13,3738.485 -3376.69,4703.253 -1326.56,964.771 -2653.12,1447.153 -3979.68,1447.153 -2532.52,0 -4703.25,-1447.153 -6391.6,-4462.058 -1326.55,-2532.522 -2050.13,-5547.426 -2050.13,-9165.313 z m 3859.08,482.386 c 0,3617.887 361.79,6632.791 1326.55,8924.119 723.58,2050.136 1808.95,3014.904 3256.1,3014.904 723.58,0 1447.16,-361.788 2291.33,-964.768 723.58,-723.577 1326.56,-1688.348 1688.35,-3256.099 602.98,-2170.73 844.17,-5426.829 844.17,-9527.099 0,-3014.907 -241.19,-5547.426 -844.17,-7476.965 -482.39,-1567.751 -1085.37,-2653.116 -1929.54,-3256.099 -482.39,-482.385 -1085.37,-602.979 -1929.54,-602.979 -844.17,0 -1688.35,361.788 -2291.33,1205.962 -964.77,1085.365 -1567.75,2773.71 -1929.54,5065.041 -361.79,2291.327 -482.38,4582.655 -482.38,6873.983 z"
   style="stroke-width:120.596" />
  <path
   class="fil2"
   d="m 132519.37,183303.32 c -2050.14,-1808.94 -3497.29,-3135.5 -4100.28,-4220.86 -602.98,-1085.37 -844.17,-2170.74 -844.17,-3256.1 0,-1688.35 602.98,-3256.1 1929.54,-4462.06 1326.56,-1205.96 3135.5,-1929.54 5426.83,-1929.54 2050.13,0 3859.08,602.98 5185.64,1808.94 1326.56,1205.96 1929.53,2532.52 1929.53,3979.68 0,964.77 -361.78,2050.13 -1085.36,3014.9 -723.58,1085.37 -2170.73,2291.33 -4341.46,3617.89 2291.32,1808.94 3738.48,3256.1 4582.65,4220.87 964.77,1326.55 1447.16,2773.71 1447.16,4220.86 0,1929.54 -723.58,3497.29 -2170.74,4823.85 -1447.15,1326.56 -3256.09,1929.54 -5547.42,1929.54 -2532.52,0 -4582.66,-723.58 -6029.81,-2291.33 -1085.37,-1326.56 -1688.35,-2653.11 -1688.35,-4220.87 0,-1085.36 482.39,-2291.32 1205.96,-3497.29 844.18,-1085.36 2170.74,-2411.92 4100.28,-3738.48 z m 3135.5,-2170.73 c 1567.75,-1447.15 2532.52,-2532.52 3014.9,-3376.69 361.79,-844.18 602.98,-1688.35 602.98,-2773.72 0,-1326.55 -361.79,-2411.92 -1205.96,-3256.09 -723.58,-723.58 -1808.94,-1205.96 -3135.5,-1205.96 -1326.56,0 -2411.92,482.38 -3256.1,1205.96 -844.17,844.17 -1326.56,1688.34 -1326.56,2773.71 0,602.98 241.2,1326.56 602.99,2050.13 361.78,602.99 844.17,1326.56 1447.15,1929.54 z m -2170.74,2894.31 c -1085.36,844.17 -1929.53,1929.54 -2411.92,2894.31 -482.38,1085.37 -844.17,2291.33 -844.17,3497.29 0,1688.35 482.38,3135.5 1447.15,4100.27 964.77,964.77 2050.14,1447.16 3497.29,1447.16 1447.16,0 2532.52,-361.79 3376.69,-1085.37 844.18,-844.17 1326.56,-1808.94 1326.56,-2894.31 0,-964.77 -241.19,-1808.94 -723.57,-2532.52 -964.77,-1447.15 -2894.31,-3256.1 -5668.03,-5426.83 z"
   id="path74"
   style="stroke-width:120.596" />
  <path
   class="fil2"
   d="m 265175.2,167625.82 v 844.17 c -1688.35,120.6 -3135.51,482.38 -4220.87,964.77 -1085.37,482.38 -2170.73,1326.56 -3256.1,2411.92 -964.77,964.77 -1929.54,2170.74 -2532.52,3497.29 -723.58,1326.56 -1326.56,2894.31 -1808.94,4582.66 1929.54,-1205.96 3738.48,-1929.54 5668.02,-1929.54 1808.95,0 3376.7,723.58 4703.25,2291.33 1326.56,1447.15 2050.14,3256.09 2050.14,5547.42 0,2291.33 -723.58,4341.47 -2050.14,6150.41 -1688.35,2170.73 -3738.48,3256.1 -6391.6,3256.1 -1929.54,0 -3376.69,-602.98 -4703.25,-1808.95 -2411.92,-2291.32 -3738.48,-5306.23 -3738.48,-9044.71 0,-2411.93 482.38,-4703.25 1447.15,-6753.39 964.77,-2170.73 2291.33,-4100.27 4100.27,-5788.62 1808.95,-1567.75 3497.29,-2773.71 5065.05,-3256.09 1688.34,-602.99 3135.5,-964.77 4582.65,-964.77 z m -12180.22,13747.96 c -241.19,1808.95 -361.79,3256.1 -361.79,4341.47 0,1205.96 241.19,2532.52 723.58,4100.27 482.38,1447.15 1205.96,2653.12 2050.13,3497.29 723.58,602.98 1447.16,844.17 2411.93,844.17 1205.96,0 2170.73,-482.38 3014.91,-1567.75 964.76,-1085.36 1447.15,-2653.12 1447.15,-4582.65 0,-2291.33 -482.39,-4220.87 -1326.56,-5788.62 -964.77,-1688.35 -2170.73,-2532.52 -3859.08,-2532.52 -482.38,0 -964.77,120.59 -1567.75,361.78 -602.98,241.2 -1447.15,602.99 -2532.52,1326.56 z"
   id="path76"
   style="stroke-width:120.596" />
  <path
   class="fil2"
   d="m 71618.256,311497.09 v 2773.72 h -3617.884 v 6994.57 h -3256.098 v -6994.57 H 53528.827 v -2532.51 l 12300.812,-17607.07 h 2170.733 v 17365.86 z m -6873.982,0 v -13265.56 l -9285.908,13265.56 z"
   id="path78"
   style="stroke-width:120.596" />
  <path
   class="fil2"
   d="m 196555.95,292201.7 -1567.75,3256.1 h -8079.94 l -1688.35,3617.89 c 3497.29,482.38 6271,1808.93 8200.54,3859.09 1808.94,1808.93 2653.12,3859.06 2653.12,6271 0,1447.15 -241.19,2653.09 -844.18,3859.06 -602.98,1205.97 -1326.55,2291.34 -2170.73,3135.5 -844.17,844.2 -1808.94,1447.15 -2894.31,1929.53 -1447.15,723.59 -3014.9,1085.37 -4582.65,1085.37 -1567.75,0 -2773.72,-241.17 -3497.29,-723.56 -723.58,-602.98 -1085.37,-1205.97 -1085.37,-1808.95 0,-361.78 120.6,-723.56 482.39,-964.77 241.19,-361.78 602.98,-482.38 1085.36,-482.38 361.79,0 602.98,120.6 964.77,241.2 241.2,0 602.98,361.78 1205.96,723.56 964.78,723.59 2050.14,1085.37 3014.91,1085.37 1567.75,0 2894.31,-602.98 3979.67,-1808.93 1205.97,-1085.36 1808.95,-2532.54 1808.95,-4220.86 0,-1567.76 -482.39,-3135.51 -1567.75,-4462.08 -1085.37,-1447.15 -2411.93,-2532.52 -4220.87,-3256.1 -1447.16,-602.96 -3376.69,-964.77 -5909.22,-1085.37 l 5185.64,-10250.67 z"
   id="path80"
   style="stroke-width:120.596" />
  <path
   class="fil2"
   d="m 331503.11,312220.68 -1929.53,5185.64 h -15677.5 v -723.59 c 4582.65,-4220.87 7838.75,-7718.15 9768.28,-10371.27 1929.53,-2653.12 2773.72,-5065.03 2773.72,-7235.77 0,-1688.35 -482.38,-3135.5 -1447.18,-4220.87 -1085.33,-1085.37 -2291.31,-1567.75 -3738.45,-1567.75 -1326.58,0 -2532.55,361.79 -3497.31,1085.37 -1085.37,723.58 -1808.93,1808.92 -2411.92,3376.67 h -723.58 c 361.8,-2411.91 1205.97,-4341.45 2532.51,-5547.41 1447.18,-1326.56 3135.5,-1929.54 5185.67,-1929.54 2050.13,0 3859.06,602.98 5306.2,2050.14 1447.18,1326.56 2170.74,3014.9 2170.74,4944.43 0,1326.58 -241.18,2653.12 -844.16,3979.7 -964.77,2170.73 -2532.52,4341.44 -4703.25,6753.38 -3376.71,3497.28 -5306.24,5668.02 -6150.4,6391.61 h 6873.95 c 1447.18,0 2411.95,-120.61 3014.93,-120.61 602.99,-120.6 1085.37,-361.78 1567.75,-723.58 361.78,-241.18 844.17,-723.56 1085.37,-1326.55 z"
   id="path82"
   style="stroke-width:120.596" />
  <path
   class="fil2"
   d="m 111294.43,410024.21 6512.2,-3135.5 h 723.57 v 22430.9 c 0,1447.14 0,2411.91 120.6,2773.69 120.6,361.81 482.39,723.59 844.17,844.19 361.79,241.18 1205.97,361.78 2411.93,361.78 v 723.59 h -10130.08 v -723.59 c 1326.55,0 2170.73,-120.6 2532.52,-361.78 361.78,-120.6 602.98,-361.81 723.57,-723.59 120.6,-361.78 241.2,-1326.54 241.2,-2894.29 v -14350.97 c 0,-1929.53 -120.6,-3256.1 -241.2,-3738.48 -120.59,-482.39 -241.19,-723.56 -482.38,-964.77 -241.19,-241.18 -482.38,-241.18 -844.17,-241.18 -482.39,0 -1205.97,120.58 -2050.14,602.96 z"
   id="path84"
   style="stroke-width:120.596" />
  <path
   class="fil2"
   d="m 801466.54,49079.719 6512.21,-3135.502 h 602.98 v 22551.491 c 0,1447.156 120.6,2411.924 241.18,2773.713 120.6,361.788 361.81,602.982 723.59,844.174 361.78,241.194 1205.97,241.194 2411.91,361.788 v 723.577 h -10009.46 v -723.577 c 1205.94,-120.594 2050.13,-120.594 2411.91,-361.788 361.78,-241.192 602.99,-482.386 723.59,-723.577 241.18,-361.789 241.18,-1326.56 241.18,-2894.31 V 54024.162 c 0,-1929.539 0,-3135.498 -120.61,-3738.481 -120.57,-361.789 -361.78,-723.577 -602.98,-844.174 -241.18,-241.191 -482.38,-361.788 -844.16,-361.788 -482.39,0 -1205.98,241.194 -2050.14,602.982 z"
   id="path86"
   style="stroke-width:120.596" />
  <path
   id="path88"
   class="fil2"
   d="m 818350.01,59933.377 c 0,-3014.905 482.39,-5547.424 1326.58,-7718.157 964.76,-2291.328 2170.71,-3859.078 3738.46,-4944.444 1085.37,-844.173 2291.34,-1326.559 3617.91,-1326.559 2050.13,0 3859.06,1085.365 5426.81,3135.502 2050.14,2653.116 3135.5,6150.406 3135.5,10491.869 0,3135.502 -482.38,5668.024 -1447.14,7838.754 -844.17,2170.734 -1929.53,3738.484 -3376.71,4703.253 -1326.55,964.771 -2653.12,1447.156 -3979.67,1447.156 -2532.51,0 -4582.65,-1447.156 -6271,-4462.061 -1447.15,-2532.522 -2170.74,-5547.426 -2170.74,-9165.313 z m 3859.09,482.385 c 0,3738.485 482.39,6753.389 1326.55,9044.717 723.59,1929.539 1808.96,2894.31 3376.71,2894.31 602.98,0 1447.15,-361.789 2170.73,-964.771 723.56,-602.98 1326.55,-1688.348 1688.33,-3135.502 602.98,-2291.327 964.79,-5426.829 964.79,-9527.102 0,-3014.904 -361.81,-5547.423 -964.79,-7597.559 -482.38,-1567.751 -1085.37,-2532.522 -1808.93,-3256.099 -602.98,-361.788 -1205.97,-602.98 -1929.53,-602.98 -964.79,0 -1688.35,361.789 -2411.94,1205.963 -964.77,1085.365 -1567.75,2773.713 -1929.53,5065.041 -361.78,2411.924 -482.39,4703.252 -482.39,6873.982 z"
   style="stroke-width:120.596" />
  <path
   id="2"
   class="fil3 str1"
   d="m 801466.54,49079.719 6512.21,-3135.502 h 602.98 v 22551.491 c 0,1447.156 120.6,2411.924 241.18,2773.713 120.6,361.788 361.81,602.982 723.59,844.174 361.78,241.194 1205.97,241.194 2411.91,361.788 v 723.577 h -10009.46 v -723.577 c 1205.94,-120.594 2050.13,-120.594 2411.91,-361.788 361.78,-241.192 602.99,-482.386 723.59,-723.577 241.18,-361.789 241.18,-1326.56 241.18,-2894.31 V 54024.162 c 0,-1929.539 0,-3135.498 -120.61,-3738.481 -120.57,-361.789 -361.78,-723.577 -602.98,-844.174 -241.18,-241.191 -482.38,-361.788 -844.16,-361.788 -482.39,0 -1205.98,241.194 -2050.14,602.982 z" />
  <path
   id="3"
   class="fil3 str1"
   d="m 818350.01,59933.377 c 0,-3014.905 482.39,-5547.424 1326.58,-7718.157 964.76,-2291.328 2170.71,-3859.078 3738.46,-4944.444 1085.37,-844.173 2291.34,-1326.559 3617.91,-1326.559 2050.13,0 3859.06,1085.365 5426.81,3135.502 2050.14,2653.116 3135.5,6150.406 3135.5,10491.869 0,3135.502 -482.38,5668.024 -1447.14,7838.754 -844.17,2170.734 -1929.53,3738.484 -3376.71,4703.253 -1326.55,964.771 -2653.12,1447.156 -3979.67,1447.156 -2532.51,0 -4582.65,-1447.156 -6271,-4462.061 -1447.15,-2532.522 -2170.74,-5547.426 -2170.74,-9165.313 z m 3859.09,482.385 c 0,3738.485 482.39,6753.389 1326.55,9044.717 723.59,1929.539 1808.96,2894.31 3376.71,2894.31 602.98,0 1447.15,-361.789 2170.73,-964.771 723.56,-602.98 1326.55,-1688.348 1688.33,-3135.502 602.98,-2291.327 964.79,-5426.829 964.79,-9527.102 0,-3014.904 -361.81,-5547.423 -964.79,-7597.559 -482.38,-1567.751 -1085.37,-2532.522 -1808.93,-3256.099 -602.98,-361.788 -1205.97,-602.98 -1929.53,-602.98 -964.79,0 -1688.35,361.789 -2411.94,1205.963 -964.77,1085.365 -1567.75,2773.713 -1929.53,5065.041 -361.78,2411.924 -482.39,4703.252 -482.39,6873.982 z" />
  <path
   class="fil2"
   d="m 718978.73,194036.39 c -2170.74,-1688.35 -3497.28,-3135.5 -4100.27,-4100.28 -602.98,-1085.36 -964.76,-2170.73 -964.76,-3256.09 0,-1808.95 723.59,-3256.1 2050.13,-4462.06 1326.58,-1326.56 3135.5,-1929.54 5306.24,-1929.54 2170.74,0 3859.09,602.98 5185.63,1808.94 1326.55,1085.37 1929.54,2411.93 1929.54,3979.68 0,964.76 -361.78,1929.54 -964.77,3014.9 -723.56,964.77 -2170.74,2291.33 -4462.05,3617.89 2291.31,1808.94 3859.06,3135.5 4582.65,4220.86 964.77,1326.56 1447.15,2773.72 1447.15,4220.87 0,1808.95 -723.56,3497.29 -2050.13,4823.85 -1447.15,1326.56 -3376.68,1929.54 -5668.02,1929.54 -2532.52,0 -4462.08,-723.58 -5909.22,-2411.92 -1205.95,-1205.97 -1688.36,-2653.12 -1688.36,-4100.27 0,-1205.97 361.81,-2291.33 1205.97,-3497.29 723.59,-1205.97 2170.74,-2411.93 4100.27,-3859.08 z m 3014.93,-2050.14 c 1567.75,-1447.16 2653.09,-2532.52 3014.9,-3376.69 482.38,-844.18 602.98,-1808.95 602.98,-2773.72 0,-1447.15 -361.81,-2532.52 -1085.37,-3256.09 -844.19,-844.18 -1808.95,-1205.97 -3256.1,-1205.97 -1326.57,0 -2411.91,361.79 -3256.1,1205.97 -844.17,723.57 -1205.98,1688.34 -1205.98,2653.11 0,723.58 120.61,1447.16 482.42,2050.14 361.78,723.58 844.16,1326.56 1447.14,2050.13 z m -2170.74,2773.71 c -1085.37,964.77 -1808.95,1929.54 -2411.94,3014.91 -482.38,1085.36 -723.56,2291.33 -723.56,3497.29 0,1688.35 482.38,3014.9 1326.55,4100.27 964.76,964.77 2170.73,1447.15 3617.88,1447.15 1326.57,0 2532.52,-361.78 3376.71,-1205.96 844.16,-723.57 1205.94,-1688.35 1205.94,-2894.31 0,-964.77 -241.18,-1808.94 -723.56,-2532.52 -964.77,-1326.56 -2773.72,-3135.5 -5668.02,-5426.83 z"
   id="path92"
   style="stroke-width:120.596" />
  <path
   id="path94"
   class="fil3 str1"
   d="m 718978.73,194036.39 c -2170.74,-1688.35 -3497.28,-3135.5 -4100.27,-4100.28 -602.98,-1085.36 -964.76,-2170.73 -964.76,-3256.09 0,-1808.95 723.59,-3256.1 2050.13,-4462.06 1326.58,-1326.56 3135.5,-1929.54 5306.24,-1929.54 2170.74,0 3859.09,602.98 5185.63,1808.94 1326.55,1085.37 1929.54,2411.93 1929.54,3979.68 0,964.76 -361.78,1929.54 -964.77,3014.9 -723.56,964.77 -2170.74,2291.33 -4462.05,3617.89 2291.31,1808.94 3859.06,3135.5 4582.65,4220.86 964.77,1326.56 1447.15,2773.72 1447.15,4220.87 0,1808.95 -723.56,3497.29 -2050.13,4823.85 -1447.15,1326.56 -3376.68,1929.54 -5668.02,1929.54 -2532.52,0 -4462.08,-723.58 -5909.22,-2411.92 -1205.95,-1205.97 -1688.36,-2653.12 -1688.36,-4100.27 0,-1205.97 361.81,-2291.33 1205.97,-3497.29 723.59,-1205.97 2170.74,-2411.93 4100.27,-3859.08 z m 3014.93,-2050.14 c 1567.75,-1447.16 2653.09,-2532.52 3014.9,-3376.69 482.38,-844.18 602.98,-1808.95 602.98,-2773.72 0,-1447.15 -361.81,-2532.52 -1085.37,-3256.09 -844.19,-844.18 -1808.95,-1205.97 -3256.1,-1205.97 -1326.57,0 -2411.91,361.79 -3256.1,1205.97 -844.17,723.57 -1205.98,1688.34 -1205.98,2653.11 0,723.58 120.61,1447.16 482.42,2050.14 361.78,723.58 844.16,1326.56 1447.14,2050.13 z m -2170.74,2773.71 c -1085.37,964.77 -1808.95,1929.54 -2411.94,3014.91 -482.38,1085.36 -723.56,2291.33 -723.56,3497.29 0,1688.35 482.38,3014.9 1326.55,4100.27 964.76,964.77 2170.73,1447.15 3617.88,1447.15 1326.57,0 2532.52,-361.78 3376.71,-1205.96 844.16,-723.57 1205.94,-1688.35 1205.94,-2894.31 0,-964.77 -241.18,-1808.94 -723.56,-2532.52 -964.77,-1326.56 -2773.72,-3135.5 -5668.02,-5426.83 z" />
  <path
   class="fil2"
   d="m 926524.82,177997.09 v 723.58 c -1688.36,241.19 -3135.5,482.38 -4220.87,1085.36 -1085.37,482.39 -2170.74,1205.97 -3256.11,2291.33 -1085.36,1085.37 -1929.53,2291.33 -2653.12,3497.29 -723.55,1326.56 -1326.54,2894.31 -1688.32,4703.25 1808.93,-1326.56 3738.49,-1929.54 5547.41,-1929.54 1929.54,0 3497.29,723.58 4823.86,2170.73 1326.55,1447.16 1929.53,3376.7 1929.53,5668.03 0,2170.73 -602.98,4220.86 -2050.13,6029.81 -1567.75,2291.33 -3738.49,3376.69 -6391.61,3376.69 -1808.93,0 -3376.68,-602.98 -4582.65,-1808.94 -2532.51,-2411.92 -3738.49,-5426.83 -3738.49,-9165.31 0,-2291.33 482.39,-4582.66 1447.15,-6753.39 964.8,-2170.73 2291.34,-3979.68 4100.3,-5668.02 1688.32,-1688.35 3376.68,-2773.72 5065.03,-3376.7 1567.75,-602.98 3135.5,-844.17 4462.05,-844.17 z m -12180.23,13747.97 c -241.18,1688.34 -361.78,3135.5 -361.78,4220.87 0,1326.55 241.21,2653.11 723.59,4100.27 361.78,1447.15 1085.37,2653.11 2050.13,3497.29 602.99,602.98 1447.15,964.77 2411.92,964.77 1085.36,0 2170.73,-602.99 3014.9,-1567.75 844.19,-1085.37 1326.57,-2653.12 1326.57,-4703.26 0,-2170.73 -482.38,-4100.27 -1326.57,-5788.61 -844.17,-1567.75 -2170.71,-2411.93 -3738.46,-2411.93 -482.41,0 -1085.37,120.6 -1567.75,241.19 -602.99,241.19 -1447.18,723.58 -2532.55,1447.16 z"
   id="path96"
   style="stroke-width:120.596" />
  <path
   id="path98"
   class="fil3 str1"
   d="m 926524.82,177997.09 v 723.58 c -1688.36,241.19 -3135.5,482.38 -4220.87,1085.36 -1085.37,482.39 -2170.74,1205.97 -3256.11,2291.33 -1085.36,1085.37 -1929.53,2291.33 -2653.12,3497.29 -723.55,1326.56 -1326.54,2894.31 -1688.32,4703.25 1808.93,-1326.56 3738.49,-1929.54 5547.41,-1929.54 1929.54,0 3497.29,723.58 4823.86,2170.73 1326.55,1447.16 1929.53,3376.7 1929.53,5668.03 0,2170.73 -602.98,4220.86 -2050.13,6029.81 -1567.75,2291.33 -3738.49,3376.69 -6391.61,3376.69 -1808.93,0 -3376.68,-602.98 -4582.65,-1808.94 -2532.51,-2411.92 -3738.49,-5426.83 -3738.49,-9165.31 0,-2291.33 482.39,-4582.66 1447.15,-6753.39 964.8,-2170.73 2291.34,-3979.68 4100.3,-5668.02 1688.32,-1688.35 3376.68,-2773.72 5065.03,-3376.7 1567.75,-602.98 3135.5,-844.17 4462.05,-844.17 z m -12180.23,13747.97 c -241.18,1688.34 -361.78,3135.5 -361.78,4220.87 0,1326.55 241.21,2653.11 723.59,4100.27 361.78,1447.15 1085.37,2653.11 2050.13,3497.29 602.99,602.98 1447.15,964.77 2411.92,964.77 1085.36,0 2170.73,-602.99 3014.9,-1567.75 844.19,-1085.37 1326.57,-2653.12 1326.57,-4703.26 0,-2170.73 -482.38,-4100.27 -1326.57,-5788.61 -844.17,-1567.75 -2170.71,-2411.93 -3738.46,-2411.93 -482.41,0 -1085.37,120.6 -1567.75,241.19 -602.99,241.19 -1447.18,723.58 -2532.55,1447.16 z" />
  <path
   class="fil2"
   d="m 664107.45,322109.57 v 2773.72 h -3617.88 v 6994.56 h -3256.08 v -6994.56 h -11215.46 v -2532.55 l 12300.8,-17607.03 h 2170.74 v 17365.86 z m -6873.96,0 v -13265.6 l -9285.93,13265.6 z"
   id="path100"
   style="stroke-width:120.596" />
  <path
   id="path102"
   class="fil3 str1"
   d="m 664107.45,322109.57 v 2773.72 h -3617.88 v 6994.56 h -3256.08 v -6994.56 h -11215.46 v -2532.55 l 12300.8,-17607.03 h 2170.74 v 17365.86 z m -6873.96,0 v -13265.6 l -9285.93,13265.6 z" />
  <path
   class="fil2"
   d="m 794713.15,302934.78 -1567.75,3376.68 h -7959.33 l -1808.95,3497.28 c 3497.28,602.98 6271,1808.95 8321.13,3859.09 1688.36,1808.95 2532.52,3859.09 2532.52,6271 0,1447.15 -241.18,2773.72 -844.16,3979.67 -482.39,1205.97 -1205.98,2170.73 -2050.14,3014.92 -964.76,844.17 -1929.53,1567.75 -2894.32,2050.14 -1567.75,723.56 -3135.5,1085.36 -4703.25,1085.36 -1567.76,0 -2773.7,-361.8 -3497.29,-844.19 -723.58,-482.38 -1085.36,-1085.37 -1085.36,-1808.92 0,-361.81 241.2,-602.99 482.38,-964.77 361.81,-241.21 723.59,-361.81 1205.97,-361.81 241.18,0 602.98,0 844.16,120.6 241.21,120.61 723.59,361.78 1326.58,844.17 964.76,602.98 1929.53,964.79 2894.29,964.79 1567.75,0 2894.33,-602.98 4100.27,-1688.35 1085.37,-1205.97 1688.35,-2653.12 1688.35,-4341.48 0,-1567.75 -482.38,-3014.89 -1567.75,-4462.04 -964.76,-1447.18 -2411.91,-2532.55 -4220.87,-3256.11 -1447.15,-602.98 -3376.68,-964.76 -5788.62,-964.76 l 5065.06,-10371.27 z"
   id="path104"
   style="stroke-width:120.596" />
  <path
   id="path106"
   class="fil3 str1"
   d="m 794713.15,302934.78 -1567.75,3376.68 h -7959.33 l -1808.95,3497.28 c 3497.28,602.98 6271,1808.95 8321.13,3859.09 1688.36,1808.95 2532.52,3859.09 2532.52,6271 0,1447.15 -241.18,2773.72 -844.16,3979.67 -482.39,1205.97 -1205.98,2170.73 -2050.14,3014.92 -964.76,844.17 -1929.53,1567.75 -2894.32,2050.14 -1567.75,723.56 -3135.5,1085.36 -4703.25,1085.36 -1567.76,0 -2773.7,-361.8 -3497.29,-844.19 -723.58,-482.38 -1085.36,-1085.37 -1085.36,-1808.92 0,-361.81 241.2,-602.99 482.38,-964.77 361.81,-241.21 723.59,-361.81 1205.97,-361.81 241.18,0 602.98,0 844.16,120.6 241.21,120.61 723.59,361.78 1326.58,844.17 964.76,602.98 1929.53,964.79 2894.29,964.79 1567.75,0 2894.33,-602.98 4100.27,-1688.35 1085.37,-1205.97 1688.35,-2653.12 1688.35,-4341.48 0,-1567.75 -482.38,-3014.89 -1567.75,-4462.04 -964.76,-1447.18 -2411.91,-2532.55 -4220.87,-3256.11 -1447.15,-602.98 -3376.68,-964.76 -5788.62,-964.76 l 5065.06,-10371.27 z" />
  <path
   class="fil2"
   d="m 992732.13,322471.35 -1808.93,5185.63 h -15798.11 v -723.56 c 4703.25,-4220.87 7959.36,-7718.18 9768.29,-10371.3 1929.56,-2653.09 2894.32,-5065.03 2894.32,-7235.76 0,-1688.33 -602.98,-3135.51 -1567.75,-4220.87 -1085.37,-1085.37 -2291.34,-1567.75 -3738.49,-1567.75 -1326.54,0 -2532.51,361.8 -3497.28,1085.36 -1085.37,723.59 -1808.95,1929.56 -2291.34,3376.71 h -723.59 c 241.21,-2411.94 1085.37,-4341.47 2532.55,-5547.44 1326.54,-1326.55 3014.9,-1929.53 5065.03,-1929.53 2170.74,0 3979.67,602.98 5426.81,2050.13 1447.18,1326.57 2170.74,3014.9 2170.74,4944.46 0,1326.54 -361.78,2653.12 -964.77,3979.66 -964.76,2170.74 -2532.51,4341.47 -4703.25,6753.39 -3256.1,3497.31 -5306.24,5668.02 -6029.8,6391.6 h 6873.99 c 1326.55,0 2411.92,0 2894.3,-120.6 602.98,-120.6 1085.37,-361.78 1567.75,-723.56 482.38,-241.2 844.16,-723.59 1205.97,-1326.57 z"
   id="path108"
   style="stroke-width:120.596" />
  <path
   id="path110"
   class="fil3 str1"
   d="m 992732.13,322471.35 -1808.93,5185.63 h -15798.11 v -723.56 c 4703.25,-4220.87 7959.36,-7718.18 9768.29,-10371.3 1929.56,-2653.09 2894.32,-5065.03 2894.32,-7235.76 0,-1688.33 -602.98,-3135.51 -1567.75,-4220.87 -1085.37,-1085.37 -2291.34,-1567.75 -3738.49,-1567.75 -1326.54,0 -2532.51,361.8 -3497.28,1085.36 -1085.37,723.59 -1808.95,1929.56 -2291.34,3376.71 h -723.59 c 241.21,-2411.94 1085.37,-4341.47 2532.55,-5547.44 1326.54,-1326.55 3014.9,-1929.53 5065.03,-1929.53 2170.74,0 3979.67,602.98 5426.81,2050.13 1447.18,1326.57 2170.74,3014.9 2170.74,4944.46 0,1326.54 -361.78,2653.12 -964.77,3979.66 -964.76,2170.74 -2532.51,4341.47 -4703.25,6753.39 -3256.1,3497.31 -5306.24,5668.02 -6029.8,6391.6 h 6873.99 c 1326.55,0 2411.92,0 2894.3,-120.6 602.98,-120.6 1085.37,-361.78 1567.75,-723.56 482.38,-241.2 844.16,-723.59 1205.97,-1326.57 z" />
  <path
   class="fil2"
   d="m 846931.31,305467.29 6512.21,-3135.5 h 723.59 v 22551.5 c 0,1447.15 0,2411.91 120.57,2773.69 120.6,361.81 361.81,602.99 844.19,844.19 361.78,241.18 1205.94,241.18 2411.91,361.78 v 723.59 h -10130.09 v -723.59 c 1326.58,-120.6 2050.16,-120.6 2411.94,-361.78 482.39,-241.2 723.56,-482.38 844.17,-723.58 120.6,-361.78 241.2,-1326.55 241.2,-2894.3 v -14471.57 c 0,-1929.53 -120.6,-3135.5 -241.2,-3738.48 -120.61,-361.78 -241.18,-723.56 -482.39,-844.17 -241.17,-241.2 -602.98,-361.78 -844.16,-361.78 -482.38,0 -1205.97,241.18 -2050.13,602.99 z"
   id="path112"
   style="stroke-width:120.596" />
  <path
   id="path114"
   class="fil3 str1"
   d="m 846931.31,305467.29 6512.21,-3135.5 h 723.59 v 22551.5 c 0,1447.15 0,2411.91 120.57,2773.69 120.6,361.81 361.81,602.99 844.19,844.19 361.78,241.18 1205.94,241.18 2411.91,361.78 v 723.59 h -10130.09 v -723.59 c 1326.58,-120.6 2050.16,-120.6 2411.94,-361.78 482.39,-241.2 723.56,-482.38 844.17,-723.58 120.6,-361.78 241.2,-1326.55 241.2,-2894.3 v -14471.57 c 0,-1929.53 -120.6,-3135.5 -241.2,-3738.48 -120.61,-361.78 -241.18,-723.56 -482.39,-844.17 -241.17,-241.2 -602.98,-361.78 -844.16,-361.78 -482.38,0 -1205.97,241.18 -2050.13,602.99 z" />
  <path
   class="fil2"
   d="m 222363.54,514076.01 6512.2,-3135.51 h 602.98 V 533492 c 0,1447.15 120.59,2411.94 241.19,2773.72 120.6,361.78 361.79,602.99 723.58,844.16 361.79,120.61 1205.96,241.21 2411.92,361.81 v 723.56 h -10009.48 v -723.56 c 1205.96,-120.6 2050.13,-120.6 2411.92,-361.81 361.79,-241.17 602.98,-482.38 723.58,-723.55 120.59,-361.81 241.19,-1326.58 241.19,-2894.33 v -14471.54 c 0,-1929.53 0,-3135.5 -241.19,-3738.48 0,-361.78 -241.19,-723.59 -482.39,-844.17 -241.19,-241.2 -482.38,-361.8 -844.17,-361.8 -482.39,0 -1205.96,241.2 -2050.14,602.98 z"
   id="path116"
   style="stroke-width:120.596" />
  <path
   id="path118"
   class="fil2"
   d="m 239247.01,524929.69 c 0,-3014.93 482.39,-5547.45 1326.56,-7838.76 964.77,-2170.73 2170.73,-3738.48 3617.89,-4823.85 1205.96,-844.19 2411.92,-1326.58 3738.48,-1326.58 2050.13,0 3859.08,1085.37 5426.83,3135.51 2050.13,2653.11 3014.9,6029.82 3014.9,10491.87 0,3135.5 -361.78,5668.02 -1326.56,7838.75 -844.17,2170.74 -1929.53,3738.49 -3376.69,4703.25 -1326.56,964.77 -2653.11,1447.18 -3979.67,1447.18 -2532.52,0 -4703.26,-1447.18 -6391.6,-4462.07 -1326.56,-2532.52 -2050.14,-5547.42 -2050.14,-9165.3 z m 3859.08,482.38 c 0,3738.49 361.79,6753.39 1326.56,9044.7 723.58,1929.56 1808.94,2894.32 3376.69,2894.32 602.98,0 1326.56,-361.78 2170.73,-964.76 723.58,-602.99 1326.56,-1688.36 1688.35,-3135.51 602.98,-2291.34 844.18,-5426.84 844.18,-9527.1 0,-3014.9 -241.2,-5547.42 -844.18,-7597.58 -482.38,-1567.75 -1085.36,-2532.52 -1808.94,-3256.08 -602.98,-361.8 -1205.96,-602.98 -2050.14,-602.98 -844.17,0 -1567.75,361.78 -2291.32,1205.97 -964.78,1085.34 -1567.76,2773.69 -1929.54,5065.03 -361.79,2411.91 -482.39,4703.25 -482.39,6873.99 z"
   style="stroke-width:120.596" />
  <path
   class="fil2"
   d="m 205480.07,781076.02 c -2170.73,-1688.33 -3497.29,-3135.5 -4100.27,-4100.27 -602.98,-1085.37 -964.77,-2170.73 -964.77,-3256.1 0,-1808.93 723.58,-3256.08 2050.14,-4462.05 1326.55,-1326.54 3135.5,-1929.53 5306.23,-1929.53 2170.73,0 3859.08,602.99 5185.64,1808.93 1326.56,1085.37 2050.13,2411.94 2050.13,3979.69 0,964.77 -361.78,1929.53 -1085.36,3014.9 -723.58,964.77 -2170.73,2170.74 -4462.06,3617.88 2291.33,1808.93 3859.08,3135.51 4582.65,4220.87 964.77,1326.55 1567.75,2773.7 1567.75,4220.87 0,1808.93 -723.57,3497.29 -2170.73,4823.83 -1447.15,1326.57 -3376.69,1929.56 -5668.02,1929.56 -2532.52,0 -4462.06,-844.19 -5909.21,-2411.94 -1085.37,-1205.94 -1688.35,-2653.12 -1688.35,-4100.27 0,-1205.94 361.79,-2411.91 1205.96,-3497.28 723.58,-1205.97 2170.73,-2411.91 4100.27,-3859.09 z m 3014.91,-2050.13 c 1688.34,-1447.15 2653.12,-2532.52 3014.9,-3376.68 482.39,-844.19 723.58,-1808.96 723.58,-2773.72 0,-1447.15 -482.38,-2532.52 -1205.96,-3256.11 -844.18,-844.16 -1808.94,-1205.94 -3135.5,-1205.94 -1447.16,0 -2532.52,361.78 -3376.7,1205.94 -844.17,723.59 -1205.96,1688.36 -1205.96,2653.12 0,723.59 120.6,1447.15 482.38,2050.13 361.79,723.59 844.18,1326.58 1567.76,1929.56 z m -2050.14,2773.72 c -1205.96,964.76 -1929.54,1929.53 -2532.52,3014.9 -482.38,1085.36 -723.58,2291.34 -723.58,3497.28 0,1688.35 482.39,3014.93 1326.56,3979.69 964.77,1085.37 2170.73,1567.75 3617.89,1567.75 1326.56,0 2532.52,-361.78 3376.69,-1205.97 844.18,-723.56 1326.56,-1688.35 1326.56,-2894.3 0,-964.76 -241.19,-1808.95 -844.17,-2532.51 -844.17,-1326.58 -2773.71,-3135.5 -5547.43,-5426.84 z"
   id="path120"
   style="stroke-width:120.596" />
  <path
   class="fil2"
   d="m 347663,642872.77 v 723.56 c -1808.92,241.21 -3135.5,602.99 -4220.87,1085.37 -1085.36,482.39 -2170.73,1326.58 -3256.1,2411.94 -1085.37,964.77 -1929.53,2170.74 -2653.12,3497.29 -723.56,1326.57 -1326.54,2773.72 -1808.93,4582.65 1929.53,-1326.55 3859.09,-1929.54 5668.02,-1929.54 1808.96,0 3376.71,723.59 4703.25,2170.74 1326.58,1447.15 2050.14,3376.68 2050.14,5668.02 0,2291.34 -723.56,4220.87 -2050.14,6150.4 -1567.75,2170.74 -3738.48,3256.1 -6391.6,3256.1 -1808.93,0 -3376.68,-602.98 -4703.25,-1808.95 -2411.92,-2291.31 -3617.89,-5306.21 -3617.89,-9044.7 0,-2411.94 482.38,-4703.25 1326.57,-6873.99 964.77,-2050.13 2411.92,-3979.66 4100.27,-5668.02 1808.93,-1688.35 3497.28,-2773.72 5185.64,-3376.7 1567.75,-482.39 3135.5,-844.17 4462.04,-844.17 z m -12180.22,13747.98 c -241.18,1808.93 -361.78,3135.5 -361.78,4220.84 0,1326.58 241.2,2653.12 602.98,4100.3 482.39,1567.75 1205.97,2653.12 2170.74,3497.28 602.99,723.59 1447.15,964.77 2411.91,964.77 1085.37,0 2050.14,-482.39 3014.9,-1567.76 844.19,-1085.36 1326.58,-2653.11 1326.58,-4582.64 0,-2291.34 -482.39,-4220.87 -1326.58,-5909.23 -844.16,-1567.75 -2170.71,-2411.91 -3738.46,-2411.91 -482.41,0 -1085.36,120.6 -1688.35,361.78 -482.38,120.6 -1326.57,602.98 -2411.94,1326.57 z"
   id="path122"
   style="stroke-width:120.596" />
  <path
   class="fil2"
   d="m 85004.436,786985.24 v 2773.72 h -3617.887 v 6994.57 h -3256.095 v -6994.57 h -11215.45 v -2532.51 l 12300.815,-17607.07 h 2170.73 v 17365.86 z m -6873.982,0 v -13265.59 l -9285.911,13265.59 z"
   id="path124"
   style="stroke-width:120.596" />
  <path
   class="fil2"
   d="m 150126.41,645405.29 -1447.15,3256.11 h -8079.95 l -1808.94,3617.88 c 3617.88,482.38 6271,1808.93 8321.14,3859.06 1808.94,1808.96 2653.11,3859.09 2653.11,6271 0,1447.18 -361.79,2773.73 -844.17,3859.09 -602.98,1205.97 -1326.56,2291.34 -2170.73,3135.51 -844.18,844.16 -1808.94,1447.14 -2894.31,2050.13 -1447.16,602.98 -3014.91,964.76 -4582.66,964.76 -1688.34,0 -2773.71,-241.17 -3497.29,-723.56 -723.58,-602.98 -1085.36,-1205.97 -1085.36,-1808.95 0,-361.78 120.59,-723.56 482.38,-964.77 241.19,-241.2 602.98,-361.78 1085.37,-361.78 361.79,0 602.98,0 844.17,120.58 241.19,120.6 723.58,361.81 1326.56,723.59 964.77,723.58 2050.13,1085.36 3014.91,1085.36 1567.75,0 2894.3,-602.98 3979.67,-1808.95 1205.96,-1085.34 1808.94,-2532.52 1808.94,-4220.84 0,-1567.75 -602.98,-3135.51 -1567.75,-4462.08 -1085.36,-1447.15 -2532.52,-2532.52 -4341.46,-3256.1 -1326.56,-602.99 -3376.69,-964.77 -5788.62,-1085.37 l 5065.04,-10250.67 z"
   id="path126"
   style="stroke-width:120.596" />
  <path
   class="fil2"
   d="m 281938.07,789397.16 -1808.94,5065.06 h -15798.11 v -723.59 c 4703.26,-4220.87 7959.35,-7597.55 9768.3,-10250.67 1929.54,-2653.12 2894.31,-5185.63 2894.31,-7356.37 0,-1688.35 -602.98,-3014.9 -1567.76,-4100.27 -1085.36,-1085.36 -2291.32,-1688.35 -3738.48,-1688.35 -1326.56,0 -2411.92,361.78 -3497.29,1085.37 -1085.36,844.16 -1808.94,1929.53 -2291.32,3376.68 h -723.58 c 241.19,-2411.92 1085.36,-4220.87 2532.52,-5547.42 1326.56,-1326.54 3014.9,-1929.53 5065.04,-1929.53 2170.73,0 3979.67,723.56 5426.83,2050.13 1447.15,1447.15 2170.73,3014.9 2170.73,4944.43 0,1326.58 -361.79,2653.12 -964.77,4100.27 -964.77,2050.13 -2532.52,4341.47 -4703.25,6632.81 -3256.1,3617.89 -5306.23,5788.62 -6029.81,6391.58 h 6873.98 c 1326.56,0 2411.93,0 2894.31,-120.57 602.98,-120.61 1085.37,-361.81 1567.75,-602.99 482.39,-361.78 844.17,-844.19 1205.96,-1326.57 z"
   id="path128"
   style="stroke-width:120.596" />
  <path
   class="fil2"
   d="m 399760.56,768775.22 6512.21,-3135.5 h 723.56 v 22430.89 c 0,1567.75 0,2411.91 120.6,2773.72 120.6,361.78 361.81,723.56 844.19,844.17 361.78,241.2 1205.94,361.77 2411.91,361.77 v 723.59 h -10130.09 v -723.59 c 1326.58,0 2170.74,-120.57 2532.55,-361.77 361.78,-120.61 602.95,-361.78 723.56,-723.59 120.6,-361.78 241.2,-1326.55 241.2,-2894.3 v -14350.96 c 0,-1929.53 -120.6,-3256.08 -241.2,-3738.46 -120.61,-482.38 -241.18,-723.59 -482.39,-964.79 -241.17,-120.58 -482.38,-241.18 -844.16,-241.18 -482.38,0 -1205.97,120.6 -2050.13,602.98 z"
   id="path130"
   style="stroke-width:120.596" />
  <path
   class="fil2"
   d="m 967045.16,764335.86 6512.18,-3135.5 h 723.59 v 22430.89 c 0,1447.18 0,2411.94 120.57,2773.72 120.61,361.78 361.81,723.59 844.19,844.16 361.78,241.21 1205.98,361.81 2411.92,361.81 v 723.56 h -10130.07 v -723.56 c 1326.55,0 2050.14,-120.6 2411.92,-361.81 361.78,-120.57 723.59,-361.77 844.16,-723.55 120.6,-361.78 241.21,-1326.58 241.21,-2894.33 v -14350.93 c 0,-1929.53 -120.61,-3256.11 -241.21,-3738.49 -120.57,-482.38 -241.18,-723.59 -482.38,-964.77 -241.18,-241.2 -602.99,-241.2 -844.17,-241.2 -602.98,0 -1205.97,120.6 -2050.13,602.98 z"
   id="path132"
   style="stroke-width:120.596" />
  <path
   id="path134"
   class="fil2"
   d="m 983928.61,775189.54 c 0,-3014.93 482.38,-5668.05 1447.15,-7838.75 844.19,-2170.74 2050.13,-3859.09 3617.88,-4944.46 1205.97,-844.16 2411.95,-1205.97 3617.92,-1205.97 2050.13,0 3859.06,964.79 5547.41,3014.92 2050.13,2653.12 3014.93,6150.41 3014.93,10491.88 0,3135.5 -482.4,5788.59 -1326.58,7959.33 -964.76,2050.13 -2050.13,3617.88 -3376.7,4703.25 -1447.15,964.76 -2773.72,1447.15 -3979.67,1447.15 -2653.12,0 -4703.25,-1567.76 -6391.6,-4582.65 -1447.15,-2532.52 -2170.74,-5547.42 -2170.74,-9044.7 z m 3859.09,482.38 c 0,3617.89 482.38,6632.79 1326.55,8924.12 844.19,1929.54 1929.56,2894.3 3376.7,2894.3 723.56,0 1447.15,-241.21 2170.74,-964.76 723.56,-602.99 1326.54,-1688.36 1688.32,-3135.51 602.99,-2291.34 964.8,-5426.84 964.8,-9527.1 0,-3014.9 -361.81,-5547.42 -964.8,-7597.55 -482.38,-1447.18 -1085.36,-2532.52 -1808.92,-3135.5 -482.39,-482.39 -1205.97,-723.59 -1929.53,-723.59 -844.2,0 -1688.36,482.38 -2411.95,1205.97 -844.16,1085.37 -1567.75,2773.69 -1929.53,5185.63 -241.2,2291.31 -482.38,4582.65 -482.38,6873.99 z"
   style="stroke-width:120.596" />
  <path
   class="fil2"
   d="m 916394.72,652543.17 c -2170.7,-1688.32 -3497.28,-3014.9 -4100.26,-4100.27 -602.99,-1085.36 -964.77,-2170.73 -964.77,-3256.1 0,-1688.32 723.59,-3256.08 2050.14,-4462.05 1326.57,-1326.57 3135.5,-1929.53 5306.23,-1929.53 2170.74,0 3979.67,602.96 5185.64,1808.93 1326.57,1085.37 2050.13,2411.94 2050.13,3979.69 0,964.77 -361.78,1929.53 -1085.37,3014.9 -723.56,1085.37 -2170.73,2291.31 -4462.04,3617.89 2291.31,1808.92 3859.06,3256.1 4582.65,4220.87 1085.37,1326.54 1567.75,2773.69 1567.75,4220.87 0,1929.53 -723.59,3497.28 -2170.74,4823.82 -1447.15,1326.58 -3256.1,1929.56 -5668.02,1929.56 -2532.51,0 -4462.04,-723.59 -5909.22,-2291.34 -1085.37,-1326.54 -1688.32,-2653.12 -1688.32,-4220.87 0,-1205.94 361.78,-2291.31 1205.94,-3497.28 844.19,-1085.37 2170.73,-2411.91 4100.26,-3859.09 z m 3135.51,-2050.13 c 1567.75,-1447.15 2532.54,-2532.52 3014.92,-3376.68 361.78,-844.19 602.99,-1688.35 602.99,-2773.72 0,-1447.15 -361.81,-2411.92 -1205.97,-3256.11 -723.59,-723.56 -1808.96,-1205.94 -3135.5,-1205.94 -1326.58,0 -2411.95,482.38 -3256.11,1205.94 -844.16,723.59 -1326.54,1688.36 -1326.54,2773.73 0,602.98 241.17,1326.54 482.38,2050.13 361.78,602.98 844.16,1326.54 1567.75,1929.53 z m -2170.71,2894.32 c -1085.37,844.17 -1929.56,1808.93 -2411.94,2894.3 -602.99,1085.37 -844.17,2291.34 -844.17,3497.28 0,1688.35 482.39,3014.93 1447.15,4100.3 844.16,964.76 2050.14,1447.14 3497.28,1447.14 1447.18,0 2532.55,-361.78 3376.71,-1205.97 844.16,-723.56 1326.55,-1688.35 1326.55,-2894.29 0,-844.19 -241.18,-1688.36 -723.56,-2532.52 -964.77,-1326.57 -2894.33,-3135.5 -5668.02,-5306.24 z"
   id="path136"
   style="stroke-width:120.596" />
  <path
   class="fil2"
   d="m 860076.3,763009.31 v 723.59 c -1808.93,241.18 -3135.5,602.96 -4220.87,1085.34 -1085.37,482.41 -2170.74,1326.58 -3256.07,2291.34 -1085.37,1085.37 -1929.56,2291.34 -2653.12,3617.88 -723.59,1205.98 -1326.58,2773.73 -1688.36,4582.65 1808.93,-1326.54 3738.49,-1929.53 5547.42,-1929.53 1808.95,0 3376.7,723.59 4823.85,2170.74 1326.55,1447.15 1929.53,3376.68 1929.53,5668.02 0,2170.73 -602.98,4220.87 -2050.13,6029.79 -1567.75,2291.34 -3738.49,3376.71 -6391.61,3376.71 -1808.92,0 -3376.67,-602.98 -4582.65,-1808.95 -2532.51,-2291.31 -3738.48,-5426.82 -3738.48,-9044.7 0,-2411.94 482.38,-4703.25 1447.17,-6873.99 964.77,-2170.74 2291.31,-3979.66 4100.27,-5668.02 1688.35,-1688.35 3376.68,-2773.72 5065.03,-3376.7 1567.75,-602.99 3135.5,-844.17 4462.08,-844.17 z m -12180.2,13747.98 c -241.2,1688.33 -361.81,3135.5 -361.81,4220.87 0,1326.55 241.21,2653.09 723.59,4100.27 361.78,1447.15 1085.37,2653.12 2050.14,3497.28 602.98,602.98 1447.14,964.76 2411.91,964.76 1085.37,0 2170.74,-482.38 3014.93,-1567.75 844.16,-1085.36 1326.54,-2653.12 1326.54,-4582.65 0,-2291.34 -482.38,-4220.87 -1326.54,-5909.22 -844.19,-1567.75 -2170.74,-2411.91 -3738.49,-2411.91 -482.38,0 -1085.37,120.6 -1567.75,361.78 -602.99,120.6 -1447.18,602.98 -2532.52,1326.57 z"
   id="path138"
   style="stroke-width:120.596" />
  <path
   class="fil2"
   d="m 795798.52,780857.56 v 2773.69 h -3497.28 v 7115.2 h -3256.11 v -7115.2 H 777829.7 v -2411.91 l 12300.8,-17727.64 h 2170.74 v 17365.86 z m -6753.39,0 v -13144.99 l -9406.5,13144.99 z"
   id="path140"
   style="stroke-width:120.596" />
  <path
   class="fil2"
   d="m 826309.37,507104.16 -1567.75,3376.68 h -7959.36 l -1808.92,3497.31 c 3497.28,602.95 6271,1808.92 8321.13,3979.66 1688.33,1688.35 2532.52,3859.09 2532.52,6271 0,1326.55 -241.21,2653.12 -844.19,3859.09 -482.38,1205.95 -1205.94,2170.71 -2170.71,3014.9 -844.19,844.17 -1808.96,1567.75 -2773.72,2050.14 -1567.75,723.56 -3135.5,1085.36 -4703.25,1085.36 -1567.75,0 -2773.73,-241.2 -3497.28,-844.19 -723.59,-482.38 -1085.37,-1085.37 -1085.37,-1808.92 0,-361.78 241.17,-602.99 482.38,-964.77 361.78,-241.21 723.56,-361.81 1205.94,-361.81 241.21,0 602.99,0 844.19,120.6 241.18,120.61 723.56,361.78 1326.55,844.2 964.76,602.95 1929.56,964.76 2894.32,964.76 1567.75,0 2894.3,-602.98 4100.27,-1688.35 1085.37,-1205.97 1688.35,-2653.12 1688.35,-4220.87 0,-1688.36 -482.38,-3135.5 -1567.75,-4582.65 -964.76,-1326.58 -2411.94,-2411.94 -4220.87,-3256.11 -1447.15,-482.38 -3376.7,-844.16 -5788.62,-964.76 l 5065.03,-10371.27 z"
   id="path142"
   style="stroke-width:120.596" />
  <path
   class="fil2"
   d="m 729952.99,663155.65 -1808.93,5185.63 h -15677.51 v -844.16 c 4582.65,-4220.87 7838.75,-7597.58 9768.29,-10250.7 1808.95,-2653.12 2773.72,-5065.03 2773.72,-7356.37 0,-1688.32 -482.39,-3014.9 -1567.75,-4100.26 -964.77,-1085.37 -2291.34,-1688.36 -3738.49,-1688.36 -1205.97,0 -2411.91,361.81 -3497.28,1205.97 -964.8,723.59 -1808.96,1808.96 -2291.34,3256.11 h -723.59 c 361.81,-2411.92 1205.97,-4220.87 2532.55,-5547.42 1326.54,-1205.97 3014.89,-1929.56 5065.03,-1929.56 2170.73,0 3979.66,723.59 5426.81,2050.14 1447.18,1447.17 2170.74,3135.5 2170.74,4944.45 0,1326.55 -361.78,2773.73 -964.77,4100.27 -964.77,2050.14 -2532.52,4341.47 -4703.25,6753.39 -3256.11,3497.28 -5306.24,5668.01 -6029.8,6391.6 h 6873.99 c 1447.15,0 2411.91,-120.6 3014.9,-241.2 482.38,-120.58 964.76,-241.18 1447.15,-602.99 482.38,-361.78 844.16,-723.56 1205.97,-1326.54 z"
   id="path144"
   style="stroke-width:120.596" />
  <path
   class="fil2"
   d="m 649756.52,768436.15 6512.18,-3135.5 h 723.59 v 22430.9 c 0,1567.75 0,2532.51 120.6,2894.29 120.6,361.78 361.78,602.99 844.16,844.16 361.78,120.61 1205.97,241.21 2411.95,241.21 v 723.59 h -10130.1 v -723.59 c 1326.55,0 2050.14,-120.6 2411.92,-241.21 361.8,-241.17 723.58,-482.38 844.19,-844.16 120.57,-241.2 241.17,-1205.97 241.17,-2894.29 v -14350.97 c 0,-1929.53 -120.6,-3135.5 -241.17,-3738.48 -120.61,-361.78 -241.21,-723.56 -482.39,-844.17 -241.2,-241.2 -602.98,-361.78 -844.19,-361.78 -602.98,0 -1205.94,241.18 -2050.13,602.96 z"
   id="path146"
   style="stroke-width:120.596" />
  <path
   class="fil2"
   d="m 18435.328,44497.063 v 844.174 c -1929.54,-964.771 -3617.887,-2170.733 -4944.446,-3497.29 -1929.54,-1929.539 -3376.695,-4100.272 -4341.4643,-6753.388 -1085.3659,-2532.522 -1567.7508,-5185.638 -1567.7508,-7959.351 0,-4100.271 964.7696,-7838.753 3014.9051,-11094.852 2050.136,-3376.695 4582.657,-5788.619 7838.756,-7235.7738 v 844.1734 c -1567.751,844.1734 -2894.31,2170.7324 -3979.676,3617.8874 -1085.366,1567.751 -1808.944,3497.291 -2291.328,5909.216 -602.982,2291.327 -844.174,4823.848 -844.174,7356.368 0,2773.713 241.192,5426.83 723.577,7597.561 361.789,1808.945 723.577,3256.098 1205.963,4341.464 482.385,1205.962 1205.962,2170.733 1929.539,3256.098 844.174,964.768 1929.54,1929.539 3256.099,2773.713 z"
   id="path148"
   style="stroke-width:120.596" />
  <path
   id="path150"
   class="fil2"
   d="M 37730.722,27854.786 H 27359.448 l -1688.347,4220.868 c -482.385,964.768 -723.578,1808.942 -723.578,2291.328 0,361.788 241.193,723.577 602.982,1085.365 361.788,241.191 1205.962,482.386 2532.52,602.98 v 723.58 H 19641.29 v -723.58 c 1085.366,-241.191 1808.943,-482.383 2170.732,-844.171 602.981,-602.983 1447.154,-1808.945 2170.732,-3738.484 L 33389.258,9524.1596 h 723.577 l 9165.313,22189.7044 c 844.174,1688.347 1447.154,2894.309 2050.134,3376.695 602.982,602.979 1447.156,844.174 2532.521,964.768 v 723.58 H 37368.934 v -723.58 c 1085.365,-120.594 1808.942,-241.191 2170.73,-602.98 361.789,-241.191 602.983,-602.98 602.983,-1085.365 0,-602.983 -361.789,-1447.157 -844.174,-2653.118 z m -602.983,-1447.155 -4462.058,-10733.063 -4582.656,10733.063 z"
   style="stroke-width:120.596" />
  <path
   id="path152"
   class="fil2"
   d="m 49187.363,9644.7556 v -844.1734 c 2050.133,964.7696 3738.481,2170.7318 5065.041,3497.2908 1808.942,1929.54 3256.095,4100.272 4341.464,6753.389 964.768,2532.521 1447.153,5185.637 1447.153,7959.35 0,4100.272 -964.771,7838.755 -2894.31,11094.851 -2050.133,3376.696 -4703.252,5788.618 -7959.348,7235.774 v -844.174 c 1688.345,-844.174 3014.904,-2050.136 4100.27,-3617.887 964.771,-1567.75 1808.945,-3497.29 2291.327,-5788.617 482.386,-2411.925 723.577,-4944.445 723.577,-7476.966 0,-2773.713 -241.191,-5306.233 -602.98,-7597.561 -361.788,-1808.943 -723.576,-3256.098 -1326.559,-4341.464 -482.383,-1085.366 -1085.365,-2170.733 -1929.539,-3135.503 -844.174,-964.77 -1808.942,-1929.54 -3256.096,-2894.3094 z"
   style="stroke-width:120.596" />
  <path
   class="fil2"
   d="m 600432.66,44497.063 v 844.174 c -2050.14,-964.771 -3617.89,-2170.733 -4944.43,-3497.29 -1929.56,-1929.539 -3376.71,-4100.272 -4341.47,-6753.388 -1085.37,-2532.522 -1567.75,-5185.638 -1567.75,-7959.351 0,-4100.271 964.76,-7838.753 3014.89,-11094.852 1929.56,-3376.695 4582.65,-5788.619 7838.76,-7235.7738 v 844.1734 c -1688.36,844.1734 -3014.9,2170.7324 -3979.67,3617.8874 -1085.36,1567.751 -1808.95,3497.291 -2291.34,5909.216 -602.98,2291.327 -844.16,4823.848 -844.16,7356.368 0,2773.713 241.18,5426.83 723.56,7597.561 241.21,1808.945 723.59,3256.098 1205.97,4341.464 482.39,1205.962 1085.37,2170.733 1929.53,3256.098 844.19,964.768 1929.56,1929.539 3256.11,2773.713 z"
   id="path154"
   style="stroke-width:120.596" />
  <path
   id="path156"
   class="fil2"
   d="m 619848.65,23151.533 c 1808.96,361.789 3256.11,964.77 4100.27,1929.54 1326.57,1205.962 1929.56,2653.117 1929.56,4341.464 0,1326.558 -361.81,2653.117 -1205.97,3859.08 -844.19,1205.959 -2050.14,2050.133 -3497.28,2653.116 -1447.18,482.385 -3617.92,844.174 -6632.82,844.174 h -12542 v -723.58 h 964.76 c 1085.37,0 1929.56,-361.789 2411.95,-1085.365 241.17,-482.386 482.38,-1447.154 482.38,-2894.308 v -17245.26 c 0,-1688.347 -241.21,-2773.714 -602.99,-3135.502 -482.38,-602.982 -1326.54,-844.174 -2291.34,-844.174 h -964.76 v -723.578 h 11456.64 c 2170.73,0 3859.09,120.597 5185.63,482.385 1929.56,482.385 3376.71,1205.963 4462.08,2411.925 1085.37,1205.963 1567.75,2653.118 1567.75,4220.869 0,1326.558 -361.78,2532.52 -1205.97,3497.29 -844.17,1085.366 -2050.14,1929.539 -3617.89,2411.924 z m -10250.66,-1085.365 c 482.38,120.596 964.76,120.596 1688.32,241.192 602.99,0 1205.97,0 2050.16,0 1808.93,0 3256.08,-241.192 4220.84,-602.981 964.8,-361.789 1688.36,-1085.366 2291.34,-1929.54 482.39,-844.173 723.59,-1688.346 723.59,-2773.713 0,-1567.751 -602.98,-2894.31 -1929.56,-3979.676 -1205.94,-1085.366 -3135.5,-1567.751 -5547.41,-1567.751 -1326.55,0 -2411.92,120.596 -3497.28,361.789 z m 0,12783.199 c 1447.14,361.789 3014.89,482.383 4462.04,482.383 2411.94,0 4220.87,-482.383 5426.84,-1567.751 1326.55,-1085.365 1929.53,-2411.923 1929.53,-3979.674 0,-1085.366 -361.78,-2050.135 -844.16,-3014.905 -602.98,-964.77 -1567.75,-1688.347 -2773.72,-2170.732 -1326.55,-602.981 -2894.3,-844.173 -4703.25,-844.173 -844.17,0 -1567.75,0 -2170.74,0 -482.38,0 -964.76,120.596 -1326.54,120.596 z"
   style="stroke-width:120.596" />
  <path
   id="path158"
   class="fil2"
   d="m 629013.98,9644.7556 v -844.1734 c 1929.53,964.7696 3617.88,2170.7318 4944.43,3497.2908 1929.53,1929.54 3376.71,4100.272 4341.47,6753.389 1085.37,2532.521 1567.75,5185.637 1567.75,7959.35 0,4100.272 -964.76,7838.755 -3014.9,11094.851 -2050.16,3376.696 -4582.67,5788.618 -7838.75,7235.774 v -844.174 c 1567.75,-844.174 2894.3,-2050.136 3979.66,-3617.887 1085.37,-1567.75 1808.93,-3497.29 2291.34,-5788.617 482.39,-2411.925 844.17,-4944.445 844.17,-7476.966 0,-2773.713 -241.21,-5306.233 -723.59,-7597.561 -361.78,-1808.943 -723.56,-3256.098 -1205.94,-4341.464 -482.39,-1085.366 -1205.98,-2170.733 -1929.56,-3135.503 -844.17,-964.77 -1929.53,-1929.54 -3256.08,-2894.3094 z"
   style="stroke-width:120.596" />
  <path
   id="path160"
   class="fil3 str1"
   d="m 600432.66,44497.063 v 844.174 c -2050.14,-964.771 -3617.89,-2170.733 -4944.43,-3497.29 -1929.56,-1929.539 -3376.71,-4100.272 -4341.47,-6753.388 -1085.37,-2532.522 -1567.75,-5185.638 -1567.75,-7959.351 0,-4100.271 964.76,-7838.753 3014.89,-11094.852 1929.56,-3376.695 4582.65,-5788.619 7838.76,-7235.7738 v 844.1734 c -1688.36,844.1734 -3014.9,2170.7324 -3979.67,3617.8874 -1085.36,1567.751 -1808.95,3497.291 -2291.34,5909.216 -602.98,2291.327 -844.16,4823.848 -844.16,7356.368 0,2773.713 241.18,5426.83 723.56,7597.561 241.21,1808.945 723.59,3256.098 1205.97,4341.464 482.39,1205.962 1085.37,2170.733 1929.53,3256.098 844.19,964.768 1929.56,1929.539 3256.11,2773.713 z" />
  <path
   id="4"
   class="fil3 str1"
   d="m 619848.65,23151.533 c 1808.96,361.789 3256.11,964.77 4100.27,1929.54 1326.57,1205.962 1929.56,2653.117 1929.56,4341.464 0,1326.558 -361.81,2653.117 -1205.97,3859.08 -844.19,1205.959 -2050.14,2050.133 -3497.28,2653.116 -1447.18,482.385 -3617.92,844.174 -6632.82,844.174 h -12542 v -723.58 h 964.76 c 1085.37,0 1929.56,-361.789 2411.95,-1085.365 241.17,-482.386 482.38,-1447.154 482.38,-2894.308 v -17245.26 c 0,-1688.347 -241.21,-2773.714 -602.99,-3135.502 -482.38,-602.982 -1326.54,-844.174 -2291.34,-844.174 h -964.76 v -723.578 h 11456.64 c 2170.73,0 3859.09,120.597 5185.63,482.385 1929.56,482.385 3376.71,1205.963 4462.08,2411.925 1085.37,1205.963 1567.75,2653.118 1567.75,4220.869 0,1326.558 -361.78,2532.52 -1205.97,3497.29 -844.17,1085.366 -2050.14,1929.539 -3617.89,2411.924 z m -10250.66,-1085.365 c 482.38,120.596 964.76,120.596 1688.32,241.192 602.99,0 1205.97,0 2050.16,0 1808.93,0 3256.08,-241.192 4220.84,-602.981 964.8,-361.789 1688.36,-1085.366 2291.34,-1929.54 482.39,-844.173 723.59,-1688.346 723.59,-2773.713 0,-1567.751 -602.98,-2894.31 -1929.56,-3979.676 -1205.94,-1085.366 -3135.5,-1567.751 -5547.41,-1567.751 -1326.55,0 -2411.92,120.596 -3497.28,361.789 z m 0,12783.199 c 1447.14,361.789 3014.89,482.383 4462.04,482.383 2411.94,0 4220.87,-482.383 5426.84,-1567.751 1326.55,-1085.365 1929.53,-2411.923 1929.53,-3979.674 0,-1085.366 -361.78,-2050.135 -844.16,-3014.905 -602.98,-964.77 -1567.75,-1688.347 -2773.72,-2170.732 -1326.55,-602.981 -2894.3,-844.173 -4703.25,-844.173 -844.17,0 -1567.75,0 -2170.74,0 -482.38,0 -964.76,120.596 -1326.54,120.596 z" />
  <path
   id="5"
   class="fil3 str1"
   d="m 629013.98,9644.7556 v -844.1734 c 1929.53,964.7696 3617.88,2170.7318 4944.43,3497.2908 1929.53,1929.54 3376.71,4100.272 4341.47,6753.389 1085.37,2532.521 1567.75,5185.637 1567.75,7959.35 0,4100.272 -964.76,7838.755 -3014.9,11094.851 -2050.16,3376.696 -4582.67,5788.618 -7838.75,7235.774 v -844.174 c 1567.75,-844.174 2894.3,-2050.136 3979.66,-3617.887 1085.37,-1567.75 1808.93,-3497.29 2291.34,-5788.617 482.39,-2411.925 844.17,-4944.445 844.17,-7476.966 0,-2773.713 -241.21,-5306.233 -723.59,-7597.561 -361.78,-1808.943 -723.56,-3256.098 -1205.94,-4341.464 -482.39,-1085.366 -1205.98,-2170.733 -1929.56,-3135.503 -844.17,-964.77 -1929.53,-1929.54 -3256.08,-2894.3094 z" />
  <path
   class="fil2"
   d="m 19520.694,512892.78 v 723.56 c -1929.539,-964.77 -3617.887,-2170.74 -4944.446,-3497.28 -1929.54,-1929.53 -3376.694,-4100.27 -4341.465,-6753.39 -1085.3653,-2532.51 -1567.7503,-5185.63 -1567.7503,-7959.36 0,-4100.26 1085.3661,-7718.15 3014.9053,-11094.85 2050.137,-3376.68 4582.658,-5788.62 7838.756,-7235.77 v 844.19 c -1567.751,964.76 -2894.309,2170.71 -3979.676,3738.46 -964.77,1447.17 -1808.943,3497.31 -2291.328,5788.62 -482.386,2411.94 -723.578,4823.85 -723.578,7476.97 0,2773.72 120.596,5306.24 602.981,7597.55 361.789,1808.96 723.578,3256.1 1205.963,4341.47 482.385,1085.37 1205.962,2170.74 1929.54,3135.5 844.173,964.77 1929.54,1929.53 3256.098,2894.33 z"
   id="path164"
   style="stroke-width:120.596" />
  <path
   id="path166"
   class="fil2"
   d="m 44604.705,477799.28 602.982,9044.69 h -602.982 c -844.171,-2653.09 -1929.539,-4703.25 -3497.29,-5788.59 -1447.154,-1205.97 -3256.096,-1808.96 -5306.232,-1808.96 -1808.945,0 -3376.696,361.78 -4823.85,1326.58 -1447.153,844.16 -2532.518,2291.31 -3376.693,4341.44 -723.577,1929.53 -1205.962,4341.47 -1205.962,7235.77 0,2411.94 361.789,4582.68 1205.962,6271 723.577,1808.96 1929.54,3135.5 3497.291,4100.27 1447.153,964.79 3256.098,1447.18 5185.637,1447.18 1808.942,0 3256.096,-361.81 4582.656,-1085.37 1326.559,-844.19 2773.713,-2291.34 4341.463,-4462.08 l 602.98,361.81 c -1326.556,2411.92 -2894.307,4100.27 -4582.655,5185.64 -1808.942,1205.94 -3979.675,1688.32 -6391.6,1688.32 -4341.464,0 -7838.753,-1567.75 -10250.677,-4944.43 -1808.943,-2411.91 -2653.117,-5306.24 -2653.117,-8562.34 0,-2653.12 602.981,-5065.03 1808.943,-7356.37 1085.366,-2170.71 2773.713,-3979.66 4823.848,-5185.64 2170.733,-1205.94 4341.464,-1808.92 6873.985,-1808.92 1929.54,0 3738.482,482.38 5668.021,1447.14 482.385,241.21 964.771,361.78 1205.962,361.78 241.194,0 602.983,-120.57 844.174,-361.78 361.789,-361.78 602.983,-844.16 723.577,-1447.14 z"
   style="stroke-width:120.596" />
  <path
   id="path168"
   class="fil2"
   d="m 48101.995,477919.88 v -844.19 c 2050.136,1085.37 3617.887,2170.73 4944.446,3497.31 1929.54,1929.53 3376.693,4220.84 4341.464,6753.38 1085.365,2532.52 1567.751,5185.64 1567.751,8079.93 0,3979.67 -964.771,7718.16 -3014.907,11094.86 -1929.54,3256.11 -4582.656,5668.02 -7838.754,7115.17 v -723.56 c 1688.348,-964.8 3014.907,-2170.74 3979.675,-3738.49 1085.366,-1447.15 1808.945,-3376.71 2411.925,-5788.62 482.386,-2411.94 723.577,-4823.85 723.577,-7476.97 0,-2773.72 -241.191,-5306.24 -723.577,-7597.55 -241.191,-1808.96 -723.577,-3256.11 -1205.962,-4341.47 -482.386,-1085.37 -1085.366,-2050.14 -1929.54,-3135.5 -844.173,-964.77 -1929.539,-1929.54 -3256.098,-2894.3 z"
   style="stroke-width:120.596" />
  <path
   class="fil2"
   d="m 599347.29,512892.78 v 723.56 c -2050.13,-964.77 -3617.88,-2170.74 -4944.43,-3497.28 -1929.56,-1929.53 -3376.71,-4100.27 -4462.07,-6753.39 -964.77,-2532.51 -1447.15,-5185.63 -1447.15,-7959.36 0,-4100.26 964.76,-7718.15 3014.9,-11094.85 1929.56,-3376.68 4582.67,-5788.62 7838.75,-7235.77 v 844.19 c -1688.32,964.76 -3014.9,2170.71 -3979.66,3738.46 -1085.37,1447.17 -1808.96,3497.31 -2411.92,5788.62 -482.41,2411.94 -723.59,4823.85 -723.59,7476.97 0,2773.72 241.18,5306.24 602.99,7597.55 361.78,1808.96 844.16,3256.1 1326.54,4341.47 482.39,1085.37 1085.37,2170.74 1929.56,3135.5 844.17,964.77 1929.53,1929.53 3256.08,2894.33 z"
   id="path170"
   style="stroke-width:120.596" />
  <path
   id="path172"
   class="fil2"
   d="m 600915.04,505054.03 v -723.59 h 964.77 c 1085.36,0 1929.56,-361.78 2411.94,-1085.37 241.17,-361.78 361.78,-1326.55 361.78,-2894.3 v -17245.26 c 0,-1688.35 -120.61,-2653.11 -482.39,-3135.5 -482.38,-602.98 -1326.54,-844.19 -2291.33,-844.19 h -964.77 v -723.56 h 10853.68 c 3979.67,0 6994.56,482.38 9044.7,1326.55 2050.13,964.76 3738.48,2411.91 4944.46,4582.65 1326.54,2050.13 1929.53,4582.67 1929.53,7235.76 0,3738.49 -1085.37,6873.99 -3376.68,9406.51 -2532.55,2773.72 -6391.61,4100.3 -11577.24,4100.3 z m 7597.58,-1929.56 c 1567.75,361.8 3014.9,482.38 4100.26,482.38 3014.9,0 5547.42,-964.77 7597.55,-3135.5 1929.56,-2170.71 3014.93,-5065.04 3014.93,-8682.92 0,-3738.49 -1085.37,-6632.78 -3014.93,-8682.92 -2050.13,-2170.73 -4582.65,-3256.1 -7718.15,-3256.1 -1205.97,0 -2532.51,241.18 -3979.66,602.99 z"
   style="stroke-width:120.596" />
  <path
   id="path174"
   class="fil2"
   d="m 630099.32,477919.88 v -844.19 c 2050.16,1085.37 3617.91,2170.73 4944.46,3497.31 1929.53,1929.53 3376.71,4220.84 4341.47,6753.38 1085.37,2532.52 1567.75,5185.64 1567.75,8079.93 0,3979.67 -964.76,7718.16 -3014.93,11094.86 -1929.53,3256.11 -4582.65,5668.02 -7838.75,7115.17 v -723.56 c 1567.75,-964.8 3014.93,-2170.74 3979.69,-3738.49 1085.37,-1447.15 1808.93,-3376.71 2291.31,-5788.62 602.99,-2411.94 844.19,-4823.85 844.19,-7476.97 0,-2773.72 -241.2,-5306.24 -723.58,-7597.55 -241.18,-1808.96 -723.56,-3256.11 -1205.95,-4341.47 -482.41,-1085.37 -1085.36,-2050.14 -1929.56,-3135.5 -844.16,-964.77 -1929.53,-1929.54 -3256.1,-2894.3 z"
   style="stroke-width:120.596" />
 </g>
</svg>
