<?xml version="1.0" encoding="UTF-8"?>
<!DOCTYPE svg PUBLIC "-//W3C//DTD SVG 1.1//EN" "http://www.w3.org/Graphics/SVG/1.1/DTD/svg11.dtd">
<!-- Creator: CorelDRAW X7 -->
<svg xmlns="http://www.w3.org/2000/svg" xml:space="preserve" width="7in" height="3.5in" version="1.1" style="shape-rendering:geometricPrecision; text-rendering:geometricPrecision; image-rendering:optimizeQuality; fill-rule:evenodd; clip-rule:evenodd"
viewBox="0 0 7000 3500"
 xmlns:xlink="http://www.w3.org/1999/xlink">
 <defs>
  <style type="text/css">
   <![CDATA[
    .str0 {stroke:#373435;stroke-width:27.7795}
    .fil0 {fill:none}
    .fil1 {fill:#373435;fill-rule:nonzero}
   ]]>
  </style>
 </defs>
 <g id="Layer_x0020_1">
  <metadata id="CorelCorpID_0Corel-Layer"/>
  <path class="fil0 str0" d="M2307 953l0 1566m-186 186l-1565 0m-187 -184l0 -1571m186 -183l1568 0"/>
  <line class="fil0 str0" x1="496" y1="895" x2="2178" y2= "2576" />
  <line class="fil0 str0" x1="2178" y1="896" x2="499" y2= "2575" />
  <circle class="fil0 str0" cx="369" cy="767" r="183"/>
  <circle class="fil0 str0" cx="369" cy="2705" r="183"/>
  <circle class="fil0 str0" cx="2307" cy="2705" r="183"/>
  <circle class="fil0 str0" cx="2307" cy="767" r="183"/>
  <path class="fil0 str0" d="M5878 953l0 1566m-186 186l-1565 0m-187 -184l0 -1571m186 -183l1568 0"/>
  <circle class="fil0 str0" cx="3940" cy="767" r="183"/>
  <circle class="fil0 str0" cx="3940" cy="2705" r="183"/>
  <circle class="fil0 str0" cx="5878" cy="2705" r="183"/>
  <circle class="fil0 str0" cx="5878" cy="767" r="183"/>
  <path class="fil0 str0" d="M6535 1414l0 1566m-185 186l-1566 0m-186 -184l0 -1571m185 -183l1569 0"/>
  <circle class="fil0 str0" cx="4598" cy="1228" r="183"/>
  <circle class="fil0 str0" cx="4598" cy="3166" r="183"/>
  <circle class="fil0 str0" cx="6535" cy="3166" r="183"/>
  <circle class="fil0 str0" cx="6535" cy="1228" r="183"/>
  <line class="fil0 str0" x1="4092" y1="873" x2="4449" y2= "1124" />
  <line class="fil0 str0" x1="4092" y1="2811" x2="4449" y2= "3062" />
  <line class="fil0 str0" x1="6027" y1="2809" x2="6384" y2= "3060" />
  <line class="fil0 str0" x1="6030" y1="874" x2="6386" y2= "1124" />
  <path class="fil1" d="M1280 347l64 81c9,11 17,19 24,23 5,3 10,5 15,5l0 4 -96 0 0 -4c6,-1 10,-2 12,-3 2,-2 3,-3 3,-5 0,-4 -4,-11 -13,-22l-42 -53 -7 6 0 50c0,10 1,16 2,18 1,2 3,4 6,6 3,2 8,3 15,3l0 4 -93 0 0 -4 6 0c6,0 10,-1 13,-3 2,-1 4,-4 6,-7 1,-2 1,-8 1,-17l0 -121c0,-10 0,-16 -1,-18 -1,-3 -3,-5 -6,-6 -3,-2 -8,-3 -13,-3l-6 0 0 -5 92 0 0 5c-7,0 -11,1 -15,3 -2,1 -4,3 -5,6 -1,2 -2,8 -2,18l0 57 69 -55c9,-8 14,-14 14,-19 0,-3 -2,-6 -6,-8 -2,-1 -7,-2 -15,-2l0 -5 72 0 0 5c-7,0 -12,2 -15,3 -4,2 -12,9 -26,20l-53 43z"/>
  <path id="1" class="fil1" d="M1387 391l87 -118 17 0 0 118 17 0 0 28 -17 0 0 41 -38 0 0 -41 -66 0 0 -28zm13 0l53 0 0 -73 -53 73z"/>
  <path class="fil1" d="M5173 462c4,12 11,21 19,27 9,6 20,9 33,9 4,0 8,0 12,-1l0 8c-14,4 -26,6 -37,6 -17,0 -32,-4 -45,-13 -13,-8 -23,-20 -30,-36 -22,-5 -40,-16 -54,-33 -13,-17 -20,-37 -20,-61 0,-27 9,-50 28,-69 18,-18 41,-27 70,-27 28,0 52,9 70,28 18,18 27,41 27,68 0,24 -7,45 -21,62 -15,18 -32,29 -52,32zm-24 -180c-17,0 -29,9 -38,26 -7,14 -11,34 -11,60 0,32 5,55 17,71 7,10 18,16 32,16 13,0 24,-6 32,-16 11,-15 17,-37 17,-67 0,-30 -4,-51 -11,-65 -9,-16 -21,-25 -38,-25z"/>
  <path id="1" class="fil1" d="M5297 368l0 -5c11,-3 18,-5 22,-8 4,-2 7,-6 10,-12 3,-5 4,-10 4,-16 0,-7 -2,-14 -8,-19 -5,-5 -12,-8 -20,-8 -13,0 -24,7 -33,20l-5 -2c7,-15 15,-26 25,-34 10,-8 22,-11 34,-11 13,0 24,4 32,11 8,8 12,17 12,28 0,6 -2,13 -5,19 -4,6 -10,12 -18,17 10,5 18,11 24,19 5,7 8,17 8,28 0,19 -7,36 -21,49 -14,14 -32,20 -56,20 -15,0 -27,-2 -34,-7 -5,-4 -7,-9 -7,-14 0,-5 1,-8 4,-11 3,-3 6,-4 10,-4 3,0 6,0 9,2 1,0 6,4 15,11 9,7 17,11 25,11 7,0 12,-3 17,-8 5,-5 7,-12 7,-20 0,-12 -4,-24 -13,-34 -8,-11 -21,-18 -38,-22z"/>
 </g>
</svg>
