<?xml version="1.0" encoding="UTF-8" standalone="no"?>
<!-- Creator: CorelDRAW X7 -->

<svg
   xml:space="preserve"
   width="1024in"
   height="1100in"
   version="1.1"
   style="clip-rule:evenodd;fill-rule:evenodd;image-rendering:optimizeQuality;shape-rendering:geometricPrecision;text-rendering:geometricPrecision"
   viewBox="0 0 1024000 1100000"
   id="svg235"
   sodipodi:docname="gate2011Q36.svg"
   inkscape:version="1.1.2 (0a00cf5339, 2022-02-04)"
   xmlns:inkscape="http://www.inkscape.org/namespaces/inkscape"
   xmlns:sodipodi="http://sodipodi.sourceforge.net/DTD/sodipodi-0.dtd"
   xmlns="http://www.w3.org/2000/svg"
   xmlns:svg="http://www.w3.org/2000/svg"><sodipodi:namedview
   id="namedview237"
   pagecolor="#ffffff"
   bordercolor="#666666"
   borderopacity="1.0"
   inkscape:pageshadow="2"
   inkscape:pageopacity="0.0"
   inkscape:pagecheckerboard="0"
   inkscape:document-units="in"
   showgrid="false"
   inkscape:zoom="0.01"
   inkscape:cx="59500"
   inkscape:cy="31350"
   inkscape:window-width="3840"
   inkscape:window-height="2117"
   inkscape:window-x="0"
   inkscape:window-y="0"
   inkscape:window-maximized="1"
   inkscape:current-layer="Layer_x0020_1" />
 <defs
   id="defs4">
  <style
   type="text/css"
   id="style2">
   <![CDATA[
    .str1 {stroke:#373435;stroke-width:41.6654}
    .str0 {stroke:#373435;stroke-width:27.7795}
    .fil0 {fill:none}
    .fil1 {fill:#373435;fill-rule:nonzero}
   ]]>
  </style>
 </defs>
 <g
   id="Layer_x0020_1"
   inkscape:label="Layer 1"
   inkscape:groupmode="layer">
  <metadata
   id="CorelCorpID_0Corel-Layer" />
  <g
   id="_2497244352224"
   transform="matrix(125.44719,0,0,125.44719,-15719.832,-13666.174)">
   <circle
   class="fil0 str0"
   cx="1883"
   cy="5268"
   r="234"
   id="circle7" />
   <circle
   class="fil0 str0"
   cx="2430"
   cy="6147"
   r="234"
   id="circle9" />
   <circle
   class="fil0 str0"
   cx="1883"
   cy="7026"
   r="234"
   id="circle11" />
   <circle
   class="fil0 str0"
   cx="1336"
   cy="7904"
   r="234"
   id="circle13" />
   <line
   class="fil0 str0"
   x1="2007"
   y1="5467"
   x2="2306"
   y2="5948"
   id="line15" />
   <line
   class="fil0 str0"
   x1="2007"
   y1="7225"
   x2="2306"
   y2="7705"
   id="line17" />
   <line
   class="fil0 str0"
   x1="2554"
   y1="6346"
   x2="2853"
   y2="6827"
   id="line19" />
   <line
   class="fil0 str0"
   x1="1460"
   y1="8103"
   x2="1759"
   y2="8584"
   id="line21" />
   <line
   class="fil0 str0"
   x1="2306"
   y1="6346"
   x2="2007"
   y2="6827"
   id="line23" />
   <line
   class="fil0 str0"
   x1="1759"
   y1="5467"
   x2="1460"
   y2="5948"
   id="line25" />
   <line
   class="fil0 str0"
   x1="1759"
   y1="7225"
   x2="1460"
   y2="7705"
   id="line27" />
   <line
   class="fil0 str0"
   x1="1212"
   y1="8103"
   x2="913"
   y2="8584"
   id="line29" />
   <g
   id="g33">
    <path
   class="fil1"
   d="m 1869,5315 v -214 h 28 v 214 z m 87,-12 -73,132 -73,-132 z"
   id="path31" />
   </g>
   <g
   id="g37">
    <path
   class="fil1"
   d="m 2416,6193 v -213 h 28 v 213 z m 86,-11 -72,132 -73,-132 z"
   id="path35" />
   </g>
   <g
   id="g41">
    <path
   class="fil1"
   d="m 1956,6990 h -146 l 73,-132 z m -87,203 v -214 h 28 v 214 z"
   id="path39" />
   </g>
   <g
   id="g45">
    <path
   class="fil1"
   d="m 1409,7869 h -145 l 72,-132 z m -87,203 v -214 h 28 v 214 z"
   id="path43" />
   </g>
   <path
   class="fil1"
   d="m 1336,5985 v -22 h 121 v 17 c -12,13 -24,30 -35,51 -12,21 -21,42 -28,64 -4,16 -7,33 -8,52 h -24 c 1,-15 3,-33 9,-53 5,-21 13,-41 24,-61 10,-19 21,-35 32,-48 z"
   id="path47" />
   <path
   class="fil1"
   d="m 2308,7852 23,-3 c 2,13 7,22 13,28 6,5 14,8 23,8 11,0 20,-3 28,-11 7,-7 11,-17 11,-28 0,-10 -4,-19 -11,-26 -7,-6 -15,-10 -26,-10 -4,0 -10,1 -16,3 l 2,-20 c 2,0 3,0 4,0 10,0 19,-3 27,-8 7,-5 11,-13 11,-23 0,-9 -3,-15 -8,-21 -6,-6 -13,-8 -22,-8 -9,0 -17,3 -23,8 -5,6 -9,14 -11,26 l -23,-5 c 3,-15 9,-27 19,-35 10,-9 22,-13 37,-13 10,0 20,2 28,7 9,4 15,10 20,17 4,8 7,16 7,24 0,8 -2,16 -7,22 -4,7 -10,12 -19,16 11,3 20,8 26,16 6,8 9,18 9,30 0,16 -6,30 -18,41 -12,12 -27,17 -45,17 -16,0 -30,-5 -41,-14 -11,-10 -17,-23 -18,-38 z"
   id="path49" />
   <path
   class="fil1"
   d="m 1835,8783 v -44 h -81 v -21 l 85,-121 h 19 v 121 h 25 v 21 h -25 v 44 z m 0,-65 v -84 l -59,84 z"
   id="path51" />
   <path
   class="fil1"
   d="m 789,8731 23,-4 c 3,13 7,23 14,29 6,5 14,8 23,8 11,0 20,-4 27,-11 8,-8 11,-17 11,-28 0,-10 -3,-19 -10,-26 -7,-7 -16,-10 -26,-10 -5,0 -10,1 -16,2 l 2,-20 c 2,1 3,1 4,1 10,0 18,-3 26,-8 8,-5 12,-13 12,-23 0,-9 -3,-16 -9,-21 -5,-6 -13,-8 -22,-8 -8,0 -16,2 -22,8 -6,6 -10,14 -11,25 l -23,-4 c 3,-15 9,-27 19,-36 10,-8 22,-12 37,-12 10,0 19,2 28,6 9,5 15,11 20,18 4,8 6,16 6,24 0,8 -2,15 -6,22 -4,7 -11,12 -19,16 11,2 19,8 25,16 7,8 10,18 10,30 0,16 -6,30 -18,41 -12,11 -27,17 -45,17 -17,0 -30,-5 -41,-15 -11,-9 -17,-22 -19,-37 z"
   id="path53" />
   <path
   class="fil1"
   d="m 2977,7004 v 22 h -124 c 0,-6 1,-11 3,-16 3,-9 8,-17 15,-25 7,-8 17,-18 30,-28 20,-17 34,-30 41,-40 7,-9 11,-19 11,-27 0,-9 -3,-17 -10,-23 -6,-7 -15,-10 -25,-10 -11,0 -20,4 -27,10 -6,7 -10,16 -10,28 l -23,-3 c 1,-17 7,-31 18,-40 10,-9 25,-14 42,-14 18,0 32,5 43,15 10,10 15,22 15,37 0,8 -1,15 -4,22 -3,7 -8,15 -15,23 -8,8 -19,19 -36,33 -13,11 -22,19 -26,23 -4,4 -7,9 -10,13 z"
   id="path55" />
   <path
   class="fil1"
   d="m 313,4958 v 5 c -13,-6 -24,-14 -32,-23 -12,-12 -22,-26 -28,-43 -7,-17 -10,-34 -10,-52 0,-26 6,-50 19,-72 13,-22 30,-37 51,-46 v 5 c -11,6 -19,14 -26,24 -7,10 -12,22 -15,38 -3,15 -5,31 -5,48 0,18 2,34 4,49 3,12 5,21 8,28 4,7 8,14 13,20 5,7 12,13 21,19 z"
   id="path57" />
   <path
   id="1"
   class="fil1"
   d="m 475,4731 4,59 h -4 c -5,-18 -12,-31 -22,-38 -10,-8 -21,-12 -35,-12 -11,0 -22,3 -31,9 -9,6 -16,15 -22,28 -5,12 -8,28 -8,47 0,16 3,29 8,41 5,11 12,20 22,26 10,6 22,9 35,9 11,0 21,-2 29,-7 9,-5 18,-14 28,-28 l 4,2 c -8,15 -18,27 -30,34 -11,7 -25,10 -41,10 -28,0 -51,-10 -66,-31 -12,-16 -18,-35 -18,-56 0,-17 4,-33 12,-48 8,-14 18,-25 32,-33 13,-8 28,-12 44,-12 12,0 24,3 37,9 3,2 6,3 7,3 2,0 4,-1 6,-2 2,-3 4,-6 5,-10 z" />
   <path
   id="2"
   class="fil1"
   d="m 498,4732 v -5 c 13,6 24,13 32,22 12,12 22,27 28,44 7,16 10,34 10,52 0,26 -6,50 -19,71 -13,22 -30,38 -51,47 v -5 c 11,-6 19,-14 26,-24 7,-10 12,-22 15,-38 3,-15 5,-31 5,-48 0,-18 -1,-34 -4,-49 -2,-12 -5,-21 -8,-28 -3,-7 -8,-14 -13,-20 -5,-7 -12,-13 -21,-19 z" />
  </g>
  <g
   id="g118"
   transform="matrix(125.44719,0,0,125.44719,-15719.832,-13666.174)">
   <circle
   class="fil0 str0"
   cx="1336"
   cy="768"
   r="234"
   id="circle62" />
   <circle
   class="fil0 str0"
   cx="1883"
   cy="1647"
   r="234"
   id="circle64" />
   <circle
   class="fil0 str0"
   cx="2430"
   cy="2526"
   r="234"
   id="circle66" />
   <circle
   class="fil0 str0"
   cx="2977"
   cy="3404"
   r="234"
   id="circle68" />
   <line
   class="fil0 str0"
   x1="1460"
   y1="967"
   x2="1759"
   y2="1448"
   id="line70" />
   <line
   class="fil0 str0"
   x1="2554"
   y1="2725"
   x2="2853"
   y2="3205"
   id="line72" />
   <line
   class="fil0 str0"
   x1="2007"
   y1="1846"
   x2="2306"
   y2="2327"
   id="line74" />
   <line
   class="fil0 str0"
   x1="3100"
   y1="3603"
   x2="3400"
   y2="4084"
   id="line76" />
   <line
   class="fil0 str0"
   x1="1759"
   y1="1846"
   x2="1460"
   y2="2327"
   id="line78" />
   <line
   class="fil0 str0"
   x1="1212"
   y1="967"
   x2="913"
   y2="1448"
   id="line80" />
   <line
   class="fil0 str0"
   x1="2306"
   y1="2725"
   x2="2007"
   y2="3205"
   id="line82" />
   <line
   class="fil0 str0"
   x1="2853"
   y1="3603"
   x2="2554"
   y2="4084"
   id="line84" />
   <g
   id="g88">
    <path
   class="fil1"
   d="M 1322,815 V 601 h 28 v 214 z m 87,-12 -73,132 -72,-132 z"
   id="path86" />
   </g>
   <g
   id="g92">
    <path
   class="fil1"
   d="m 1956,1612 h -146 l 73,-132 z m -87,202 v -214 h 28 v 214 z"
   id="path90" />
   </g>
   <g
   id="g96">
    <path
   class="fil1"
   d="m 2502,2490 h -145 l 73,-132 z m -86,203 v -214 h 28 v 214 z"
   id="path94" />
   </g>
   <g
   id="g100">
    <path
   class="fil1"
   d="m 2963,3451 v -214 h 28 v 214 z m 86,-11 -72,132 -73,-132 z"
   id="path98" />
   </g>
   <path
   class="fil1"
   d="m 780,1494 v -22 h 121 v 18 c -12,13 -24,29 -35,50 -12,21 -21,43 -27,65 -5,16 -8,33 -9,51 h -24 c 1,-14 4,-32 9,-53 6,-21 14,-41 24,-60 10,-19 21,-36 33,-49 z"
   id="path102" />
   <path
   class="fil1"
   d="m 1325,2488 23,-3 c 3,13 7,22 13,28 7,6 14,8 24,8 10,0 20,-3 27,-11 7,-7 11,-16 11,-27 0,-11 -3,-20 -10,-27 -7,-6 -16,-10 -27,-10 -4,0 -9,1 -16,3 l 3,-20 c 1,0 3,0 4,0 9,0 18,-3 26,-8 8,-5 12,-13 12,-23 0,-8 -3,-15 -9,-21 -6,-5 -13,-8 -22,-8 -9,0 -16,3 -22,8 -6,6 -10,14 -12,26 l -23,-4 c 3,-16 10,-28 20,-36 9,-9 22,-13 37,-13 10,0 19,2 28,7 8,4 15,10 19,17 5,8 7,16 7,24 0,8 -2,16 -6,22 -5,7 -11,12 -20,16 11,3 20,8 26,16 6,8 9,18 9,30 0,16 -6,30 -18,41 -11,12 -26,17 -45,17 -16,0 -30,-4 -40,-14 -11,-10 -17,-23 -19,-38 z"
   id="path104" />
   <path
   class="fil1"
   d="m 1952,3413 v -45 h -81 v -21 l 85,-120 h 19 v 120 h 25 v 21 h -25 v 45 z m 0,-66 v -84 l -58,84 z"
   id="path106" />
   <path
   class="fil1"
   d="m 2430,4231 23,-4 c 2,13 7,23 13,29 6,5 14,8 23,8 11,0 20,-4 28,-11 7,-8 11,-17 11,-28 0,-10 -4,-19 -11,-26 -6,-7 -15,-10 -26,-10 -4,0 -9,1 -16,2 l 3,-20 c 1,1 2,1 3,1 10,0 19,-3 27,-8 8,-5 11,-13 11,-23 0,-9 -2,-16 -8,-21 -6,-6 -13,-8 -22,-8 -9,0 -16,2 -22,8 -6,6 -10,14 -12,25 l -23,-4 c 3,-15 9,-27 19,-36 10,-8 23,-12 37,-12 10,0 20,2 28,6 9,5 16,11 20,18 5,8 7,16 7,24 0,8 -2,15 -7,22 -4,7 -10,12 -19,16 11,2 20,8 26,16 6,8 9,18 9,30 0,16 -6,30 -18,41 -12,11 -27,17 -45,17 -16,0 -30,-5 -41,-15 -10,-9 -17,-22 -18,-37 z"
   id="path108" />
   <path
   class="fil1"
   d="m 3530,4266 v 22 h -123 c 0,-5 0,-11 2,-16 4,-8 9,-17 16,-25 7,-8 17,-17 30,-28 20,-16 33,-30 41,-39 7,-10 10,-19 10,-28 0,-9 -3,-17 -9,-23 -7,-6 -15,-9 -26,-9 -11,0 -20,3 -26,10 -7,6 -10,15 -10,27 l -24,-2 c 2,-18 8,-31 18,-40 11,-10 25,-14 43,-14 18,0 32,5 42,15 11,10 16,22 16,37 0,7 -2,14 -5,22 -3,7 -8,15 -15,23 -7,7 -19,18 -35,32 -14,12 -23,20 -27,24 -4,4 -7,8 -9,12 z"
   id="path110" />
   <path
   class="fil1"
   d="m 313,458 v 5 c -13,-6 -24,-14 -32,-23 -12,-12 -22,-26 -28,-43 -7,-17 -10,-34 -10,-52 0,-26 6,-50 19,-72 13,-22 30,-37 51,-46 v 5 c -11,6 -19,14 -26,24 -7,10 -12,22 -15,38 -3,15 -5,31 -5,48 0,18 2,34 4,49 3,12 5,21 8,28 4,7 8,14 13,20 5,7 12,13 21,19 z"
   id="path112" />
   <path
   id="path114"
   class="fil1"
   d="m 438,350 h -67 l -11,27 c -3,7 -5,12 -5,15 0,3 1,5 4,7 2,2 8,3 16,4 v 5 h -54 v -5 c 7,-1 12,-3 14,-5 4,-4 9,-12 14,-25 l 61,-142 h 4 l 60,144 c 5,11 9,19 13,22 4,3 10,5 17,6 v 5 h -68 v -5 c 7,-1 11,-2 14,-4 2,-2 3,-4 3,-7 0,-3 -1,-9 -5,-17 z m -4,-9 -29,-70 -30,70 z" />
   <path
   id="path116"
   class="fil1"
   d="m 512,232 v -5 c 13,6 24,13 33,22 12,12 21,27 28,44 6,16 10,34 10,52 0,26 -7,50 -20,71 -13,22 -30,38 -51,47 v -5 c 11,-6 20,-14 26,-24 7,-10 12,-22 15,-38 4,-15 5,-31 5,-48 0,-18 -1,-34 -4,-49 -2,-12 -5,-21 -8,-28 -3,-7 -7,-14 -13,-20 -5,-7 -12,-13 -21,-19 z" />
  </g>
  <circle
   class="fil0 str1"
   cx="785009.62"
   cy="82677.234"
   r="29354.643"
   id="circle120"
   style="stroke-width:5000;stroke-miterlimit:4;stroke-dasharray:none" />
  <circle
   class="fil0 str1"
   cx="716390"
   cy="192945.39"
   r="29354.643"
   id="circle122"
   style="stroke-width:5000;stroke-miterlimit:4;stroke-dasharray:none" />
  <circle
   class="fil0 str1"
   cx="785009.62"
   cy="303213.31"
   r="29354.643"
   id="circle124"
   style="stroke-width:5000;stroke-miterlimit:4;stroke-dasharray:none" />
  <circle
   class="fil0 str1"
   cx="853629.19"
   cy="413355.94"
   r="29354.643"
   id="circle126"
   style="stroke-width:5000;stroke-miterlimit:4;stroke-dasharray:none" />
  <line
   class="fil0 str1"
   x1="800565.06"
   y1="107641.22"
   x2="838073.75"
   y2="167981.41"
   id="line128"
   style="stroke-width:5000;stroke-miterlimit:4;stroke-dasharray:none" />
  <line
   class="fil0 str1"
   x1="800565.06"
   y1="328177.28"
   x2="838073.75"
   y2="388391.94"
   id="line130"
   style="stroke-width:5000;stroke-miterlimit:4;stroke-dasharray:none" />
  <line
   class="fil0 str1"
   x1="731945.44"
   y1="217909.39"
   x2="769454.12"
   y2="278249.31"
   id="line132"
   style="stroke-width:5000;stroke-miterlimit:4;stroke-dasharray:none" />
  <line
   class="fil0 str1"
   x1="869184.69"
   y1="438319.91"
   x2="906693.38"
   y2="498660.03"
   id="line134"
   style="stroke-width:5000;stroke-miterlimit:4;stroke-dasharray:none" />
  <line
   class="fil0 str1"
   x1="700834.56"
   y1="217909.39"
   x2="663325.81"
   y2="278249.31"
   id="line136"
   style="stroke-width:5000;stroke-miterlimit:4;stroke-dasharray:none" />
  <line
   class="fil0 str1"
   x1="769454.12"
   y1="107641.22"
   x2="731945.44"
   y2="167981.41"
   id="line138"
   style="stroke-width:5000;stroke-miterlimit:4;stroke-dasharray:none" />
  <line
   class="fil0 str1"
   x1="769454.12"
   y1="328177.28"
   x2="731945.44"
   y2="388391.94"
   id="line140"
   style="stroke-width:5000;stroke-miterlimit:4;stroke-dasharray:none" />
  <line
   class="fil0 str1"
   x1="838073.75"
   y1="438319.91"
   x2="800565.06"
   y2="498660.03"
   id="line142"
   style="stroke-width:5000;stroke-miterlimit:4;stroke-dasharray:none" />
  <g
   id="g146"
   transform="matrix(125.44719,0,0,125.44719,-15719.832,-13666.174)"
   style="stroke-width:39.85740932;stroke-miterlimit:4;stroke-dasharray:none">
   <path
   class="fil1"
   d="M 6362,754 V 601 h 42 v 153 z m 130,-17 -109,198 -109,-198 z"
   id="path144"
   style="stroke-width:39.85740932;stroke-miterlimit:4;stroke-dasharray:none" />
  </g>
  <g
   id="g150"
   transform="matrix(125.44719,0,0,125.44719,-15719.832,-13666.174)"
   style="stroke-width:39.85740932;stroke-miterlimit:4;stroke-dasharray:none">
   <path
   class="fil1"
   d="m 5815,1633 v -153 h 42 v 153 z m 130,-17 -109,198 -109,-198 z"
   id="path148"
   style="stroke-width:39.85740932;stroke-miterlimit:4;stroke-dasharray:none" />
  </g>
  <g
   id="g154"
   transform="matrix(125.44719,0,0,125.44719,-15719.832,-13666.174)"
   style="stroke-width:39.85740932;stroke-miterlimit:4;stroke-dasharray:none">
   <path
   class="fil1"
   d="m 6492,2556 h -218 l 109,-198 z m -130,137 v -154 h 42 v 154 z"
   id="path152"
   style="stroke-width:39.85740932;stroke-miterlimit:4;stroke-dasharray:none" />
  </g>
  <g
   id="g158"
   transform="matrix(125.44719,0,0,125.44719,-15719.832,-13666.174)"
   style="stroke-width:39.85740932;stroke-miterlimit:4;stroke-dasharray:none">
   <path
   class="fil1"
   d="m 7039,3435 h -218 l 109,-198 z m -130,137 v -154 h 42 v 154 z"
   id="path156"
   style="stroke-width:39.85740932;stroke-miterlimit:4;stroke-dasharray:none" />
  </g>
  <path
   class="fil1"
   d="m 646139.53,286027.19 v -4265.21 h 15430 v 3261.63 c -1254.47,1254.47 -2634.39,3136.18 -3888.86,5394.23 -1254.47,2383.49 -2258.05,4892.44 -3010.73,7401.38 -627.24,2634.39 -1003.58,5017.89 -1003.58,7150.49 h -4265.2 c 0,-3261.62 752.68,-6648.7 2007.15,-10035.77 1254.47,-3261.63 2885.29,-6272.36 5017.89,-8906.75 z"
   id="path160"
   style="stroke-width:5000;stroke-miterlimit:4;stroke-dasharray:none" />
  <path
   class="fil1"
   d="m 714382.8,409467.22 4390.65,-627.24 c 125.45,1129.03 501.79,2007.16 1129.02,2634.39 627.24,501.79 1379.92,878.13 2132.61,878.13 1003.57,0 1756.26,-376.34 2383.49,-1129.02 627.24,-627.24 878.13,-1630.81 878.13,-2759.84 0,-1129.02 -250.89,-2132.6 -878.13,-2759.84 -627.23,-627.23 -1379.92,-1003.57 -2132.6,-1003.57 -627.23,0 -1254.47,125.44 -2132.6,376.34 l 501.79,-3637.97 c 1254.47,0 2132.6,-250.9 2759.84,-752.68 627.23,-627.24 1003.57,-1379.92 1003.57,-2258.05 0,-752.69 -250.89,-1379.92 -752.68,-1881.71 -501.79,-501.79 -1003.58,-752.69 -1881.71,-752.69 -752.68,0 -1379.92,250.9 -1881.71,878.14 -627.23,501.78 -878.13,1254.47 -1003.57,2258.04 l -4139.76,-627.23 c 250.89,-1505.37 752.68,-2634.39 1254.47,-3512.52 627.24,-752.69 1379.92,-1505.37 2508.95,-2007.16 1003.57,-376.34 2132.6,-627.23 3387.07,-627.23 2258.05,0 4014.31,627.23 5394.23,2007.15 1003.58,1254.47 1630.81,2508.95 1630.81,4014.31 0,2007.16 -1129.02,3637.97 -3387.07,4892.44 1379.92,250.9 2383.49,878.13 3136.18,1881.71 878.13,1003.58 1254.47,2258.05 1254.47,3637.97 0,2132.6 -752.68,3888.86 -2258.05,5268.78 -1505.37,1505.37 -3387.07,2132.6 -5519.68,2132.6 -2132.6,0 -3888.86,-501.79 -5268.78,-1756.26 -1379.92,-1254.47 -2258.05,-2885.28 -2508.94,-4766.99 z"
   id="path162"
   style="stroke-width:5000;stroke-miterlimit:4;stroke-dasharray:none" />
  <path
   class="fil1"
   d="m 793038.18,525129.52 v -4766.99 h -9533.98 v -3888.86 l 10161.22,-14928.22 h 3763.42 v 14928.22 h 2885.28 v 3888.86 h -2885.28 v 4766.99 z m 0,-8655.85 v -8028.62 l -5268.78,8028.62 z"
   id="path164"
   style="stroke-width:5000;stroke-miterlimit:4;stroke-dasharray:none" />
  <path
   class="fil1"
   d="m 906818.78,517100.9 4265.21,-627.23 c 125.44,1129.02 501.79,2007.15 1129.02,2634.39 627.24,501.79 1379.92,878.13 2132.6,878.13 1003.58,0 1756.26,-376.34 2383.5,-1129.03 627.24,-627.23 878.13,-1630.81 878.13,-2759.83 0,-1129.03 -250.89,-2132.61 -878.13,-2759.84 -627.24,-627.24 -1254.47,-1003.58 -2132.6,-1003.58 -627.24,0 -1254.47,125.45 -2132.6,376.34 l 501.78,-3637.97 c 1254.48,0 2132.61,-250.89 2759.84,-752.68 627.24,-627.23 1003.58,-1379.92 1003.58,-2258.05 0,-752.68 -250.89,-1379.92 -752.68,-1881.71 -376.34,-501.78 -1003.58,-752.68 -1881.71,-752.68 -752.68,0 -1379.92,250.9 -1881.71,878.13 -627.23,501.79 -878.13,1254.47 -1003.58,2258.05 l -4139.75,-627.24 c 250.89,-1505.36 752.68,-2634.39 1254.47,-3512.52 627.23,-752.68 1505.36,-1505.36 2508.94,-2007.15 1003.58,-501.79 2132.6,-627.24 3512.52,-627.24 2132.61,0 3888.87,627.24 5268.79,2007.16 1003.57,1254.47 1630.81,2508.94 1630.81,4014.31 0,2007.15 -1129.03,3637.97 -3387.08,4892.44 1379.92,250.89 2383.5,878.13 3261.63,1881.71 752.68,1003.57 1129.03,2258.04 1129.03,3637.96 0,2132.61 -752.69,3888.87 -2258.05,5268.79 -1505.37,1505.36 -3387.08,2132.6 -5519.68,2132.6 -2132.6,0 -3888.86,-501.79 -5268.78,-1756.26 -1379.92,-1254.47 -2258.05,-2885.29 -2383.5,-4767 z"
   id="path166"
   style="stroke-width:5000;stroke-miterlimit:4;stroke-dasharray:none" />
  <path
   class="fil1"
   d="m 855385.44,190687.33 v 4139.75 h -15806.35 c 250.89,-1630.81 752.68,-3010.73 1630.81,-4516.1 752.69,-1379.92 2508.95,-3261.62 5017.89,-5645.12 2007.16,-1881.71 3261.63,-3136.18 3637.97,-3763.42 627.24,-878.13 1003.58,-1881.7 1003.58,-2759.83 0,-1003.58 -250.9,-1756.26 -878.13,-2258.05 -501.79,-627.24 -1254.48,-878.13 -2132.61,-878.13 -1003.57,0 -1756.26,250.89 -2258.04,878.13 -627.24,501.79 -878.14,1505.36 -1003.58,2759.84 l -4390.65,-376.35 c 250.89,-2508.94 1003.57,-4265.2 2508.94,-5394.23 1379.92,-1003.57 3136.18,-1505.36 5268.78,-1505.36 2258.05,0 4014.31,501.79 5394.23,1756.26 1254.47,1254.47 2007.16,2885.28 2007.16,4766.99 0,1003.58 -250.9,2007.16 -627.24,3010.73 -376.34,878.14 -1003.58,1881.71 -1756.26,2885.29 -501.79,752.68 -1505.37,1756.26 -3010.73,3010.73 -1379.92,1379.92 -2258.05,2258.05 -2634.39,2634.39 -376.35,376.34 -752.69,878.13 -878.13,1254.48 z"
   id="path168"
   style="stroke-width:5000;stroke-miterlimit:4;stroke-dasharray:none" />
  <path
   class="fil1"
   d="m 588433.82,15312.123 v 752.683 c -1129.02,627.236 -2007.15,1379.92 -2508.94,2132.603 -752.68,878.13 -1254.47,2132.603 -1630.81,3637.969 -501.79,1881.709 -878.13,4516.1 -878.13,7777.727 0,3136.18 250.89,5645.123 752.68,7401.384 501.79,1756.261 1129.02,3136.18 1881.71,4265.204 627.23,752.683 1379.92,1379.919 2383.49,1881.708 v 878.13 c -2634.39,-878.13 -4766.99,-2634.39 -6523.25,-5268.781 -1756.26,-2759.839 -2759.84,-5770.571 -2759.84,-9157.645 0,-3512.521 1003.58,-6523.254 2759.84,-9032.199 1756.26,-2634.391 3888.86,-4390.653 6523.25,-5268.783 z"
   id="path170"
   style="stroke-width:5000;stroke-miterlimit:4;stroke-dasharray:none" />
  <path
   id="path172"
   class="fil1"
   d="m 603236.59,25975.137 c 2132.6,501.788 3512.52,1003.577 4390.65,1756.26 1129.03,1003.578 1756.26,2258.05 1756.26,3763.416 0,1630.813 -627.23,3010.732 -1881.7,4014.31 -1630.82,1254.472 -4014.31,2007.155 -7025.05,2007.155 H 589437.4 v -627.236 c 1003.58,0 1756.26,-125.447 2007.16,-250.895 376.34,-250.894 627.23,-501.788 752.68,-752.683 125.45,-250.894 250.89,-1003.577 250.89,-2258.049 V 19577.329 c 0,-1129.025 -125.44,-1881.709 -250.89,-2258.05 -125.45,-250.895 -376.34,-501.789 -752.68,-752.684 -376.35,-125.447 -1003.58,-250.894 -2007.16,-250.894 v -501.789 h 10412.12 c 2508.94,0 4265.2,250.894 5268.78,627.236 1003.58,501.789 1881.71,1129.025 2383.5,2007.156 627.23,878.13 878.13,1756.26 878.13,2759.838 0,1129.025 -376.35,2007.156 -1129.03,2759.839 -752.68,878.131 -2007.15,1505.367 -4014.31,2007.156 z m -5770.57,-501.789 c 1505.37,0 2634.39,-125.447 3387.07,-501.789 752.69,-250.894 1254.48,-752.683 1630.82,-1379.919 376.34,-627.237 627.23,-1379.92 627.23,-2383.498 0,-1003.578 -250.89,-1756.261 -627.23,-2383.497 -376.34,-627.236 -878.13,-1003.578 -1630.82,-1379.919 -752.68,-250.895 -1881.7,-501.789 -3387.07,-376.342 z m 0,1254.472 v 7025.042 752.683 c 0,627.236 125.45,1003.578 376.34,1254.472 376.34,376.342 752.69,501.789 1379.92,501.789 752.68,0 1505.37,-250.895 2258.05,-627.236 752.68,-376.342 1254.47,-878.13 1630.81,-1630.813 376.35,-627.236 501.79,-1505.367 501.79,-2383.497 0,-1003.578 -125.44,-1881.708 -627.23,-2634.391 -376.34,-878.13 -1003.58,-1379.919 -1881.71,-1756.261 -752.68,-250.894 -2007.16,-501.788 -3637.97,-501.788 z"
   style="stroke-width:5000;stroke-miterlimit:4;stroke-dasharray:none" />
  <path
   id="path174"
   class="fil1"
   d="m 610888.87,44039.531 v -752.683 c 1129.02,-752.683 2007.15,-1505.366 2508.94,-2132.602 752.69,-1003.577 1254.48,-2258.049 1630.82,-3637.968 501.79,-1881.708 878.13,-4516.099 878.13,-7903.173 0,-3136.18 -250.9,-5645.124 -752.69,-7275.938 -501.78,-1756.261 -1129.02,-3261.628 -1881.7,-4265.205 -627.24,-752.683 -1379.92,-1379.92 -2383.5,-2007.156 v -752.683 c 2634.39,878.13 4766.99,2634.392 6523.25,5268.783 1881.71,2634.392 2759.84,5770.572 2759.84,9157.646 0,3387.074 -878.13,6397.807 -2759.84,9032.198 -1756.26,2634.391 -3888.86,4390.651 -6523.25,5268.781 z"
   style="stroke-width:5000;stroke-miterlimit:4;stroke-dasharray:none" />
  <g
   id="g232"
   transform="matrix(125.44719,0,0,125.44719,-15719.832,-13666.174)">
   <circle
   class="fil0 str0"
   cx="7477"
   cy="5268"
   r="234"
   id="circle176" />
   <circle
   class="fil0 str0"
   cx="6930"
   cy="6147"
   r="234"
   id="circle178" />
   <circle
   class="fil0 str0"
   cx="6383"
   cy="7026"
   r="234"
   id="circle180" />
   <circle
   class="fil0 str0"
   cx="5836"
   cy="7904"
   r="234"
   id="circle182" />
   <line
   class="fil0 str0"
   x1="7601"
   y1="5467"
   x2="7900"
   y2="5948"
   id="line184" />
   <line
   class="fil0 str0"
   x1="6507"
   y1="7225"
   x2="6806"
   y2="7705"
   id="line186" />
   <line
   class="fil0 str0"
   x1="7054"
   y1="6346"
   x2="7353"
   y2="6827"
   id="line188" />
   <line
   class="fil0 str0"
   x1="5960"
   y1="8103"
   x2="6259"
   y2="8584"
   id="line190" />
   <line
   class="fil0 str0"
   x1="6806"
   y1="6346"
   x2="6507"
   y2="6827"
   id="line192" />
   <line
   class="fil0 str0"
   x1="7353"
   y1="5467"
   x2="7054"
   y2="5948"
   id="line194" />
   <line
   class="fil0 str0"
   x1="6259"
   y1="7225"
   x2="5960"
   y2="7705"
   id="line196" />
   <line
   class="fil0 str0"
   x1="5712"
   y1="8103"
   x2="5413"
   y2="8584"
   id="line198" />
   <g
   id="g202">
    <path
   class="fil1"
   d="m 7463,5315 v -214 h 28 v 214 z m 86,-12 -72,132 -73,-132 z"
   id="path200" />
   </g>
   <g
   id="g206">
    <path
   class="fil1"
   d="m 7002,6112 h -145 l 73,-132 z m -86,202 v -214 h 28 v 214 z"
   id="path204" />
   </g>
   <g
   id="g210">
    <path
   class="fil1"
   d="m 6456,6990 h -146 l 73,-132 z m -87,203 v -214 h 28 v 214 z"
   id="path208" />
   </g>
   <g
   id="g214">
    <path
   class="fil1"
   d="m 5822,7951 v -214 h 28 v 214 z m 87,-11 -73,132 -72,-132 z"
   id="path212" />
   </g>
   <path
   class="fil1"
   d="m 5289,8621 v -22 h 121 v 18 c -12,12 -24,29 -35,50 -12,21 -21,43 -27,65 -5,15 -8,33 -9,51 h -24 c 1,-15 4,-32 9,-53 6,-21 13,-41 24,-60 10,-20 21,-36 33,-49 z"
   id="path216" />
   <path
   class="fil1"
   d="m 7355,6973 22,-3 c 3,13 8,22 14,28 6,6 14,9 23,9 11,0 20,-4 27,-12 8,-7 11,-16 11,-27 0,-11 -3,-20 -10,-26 -7,-7 -15,-11 -26,-11 -4,0 -10,1 -16,3 l 2,-20 c 2,0 3,0 4,0 10,0 19,-2 26,-8 8,-5 12,-12 12,-23 0,-8 -3,-15 -8,-21 -6,-5 -13,-8 -22,-8 -9,0 -17,3 -23,8 -6,6 -10,15 -11,26 l -23,-4 c 3,-16 9,-28 19,-36 10,-9 22,-13 37,-13 10,0 20,2 28,7 9,4 15,10 20,18 4,7 7,15 7,24 0,8 -3,15 -7,21 -4,7 -11,12 -19,16 11,3 19,8 26,16 6,8 9,18 9,30 0,16 -6,30 -18,42 -12,11 -27,17 -45,17 -17,0 -30,-5 -41,-15 -11,-10 -17,-23 -18,-38 z"
   id="path218" />
   <path
   class="fil1"
   d="m 6882,7904 v -44 h -81 v -21 l 85,-121 h 19 v 121 h 25 v 21 h -25 v 44 z m 0,-65 v -84 l -59,84 z"
   id="path220" />
   <path
   class="fil1"
   d="m 6261,8731 23,-4 c 3,13 7,23 13,29 7,5 14,8 23,8 11,0 20,-4 28,-11 7,-8 11,-17 11,-28 0,-10 -4,-19 -10,-26 -7,-7 -16,-10 -27,-10 -4,0 -9,1 -16,2 l 3,-20 c 1,1 2,1 3,1 10,0 19,-3 27,-8 8,-5 12,-13 12,-23 0,-9 -3,-16 -9,-21 -6,-6 -13,-8 -22,-8 -9,0 -16,2 -22,8 -6,6 -10,14 -12,25 l -23,-4 c 3,-15 9,-27 19,-36 10,-8 23,-12 37,-12 11,0 20,2 28,6 9,5 16,11 20,18 5,8 7,16 7,24 0,8 -2,15 -7,22 -4,7 -10,12 -19,16 11,2 20,8 26,16 6,8 9,18 9,30 0,16 -6,30 -18,41 -12,11 -27,17 -45,17 -16,0 -30,-5 -41,-15 -10,-9 -17,-22 -18,-37 z"
   id="path222" />
   <path
   class="fil1"
   d="m 8036,6140 v 22 h -123 c 0,-6 1,-11 3,-16 3,-8 8,-17 15,-25 7,-8 17,-17 30,-28 20,-16 34,-30 41,-39 7,-10 11,-19 11,-28 0,-9 -3,-17 -10,-23 -6,-6 -15,-9 -25,-9 -12,0 -20,3 -27,10 -7,6 -10,15 -10,27 l -24,-2 c 2,-18 8,-31 19,-40 10,-10 24,-14 42,-14 18,0 32,5 43,15 10,10 15,22 15,37 0,7 -1,14 -4,22 -3,7 -8,14 -16,22 -7,8 -18,19 -35,33 -14,12 -22,20 -26,24 -4,4 -7,8 -10,12 z"
   id="path224" />
   <path
   class="fil1"
   d="m 4813,4958 v 5 c -13,-6 -24,-14 -32,-23 -12,-12 -22,-26 -28,-43 -7,-17 -10,-34 -10,-52 0,-26 6,-50 19,-72 13,-22 30,-37 51,-46 v 5 c -11,6 -19,14 -26,24 -7,10 -12,22 -15,38 -3,15 -5,31 -5,48 0,18 2,34 4,49 3,12 5,21 8,28 4,7 8,14 13,20 5,7 12,13 21,19 z"
   id="path226" />
   <path
   id="path228"
   class="fil1"
   d="m 4823,4908 v -5 h 7 c 7,0 12,-3 15,-7 2,-3 3,-9 3,-19 v -112 c 0,-10 -1,-17 -4,-20 -3,-4 -8,-5 -14,-5 h -7 v -5 h 70 c 26,0 46,3 59,9 14,6 24,15 33,29 8,14 12,29 12,47 0,24 -8,44 -22,61 -16,18 -41,27 -75,27 z m 49,-13 c 11,2 20,3 27,3 20,0 36,-7 49,-20 13,-14 20,-33 20,-57 0,-23 -7,-42 -20,-56 -13,-14 -29,-20 -50,-20 -7,0 -16,1 -26,3 z" />
   <path
   id="path230"
   class="fil1"
   d="m 5012,4732 v -5 c 13,6 24,13 33,22 12,12 21,27 28,44 6,16 10,34 10,52 0,26 -7,50 -20,71 -13,22 -30,38 -51,47 v -5 c 11,-6 20,-14 26,-24 7,-10 12,-22 15,-38 4,-15 5,-31 5,-48 0,-18 -1,-34 -4,-49 -2,-12 -5,-21 -8,-28 -3,-7 -7,-14 -13,-20 -5,-7 -12,-13 -21,-19 z" />
  </g>
 </g>
</svg>
