<?xml version="1.0" encoding="UTF-8"?>
<!DOCTYPE svg PUBLIC "-//W3C//DTD SVG 1.1//EN" "http://www.w3.org/Graphics/SVG/1.1/DTD/svg11.dtd">
<!-- Creator: CorelDRAW X7 -->
<svg xmlns="http://www.w3.org/2000/svg" xml:space="preserve" width="9in" height="7in" version="1.1" style="shape-rendering:geometricPrecision; text-rendering:geometricPrecision; image-rendering:optimizeQuality; fill-rule:evenodd; clip-rule:evenodd"
viewBox="0 0 9000 7000"
 xmlns:xlink="http://www.w3.org/1999/xlink">
 <defs>
  <style type="text/css">
   <![CDATA[
    .str1 {stroke:#373435;stroke-width:13.8898}
    .str0 {stroke:black;stroke-width:13.8898}
    .fil3 {fill:none;fill-rule:nonzero}
    .fil0 {fill:#030303}
    .fil1 {fill:white}
    .fil2 {fill:#373435;fill-rule:nonzero}
   ]]>
  </style>
 </defs>
 <g id="Layer_x0020_1">
  <metadata id="CorelCorpID_0Corel-Layer"/>
  <path class="fil0 str0" d="M6805 704c-42,27 -92,121 -129,172l-411 588c-148,4 -220,28 -272,135 -23,46 -28,126 -10,179 24,71 62,79 86,124l-373 587c-15,8 -275,-6 -275,246 0,194 235,305 387,179 121,-100 139,-278 -52,-400l-25 -18c46,-94 123,-199 181,-292 60,-97 132,-196 183,-291 125,41 131,35 244,-11 99,179 277,417 356,573 -34,30 -180,63 -180,240 0,220 266,316 412,161 102,-110 81,-282 -52,-365 -176,-111 -33,142 -333,-333l-182 -297c153,-126 96,-318 -62,-402l501 -732c2,-1 4,-4 6,-5l12 -12c56,37 91,92 189,96 90,4 157,-43 194,-92 29,22 50,61 71,89l319 462c39,57 98,128 126,190 -31,41 -107,69 -107,219 0,99 62,135 96,187 -57,120 -341,525 -367,594 -404,-2 -334,477 -42,476 116,0 215,-89 234,-200 26,-152 -73,-210 -145,-261 -15,-11 -9,-6 -17,-15 31,-61 342,-555 369,-578 171,48 122,13 236,-6 76,83 282,463 363,564 -35,30 -186,69 -186,239 0,321 479,310 477,0 -1,-185 -148,-214 -237,-238 -46,-12 -84,-95 -108,-133 -55,-86 -265,-407 -281,-452 36,-52 61,-69 78,-145 12,-56 -1,-121 -32,-168 -64,-99 -165,-139 -304,-94l-484 -702c-71,-97 -5,-57 -5,-173 2,-231 -305,-334 -441,-129 -51,78 -39,161 -8,244z"/>
  <path class="fil0" d="M6807 4514c-85,114 -515,753 -539,766 -44,16 -106,-1 -161,26 -171,85 -177,313 -37,405 -21,79 -306,471 -366,600 -408,12 -335,477 -43,477 126,0 217,-95 234,-204 28,-176 -124,-234 -164,-265l364 -584c133,33 123,33 245,-10l359 571 -67 35c-260,153 -42,553 222,421 197,-99 173,-375 -29,-442 -127,-42 -44,69 -229,-228l-236 -379c149,-136 100,-323 -64,-402l521 -755c136,134 291,136 382,10 30,20 48,53 68,83l192 277c85,123 178,248 255,371 -8,22 -1,6 -12,21 -41,53 -93,68 -93,209 0,100 66,131 95,187 -34,71 -136,216 -184,296 -29,49 -61,100 -93,148 -35,52 -57,105 -95,144 -9,5 -275,-9 -275,245 0,196 236,304 387,180 121,-101 133,-289 -45,-397l-32 -22c61,-123 322,-495 364,-583 119,39 135,35 244,-10l359 573c-42,34 -184,67 -184,239 0,216 267,321 412,161 101,-111 81,-284 -53,-365 -148,-89 -86,67 -238,-188 -80,-133 -210,-309 -273,-439 203,-230 6,-481 -251,-402l-384 -552c-22,-32 -123,-168 -132,-192 -15,-42 59,-129 -6,-244 -93,-164 -310,-162 -404,-25 -43,61 -71,173 -14,243z"/>
  <path class="fil0" d="M2006 4595c-2,2 -5,3 -6,7 -3,11 -7,7 -11,12 -9,10 -12,12 -20,24l-233 339c-90,130 -173,262 -273,387 -251,-17 -325,181 -282,310 20,61 58,85 87,124 -60,112 -347,543 -368,594 -358,-7 -357,409 -95,470 279,65 422,-353 124,-457 7,-26 317,-533 367,-589 165,28 93,25 245,-11l358 566c-43,39 -137,48 -177,176 -34,107 20,203 82,253 167,134 412,-11 384,-217 -13,-93 -81,-169 -160,-194 -68,-21 -87,4 -124,-52 -25,-38 -41,-70 -68,-110 -38,-57 -259,-400 -272,-440 25,-48 161,-181 23,-343 -14,-16 -22,-24 -44,-39l-49 -37c82,-87 461,-692 521,-740 114,74 184,182 387,6 42,40 495,707 512,737 -9,15 -2,5 -14,19 -9,10 -12,13 -21,22 -14,13 -22,19 -35,38 -86,125 -20,243 59,327 -16,54 -143,233 -183,299 -39,67 -164,248 -183,297 -360,-8 -356,410 -100,471 267,63 441,-332 127,-460 19,-61 298,-469 363,-589 136,30 117,37 248,-10 63,109 335,516 357,579 -316,99 -184,516 97,466 255,-46 286,-451 -59,-473l-370 -590c32,-57 142,-156 45,-313 -69,-112 -166,-123 -305,-92l-253 -371c-33,-46 -251,-352 -258,-377 -14,-47 59,-125 -7,-244 -82,-146 -295,-174 -405,-18 -42,61 -64,180 -11,243z"/>
  <path class="fil0" d="M1764 789l-371 586c-362,-6 -329,369 -177,431l-387 608c-93,-11 -138,-18 -211,28 -48,31 -91,84 -106,155 -68,334 472,394 472,45 0,-143 -80,-156 -128,-219 23,-51 61,-104 91,-152l290 -452c136,111 440,-69 322,-315 -40,-83 -74,-69 -134,-123 48,-109 324,-498 361,-583 103,33 128,28 228,-9 60,116 307,457 355,570 -266,11 -321,322 -145,427 -42,114 -299,456 -373,607 -173,-10 -294,69 -294,238 0,97 44,122 76,177l-346 545c-33,6 -75,-23 -148,-4 -156,39 -232,221 -146,355 122,191 439,135 439,-135 0,-109 -64,-145 -114,-198l343 -541c118,39 270,66 348,-101 72,-153 -23,-276 -131,-324 19,-49 348,-570 377,-594 96,33 135,35 229,-10 27,23 338,515 366,570 -25,19 -215,83 -182,273 21,115 124,220 262,204 282,-32 297,-472 -50,-477 -20,-46 -63,-103 -91,-149 -62,-102 -251,-376 -275,-448 134,-101 104,-324 -52,-392 -85,-38 -80,-56 -159,-184l-267 -418c38,-59 94,-92 94,-201 0,-175 -198,-300 -359,-203 -58,35 -118,106 -118,203 0,112 63,150 111,210z"/>
  <path class="fil1" d="M6948 4210c-253,76 -143,481 129,400 254,-76 157,-485 -129,-400z"/>
  <path class="fil1" d="M2161 6631c0,-139 -86,-229 -219,-229 -168,0 -270,218 -147,355 122,135 366,48 366,-126z"/>
  <path class="fil1" d="M1557 1621c0,-133 -89,-219 -229,-219 -171,0 -259,232 -131,360 129,129 360,33 360,-141z"/>
  <path class="fil1" d="M2151 1600c0,120 100,208 218,208 175,0 272,-229 142,-360 -129,-131 -360,-44 -360,152z"/>
  <path class="fil1" d="M801 6428c-266,73 -159,477 112,404 264,-71 161,-479 -112,-404z"/>
  <path class="fil1" d="M5869 6548c0,-121 -100,-208 -219,-208 -176,0 -271,230 -141,360 128,130 360,45 360,-152z"/>
  <path class="fil1" d="M3255 5590c0,-133 -90,-219 -230,-219 -168,0 -259,234 -130,360 130,129 360,33 360,-141z"/>
  <path class="fil1 str0" d="M7786 1482c-275,86 -141,486 125,399 255,-82 142,-481 -125,-399z"/>
  <path class="fil1" d="M2234 4277c-320,0 -287,419 -21,419 287,1 259,-419 21,-419z"/>
  <path class="fil1" d="M536 2642c0,279 421,280 420,0 -2,-280 -420,-271 -420,0z"/>
  <path class="fil1" d="M1849 378c-277,65 -184,464 92,408 257,-51 185,-472 -92,-408z"/>
  <path class="fil1" d="M2447 6407c-269,61 -184,469 95,408 262,-58 179,-471 -95,-408z"/>
  <path class="fil1" d="M1725 2431c-268,90 -124,479 140,394 244,-80 143,-488 -140,-394z"/>
  <path class="fil1 str0" d="M7296 2923c113,0 209,-93 209,-208 0,-194 -231,-282 -360,-152 -130,130 -42,360 151,360z"/>
  <path class="fil1" d="M1400 5808c134,0 219,-92 219,-218 0,-169 -228,-270 -360,-142 -128,126 -45,360 141,360z"/>
  <path class="fil1 str0" d="M6143 1504c-264,85 -133,488 139,394 243,-84 139,-483 -139,-394z"/>
  <path class="fil1" d="M6693 6337c-273,85 -142,481 124,398 256,-79 143,-481 -124,-398z"/>
  <path class="fil1 str0" d="M7015 798c273,0 278,-419 0,-420 -280,-1 -276,420 0,420z"/>
  <path class="fil1" d="M2856 2409c-273,69 -174,461 94,407 262,-52 188,-478 -94,-407z"/>
  <path class="fil1" d="M984 3590c0,248 431,284 420,-22 -2,-62 -31,-118 -66,-145l-41 -21c-3,-1 -6,-2 -8,-3l-21 -11c-31,-15 -37,-20 -86,-18 -116,6 -198,99 -198,220z"/>
  <path class="fil1" d="M6182 5316c-299,60 -204,461 72,410 262,-48 186,-462 -72,-410z"/>
  <path class="fil1" d="M7225 6337c-258,86 -132,482 140,394 243,-79 144,-488 -140,-394z"/>
  <path class="fil1" d="M7838 5714c123,0 219,-93 219,-218 0,-172 -222,-277 -359,-140 -137,136 -31,358 140,358z"/>
  <path class="fil1" d="M8339 6316c-274,64 -171,478 107,403 253,-69 167,-468 -107,-403z"/>
  <path class="fil1 str0" d="M8350 2493c-288,65 -186,467 90,407 251,-55 181,-468 -90,-407z"/>
  <path class="fil1 str0" d="M6703 2514c-275,64 -170,478 107,402 101,-27 179,-133 145,-256 -27,-100 -127,-176 -252,-146z"/>
  <path class="fil1" d="M3518 6400c-261,85 -127,483 139,394 243,-82 146,-487 -139,-394z"/>
  <path class="fil1 str0" d="M5588 2535c-247,85 -136,486 141,394 246,-82 140,-490 -141,-394z"/>
  <path class="fil2" d="M1750 493l54 -26 5 0 0 186c0,13 0,20 2,24 1,3 3,5 6,7 3,1 10,2 20,2l0 6 -83 0 0 -6c10,0 17,-1 20,-2 3,-2 5,-4 6,-7 1,-2 2,-10 2,-24l0 -119c0,-16 -1,-26 -2,-31 0,-3 -2,-6 -4,-8 -2,-1 -4,-2 -7,-2 -4,0 -10,2 -17,5l-2 -5z"/>
  <path id="1" class="fil2" d="M1890 583c0,-25 3,-47 11,-65 8,-18 18,-32 30,-40 10,-8 20,-11 31,-11 16,0 32,9 45,26 17,21 25,50 25,87 0,25 -3,47 -11,65 -7,18 -17,31 -28,39 -11,8 -22,12 -33,12 -21,0 -39,-12 -53,-37 -11,-21 -17,-46 -17,-76zm32 4c0,30 3,55 11,74 6,17 15,25 27,25 6,0 12,-3 19,-8 6,-6 11,-14 14,-27 5,-18 7,-45 7,-79 0,-25 -2,-46 -7,-62 -4,-13 -9,-22 -16,-27 -4,-4 -9,-5 -16,-5 -7,0 -14,3 -19,10 -8,9 -13,23 -16,42 -3,19 -4,38 -4,57z"/>
  <path class="fil2" d="M1326 1612c-17,-15 -29,-26 -34,-35 -5,-9 -7,-18 -7,-27 0,-14 5,-27 16,-37 11,-10 26,-16 45,-16 17,0 32,5 43,15 11,10 16,21 16,33 0,8 -3,17 -9,25 -6,9 -18,19 -36,30 19,15 31,27 38,35 8,11 12,23 12,35 0,16 -6,29 -18,40 -12,11 -27,16 -46,16 -21,0 -38,-6 -50,-19 -9,-11 -14,-22 -14,-35 0,-9 4,-19 10,-29 7,-9 18,-20 34,-31zm26 -18c13,-12 21,-21 25,-28 3,-7 5,-14 5,-23 0,-11 -3,-20 -10,-27 -6,-6 -15,-10 -26,-10 -11,0 -20,4 -27,10 -7,7 -11,14 -11,23 0,5 2,11 5,17 3,5 7,11 12,16l27 22zm-18 24c-9,7 -16,16 -20,24 -4,9 -7,19 -7,29 0,14 4,26 12,34 8,8 17,12 29,12 12,0 21,-3 28,-9 7,-7 11,-15 11,-24 0,-8 -2,-15 -6,-21 -8,-12 -24,-27 -47,-45z"/>
  <path class="fil2" d="M2426 1482l0 7c-14,1 -26,4 -35,8 -9,4 -18,11 -27,20 -8,8 -16,18 -21,29 -6,11 -11,24 -15,38 16,-10 31,-16 47,-16 15,0 28,6 39,19 11,12 17,27 17,46 0,19 -6,36 -17,51 -14,18 -31,27 -53,27 -16,0 -28,-5 -39,-15 -20,-19 -31,-44 -31,-75 0,-20 4,-39 12,-56 8,-18 19,-34 34,-48 15,-13 29,-23 42,-27 14,-5 26,-8 38,-8l9 0zm-101 114c-2,15 -3,27 -3,36 0,10 2,21 6,34 4,12 10,22 17,29 6,5 12,7 20,7 10,0 18,-4 25,-13 8,-9 12,-22 12,-38 0,-19 -4,-35 -11,-48 -8,-14 -18,-21 -32,-21 -4,0 -8,1 -13,3 -5,2 -12,5 -21,11z"/>
  <path class="fil2" d="M821 2675l0 23 -30 0 0 58 -27 0 0 -58 -93 0 0 -21 102 -146 18 0 0 144 30 0zm-57 0l0 -110 -77 110 77 0z"/>
  <path class="fil2" d="M1857 2515l-13 27 -67 0 -14 30c29,4 52,15 68,32 15,15 22,32 22,52 0,12 -2,22 -7,32 -5,10 -11,19 -18,26 -7,7 -15,12 -24,16 -12,6 -25,9 -38,9 -13,0 -23,-2 -29,-6 -6,-5 -9,-10 -9,-15 0,-3 1,-6 4,-8 2,-3 5,-4 9,-4 3,0 5,1 8,2 2,0 5,3 10,6 8,6 17,9 25,9 13,0 24,-5 33,-15 10,-9 15,-21 15,-35 0,-13 -4,-26 -13,-37 -9,-12 -20,-21 -35,-27 -12,-5 -28,-8 -49,-9l43 -85 79 0z"/>
  <path class="fil2" d="M2976 2681l-16 43 -130 0 0 -6c38,-35 65,-64 81,-86 16,-22 23,-42 23,-60 0,-14 -4,-26 -12,-35 -9,-9 -19,-13 -31,-13 -11,0 -21,3 -29,9 -9,6 -15,15 -20,28l-6 0c3,-20 10,-36 21,-46 12,-11 26,-16 43,-16 17,0 32,5 44,17 12,11 18,25 18,41 0,11 -2,22 -7,33 -8,18 -21,36 -39,56 -28,29 -44,47 -51,53l57 0c12,0 20,-1 25,-1 5,-1 9,-3 13,-6 3,-2 7,-6 9,-11l7 0z"/>
  <path class="fil2" d="M1150 3492l54 -26 6 0 0 186c0,12 0,20 1,23 1,3 4,6 7,7 3,2 10,3 20,3l0 6 -84 0 0 -6c11,0 18,-1 21,-3 3,-1 5,-3 6,-6 1,-3 2,-11 2,-24l0 -119c0,-16 -1,-27 -2,-31 -1,-4 -2,-6 -4,-8 -2,-2 -4,-2 -7,-2 -4,0 -10,1 -17,5l-3 -5z"/>
  <path class="fil2" d="M6873 499l54 -26 5 0 0 187c0,12 1,20 2,23 1,3 3,5 6,7 3,2 10,2 20,3l0 6 -83 0 0 -6c10,-1 17,-1 20,-3 3,-2 5,-4 6,-6 2,-3 2,-11 2,-24l0 -120c0,-16 0,-26 -1,-31 -1,-3 -3,-6 -5,-7 -2,-2 -4,-3 -7,-3 -4,0 -10,2 -17,5l-2 -5z"/>
  <path id="1" class="fil2" d="M7013 589c0,-25 4,-46 11,-64 8,-19 18,-32 31,-41 9,-7 19,-11 30,-11 17,0 32,9 45,26 17,22 26,51 26,87 0,26 -4,47 -12,65 -7,18 -16,31 -28,39 -11,8 -22,12 -33,12 -21,0 -38,-12 -52,-37 -12,-21 -18,-46 -18,-76zm32 4c0,31 4,56 11,75 6,16 15,24 28,24 5,0 12,-3 18,-8 6,-5 11,-14 14,-26 5,-19 8,-45 8,-79 0,-25 -3,-46 -8,-63 -4,-13 -9,-21 -15,-27 -5,-3 -10,-5 -16,-5 -8,0 -14,3 -20,10 -8,9 -13,23 -16,42 -3,20 -4,39 -4,57z"/>
  <path id="2" class="fil3 str1" d="M6873 499l54 -26 5 0 0 187c0,12 1,20 2,23 1,3 3,5 6,7 3,2 10,2 20,3l0 6 -83 0 0 -6c10,-1 17,-1 20,-3 3,-2 5,-4 6,-6 2,-3 2,-11 2,-24l0 -120c0,-16 0,-26 -1,-31 -1,-3 -3,-6 -5,-7 -2,-2 -4,-3 -7,-3 -4,0 -10,2 -17,5l-2 -5z"/>
  <path id="3" class="fil3 str1" d="M7013 589c0,-25 4,-46 11,-64 8,-19 18,-32 31,-41 9,-7 19,-11 30,-11 17,0 32,9 45,26 17,22 26,51 26,87 0,26 -4,47 -12,65 -7,18 -16,31 -28,39 -11,8 -22,12 -33,12 -21,0 -38,-12 -52,-37 -12,-21 -18,-46 -18,-76zm32 4c0,31 4,56 11,75 6,16 15,24 28,24 5,0 12,-3 18,-8 6,-5 11,-14 14,-26 5,-19 8,-45 8,-79 0,-25 -3,-46 -8,-63 -4,-13 -9,-21 -15,-27 -5,-3 -10,-5 -16,-5 -8,0 -14,3 -20,10 -8,9 -13,23 -16,42 -3,20 -4,39 -4,57z"/>
  <path class="fil2" d="M6189 1701c-18,-14 -29,-26 -34,-34 -5,-9 -8,-18 -8,-27 0,-15 6,-27 17,-37 11,-11 26,-16 44,-16 18,0 32,5 43,15 11,9 16,20 16,33 0,8 -3,16 -8,25 -6,8 -18,19 -37,30 19,15 32,26 38,35 8,11 12,23 12,35 0,15 -6,29 -17,40 -12,11 -28,16 -47,16 -21,0 -37,-6 -49,-20 -10,-10 -14,-22 -14,-34 0,-10 3,-19 10,-29 6,-10 18,-20 34,-32zm25 -17c13,-12 22,-21 25,-28 4,-7 5,-15 5,-23 0,-12 -3,-21 -9,-27 -7,-7 -15,-10 -27,-10 -11,0 -20,3 -27,10 -7,6 -10,14 -10,22 0,6 1,12 4,17 3,6 7,11 12,17l27 22zm-18 23c-9,8 -15,16 -20,25 -4,9 -6,19 -6,29 0,14 4,25 11,34 8,8 18,12 30,12 11,0 21,-3 28,-10 7,-6 10,-14 10,-24 0,-8 -2,-15 -6,-21 -8,-11 -23,-26 -47,-45z"/>
  <path id="1" class="fil3 str1" d="M6189 1701c-18,-14 -29,-26 -34,-34 -5,-9 -8,-18 -8,-27 0,-15 6,-27 17,-37 11,-11 26,-16 44,-16 18,0 32,5 43,15 11,9 16,20 16,33 0,8 -3,16 -8,25 -6,8 -18,19 -37,30 19,15 32,26 38,35 8,11 12,23 12,35 0,15 -6,29 -17,40 -12,11 -28,16 -47,16 -21,0 -37,-6 -49,-20 -10,-10 -14,-22 -14,-34 0,-10 3,-19 10,-29 6,-10 18,-20 34,-32zm25 -17c13,-12 22,-21 25,-28 4,-7 5,-15 5,-23 0,-12 -3,-21 -9,-27 -7,-7 -15,-10 -27,-10 -11,0 -20,3 -27,10 -7,6 -10,14 -10,22 0,6 1,12 4,17 3,6 7,11 12,17l27 22zm-18 23c-9,8 -15,16 -20,25 -4,9 -6,19 -6,29 0,14 4,25 11,34 8,8 18,12 30,12 11,0 21,-3 28,-10 7,-6 10,-14 10,-24 0,-8 -2,-15 -6,-21 -8,-11 -23,-26 -47,-45z"/>
  <path class="fil2" d="M7910 1568l0 6c-14,2 -26,4 -35,9 -9,4 -18,10 -27,19 -9,9 -16,19 -22,29 -6,11 -11,24 -14,39 15,-11 31,-16 46,-16 16,0 29,6 40,18 11,12 16,28 16,47 0,18 -5,35 -17,50 -13,19 -31,28 -53,28 -15,0 -28,-5 -38,-15 -21,-20 -31,-45 -31,-76 0,-19 4,-38 12,-56 8,-18 19,-33 34,-47 14,-14 28,-23 42,-28 13,-5 26,-7 37,-7l10 0zm-101 114c-2,14 -3,26 -3,35 0,11 2,22 6,34 3,12 9,22 17,29 5,5 12,8 20,8 9,0 18,-5 25,-13 7,-9 11,-22 11,-39 0,-18 -4,-34 -11,-48 -7,-13 -18,-20 -31,-20 -4,0 -9,1 -13,2 -5,2 -12,6 -21,12z"/>
  <path id="1" class="fil3 str1" d="M7910 1568l0 6c-14,2 -26,4 -35,9 -9,4 -18,10 -27,19 -9,9 -16,19 -22,29 -6,11 -11,24 -14,39 15,-11 31,-16 46,-16 16,0 29,6 40,18 11,12 16,28 16,47 0,18 -5,35 -17,50 -13,19 -31,28 -53,28 -15,0 -28,-5 -38,-15 -21,-20 -31,-45 -31,-76 0,-19 4,-38 12,-56 8,-18 19,-33 34,-47 14,-14 28,-23 42,-28 13,-5 26,-7 37,-7l10 0zm-101 114c-2,14 -3,26 -3,35 0,11 2,22 6,34 3,12 9,22 17,29 5,5 12,8 20,8 9,0 18,-5 25,-13 7,-9 11,-22 11,-39 0,-18 -4,-34 -11,-48 -7,-13 -18,-20 -31,-20 -4,0 -9,1 -13,2 -5,2 -12,6 -21,12z"/>
  <path class="fil2" d="M5734 2763l0 23 -30 0 0 58 -27 0 0 -58 -93 0 0 -21 102 -146 18 0 0 144 30 0zm-57 0l0 -110 -77 110 77 0z"/>
  <path id="1" class="fil3 str1" d="M5734 2763l0 23 -30 0 0 58 -27 0 0 -58 -93 0 0 -21 102 -146 18 0 0 144 30 0zm-57 0l0 -110 -77 110 77 0z"/>
  <path class="fil2" d="M6817 2604l-13 28 -66 0 -15 29c29,5 52,15 69,32 14,15 21,32 21,52 0,12 -2,23 -7,33 -4,10 -10,18 -17,25 -8,7 -16,13 -24,17 -13,6 -26,9 -39,9 -13,0 -23,-3 -29,-7 -6,-4 -9,-9 -9,-15 0,-3 2,-5 4,-8 3,-2 6,-3 10,-3 2,0 5,0 7,1 2,1 6,3 11,7 8,5 16,8 24,8 13,0 24,-5 34,-14 9,-10 14,-22 14,-36 0,-13 -4,-25 -13,-37 -8,-12 -20,-21 -35,-27 -12,-5 -28,-8 -48,-8l42 -86 79 0z"/>
  <path id="1" class="fil3 str1" d="M6817 2604l-13 28 -66 0 -15 29c29,5 52,15 69,32 14,15 21,32 21,52 0,12 -2,23 -7,33 -4,10 -10,18 -17,25 -8,7 -16,13 -24,17 -13,6 -26,9 -39,9 -13,0 -23,-3 -29,-7 -6,-4 -9,-9 -9,-15 0,-3 2,-5 4,-8 3,-2 6,-3 10,-3 2,0 5,0 7,1 2,1 6,3 11,7 8,5 16,8 24,8 13,0 24,-5 34,-14 9,-10 14,-22 14,-36 0,-13 -4,-25 -13,-37 -8,-12 -20,-21 -35,-27 -12,-5 -28,-8 -48,-8l42 -86 79 0z"/>
  <path class="fil2" d="M8459 2766l-15 43 -131 0 0 -6c39,-35 66,-64 81,-86 16,-22 24,-42 24,-60 0,-14 -5,-26 -13,-35 -9,-9 -19,-13 -31,-13 -11,0 -21,3 -29,9 -9,6 -15,16 -19,28l-6 0c2,-20 9,-36 21,-46 11,-11 25,-16 42,-16 18,0 33,5 45,17 12,11 18,25 18,41 0,11 -3,22 -8,33 -8,18 -21,36 -39,56 -27,29 -44,47 -50,53l57 0c11,0 20,0 24,-1 5,-1 9,-3 13,-6 4,-2 7,-6 10,-11l6 0z"/>
  <path id="1" class="fil3 str1" d="M8459 2766l-15 43 -131 0 0 -6c39,-35 66,-64 81,-86 16,-22 24,-42 24,-60 0,-14 -5,-26 -13,-35 -9,-9 -19,-13 -31,-13 -11,0 -21,3 -29,9 -9,6 -15,16 -19,28l-6 0c2,-20 9,-36 21,-46 11,-11 25,-16 42,-16 18,0 33,5 45,17 12,11 18,25 18,41 0,11 -3,22 -8,33 -8,18 -21,36 -39,56 -27,29 -44,47 -50,53l57 0c11,0 20,0 24,-1 5,-1 9,-3 13,-6 4,-2 7,-6 10,-11l6 0z"/>
  <path class="fil2" d="M7250 2625l54 -26 6 0 0 187c0,12 0,20 1,23 1,3 3,5 7,7 3,2 10,2 20,3l0 6 -84 0 0 -6c11,-1 17,-1 20,-3 4,-2 6,-4 7,-6 1,-3 2,-11 2,-24l0 -120c0,-16 -1,-26 -2,-31 -1,-3 -2,-6 -4,-7 -2,-2 -5,-3 -7,-3 -4,0 -10,2 -17,5l-3 -5z"/>
  <path id="1" class="fil3 str1" d="M7250 2625l54 -26 6 0 0 187c0,12 0,20 1,23 1,3 3,5 7,7 3,2 10,2 20,3l0 6 -84 0 0 -6c11,-1 17,-1 20,-3 4,-2 6,-4 7,-6 1,-3 2,-11 2,-24l0 -120c0,-16 -1,-26 -2,-31 -1,-3 -2,-6 -4,-7 -2,-2 -5,-3 -7,-3 -4,0 -10,2 -17,5l-3 -5z"/>
  <path class="fil2" d="M2071 4398l54 -26 5 0 0 187c0,12 1,20 2,23 1,3 3,5 6,7 3,1 10,2 20,3l0 6 -83 0 0 -6c10,-1 17,-1 20,-3 3,-2 5,-4 6,-6 1,-3 2,-11 2,-24l0 -120c0,-16 0,-26 -2,-31 0,-3 -2,-6 -4,-7 -2,-2 -4,-3 -7,-3 -4,0 -10,2 -17,5l-2 -5z"/>
  <path id="1" class="fil2" d="M2211 4488c0,-25 4,-46 11,-65 8,-18 18,-31 30,-40 10,-7 20,-11 31,-11 17,0 32,9 45,26 17,22 25,50 25,87 0,26 -3,47 -11,65 -7,18 -16,31 -28,39 -11,8 -22,12 -33,12 -21,0 -39,-12 -53,-37 -11,-21 -17,-46 -17,-76zm32 4c0,31 3,56 11,75 6,16 15,24 28,24 5,0 11,-3 18,-8 6,-5 11,-14 14,-26 5,-19 7,-45 7,-79 0,-25 -2,-46 -7,-63 -4,-13 -9,-21 -15,-27 -5,-3 -10,-5 -17,-5 -7,0 -13,3 -19,10 -8,9 -13,23 -16,42 -3,20 -4,39 -4,57z"/>
  <path class="fil2" d="M1931 6612c-18,-14 -29,-26 -34,-34 -5,-9 -8,-18 -8,-27 0,-15 6,-27 17,-37 11,-11 26,-16 44,-16 18,0 32,5 43,15 11,9 17,20 17,33 0,8 -3,16 -9,25 -6,8 -18,18 -37,30 19,15 32,26 38,35 8,11 13,23 13,35 0,15 -6,29 -18,40 -12,11 -28,16 -47,16 -21,0 -37,-7 -49,-20 -9,-10 -14,-22 -14,-34 0,-10 3,-20 10,-29 6,-10 18,-20 34,-32zm25 -17c14,-12 22,-21 25,-28 4,-7 6,-15 6,-23 0,-12 -4,-21 -10,-27 -7,-7 -15,-10 -26,-10 -12,0 -21,3 -28,10 -7,6 -10,14 -10,22 0,6 1,12 4,17 3,6 7,11 13,16l26 23zm-17 23c-10,8 -16,16 -21,25 -4,9 -6,19 -6,29 0,14 4,25 11,33 8,9 18,13 30,13 11,0 21,-3 28,-10 7,-6 11,-14 11,-24 0,-8 -2,-15 -7,-21 -7,-11 -23,-26 -46,-45z"/>
  <path class="fil2" d="M3110 5466l0 6c-15,2 -26,5 -35,9 -9,4 -18,11 -27,20 -9,8 -16,18 -22,29 -6,11 -11,23 -15,38 16,-11 32,-16 47,-16 15,0 28,6 39,18 11,12 17,28 17,47 0,19 -6,35 -17,51 -13,18 -31,27 -53,27 -15,0 -28,-5 -39,-15 -20,-19 -30,-44 -30,-75 0,-20 4,-39 11,-57 8,-17 20,-33 34,-47 15,-14 29,-23 43,-28 13,-4 26,-7 37,-7l10 0zm-101 114c-2,15 -3,26 -3,35 0,11 2,22 5,34 4,13 10,22 18,29 5,6 12,8 20,8 9,0 17,-4 25,-13 7,-9 11,-22 11,-38 0,-19 -4,-35 -11,-49 -7,-13 -18,-20 -31,-20 -4,0 -9,1 -14,3 -4,1 -11,5 -20,11z"/>
  <path class="fil2" d="M932 6661l0 23 -30 0 0 58 -27 0 0 -58 -93 0 0 -21 102 -146 18 0 0 144 30 0zm-57 0l0 -110 -77 110 77 0z"/>
  <path class="fil2" d="M1472 5487l-12 27 -67 0 -15 30c30,4 52,15 69,32 15,15 22,32 22,52 0,12 -3,23 -7,32 -5,10 -11,19 -18,26 -7,7 -15,12 -24,17 -12,5 -25,8 -38,8 -14,0 -23,-2 -29,-6 -6,-5 -9,-10 -9,-15 0,-3 1,-6 4,-8 2,-2 5,-3 9,-3 3,0 5,0 7,1 2,1 6,3 11,6 8,6 17,9 25,9 13,0 24,-5 33,-15 10,-9 15,-21 15,-35 0,-13 -5,-26 -13,-37 -9,-12 -21,-21 -36,-27 -11,-5 -28,-8 -48,-9l42 -85 79 0z"/>
  <path class="fil2" d="M2565 6681l-15 42 -131 0 0 -6c39,-35 66,-63 81,-85 16,-22 24,-43 24,-61 0,-14 -5,-25 -13,-34 -9,-9 -19,-14 -31,-14 -11,0 -20,3 -29,9 -9,7 -15,16 -19,28l-6 0c2,-20 9,-35 21,-46 11,-11 25,-16 42,-16 18,0 33,6 45,17 12,12 18,25 18,41 0,11 -3,22 -8,34 -8,17 -21,36 -39,55 -27,30 -44,48 -50,53l57 0c11,0 20,0 24,-1 5,-1 9,-3 13,-5 4,-3 7,-7 10,-11l6 0z"/>
  <path class="fil2" d="M3542 6510l54 -26 6 0 0 186c0,13 0,20 1,23 1,3 3,6 7,7 3,2 10,3 20,3l0 6 -84 0 0 -6c11,0 18,-1 21,-3 3,-1 5,-3 6,-6 1,-3 2,-11 2,-24l0 -119c0,-16 -1,-27 -2,-31 -1,-4 -2,-6 -4,-8 -2,-1 -4,-2 -7,-2 -4,0 -10,1 -17,5l-3 -5z"/>
  <path class="fil2" d="M8246 6430l54 -26 6 0 0 186c0,12 0,20 1,23 1,3 3,6 7,7 3,2 10,3 20,3l0 6 -84 0 0 -6c11,0 17,-1 20,-3 3,-1 6,-3 7,-6 1,-3 2,-11 2,-24l0 -119c0,-16 -1,-27 -2,-31 -1,-4 -2,-6 -4,-8 -2,-2 -5,-2 -7,-2 -5,0 -10,1 -17,5l-3 -5z"/>
  <path id="1" class="fil2" d="M8386 6520c0,-25 4,-47 12,-65 7,-18 17,-32 30,-41 10,-7 20,-10 30,-10 17,0 32,8 46,25 17,22 25,51 25,87 0,26 -4,48 -11,66 -8,17 -17,30 -28,39 -12,8 -23,12 -33,12 -22,0 -39,-13 -53,-38 -12,-21 -18,-46 -18,-75zm32 4c0,30 4,55 11,74 7,16 16,24 28,24 6,0 12,-2 18,-8 6,-5 11,-14 14,-26 5,-19 8,-45 8,-79 0,-25 -3,-46 -8,-63 -4,-12 -9,-21 -15,-26 -4,-4 -10,-6 -16,-6 -7,0 -14,4 -20,10 -7,9 -13,23 -16,43 -2,19 -4,38 -4,57z"/>
  <path class="fil2" d="M7826 5503c-18,-14 -29,-25 -34,-34 -5,-9 -8,-18 -8,-27 0,-14 6,-27 17,-37 11,-11 26,-16 44,-16 18,0 33,5 43,15 11,9 17,20 17,33 0,8 -3,16 -9,25 -6,9 -18,19 -37,30 19,15 32,27 38,35 9,11 13,23 13,35 0,16 -6,29 -18,40 -12,11 -27,16 -47,16 -21,0 -37,-6 -49,-19 -9,-11 -14,-22 -14,-35 0,-10 3,-19 10,-29 7,-9 18,-20 34,-32zm26 -17c13,-12 21,-21 25,-28 3,-7 5,-14 5,-23 0,-12 -3,-20 -10,-27 -6,-6 -15,-10 -26,-10 -11,0 -20,4 -27,10 -7,6 -11,14 -11,23 0,5 2,11 4,17 3,5 7,11 13,16l27 22zm-18 24c-9,7 -16,15 -20,24 -5,9 -7,19 -7,29 0,14 4,25 12,34 7,8 17,12 29,12 12,0 21,-3 28,-10 7,-6 11,-14 11,-24 0,-7 -2,-14 -6,-21 -8,-11 -24,-26 -47,-44z"/>
  <path class="fil2" d="M7359 6419l0 6c-15,2 -26,5 -35,9 -9,4 -18,11 -27,19 -9,9 -16,19 -22,30 -6,10 -11,23 -14,38 15,-11 31,-16 46,-16 15,0 28,6 40,18 11,12 16,28 16,47 0,18 -5,35 -17,50 -13,19 -31,28 -53,28 -15,0 -28,-5 -38,-15 -21,-19 -31,-45 -31,-75 0,-20 4,-39 12,-57 8,-18 19,-33 34,-47 14,-14 28,-23 42,-28 13,-5 26,-7 37,-7l10 0zm-101 114c-2,14 -3,26 -3,35 0,11 2,22 6,34 3,12 9,22 17,29 5,5 12,8 20,8 9,0 18,-4 25,-13 7,-9 11,-22 11,-38 0,-19 -4,-35 -11,-49 -7,-13 -18,-20 -31,-20 -4,0 -9,1 -13,3 -5,1 -12,5 -21,11z"/>
  <path class="fil2" d="M6826 6567l0 23 -29 0 0 59 -27 0 0 -59 -93 0 0 -20 102 -147 18 0 0 144 29 0zm-56 0l0 -109 -78 109 78 0z"/>
  <path class="fil2" d="M7079 4297l-13 28 -66 0 -15 29c29,5 52,15 69,33 14,14 21,32 21,52 0,11 -2,22 -7,32 -4,10 -10,18 -18,25 -7,7 -15,13 -23,17 -13,6 -26,9 -39,9 -13,0 -23,-2 -29,-7 -6,-4 -9,-9 -9,-15 0,-3 2,-5 4,-8 3,-2 6,-3 10,-3 2,0 5,0 7,1 2,1 6,3 11,7 8,5 16,8 24,8 13,0 24,-5 34,-14 9,-10 14,-22 14,-35 0,-14 -4,-26 -13,-38 -8,-11 -20,-20 -35,-27 -12,-4 -28,-7 -48,-8l42 -86 79 0z"/>
  <path class="fil2" d="M6280 5591l-15 43 -130 0 0 -7c38,-35 65,-63 81,-85 15,-22 23,-42 23,-61 0,-14 -4,-25 -13,-34 -8,-9 -19,-14 -31,-14 -10,0 -20,3 -29,10 -8,6 -15,15 -19,27l-6 0c3,-20 10,-35 21,-46 11,-10 25,-16 42,-16 18,0 33,6 45,17 12,12 18,26 18,41 0,11 -3,23 -8,34 -8,17 -21,36 -39,56 -27,29 -44,47 -50,53l57 0c12,0 20,-1 25,-2 4,-1 8,-2 12,-5 4,-3 7,-6 10,-11l6 0z"/>
  <path class="fil2" d="M5615 6464l54 -26 6 0 0 186c0,13 0,21 1,24 1,3 3,5 7,7 3,1 10,2 20,2l0 6 -84 0 0 -6c11,0 17,-1 20,-2 3,-2 6,-4 7,-7 1,-2 2,-10 2,-24l0 -119c0,-16 -1,-26 -2,-31 -1,-3 -2,-6 -4,-7 -2,-2 -5,-3 -7,-3 -5,0 -10,2 -17,5l-3 -5z"/>
  <path class="fil2" d="M380 461l0 7c-16,-8 -30,-18 -41,-29 -16,-16 -28,-34 -36,-56 -9,-21 -13,-43 -13,-66 0,-34 8,-65 25,-92 17,-28 38,-48 65,-60l0 7c-13,7 -24,18 -33,30 -9,13 -15,29 -19,49 -5,19 -7,40 -7,61 0,23 2,45 6,63 3,15 6,27 10,36 4,10 10,18 16,27 7,8 16,16 27,23z"/>
  <path id="1" class="fil2" d="M540 323l-86 0 -14 35c-4,8 -6,15 -6,19 0,3 2,6 5,9 3,2 10,4 21,5l0 6 -70 0 0 -6c9,-2 15,-4 18,-7 5,-5 12,-15 18,-31l78 -182 6 0 76 184c7,14 12,24 17,28 5,5 12,7 21,8l0 6 -87 0 0 -6c9,-1 15,-2 18,-5 3,-2 5,-5 5,-9 0,-5 -3,-12 -7,-22l-13 -32zm-5 -12l-37 -89 -38 89 75 0z"/>
  <path id="2" class="fil2" d="M635 172l0 -7c17,8 31,18 42,29 15,16 27,34 36,56 8,21 12,43 12,66 0,34 -8,65 -24,92 -17,28 -39,48 -66,60l0 -7c14,-7 25,-17 34,-30 8,-13 15,-29 19,-48 4,-20 6,-41 6,-62 0,-23 -2,-44 -5,-63 -3,-15 -6,-27 -11,-36 -4,-9 -9,-18 -16,-26 -7,-8 -15,-16 -27,-24z"/>
  <path class="fil2" d="M5206 461l0 7c-17,-8 -30,-18 -41,-29 -16,-16 -28,-34 -36,-56 -9,-21 -13,-43 -13,-66 0,-34 8,-65 25,-92 16,-28 38,-48 65,-60l0 7c-14,7 -25,18 -33,30 -9,13 -15,29 -19,49 -5,19 -7,40 -7,61 0,23 2,45 6,63 2,15 6,27 10,36 4,10 9,18 16,27 7,8 16,16 27,23z"/>
  <path id="1" class="fil2" d="M5367 284c15,3 27,8 34,16 11,10 16,22 16,36 0,11 -3,22 -10,32 -7,10 -17,17 -29,22 -12,4 -30,7 -55,7l-104 0 0 -6 8 0c9,0 16,-3 20,-9 2,-4 4,-12 4,-24l0 -143c0,-14 -2,-23 -5,-26 -4,-5 -11,-7 -19,-7l-8 0 0 -6 95 0c18,0 32,1 43,4 16,4 28,10 37,20 9,10 13,22 13,35 0,11 -3,21 -10,29 -7,9 -17,16 -30,20zm-85 -9c4,1 8,1 14,2 5,0 10,0 17,0 15,0 27,-2 35,-5 8,-3 14,-9 19,-16 4,-7 6,-14 6,-23 0,-13 -5,-24 -16,-33 -10,-9 -26,-13 -46,-13 -11,0 -20,1 -29,3l0 85zm0 106c12,3 25,4 37,4 20,0 35,-4 45,-13 11,-9 16,-20 16,-33 0,-9 -3,-17 -7,-25 -5,-8 -13,-14 -23,-18 -11,-5 -24,-7 -39,-7 -7,0 -13,0 -18,0 -4,0 -8,1 -11,1l0 91z"/>
  <path id="2" class="fil2" d="M5443 172l0 -7c16,8 30,18 41,29 16,16 28,34 36,56 9,21 13,43 13,66 0,34 -8,65 -25,92 -17,28 -38,48 -65,60l0 -7c13,-7 24,-17 33,-30 9,-13 15,-29 19,-48 4,-20 7,-41 7,-62 0,-23 -2,-44 -6,-63 -3,-15 -6,-27 -10,-36 -4,-9 -10,-18 -16,-26 -7,-8 -16,-16 -27,-24z"/>
  <path id="3" class="fil3 str1" d="M5206 461l0 7c-17,-8 -30,-18 -41,-29 -16,-16 -28,-34 -36,-56 -9,-21 -13,-43 -13,-66 0,-34 8,-65 25,-92 16,-28 38,-48 65,-60l0 7c-14,7 -25,18 -33,30 -9,13 -15,29 -19,49 -5,19 -7,40 -7,61 0,23 2,45 6,63 2,15 6,27 10,36 4,10 9,18 16,27 7,8 16,16 27,23z"/>
  <path id="4" class="fil3 str1" d="M5367 284c15,3 27,8 34,16 11,10 16,22 16,36 0,11 -3,22 -10,32 -7,10 -17,17 -29,22 -12,4 -30,7 -55,7l-104 0 0 -6 8 0c9,0 16,-3 20,-9 2,-4 4,-12 4,-24l0 -143c0,-14 -2,-23 -5,-26 -4,-5 -11,-7 -19,-7l-8 0 0 -6 95 0c18,0 32,1 43,4 16,4 28,10 37,20 9,10 13,22 13,35 0,11 -3,21 -10,29 -7,9 -17,16 -30,20zm-85 -9c4,1 8,1 14,2 5,0 10,0 17,0 15,0 27,-2 35,-5 8,-3 14,-9 19,-16 4,-7 6,-14 6,-23 0,-13 -5,-24 -16,-33 -10,-9 -26,-13 -46,-13 -11,0 -20,1 -29,3l0 85zm0 106c12,3 25,4 37,4 20,0 35,-4 45,-13 11,-9 16,-20 16,-33 0,-9 -3,-17 -7,-25 -5,-8 -13,-14 -23,-18 -11,-5 -24,-7 -39,-7 -7,0 -13,0 -18,0 -4,0 -8,1 -11,1l0 91z"/>
  <path id="5" class="fil3 str1" d="M5443 172l0 -7c16,8 30,18 41,29 16,16 28,34 36,56 9,21 13,43 13,66 0,34 -8,65 -25,92 -17,28 -38,48 -65,60l0 -7c13,-7 24,-17 33,-30 9,-13 15,-29 19,-48 4,-20 7,-41 7,-62 0,-23 -2,-44 -6,-63 -3,-15 -6,-27 -10,-36 -4,-9 -10,-18 -16,-26 -7,-8 -16,-16 -27,-24z"/>
  <path class="fil2" d="M389 4345l0 6c-16,-8 -30,-18 -41,-29 -16,-16 -28,-34 -36,-56 -9,-21 -13,-43 -13,-66 0,-34 9,-64 25,-92 17,-28 38,-48 65,-60l0 7c-13,8 -24,18 -33,31 -8,12 -15,29 -19,48 -4,20 -6,40 -6,62 0,23 1,44 5,63 3,15 6,27 10,36 4,9 10,18 16,26 7,8 16,16 27,24z"/>
  <path id="1" class="fil2" d="M597 4054l5 75 -5 0c-7,-22 -16,-39 -29,-48 -12,-10 -27,-15 -44,-15 -15,0 -28,3 -40,11 -12,7 -21,19 -28,36 -6,16 -10,36 -10,60 0,20 3,38 10,52 6,15 16,26 29,34 12,8 27,12 43,12 15,0 27,-3 38,-9 11,-7 23,-19 36,-37l5 3c-11,20 -24,34 -38,43 -15,10 -33,14 -53,14 -36,0 -65,-13 -85,-41 -15,-20 -22,-44 -22,-71 0,-22 5,-42 15,-61 9,-18 23,-33 40,-43 18,-10 36,-15 57,-15 16,0 31,4 47,12 4,2 8,3 10,3 2,0 5,-1 7,-3 3,-3 5,-7 6,-12l6 0z"/>
  <path id="2" class="fil2" d="M626 4055l0 -7c17,9 30,18 41,29 16,16 28,35 36,56 9,21 13,43 13,67 0,33 -8,64 -25,92 -16,27 -38,47 -65,59l0 -6c14,-8 25,-18 33,-31 9,-12 15,-28 20,-48 4,-20 6,-40 6,-62 0,-23 -2,-44 -6,-63 -2,-15 -6,-27 -10,-36 -4,-9 -9,-17 -16,-26 -7,-8 -16,-16 -27,-24z"/>
  <path class="fil2" d="M5197 4345l0 6c-17,-8 -30,-18 -41,-29 -16,-16 -28,-34 -37,-56 -8,-21 -12,-43 -12,-66 0,-34 8,-64 25,-92 16,-28 38,-48 65,-60l0 7c-14,8 -25,18 -33,31 -9,12 -15,29 -20,48 -4,20 -6,40 -6,62 0,23 2,44 5,63 3,15 7,27 11,36 4,9 9,18 16,26 7,8 16,16 27,24z"/>
  <path id="1" class="fil2" d="M5210 4280l0 -6 8 0c9,0 16,-3 20,-9 2,-3 3,-11 3,-24l0 -143c0,-14 -1,-22 -4,-26 -4,-5 -11,-7 -19,-7l-8 0 0 -6 90 0c33,0 58,4 75,11 17,8 31,20 41,38 11,17 16,38 16,60 0,31 -9,57 -28,78 -21,23 -53,34 -96,34l-98 0zm63 -16c13,3 25,4 34,4 25,0 46,-8 63,-26 16,-18 25,-42 25,-72 0,-31 -9,-55 -25,-72 -17,-18 -38,-27 -64,-27 -10,0 -21,2 -33,5l0 188z"/>
  <path id="2" class="fil2" d="M5452 4055l0 -7c17,9 30,18 41,29 16,16 28,35 36,56 9,21 13,43 13,67 0,33 -8,64 -25,92 -16,27 -38,47 -65,59l0 -6c13,-8 25,-18 33,-31 9,-12 15,-28 19,-48 5,-20 7,-40 7,-62 0,-23 -2,-44 -6,-63 -2,-15 -6,-27 -10,-36 -4,-9 -9,-17 -16,-26 -7,-8 -16,-16 -27,-24z"/>
 </g>
</svg>
