<svg xmlns="http://www.w3.org/2000/svg" width="256" height="256" viewBox="0 0 256 256" preserveAspectRatio="xMidYMid"><style>.a{fill:none;stroke-width:5;stroke:#000;}.b{fill:none;stroke-linejoin:round;stroke-width:5;stroke:#000;}</style><path d="M128.5 19.6C72.6 81.1 83.4 133.5 99 179.6h20.1l1.7 15.3h15.6l2.7-15.3h19c16.5-48 25.8-97.4-29.6-160.1z" class="a"/><circle cx="128.7" cy="92.6" r="15" class="b"/><path d="m115.3 147.3h27.2l-6.1 47.6h-15.6z" class="b"/><path d="m88.9 142.8c-24.2 8.2-27.2 37.3-16.2 50.2 2.7-11.3 8.6-20.9 22.3-25.8z" class="a"/><path d="m168.5 143c24.2 8.2 27.2 37.3 16.2 50.2-2.7-11.3-8.6-20.9-22.3-25.8z" class="a"/><path d="M128.5 240.9V220.7" class="a"/><path d="M150.6 224.1V203.8" class="a"/><path d="M106.5 223.6V203.3" class="a"/></svg>