<?xml version="1.0" encoding="UTF-8" standalone="no"?>
<svg
   xmlns="http://www.w3.org/2000/svg"
   id="svg6"
   preserveAspectRatio="xMidYMid"
   version="1.1"
   viewBox="0 0 256 256"
   height="256"
   width="256">
 <ellipse
     ry="130.24429"
     rx="133.91039"
     cy="128.34923"
     cx="128"
     id="path16"
     style="fill:#ffffff;stroke-width:0.504764" />
  <g
     transform="matrix(0.83817396,0,0,0.83817396,20.713733,62.133482)"
     id="g4">
    <path
       id="path2"
       fill="#000000"
       d="M 238.37126,157.89222 H 18.39521 C 8.4311377,157.89222 0,149.46108 0,139.49701 V 18.39521 C 0,8.4311377 8.4311377,0 18.39521,0 H 237.60479 C 247.56886,0 256,8.4311377 256,18.39521 v 121.1018 c 0,9.96407 -7.66467,18.39521 -17.62874,18.39521 z M 18.39521,12.263473 c -3.065869,0 -6.131737,3.065868 -6.131737,6.131737 v 121.1018 c 0,3.83233 3.065868,6.13173 6.131737,6.13173 h 219.20958 c 3.83234,0 6.13174,-3.06587 6.13174,-6.13173 V 18.39521 c 0,-3.832336 -3.06587,-6.131737 -6.13174,-6.131737 0.76647,0 -219.20958,0 -219.20958,0 z M 36.790419,121.1018 V 36.790419 H 61.317365 L 85.844311,67.449102 110.37126,36.790419 H 134.8982 V 121.1018 H 110.37126 V 72.814371 L 85.844311,103.47305 61.317365,72.814371 V 121.1018 Z m 154.059881,0 -36.79042,-40.622758 h 24.52695 V 36.790419 h 24.52694 v 42.922156 h 24.52695 z" />
  </g>
</svg>
