<svg xmlns="http://www.w3.org/2000/svg" width="256" height="256" viewBox="0 0 256 256" preserveAspectRatio="xMidYMid"><style>.a{fill:none;stroke-width:3;stroke:#000;}.b{stroke-linejoin:round;stroke-width:4;stroke:#000;}</style><path d="m20.5 62.1h215" class="a"/><path d="m20.5 122h215" class="a"/><path d="m20.5 182h215" class="a"/><path d="m182 20.5v215" class="a"/><path d="m122 20.5v215" class="a"/><path d="m62.1 20.5v215" class="a"/><rect width="26.5" height="26.5" x="53.8" y="53.8" ry="6.1" class="b"/><path d="m192 20.5v215" class="a"/><path d="m132 20.5v215" class="a"/><path d="m72.1 20.5v215" class="a"/><path d="m20.5 72.1h215" class="a"/><path d="m20.5 132h215" class="a"/><path d="m20.5 192h215" class="a"/><rect width="26.5" height="26.5" x="113.8" y="54.4" ry="6.1" class="b"/><rect width="26.5" height="26.5" x="173.8" y="54.4" ry="6.1" class="b"/><rect width="26.5" height="26.5" x="53.8" y="113.8" ry="6.1" class="b"/><rect width="26.5" height="26.5" x="113.8" y="114.4" ry="6.1" class="b"/><rect width="26.5" height="26.5" x="173.8" y="114.4" ry="6.1" class="b"/><rect width="26.5" height="26.5" x="53.8" y="173.8" ry="6.1" class="b"/><rect width="26.5" height="26.5" x="113.8" y="174.4" ry="6.1" class="b"/><rect width="26.5" height="26.5" x="173.8" y="174.4" ry="6.1" class="b"/></svg>