<svg xmlns="http://www.w3.org/2000/svg" width="256" height="256" viewBox="0 0 256 256" preserveAspectRatio="xMidYMid"><style>.a{stroke-width:0.02;}</style><path d="m120.7 19c-0.6 2.2-1.2 4.4-1.4 5l-0.3 1.1-1.5 0.2c-0.8 0.1-2.2 0.3-3.1 0.5-0.9 0.2-1.7 0.3-1.9 0.2-0.1-0.1-1.4-1.9-2.9-4.1-1.5-2.1-2.8-4-2.9-4.1-0.1-0.1-6.3 2.5-6.7 2.8 0 0 0.5 2.3 1.3 5 0.7 2.8 1.3 5 1.2 5-0.6 0.5-3.2 2.5-4 3.2l-1.1 0.9-4.6-2.2-4.6-2.2-2 2.9c-1.1 1.6-2 3-2 3.1 0 0.1 1.6 1.8 3.6 3.8l3.6 3.6-0.8 1.9c-0.5 1.1-0.9 2.4-1.1 3.1-0.4 1.3 0 1.2-5.6 1.6-1.8 0.1-3.7 0.3-4.2 0.4l-1 0.1-0.3 3.5c-0.2 1.9-0.3 3.6-0.2 3.6 0.1 0.1 2.2 0.7 4.8 1.4 2.6 0.7 4.8 1.3 5 1.4 0.1 0.1 0.3 0.6 0.3 1.1 0 0.5 0.2 1.9 0.5 3.1 0.2 1.2 0.4 2.2 0.4 2.3-0.1 0.1-1.9 1.4-4.2 3-2.3 1.5-4.1 2.9-4.1 3 0 0.3 2.6 6 2.8 6.2 0.1 0.1 7.4-1.6 9.6-2.3 0.4-0.1 0.7 0.1 1.9 1.6 0.7 1 1.7 2.1 2.1 2.5 0.4 0.4 0.7 0.8 0.7 0.9 0 0.1-1 2.3-2.2 4.8-1.2 2.5-2.2 4.7-2.1 4.7 0.6 0.5 5.6 4 5.8 4 0.1 0 1.9-1.6 3.8-3.6l3.6-3.6 1.2 0.6c0.7 0.3 2 0.8 2.9 1.1 0.9 0.3 1.8 0.6 1.9 0.7 0.1 0.1 0.3 2.4 0.6 5.1 0.2 2.7 0.5 5 0.6 5.1 0.1 0.1 1.7 0.3 3.6 0.5 2.8 0.3 3.5 0.3 3.6 0 0.1-0.2 0.7-2.4 1.4-5l1.2-4.6 0.8-0.2c0.5-0.1 1.9-0.4 3.3-0.6l2.5-0.5 3 4.3c2.8 4.1 3 4.2 3.5 4 0.3-0.1 1.8-0.8 3.3-1.5l2.7-1.2-1.2-4.5c-0.6-2.5-1.2-4.7-1.3-5-0.1-0.4 0.1-0.7 1.2-1.4 0.7-0.5 1.8-1.5 2.5-2.1l1.2-1.2 4.7 2.2c2.6 1.2 4.7 2.2 4.8 2.1 0.3-0.4 3.8-5.4 3.9-5.6 0-0.2-1.5-2-3.5-4-3.2-3.3-3.6-3.8-3.3-4.2 0.1-0.3 0.6-1.6 1.2-3l0.9-2.5 3-0.3c1.6-0.2 4-0.4 5.2-0.5l2.2-0.2 0.3-2.9c0.1-1.6 0.3-3.3 0.3-3.7v-0.7l-4.9-1.3c-4.3-1.1-5-1.4-5-1.8 0-0.3-0.3-1.6-0.5-2.9-0.2-1.3-0.4-2.6-0.5-2.8-0.1-0.3 1.1-1.2 4.2-3.3l4.3-3-1.5-3.2c-0.9-2-1.6-3.2-1.8-3.2-0.2 0-2.4 0.6-4.9 1.2-4.6 1.2-5.2 1.3-5.2 1 0-0.1-0.9-1.2-1.9-2.5l-1.9-2.3 2.1-4.4c1.2-2.4 2.1-4.5 2.2-4.6 0-0.2-1.2-1.2-2.9-2.4l-2.9-2.1-3.7 3.6-3.7 3.7-2.1-0.9c-1.2-0.5-2.6-1-3.1-1.1-1.2-0.3-1 0.2-1.6-6.8l-0.3-3.8-1-0.1c-1-0.1-5.8-0.6-6.1-0.6-0.1 0-0.6 1.8-1.2 3.9zm4.5 14.3c9.4 1.4 17.3 8 20.3 17 0.9 2.6 1.3 5.3 1.3 8.3 0 5.9-1.9 11.3-5.5 15.8-3.5 4.4-8.1 7.4-13.6 8.8-2.7 0.7-8.4 0.9-11.2 0.3C106.9 81.5 99.4 74.5 96.8 65 95.9 62 95.7 57 96.3 53.9 97.3 48.5 99.8 43.9 103.8 40c5.8-5.6 13.5-8 21.4-6.8z" class="a"/><path d="m186.7 122.5-1.3 5-1.8 0.3c-1 0.1-2.5 0.4-3.2 0.6-0.8 0.2-1.4 0.3-1.5 0.3 0 0-1.3-1.9-2.9-4-1.5-2.2-2.9-4.1-3-4.2-0.3-0.3-6.8 2.9-6.6 3.2 0.2 0.7 2.7 9.7 2.7 9.7-1.7 1.3-3.1 2.5-3.9 3.3l-1 1-4.6-2.1c-2.5-1.1-4.7-2.1-4.8-2.1-0.1 0-1.1 1.3-2.2 2.9l-2 2.9 3.7 3.6 3.7 3.6-0.4 1.1c-0.2 0.6-0.7 1.9-1 3-0.3 1.1-0.6 2-0.7 2 0 0.1-2.4 0.3-5.2 0.6l-5.1 0.5-0.2 1.9c-0.1 1.1-0.2 2.7-0.3 3.6l-0.1 1.7 5 1.3 5 1.3 0.2 1.1c0.1 1 0.6 3.5 0.9 4.8 0.1 0.6-0.2 0.8-4.1 3.6-2.3 1.6-4.2 3.1-4.1 3.1 0.8 2.1 3 6.2 3.2 6.2 0.2 0 2.5-0.6 5.1-1.3l4.7-1.3 0.6 0.8c0.3 0.4 1.3 1.6 2.1 2.6l1.5 1.8-2.1 4.5c-1.1 2.5-2.1 4.6-2.1 4.7 0 0.1 1.3 1.1 3 2.2l2.9 2 3.6-3.8c3.5-3.6 3.7-3.8 4.2-3.5 0.3 0.2 1.7 0.7 3.1 1.2l2.5 0.9 0.5 4.9c0.3 2.7 0.6 5 0.6 5.2 0.1 0.2 1.4 0.3 3.2 0.4 1.7 0.1 3.2 0.2 3.5 0.3 0.3 0.1 0.6-0.8 1.7-5 1.1-4.4 1.3-5.1 1.8-5.1 0.3 0 1.5-0.3 2.7-0.5 1.2-0.2 2.4-0.4 2.8-0.5 0.6-0.1 0.8 0.2 3.5 3.9 1.6 2.2 3 4.1 3 4.2 0.1 0.1 1.6-0.5 3.4-1.4 2.4-1.2 3.2-1.7 3.1-2 0-0.2-0.7-2.5-1.4-5l-1.3-4.6 0.8-0.6c0.4-0.3 1.5-1.3 2.5-2.1 1-0.8 1.8-1.5 1.9-1.5 0.1 0 2.2 0.9 4.7 2.1 2.5 1.2 4.7 2 4.8 1.9 0.1-0.1 1-1.4 2.1-3l1.9-2.7-3.7-3.7-3.7-3.7 0.9-2.4c0.5-1.3 1-2.7 1.1-3.1l0.2-0.7 5.1-0.5c2.8-0.3 5.1-0.6 5.2-0.6 0.1-0.1 0.6-7 0.6-7.1 0-0.1-2.3-0.7-5-1.4l-4.9-1.2-0.3-1.9c-0.1-1-0.4-2.5-0.6-3.2-0.2-0.7-0.3-1.4-0.2-1.5 0.1-0.1 1.9-1.4 4-2.9 2.1-1.5 3.9-2.8 4-2.9 0.3-0.3-2.9-6.8-3.2-6.6-0.2 0.1-2.3 0.7-4.6 1.3-2.4 0.7-4.5 1.3-4.7 1.3-0.3 0.1-0.6-0.2-1-0.8-0.3-0.5-1.3-1.7-2.1-2.5l-1.5-1.6 2.1-4.5c1.1-2.5 2.1-4.7 2.1-4.8 0-0.1-1.3-1.1-2.9-2.2l-2.9-2-3.7 3.7-3.7 3.7-1.1-0.4c-0.6-0.2-1.9-0.7-3.1-1.1l-2-0.6-0.5-5.1-0.5-5.1-2-0.2c-1.1-0.1-2.8-0.2-3.6-0.3l-1.6-0.1zm6.8 13.4c5.6 1.2 11.1 4.6 14.7 9.1 1.8 2.3 3.9 6.4 4.6 9.1 2.5 9.1-0.1 18.5-6.8 25.1-9.9 9.7-26 9.6-35.7-0.1-5-5-7.5-10.9-7.5-18 0-6.5 1.9-11.9 6.2-16.9 3.7-4.4 9.9-7.7 15.9-8.5 2.2-0.3 6.3-0.1 8.7 0.3z" class="a"/><path d="m65 79.8-1.3 5-1.8 0.3c-1 0.1-2.5 0.4-3.2 0.6-0.8 0.2-1.4 0.3-1.5 0.3 0 0-1.3-1.9-2.9-4-1.5-2.2-2.9-4.1-3-4.2-0.3-0.3-6.8 2.9-6.6 3.2 0.2 0.7 2.7 9.7 2.7 9.7-1.7 1.3-3.1 2.5-3.9 3.3l-1 1-4.6-2.1c-2.5-1.1-4.7-2.1-4.8-2.1-0.1 0-1.1 1.3-2.2 2.9l-2 2.9 3.7 3.6 3.7 3.6-0.4 1.1c-0.2 0.6-0.7 1.9-1 3-0.3 1.1-0.6 2-0.7 2 0 0.1-2.4 0.3-5.2 0.6l-5.1 0.5-0.2 1.9c-0.1 1.1-0.2 2.7-0.3 3.6l-0.1 1.7 5 1.3 5 1.3 0.2 1.1c0.1 1 0.6 3.5 0.9 4.8 0.1 0.6-0.2 0.8-4.1 3.6-2.3 1.6-4.2 3.1-4.1 3.1 0.8 2.1 3 6.2 3.2 6.2 0.2 0 2.5-0.6 5.1-1.3l4.7-1.3 0.6 0.8c0.3 0.4 1.3 1.6 2.1 2.6l1.5 1.8-2.1 4.5c-1.1 2.5-2.1 4.6-2.1 4.7 0 0.1 1.3 1.1 3 2.2l2.9 2 3.6-3.8c3.5-3.6 3.7-3.8 4.2-3.5 0.3 0.2 1.7 0.7 3.1 1.2l2.5 0.9 0.5 4.9c0.3 2.7 0.6 5 0.6 5.2 0.1 0.2 1.4 0.3 3.2 0.4 1.7 0.1 3.2 0.2 3.5 0.3 0.3 0.1 0.6-0.8 1.7-5 1.1-4.4 1.3-5.1 1.8-5.1 0.3 0 1.5-0.3 2.7-0.5 1.2-0.2 2.4-0.4 2.8-0.5 0.6-0.1 0.8 0.2 3.5 3.9 1.6 2.2 3 4.1 3 4.2 0.1 0.1 1.6-0.5 3.4-1.4 2.4-1.2 3.2-1.7 3.1-2 0-0.2-0.7-2.5-1.4-5l-1.3-4.6 0.8-0.6c0.4-0.3 1.5-1.3 2.5-2.1 1-0.8 1.8-1.5 1.9-1.5 0.1 0 2.2 0.9 4.7 2.1 2.5 1.2 4.7 2 4.8 1.9 0.1-0.1 1-1.4 2.1-3l1.9-2.7-3.7-3.7-3.7-3.7 0.9-2.4c0.5-1.3 1-2.7 1.1-3.1l0.2-0.7 5.1-0.5c2.8-0.3 5.1-0.6 5.2-0.6 0.1-0.1 0.6-7 0.6-7.1 0-0.1-2.3-0.7-5-1.4l-4.9-1.2-0.3-1.9c-0.1-1-0.4-2.5-0.6-3.2-0.2-0.7-0.3-1.4-0.2-1.5 0.1-0.1 1.9-1.4 4-2.9 2.1-1.5 3.9-2.8 4-2.9 0.3-0.3-2.9-6.8-3.2-6.6-0.2 0.1-2.3 0.7-4.6 1.3-2.4 0.7-4.5 1.3-4.7 1.3-0.3 0.1-0.6-0.2-1-0.8-0.3-0.5-1.3-1.7-2.1-2.5l-1.5-1.6 2.1-4.5c1.1-2.5 2.1-4.7 2.1-4.8 0-0.1-1.3-1.1-2.9-2.2l-2.9-2-3.7 3.7-3.7 3.7-1.1-0.4c-0.6-0.2-1.9-0.7-3.1-1.1l-2-0.6-0.5-5.1-0.5-5.1-2-0.2c-1.1-0.1-2.8-0.2-3.6-0.3l-1.6-0.1zm6.8 13.4c5.6 1.2 11.1 4.6 14.7 9.1 1.8 2.3 3.9 6.4 4.6 9.1 2.5 9.1-0.1 18.5-6.8 25.1-9.9 9.7-26 9.6-35.7-0.1-5-5-7.5-10.9-7.5-18 0-6.5 1.9-11.9 6.2-16.9 3.7-4.4 9.9-7.7 15.9-8.5 2.2-0.3 6.3-0.1 8.7 0.3z" class="a"/><path d="m108.9 148.2-1.3 5-1.8 0.3c-1 0.1-2.5 0.4-3.2 0.6-0.8 0.2-1.4 0.3-1.5 0.3 0 0-1.3-1.9-2.9-4-1.5-2.2-2.9-4.1-3-4.2-0.3-0.3-6.8 2.9-6.6 3.2 0.2 0.7 2.7 9.7 2.7 9.7-1.7 1.3-3.1 2.5-3.9 3.3l-1 1-4.6-2.1c-2.5-1.1-4.7-2.1-4.8-2.1-0.1 0-1.1 1.3-2.2 2.9l-2 2.9 3.7 3.6 3.7 3.6-0.4 1.1c-0.2 0.6-0.7 1.9-1 3-0.3 1.1-0.6 2-0.7 2 0 0.1-2.4 0.3-5.2 0.6l-5.1 0.5-0.2 1.9c-0.1 1.1-0.2 2.7-0.3 3.6l-0.1 1.7 5 1.3 5 1.3 0.2 1.1c0.1 1 0.6 3.5 0.9 4.8 0.1 0.6-0.2 0.8-4.1 3.6-2.3 1.6-4.2 3.1-4.1 3.1 0.8 2.1 3 6.2 3.2 6.2 0.2 0 2.5-0.6 5.1-1.3l4.7-1.3 0.6 0.8c0.3 0.4 1.3 1.6 2.1 2.6l1.5 1.8-2.1 4.5c-1.1 2.5-2.1 4.6-2.1 4.7 0 0.1 1.3 1.1 3 2.2l2.9 2 3.6-3.8c3.5-3.6 3.7-3.8 4.2-3.5 0.3 0.2 1.7 0.7 3.1 1.2l2.5 0.9 0.5 4.9c0.3 2.7 0.6 5 0.6 5.2 0.1 0.2 1.4 0.3 3.2 0.4 1.7 0.1 3.2 0.2 3.5 0.3 0.3 0.1 0.6-0.8 1.7-5 1.1-4.4 1.3-5.1 1.8-5.1 0.3 0 1.5-0.3 2.7-0.5 1.2-0.2 2.4-0.4 2.8-0.5 0.6-0.1 0.8 0.2 3.5 3.9 1.6 2.2 3 4.1 3 4.2 0.1 0.1 1.6-0.5 3.4-1.4 2.4-1.2 3.2-1.7 3.1-2 0-0.2-0.7-2.5-1.4-5l-1.3-4.6 0.8-0.6c0.4-0.3 1.5-1.3 2.5-2.1 1-0.8 1.8-1.5 1.9-1.5 0.1 0 2.2 0.9 4.7 2.1 2.5 1.2 4.7 2 4.8 1.9 0.1-0.1 1-1.4 2.1-3l1.9-2.7-3.7-3.7-3.7-3.7 0.9-2.4c0.5-1.3 1-2.7 1.1-3.1l0.2-0.7 5.1-0.5c2.8-0.3 5.1-0.6 5.2-0.6 0.1-0.1 0.6-7 0.6-7.1 0-0.1-2.3-0.7-5-1.4l-4.9-1.2-0.3-1.9c-0.1-1-0.4-2.5-0.6-3.2-0.2-0.7-0.3-1.4-0.2-1.5 0.1-0.1 1.9-1.4 4-2.9 2.1-1.5 3.9-2.8 4-2.9 0.3-0.3-2.9-6.8-3.2-6.6-0.2 0.1-2.3 0.7-4.6 1.3-2.4 0.7-4.5 1.3-4.7 1.3-0.3 0.1-0.6-0.2-1-0.8-0.3-0.5-1.3-1.7-2.1-2.5l-1.5-1.6 2.1-4.5c1.1-2.5 2.1-4.7 2.1-4.8 0-0.1-1.3-1.1-2.9-2.2l-2.9-2-3.7 3.7-3.7 3.7-1.1-0.4c-0.6-0.2-1.9-0.7-3.1-1.1l-2-0.6-0.5-5.1-0.5-5.1-2-0.2c-1.1-0.1-2.8-0.2-3.6-0.3l-1.6-0.1zm6.8 13.4c5.6 1.2 11.1 4.6 14.7 9.1 1.8 2.3 3.9 6.4 4.6 9.1 2.5 9.1-0.1 18.5-6.8 25.1-9.9 9.7-26 9.6-35.7-0.1-5-5-7.5-10.9-7.5-18 0-6.5 1.9-11.9 6.2-16.9 3.7-4.4 9.9-7.7 15.9-8.5 2.2-0.3 6.3-0.1 8.7 0.3z" class="a"/></svg>