<svg xmlns="http://www.w3.org/2000/svg" width="256" height="256" viewBox="0 0 256 256" preserveAspectRatio="xMidYMid"><style>.a{fill:none;stroke-linejoin:round;stroke-width:5;stroke:#000;}.b{fill:none;stroke-width:3;stroke:#000;}.c{stroke-linejoin:round;stroke-width:3;stroke:#000;}</style><path d="M42.5 24.2H150.3c12.9 0 23.2 10.4 23.2 23.2l0.2 49.9C97.7 98.3 85.8 91.9 80.2 119.5H69.5L19.2 157.4 42.5 119.5c-12.9 0-23.2-10.4-23.2-23.2v-48.9c0-12.9 10.4-23.2 23.2-23.2z" class="a"/><path d="M211.2 97.2H103.4c-12.9 0-23.2 10.4-23.2 23.2v48.9c0 12.9 10.4 23.2 23.2 23.2h80.8l50.3 37.9-23.4-37.9c12.9 0 23.2-10.4 23.2-23.2v-48.9c0-12.9-10.4-23.2-23.2-23.2z" class="a"/><path d="M42.7 46.8H147.5" class="b"/><path d="M42.7 63.8H95.6" class="b"/><path d="m108.1 63.8h39.4" class="b"/><path d="M42.7 80.8H147.5" class="b"/><circle cx="120.3" cy="141.3" r="4.1" class="c"/><circle cx="158.8" cy="141.3" r="4.1" class="c"/><circle cx="197.3" cy="141.3" r="4.1" class="c"/></svg>