<?xml version="1.0" encoding="UTF-8"?>
<!DOCTYPE svg PUBLIC "-//W3C//DTD SVG 1.1//EN" "http://www.w3.org/Graphics/SVG/1.1/DTD/svg11.dtd">
<!-- Creator: CorelDRAW X7 -->
<svg xmlns="http://www.w3.org/2000/svg" xml:space="preserve" width="5in" height="3.5in" version="1.1" style="shape-rendering:geometricPrecision; text-rendering:geometricPrecision; image-rendering:optimizeQuality; fill-rule:evenodd; clip-rule:evenodd"
viewBox="0 0 5000 3500"
 xmlns:xlink="http://www.w3.org/1999/xlink">
 <defs>
  <style type="text/css">
   <![CDATA[
    .str0 {stroke:#373435;stroke-width:27.7795}
    .str1 {stroke:#373435;stroke-width:6.94488;stroke-dasharray:13.889764 20.834646}
    .fil0 {fill:none}
    .fil1 {fill:#373435;fill-rule:nonzero}
   ]]>
  </style>
 </defs>
 <g id="Layer_x0020_1">
  <metadata id="CorelCorpID_0Corel-Layer"/>
  <rect class="fil0 str0" x="137" y="1130" width="2193" height="1542"/>
  <path class="fil1" d="M290 2861l2 13c-4,1 -7,2 -11,2 -5,0 -9,-1 -12,-3 -3,-2 -5,-4 -6,-7 -1,-2 -2,-8 -2,-17l0 -50 -11 0 0 -11 11 0 0 -21 15 -9 0 30 14 0 0 11 -14 0 0 51c0,4 0,7 0,8 1,1 2,2 3,3 1,1 3,1 5,1 2,0 4,0 6,-1z"/>
  <path id="1" class="fil1" d="M318 3033l15 2c-3,8 -7,15 -14,20 -6,5 -14,7 -24,7 -13,0 -23,-3 -30,-11 -8,-8 -11,-19 -11,-33 0,-14 3,-26 11,-34 7,-8 17,-12 29,-12 11,0 21,4 28,12 8,8 11,19 11,33 0,1 0,2 0,4l-64 0c0,10 3,17 8,22 5,5 11,7 18,7 5,0 10,-1 13,-4 4,-3 7,-7 10,-13zm-48 -24l48 0c-1,-7 -3,-13 -6,-16 -4,-6 -11,-9 -18,-9 -7,0 -12,3 -17,7 -4,5 -7,11 -7,18z"/>
  <path id="2" class="fil1" d="M253 3221l14 -2c1,5 3,10 7,13 4,3 9,5 16,5 6,0 11,-2 15,-4 3,-3 5,-6 5,-10 0,-3 -2,-6 -5,-8 -2,-1 -7,-3 -15,-5 -11,-3 -18,-5 -22,-7 -4,-2 -7,-5 -10,-8 -2,-4 -3,-7 -3,-12 0,-4 1,-7 3,-10 2,-4 4,-6 7,-9 2,-1 5,-3 9,-4 4,-1 8,-2 13,-2 7,0 13,1 18,3 5,2 9,5 11,8 3,4 4,8 5,14l-14 2c-1,-5 -3,-8 -6,-11 -3,-2 -7,-4 -13,-4 -7,0 -11,2 -14,4 -3,2 -5,5 -5,8 0,2 1,3 2,5 1,1 3,3 6,4 1,0 5,1 13,3 10,3 17,5 21,7 4,2 8,5 10,8 2,3 4,7 4,12 0,5 -2,10 -5,14 -3,4 -7,8 -12,10 -5,2 -12,4 -18,4 -12,0 -20,-3 -26,-7 -6,-5 -10,-12 -11,-21z"/>
  <path id="3" class="fil1" d="M290 3420l2 13c-4,1 -7,1 -11,1 -5,0 -9,-1 -12,-2 -3,-2 -5,-4 -6,-7 -1,-3 -2,-9 -2,-17l0 -50 -11 0 0 -11 11 0 0 -22 15 -9 0 31 14 0 0 11 -14 0 0 51c0,4 0,6 0,8 1,1 2,2 3,2 1,1 3,2 5,2 2,0 4,-1 6,-1z"/>
  <rect class="fil0 str1" x="200" y="2721" width="183" height="750"/>
  <path class="fil1" d="M591 3184l22 3c-3,15 -9,26 -19,35 -9,8 -21,12 -35,12 -18,0 -32,-6 -43,-17 -11,-12 -16,-28 -16,-50 0,-14 2,-26 7,-37 4,-10 11,-18 21,-23 9,-5 20,-8 31,-8 14,0 25,3 34,11 9,7 15,17 18,30l-22 3c-2,-9 -5,-15 -11,-19 -5,-5 -11,-7 -18,-7 -11,0 -20,4 -27,12 -7,8 -11,20 -11,37 0,18 4,30 10,38 7,8 16,12 26,12 9,0 16,-2 22,-8 6,-5 9,-13 11,-24z"/>
  <path id="1" class="fil1" d="M716 3231l0 -19c-10,15 -24,22 -41,22 -8,0 -15,-1 -21,-4 -7,-3 -12,-7 -15,-11 -3,-5 -6,-10 -7,-17 -1,-4 -1,-11 -1,-20l0 -80 22 0 0 71c0,12 0,20 1,24 1,5 4,10 9,13 4,4 10,5 16,5 7,0 13,-1 19,-5 6,-3 10,-8 12,-14 3,-5 4,-14 4,-25l0 -69 22 0 0 129 -20 0z"/>
  <path id="2" class="fil1" d="M770 3231l0 -129 20 0 0 20c5,-10 10,-16 14,-19 4,-3 9,-4 14,-4 7,0 15,2 23,7l-8 20c-6,-3 -11,-4 -16,-4 -5,0 -9,1 -13,4 -4,3 -7,7 -8,12 -3,8 -4,16 -4,26l0 67 -22 0z"/>
  <path id="3" class="fil1" d="M853 3231l0 -129 20 0 0 20c5,-10 10,-16 14,-19 4,-3 9,-4 14,-4 8,0 15,2 23,7l-8 20c-5,-3 -11,-4 -16,-4 -5,0 -9,1 -13,4 -4,3 -6,7 -8,12 -2,8 -4,16 -4,26l0 67 -22 0z"/>
  <path id="4" class="fil1" d="M1025 3189l23 3c-3,14 -10,24 -20,31 -9,8 -22,11 -37,11 -19,0 -34,-6 -45,-17 -11,-12 -16,-28 -16,-49 0,-22 5,-39 16,-51 12,-12 26,-18 44,-18 17,0 31,6 42,18 11,11 17,28 17,49 0,2 0,4 0,6l-97 0c1,14 5,25 12,33 7,7 16,11 27,11 8,0 15,-2 21,-6 5,-4 10,-11 13,-21zm-72 -35l73 0c-1,-11 -4,-19 -9,-24 -7,-9 -16,-13 -27,-13 -10,0 -18,3 -25,10 -7,7 -11,16 -12,27z"/>
  <path id="5" class="fil1" d="M1076 3231l0 -129 20 0 0 18c9,-14 23,-21 41,-21 8,0 15,1 21,4 7,3 12,7 15,11 3,5 6,10 7,16 1,4 1,12 1,22l0 79 -22 0 0 -78c0,-9 -1,-16 -2,-20 -2,-5 -5,-8 -10,-11 -4,-3 -9,-4 -15,-4 -9,0 -17,3 -24,9 -7,6 -10,17 -10,34l0 70 -22 0z"/>
  <path id="6" class="fil1" d="M1263 3212l3 19c-7,2 -12,2 -17,2 -8,0 -14,-1 -18,-4 -5,-2 -8,-5 -10,-10 -1,-4 -2,-12 -2,-26l0 -74 -17 0 0 -17 17 0 0 -32 22 -14 0 46 22 0 0 17 -22 0 0 76c0,6 0,10 1,12 1,2 2,3 4,4 1,1 4,2 7,2 2,0 6,-1 10,-1z"/>
  <path id="7" class="fil1" d="M1359 3231l0 -112 -19 0 0 -17 19 0 0 -14c0,-9 1,-15 2,-19 2,-6 6,-11 11,-14 6,-4 13,-6 23,-6 6,0 13,1 20,3l-3 19c-5,-1 -9,-1 -13,-1 -7,0 -11,1 -14,4 -3,3 -4,8 -4,16l0 12 25 0 0 17 -25 0 0 112 -22 0z"/>
  <path id="8" class="fil1" d="M1423 3231l0 -129 20 0 0 20c5,-10 9,-16 14,-19 4,-3 9,-4 14,-4 7,0 15,2 23,7l-8 20c-6,-3 -11,-4 -16,-4 -5,0 -9,1 -13,4 -4,3 -7,7 -8,12 -3,8 -4,16 -4,26l0 67 -22 0z"/>
  <path id="9" class="fil1" d="M1591 3215c-8,7 -16,12 -23,15 -8,3 -16,4 -25,4 -14,0 -25,-3 -32,-10 -8,-7 -12,-16 -12,-27 0,-6 1,-12 4,-17 3,-5 7,-10 12,-13 4,-3 10,-5 16,-7 4,-1 10,-2 19,-3 18,-2 31,-5 39,-8 0,-3 1,-5 1,-6 0,-8 -3,-15 -7,-18 -5,-5 -14,-8 -25,-8 -10,0 -18,2 -23,6 -5,3 -8,10 -11,19l-21 -3c2,-9 5,-17 9,-22 5,-6 11,-10 20,-13 8,-4 18,-5 29,-5 12,0 21,1 28,4 6,2 12,6 15,10 3,4 5,9 7,15 0,3 1,10 1,20l0 29c0,20 0,33 1,39 1,5 3,10 6,15l-23 0c-3,-4 -4,-10 -5,-16zm-1 -49c-8,4 -20,6 -36,9 -10,1 -16,2 -20,4 -3,2 -6,4 -8,7 -2,3 -3,7 -3,11 0,5 2,10 6,14 5,4 11,6 20,6 8,0 16,-2 22,-6 7,-3 12,-8 15,-15 2,-5 3,-12 3,-22l1 -8z"/>
  <path id="10" class="fil1" d="M1646 3231l0 -129 19 0 0 18c4,-6 10,-11 17,-15 6,-4 14,-6 23,-6 9,0 17,2 23,6 6,4 11,9 13,17 10,-16 24,-23 40,-23 13,0 23,3 30,11 7,7 11,18 11,32l0 89 -22 0 0 -81c0,-9 -1,-15 -3,-19 -1,-4 -4,-7 -7,-10 -4,-2 -9,-3 -14,-3 -9,0 -16,3 -22,9 -6,6 -9,16 -9,29l0 75 -22 0 0 -84c0,-10 -2,-17 -6,-22 -3,-5 -9,-7 -17,-7 -7,0 -12,2 -18,5 -5,3 -9,8 -11,14 -2,6 -3,15 -3,27l0 67 -22 0z"/>
  <path id="11" class="fil1" d="M1942 3189l23 3c-3,14 -10,24 -20,31 -9,8 -22,11 -37,11 -19,0 -34,-6 -45,-17 -11,-12 -16,-28 -16,-49 0,-22 5,-39 16,-51 12,-12 26,-18 44,-18 17,0 31,6 42,18 11,11 17,28 17,49 0,2 0,4 0,6l-97 0c1,14 5,25 12,33 7,7 16,11 27,11 8,0 15,-2 21,-6 5,-4 10,-11 13,-21zm-72 -35l73 0c-1,-11 -4,-19 -9,-24 -7,-9 -16,-13 -27,-13 -10,0 -18,3 -25,10 -7,7 -11,16 -12,27z"/>
  <rect class="fil0 str0" x="2607" y="1130" width="2193" height="1542"/>
  <path class="fil1" d="M2786 262l2 13c-4,1 -8,2 -11,2 -5,0 -9,-1 -12,-3 -3,-2 -5,-4 -6,-7 -2,-2 -2,-8 -2,-17l0 -50 -11 0 0 -11 11 0 0 -21 15 -9 0 30 14 0 0 11 -14 0 0 51c0,4 0,7 0,8 1,1 2,2 3,3 1,1 3,1 5,1 1,0 4,0 6,-1z"/>
  <path id="1" class="fil1" d="M2813 434l16 2c-3,8 -7,15 -14,20 -6,5 -14,8 -24,8 -13,0 -23,-4 -30,-12 -8,-8 -11,-19 -11,-33 0,-14 3,-26 11,-34 7,-8 17,-12 29,-12 11,0 21,4 28,12 7,8 11,19 11,33 0,1 0,2 0,4l-64 0c0,10 3,17 8,22 4,5 10,8 18,8 5,0 10,-2 13,-5 4,-3 7,-7 9,-13zm-48 -24l49 0c-1,-7 -3,-13 -6,-16 -5,-6 -11,-9 -18,-9 -7,0 -12,3 -17,7 -5,5 -7,11 -8,18z"/>
  <path id="2" class="fil1" d="M2749 622l14 -2c1,5 3,10 7,13 4,3 9,5 15,5 7,0 12,-2 15,-4 4,-3 5,-6 5,-10 0,-3 -1,-6 -4,-8 -2,-1 -7,-3 -15,-5 -11,-3 -18,-5 -22,-7 -4,-2 -8,-5 -10,-8 -2,-4 -3,-7 -3,-12 0,-3 1,-7 3,-10 1,-4 4,-6 7,-8 2,-2 5,-4 9,-5 4,-1 8,-1 13,-1 7,0 13,0 18,2 5,2 9,5 11,8 2,4 4,8 5,14l-14 2c-1,-5 -3,-8 -6,-11 -3,-2 -7,-3 -13,-3 -7,0 -12,1 -14,3 -3,2 -5,5 -5,8 0,2 1,3 2,5 1,1 3,3 6,4 1,0 5,1 13,3 10,3 17,5 21,7 4,2 8,5 10,8 2,3 3,7 3,12 0,5 -1,10 -4,14 -3,4 -7,8 -12,10 -6,3 -12,4 -18,4 -12,0 -20,-3 -26,-7 -6,-5 -10,-12 -11,-21z"/>
  <path id="3" class="fil1" d="M2786 821l2 13c-4,1 -8,1 -11,1 -5,0 -9,-1 -12,-2 -3,-2 -5,-4 -6,-7 -2,-3 -2,-8 -2,-17l0 -50 -11 0 0 -11 11 0 0 -22 15 -9 0 31 14 0 0 11 -14 0 0 51c0,4 0,6 0,8 1,1 2,2 3,2 1,1 3,2 5,2 1,0 4,-1 6,-1z"/>
  <rect class="fil0 str1" x="2696" y="122" width="183" height="750"/>
  <path class="fil1" d="M2977 3231l0 -129 20 0 0 18c9,-14 23,-21 41,-21 8,0 15,1 22,4 6,3 11,7 14,11 4,5 6,10 7,16 1,4 1,12 1,22l0 79 -22 0 0 -78c0,-9 0,-16 -2,-20 -2,-5 -5,-8 -9,-11 -5,-3 -10,-4 -16,-4 -9,0 -17,3 -24,9 -7,6 -10,17 -10,34l0 70 -22 0z"/>
  <path id="1" class="fil1" d="M3205 3189l22 3c-3,14 -10,24 -19,31 -10,8 -22,11 -37,11 -19,0 -34,-6 -45,-17 -12,-12 -17,-28 -17,-49 0,-22 5,-39 17,-51 11,-12 25,-18 43,-18 18,0 32,6 43,18 11,11 16,28 16,49 0,2 0,4 0,6l-97 0c1,14 5,25 12,33 8,7 17,11 28,11 8,0 14,-2 20,-6 6,-4 10,-11 14,-21zm-72 -35l72 0c-1,-11 -4,-19 -8,-24 -7,-9 -16,-13 -28,-13 -10,0 -18,3 -25,10 -7,7 -11,16 -11,27z"/>
  <path id="2" class="fil1" d="M3240 3231l48 -67 -44 -62 27 0 20 30c4,6 7,11 9,14 4,-5 7,-10 10,-14l22 -30 27 0 -45 62 47 67 -26 0 -27 -40 -6 -9 -35 49 -27 0z"/>
  <path id="3" class="fil1" d="M3428 3212l3 19c-6,2 -12,2 -17,2 -8,0 -14,-1 -18,-4 -5,-2 -8,-5 -9,-10 -2,-4 -3,-12 -3,-26l0 -74 -16 0 0 -17 16 0 0 -32 22 -14 0 46 22 0 0 17 -22 0 0 76c0,6 0,10 1,12 1,2 2,3 4,4 2,1 4,2 7,2 3,0 6,-1 10,-1z"/>
  <path id="4" class="fil1" d="M3524 3231l0 -112 -19 0 0 -17 19 0 0 -14c0,-9 1,-15 3,-19 2,-6 5,-11 11,-14 5,-4 13,-6 22,-6 6,0 13,1 21,3l-4 19c-4,-1 -9,-1 -13,-1 -6,0 -11,1 -14,4 -3,3 -4,8 -4,16l0 12 25 0 0 17 -25 0 0 112 -22 0z"/>
  <path id="5" class="fil1" d="M3588 3231l0 -129 20 0 0 20c5,-10 10,-16 14,-19 4,-3 9,-4 14,-4 8,0 15,2 23,7l-8 20c-5,-3 -11,-4 -16,-4 -5,0 -9,1 -13,4 -4,3 -6,7 -8,12 -2,8 -4,16 -4,26l0 67 -22 0z"/>
  <path id="6" class="fil1" d="M3757 3215c-9,7 -16,12 -24,15 -8,3 -16,4 -24,4 -15,0 -26,-3 -33,-10 -8,-7 -12,-16 -12,-27 0,-6 2,-12 5,-17 3,-5 6,-10 11,-13 5,-3 10,-5 16,-7 4,-1 11,-2 19,-3 18,-2 31,-5 40,-8 0,-3 0,-5 0,-6 0,-8 -2,-15 -6,-18 -6,-5 -14,-8 -26,-8 -10,0 -18,2 -22,6 -5,3 -9,10 -11,19l-22 -3c2,-9 5,-17 10,-22 4,-6 11,-10 19,-13 9,-4 19,-5 30,-5 11,0 20,1 27,4 7,2 12,6 15,10 3,4 6,9 7,15 1,3 1,10 1,20l0 29c0,20 1,33 1,39 1,5 3,10 6,15l-23 0c-2,-4 -4,-10 -4,-16zm-2 -49c-8,4 -20,6 -36,9 -9,1 -16,2 -19,4 -4,2 -7,4 -9,7 -2,3 -3,7 -3,11 0,5 2,10 6,14 5,4 11,6 20,6 8,0 16,-2 23,-6 6,-3 11,-8 14,-15 3,-5 4,-12 4,-22l0 -8z"/>
  <path id="7" class="fil1" d="M3811 3231l0 -129 20 0 0 18c4,-6 9,-11 16,-15 7,-4 14,-6 23,-6 9,0 17,2 23,6 7,4 11,9 13,17 11,-16 24,-23 41,-23 13,0 22,3 29,11 7,7 11,18 11,32l0 89 -22 0 0 -81c0,-9 -1,-15 -2,-19 -2,-4 -4,-7 -8,-10 -4,-2 -8,-3 -13,-3 -9,0 -17,3 -23,9 -6,6 -9,16 -9,29l0 75 -22 0 0 -84c0,-10 -2,-17 -6,-22 -3,-5 -9,-7 -17,-7 -6,0 -12,2 -17,5 -5,3 -9,8 -12,14 -2,6 -3,15 -3,27l0 67 -22 0z"/>
  <path id="8" class="fil1" d="M4108 3189l22 3c-3,14 -10,24 -19,31 -10,8 -22,11 -38,11 -18,0 -33,-6 -45,-17 -11,-12 -16,-28 -16,-49 0,-22 5,-39 17,-51 11,-12 25,-18 43,-18 18,0 32,6 43,18 11,11 16,28 16,49 0,2 0,4 0,6l-97 0c1,14 5,25 12,33 8,7 17,11 27,11 9,0 15,-2 21,-6 6,-4 10,-11 14,-21zm-72 -35l72 0c-1,-11 -4,-19 -8,-24 -7,-9 -16,-13 -28,-13 -10,0 -18,3 -25,10 -7,7 -11,16 -11,27z"/>
  <path class="fil1" d="M3650 1236l2 13c-4,1 -8,2 -11,2 -5,0 -9,-1 -12,-3 -3,-2 -5,-4 -6,-7 -2,-2 -2,-8 -2,-17l0 -50 -11 0 0 -11 11 0 0 -21 15 -9 0 30 14 0 0 11 -14 0 0 51c0,4 0,7 0,8 1,1 2,2 3,3 1,1 3,1 5,1 1,0 4,0 6,-1z"/>
  <path id="1" class="fil1" d="M3677 1408l16 2c-3,8 -7,15 -14,20 -6,5 -14,7 -24,7 -13,0 -23,-3 -30,-11 -8,-8 -11,-19 -11,-33 0,-14 3,-26 11,-34 7,-8 17,-12 29,-12 11,0 21,4 28,12 7,8 11,19 11,33 0,1 0,2 0,4l-64 0c0,10 3,17 8,22 4,5 10,7 18,7 5,0 10,-1 13,-4 4,-3 7,-7 9,-13zm-48 -24l49 0c-1,-7 -3,-13 -6,-16 -5,-6 -11,-9 -18,-9 -7,0 -12,3 -17,7 -5,5 -7,11 -8,18z"/>
  <path id="2" class="fil1" d="M3613 1596l14 -2c1,5 3,10 7,13 4,3 9,5 15,5 7,0 12,-2 15,-4 4,-3 5,-6 5,-10 0,-3 -1,-6 -4,-8 -2,-1 -7,-3 -15,-5 -11,-3 -18,-5 -22,-7 -4,-2 -8,-5 -10,-8 -2,-4 -3,-7 -3,-12 0,-4 1,-7 3,-10 1,-4 4,-6 7,-9 2,-1 5,-3 9,-4 4,-1 8,-2 13,-2 7,0 13,1 18,3 5,2 9,5 11,8 2,4 4,8 5,14l-14 2c-1,-5 -3,-8 -6,-11 -3,-2 -7,-4 -13,-4 -7,0 -12,2 -15,4 -2,2 -4,5 -4,8 0,2 1,3 2,5 1,1 3,3 6,4 1,0 5,1 12,3 11,3 18,5 22,7 4,2 7,5 10,8 2,3 3,7 3,12 0,5 -1,10 -4,14 -3,4 -7,8 -12,10 -6,2 -12,4 -19,4 -11,0 -19,-3 -25,-7 -6,-5 -10,-12 -11,-21z"/>
  <path id="3" class="fil1" d="M3650 1795l2 13c-4,1 -8,1 -11,1 -5,0 -9,-1 -12,-2 -3,-2 -5,-4 -6,-7 -2,-3 -2,-9 -2,-17l0 -50 -11 0 0 -11 11 0 0 -22 15 -9 0 31 14 0 0 11 -14 0 0 51c0,4 0,6 0,8 1,1 2,2 3,2 1,1 3,2 5,2 1,0 4,-1 6,-1z"/>
  <path class="fil1" d="M3259 1620l2 13c-5,0 -8,1 -12,1 -5,0 -9,-1 -12,-3 -3,-1 -5,-3 -6,-6 -1,-3 -2,-9 -2,-18l0 -49 -11 0 0 -12 11 0 0 -21 15 -9 0 30 15 0 0 12 -15 0 0 50c0,4 0,7 1,8 0,2 1,2 2,3 1,1 3,1 5,1 2,0 4,0 7,0z"/>
  <path id="1" class="fil1" d="M3286 1791l15 2c-3,9 -7,16 -13,20 -7,5 -15,8 -25,8 -13,0 -23,-4 -30,-12 -7,-8 -11,-19 -11,-33 0,-14 4,-25 11,-33 8,-8 17,-12 29,-12 12,0 21,4 28,11 8,8 11,19 11,34 0,0 0,2 0,3l-64 0c0,10 3,17 8,22 5,5 11,8 18,8 5,0 10,-2 14,-4 3,-3 6,-8 9,-14zm-48 -24l48 0c-1,-7 -3,-12 -6,-16 -4,-6 -10,-8 -18,-8 -7,0 -12,2 -17,6 -4,5 -7,11 -7,18z"/>
  <path id="2" class="fil1" d="M3221 1979l14 -2c1,6 3,10 7,13 4,3 9,5 16,5 7,0 12,-1 15,-4 3,-3 5,-6 5,-10 0,-3 -2,-6 -5,-8 -2,-1 -7,-3 -15,-5 -10,-2 -18,-5 -22,-7 -4,-2 -7,-4 -9,-8 -3,-3 -4,-7 -4,-11 0,-4 1,-8 3,-11 2,-3 4,-6 7,-8 2,-2 6,-3 9,-4 4,-2 9,-2 13,-2 7,0 13,1 18,3 5,2 9,4 11,8 3,3 4,8 5,13l-14 2c-1,-4 -3,-8 -6,-10 -3,-3 -7,-4 -13,-4 -7,0 -11,1 -14,3 -3,2 -4,5 -4,8 0,2 0,4 1,5 1,2 3,3 6,4 1,1 6,2 13,4 10,2 17,5 21,7 5,1 8,4 10,7 3,4 4,8 4,13 0,5 -2,9 -5,13 -2,5 -7,8 -12,10 -5,3 -11,4 -18,4 -11,0 -20,-2 -26,-7 -6,-5 -10,-12 -11,-21z"/>
  <path id="3" class="fil1" d="M3259 2178l2 13c-5,1 -8,2 -12,2 -5,0 -9,-1 -12,-3 -3,-2 -5,-4 -6,-7 -1,-2 -2,-8 -2,-17l0 -50 -11 0 0 -11 11 0 0 -22 15 -8 0 30 15 0 0 11 -15 0 0 51c0,4 0,7 1,8 0,1 1,2 2,3 1,0 3,1 5,1 2,0 4,0 7,-1z"/>
  <path class="fil1" d="M4450 1941l2 13c-4,1 -8,1 -11,1 -5,0 -9,-1 -12,-2 -3,-2 -5,-4 -6,-7 -2,-3 -2,-9 -2,-17l0 -50 -11 0 0 -12 11 0 0 -21 15 -9 0 30 14 0 0 12 -14 0 0 50c0,5 0,7 0,9 1,1 2,2 3,2 1,1 3,1 5,1 1,0 4,0 6,0z"/>
  <path id="1" class="fil1" d="M4477 2112l16 2c-3,9 -7,16 -14,21 -6,5 -14,7 -24,7 -13,0 -23,-4 -30,-12 -8,-7 -11,-18 -11,-32 0,-15 3,-26 11,-34 7,-8 17,-12 29,-12 11,0 21,4 28,12 7,7 11,18 11,33 0,1 0,2 0,4l-64 0c0,9 3,16 8,21 4,5 10,8 18,8 5,0 10,-1 13,-4 4,-3 7,-8 9,-14zm-48 -23l49 0c-1,-8 -3,-13 -6,-17 -5,-5 -11,-8 -18,-8 -7,0 -12,2 -17,7 -5,4 -7,10 -8,18z"/>
  <path id="2" class="fil1" d="M4413 2300l14 -2c1,6 3,10 7,14 4,3 9,4 15,4 7,0 12,-1 15,-4 4,-3 5,-6 5,-10 0,-3 -1,-6 -4,-7 -2,-2 -7,-3 -15,-5 -11,-3 -18,-5 -22,-7 -4,-2 -8,-5 -10,-9 -2,-3 -3,-7 -3,-11 0,-4 1,-8 3,-11 1,-3 4,-6 7,-8 2,-2 5,-3 9,-4 4,-1 8,-2 13,-2 7,0 13,1 18,3 5,2 9,5 11,8 2,3 4,8 5,13l-14 2c-1,-4 -3,-8 -6,-10 -3,-3 -7,-4 -13,-4 -7,0 -12,1 -15,3 -2,3 -4,5 -4,8 0,2 1,4 2,5 1,2 3,3 6,4 1,1 5,2 12,4 11,3 18,5 22,7 4,1 7,4 10,7 2,4 3,8 3,13 0,5 -1,9 -4,14 -3,4 -7,7 -12,10 -6,2 -12,3 -19,3 -11,0 -19,-2 -25,-7 -6,-4 -10,-11 -11,-21z"/>
  <path id="3" class="fil1" d="M4450 2499l2 13c-4,1 -8,2 -11,2 -5,0 -9,-1 -12,-3 -3,-2 -5,-4 -6,-6 -2,-3 -2,-9 -2,-18l0 -50 -11 0 0 -11 11 0 0 -21 15 -9 0 30 14 0 0 11 -14 0 0 51c0,4 0,7 0,8 1,1 2,2 3,3 1,1 3,1 5,1 1,0 4,0 6,-1z"/>
  <path class="fil1" d="M4137 836l2 13c-4,1 -8,2 -11,2 -6,0 -10,-1 -13,-3 -3,-2 -5,-4 -6,-7 -1,-2 -2,-8 -2,-17l0 -50 -10 0 0 -11 10 0 0 -21 15 -9 0 30 15 0 0 11 -15 0 0 51c0,4 0,7 1,8 0,1 1,2 2,3 2,1 3,1 5,1 2,0 4,0 7,-1z"/>
  <path id="1" class="fil1" d="M4164 1008l15 2c-2,8 -7,15 -13,20 -7,5 -15,7 -25,7 -12,0 -22,-3 -30,-11 -7,-8 -11,-19 -11,-33 0,-14 4,-26 11,-34 8,-8 17,-12 29,-12 12,0 21,4 29,12 7,8 11,19 11,33 0,1 0,2 0,4l-65 0c1,10 3,17 8,22 5,5 11,7 18,7 6,0 10,-1 14,-4 4,-3 7,-7 9,-13zm-48 -24l48 0c-1,-7 -2,-13 -5,-16 -5,-6 -11,-9 -19,-9 -6,0 -12,3 -16,7 -5,5 -8,11 -8,18z"/>
  <path id="2" class="fil1" d="M4099 1196l15 -2c0,5 3,10 6,13 4,3 9,5 16,5 7,0 12,-2 15,-4 3,-3 5,-6 5,-10 0,-3 -2,-6 -4,-8 -2,-1 -7,-3 -15,-5 -11,-3 -19,-5 -23,-7 -4,-2 -7,-5 -9,-8 -2,-4 -3,-7 -3,-12 0,-4 1,-7 2,-10 2,-4 4,-6 7,-9 3,-1 6,-3 10,-4 4,-1 8,-2 12,-2 7,0 13,1 18,3 5,2 9,5 12,8 2,4 4,8 5,14l-15 2c0,-5 -2,-8 -5,-11 -3,-2 -8,-4 -14,-4 -6,0 -11,2 -14,4 -3,2 -4,5 -4,8 0,2 0,3 2,5 1,1 3,3 5,4 2,0 6,1 13,3 10,3 18,5 22,7 4,2 7,5 9,8 3,3 4,7 4,12 0,5 -1,10 -4,14 -3,4 -7,8 -13,10 -5,2 -11,4 -18,4 -11,0 -20,-3 -26,-7 -5,-5 -9,-12 -11,-21z"/>
  <path id="3" class="fil1" d="M4137 1395l2 13c-4,1 -8,1 -11,1 -6,0 -10,-1 -13,-2 -3,-2 -5,-4 -6,-7 -1,-3 -2,-9 -2,-17l0 -50 -10 0 0 -11 10 0 0 -22 15 -9 0 31 15 0 0 11 -15 0 0 51c0,4 0,6 1,8 0,1 1,2 2,2 2,1 3,2 5,2 2,0 4,-1 7,-1z"/>
  <path class="fil1" d="M3759 2279l2 13c-5,1 -8,1 -12,1 -5,0 -9,-1 -12,-2 -3,-2 -5,-4 -6,-7 -1,-3 -2,-8 -2,-17l0 -50 -11 0 0 -11 11 0 0 -22 15 -9 0 31 15 0 0 11 -15 0 0 51c0,4 0,7 1,8 0,1 1,2 2,3 1,0 3,1 5,1 2,0 4,-1 7,-1z"/>
  <path id="1" class="fil1" d="M3786 2450l15 2c-3,9 -7,16 -13,21 -7,5 -15,7 -25,7 -13,0 -23,-4 -30,-11 -7,-8 -11,-19 -11,-33 0,-15 4,-26 11,-34 8,-8 17,-12 29,-12 12,0 21,4 28,12 8,8 11,19 11,33 0,1 0,2 0,4l-64 0c0,9 3,17 8,22 5,5 11,7 18,7 5,0 10,-1 14,-4 3,-3 6,-7 9,-14zm-48 -23l48 0c-1,-7 -3,-13 -6,-17 -4,-5 -10,-8 -18,-8 -7,0 -12,2 -17,7 -4,4 -7,10 -7,18z"/>
  <path id="2" class="fil1" d="M3721 2639l14 -3c1,6 3,11 7,14 4,3 9,4 16,4 7,0 12,-1 15,-4 3,-2 5,-6 5,-9 0,-4 -2,-6 -5,-8 -2,-1 -7,-3 -15,-5 -10,-3 -18,-5 -22,-7 -4,-2 -7,-5 -9,-8 -3,-4 -4,-8 -4,-12 0,-4 1,-7 3,-11 2,-3 4,-6 7,-8 2,-1 6,-3 9,-4 4,-1 9,-2 13,-2 7,0 13,1 18,3 5,2 9,5 11,8 3,3 4,8 5,14l-14 2c-1,-5 -3,-8 -6,-11 -3,-3 -7,-4 -13,-4 -7,0 -11,1 -14,4 -3,2 -4,4 -4,7 0,2 0,4 1,5 1,2 3,3 6,4 1,1 6,2 13,4 10,3 17,5 21,7 5,2 8,4 10,8 3,3 4,7 4,12 0,5 -2,10 -5,14 -2,4 -7,7 -12,10 -5,2 -11,3 -18,3 -11,0 -20,-2 -26,-7 -6,-4 -10,-11 -11,-20z"/>
  <path id="3" class="fil1" d="M3759 2838l2 13c-5,0 -8,1 -12,1 -5,0 -9,-1 -12,-3 -3,-1 -5,-4 -6,-6 -1,-3 -2,-9 -2,-18l0 -49 -11 0 0 -12 11 0 0 -21 15 -9 0 30 15 0 0 12 -15 0 0 50c0,4 0,7 1,8 0,2 1,2 2,3 1,1 3,1 5,1 2,0 4,0 7,0z"/>
  <path class="fil1" d="M1169 1136l2 13c-4,1 -7,2 -11,2 -5,0 -9,-1 -12,-3 -3,-2 -5,-4 -6,-7 -1,-2 -2,-8 -2,-17l0 -50 -11 0 0 -11 11 0 0 -21 15 -9 0 30 14 0 0 11 -14 0 0 51c0,4 0,7 1,8 0,1 1,2 2,3 1,1 3,1 5,1 2,0 4,0 6,-1z"/>
  <path id="1" class="fil1" d="M1197 1308l15 2c-3,8 -7,15 -13,20 -7,5 -15,7 -25,7 -13,0 -23,-3 -30,-11 -7,-8 -11,-19 -11,-33 0,-14 4,-26 11,-34 7,-8 17,-12 29,-12 12,0 21,4 28,12 8,8 11,19 11,33 0,1 0,2 0,4l-64 0c0,10 3,17 8,22 5,5 11,7 18,7 5,0 10,-1 14,-4 3,-3 6,-7 9,-13zm-48 -24l48 0c-1,-7 -3,-13 -6,-16 -4,-6 -10,-9 -18,-9 -7,0 -12,3 -17,7 -4,5 -7,11 -7,18z"/>
  <path id="2" class="fil1" d="M1132 1496l14 -2c1,5 3,10 7,13 4,3 9,5 16,5 6,0 11,-2 15,-4 3,-3 5,-6 5,-10 0,-3 -2,-6 -5,-8 -2,-1 -7,-3 -15,-5 -10,-3 -18,-5 -22,-7 -4,-2 -7,-5 -9,-8 -3,-4 -4,-7 -4,-12 0,-4 1,-7 3,-10 2,-4 4,-6 7,-9 2,-1 6,-3 9,-4 4,-1 9,-2 13,-2 7,0 13,1 18,3 5,2 9,5 11,8 3,4 4,8 5,14l-14 2c-1,-5 -3,-8 -6,-11 -3,-2 -7,-4 -13,-4 -7,0 -11,2 -14,4 -3,2 -5,5 -5,8 0,2 1,3 2,5 1,1 3,3 6,4 1,0 6,1 13,3 10,3 17,5 21,7 5,2 8,5 10,8 2,3 4,7 4,12 0,5 -2,10 -5,14 -2,4 -7,8 -12,10 -5,2 -11,4 -18,4 -11,0 -20,-3 -26,-7 -6,-5 -10,-12 -11,-21z"/>
  <path id="3" class="fil1" d="M1169 1695l2 13c-4,1 -7,1 -11,1 -5,0 -9,-1 -12,-2 -3,-2 -5,-4 -6,-7 -1,-3 -2,-9 -2,-17l0 -50 -11 0 0 -11 11 0 0 -22 15 -9 0 31 14 0 0 11 -14 0 0 51c0,4 0,6 1,8 0,1 1,2 2,2 1,1 3,2 5,2 2,0 4,-1 6,-1z"/>
  <path class="fil1" d="M778 1520l2 13c-4,0 -8,1 -11,1 -6,0 -10,-1 -13,-3 -2,-1 -5,-3 -6,-6 -1,-3 -2,-9 -2,-18l0 -49 -10 0 0 -12 10 0 0 -21 15 -9 0 30 15 0 0 12 -15 0 0 50c0,4 0,7 1,8 0,2 1,2 2,3 2,1 3,1 5,1 2,0 4,0 7,0z"/>
  <path id="1" class="fil1" d="M805 1691l15 2c-2,9 -7,16 -13,20 -7,5 -15,8 -25,8 -12,0 -22,-4 -30,-12 -7,-8 -11,-19 -11,-33 0,-14 4,-25 11,-33 8,-8 18,-12 29,-12 12,0 21,4 29,11 7,8 11,19 11,34 0,0 0,2 0,3l-65 0c1,10 3,17 8,22 5,5 11,8 18,8 6,0 10,-2 14,-4 4,-3 7,-8 9,-14zm-48 -24l48 0c0,-7 -2,-12 -5,-16 -5,-6 -11,-8 -18,-8 -7,0 -13,2 -17,6 -5,5 -8,11 -8,18z"/>
  <path id="2" class="fil1" d="M740 1879l15 -2c0,6 3,10 6,13 4,3 9,5 16,5 7,0 12,-1 15,-4 3,-3 5,-6 5,-10 0,-3 -1,-6 -4,-8 -2,-1 -7,-3 -15,-5 -11,-2 -19,-5 -23,-7 -4,-2 -7,-4 -9,-8 -2,-3 -3,-7 -3,-11 0,-4 1,-8 2,-11 2,-3 4,-6 7,-8 3,-2 6,-3 10,-4 4,-2 8,-2 12,-2 7,0 13,1 18,3 5,2 9,4 12,8 2,3 4,8 5,13l-15 2c0,-4 -2,-8 -5,-10 -3,-3 -8,-4 -14,-4 -6,0 -11,1 -14,3 -3,2 -4,5 -4,8 0,2 0,4 2,5 1,2 3,3 5,4 2,1 6,2 13,4 10,2 18,5 22,7 4,1 7,4 9,7 3,4 4,8 4,13 0,5 -1,9 -4,13 -3,5 -7,8 -13,10 -5,3 -11,4 -18,4 -11,0 -20,-2 -26,-7 -5,-5 -9,-12 -11,-21z"/>
  <path id="3" class="fil1" d="M778 2078l2 13c-4,1 -8,2 -11,2 -6,0 -10,-1 -13,-3 -2,-2 -5,-4 -6,-7 -1,-2 -2,-8 -2,-17l0 -50 -10 0 0 -11 10 0 0 -22 15 -8 0 30 15 0 0 11 -15 0 0 51c0,4 0,7 1,8 0,1 1,2 2,3 2,0 3,1 5,1 2,0 4,0 7,-1z"/>
  <path class="fil1" d="M1969 1841l2 13c-4,1 -7,1 -11,1 -5,0 -9,-1 -12,-2 -3,-2 -5,-4 -6,-7 -1,-3 -2,-9 -2,-17l0 -50 -11 0 0 -12 11 0 0 -21 15 -9 0 30 14 0 0 12 -14 0 0 50c0,5 0,7 1,9 0,1 1,2 2,2 1,1 3,1 5,1 2,0 4,0 6,0z"/>
  <path id="1" class="fil1" d="M1997 2012l15 2c-3,9 -7,16 -13,21 -7,5 -15,7 -25,7 -13,0 -23,-4 -30,-12 -7,-7 -11,-18 -11,-32 0,-15 4,-26 11,-34 7,-8 17,-12 29,-12 12,0 21,4 28,12 8,7 11,18 11,33 0,1 0,2 0,4l-64 0c0,9 3,16 8,21 5,5 11,8 18,8 5,0 10,-1 14,-4 3,-3 6,-8 9,-14zm-48 -23l48 0c-1,-8 -3,-13 -6,-17 -4,-5 -10,-8 -18,-8 -7,0 -12,2 -17,7 -4,4 -7,10 -7,18z"/>
  <path id="2" class="fil1" d="M1932 2200l14 -2c1,6 3,10 7,14 4,3 9,4 16,4 6,0 11,-1 15,-4 3,-3 5,-6 5,-10 0,-3 -2,-6 -5,-7 -2,-2 -7,-3 -15,-5 -10,-3 -18,-5 -22,-7 -4,-2 -7,-5 -9,-9 -3,-3 -4,-7 -4,-11 0,-4 1,-8 3,-11 2,-3 4,-6 7,-8 2,-2 6,-3 9,-4 4,-1 9,-2 13,-2 7,0 13,1 18,3 5,2 9,5 11,8 3,3 4,8 5,13l-14 2c-1,-4 -3,-8 -6,-10 -3,-3 -7,-4 -13,-4 -7,0 -11,1 -14,3 -3,3 -5,5 -5,8 0,2 1,4 2,5 1,2 3,3 6,4 1,1 6,2 13,4 10,3 17,5 21,7 5,1 8,4 10,7 2,4 4,8 4,13 0,5 -2,9 -5,14 -2,4 -7,7 -12,10 -5,2 -11,3 -18,3 -11,0 -20,-2 -26,-7 -6,-4 -10,-11 -11,-21z"/>
  <path id="3" class="fil1" d="M1969 2399l2 13c-4,1 -7,2 -11,2 -5,0 -9,-1 -12,-3 -3,-2 -5,-4 -6,-6 -1,-3 -2,-9 -2,-18l0 -50 -11 0 0 -11 11 0 0 -21 15 -9 0 30 14 0 0 11 -14 0 0 51c0,4 0,7 1,8 0,1 1,2 2,3 1,1 3,1 5,1 2,0 4,0 6,-1z"/>
  <path class="fil1" d="M1656 736l2 13c-4,1 -8,2 -11,2 -5,0 -9,-1 -12,-3 -3,-2 -5,-4 -6,-7 -2,-2 -2,-8 -2,-17l0 -50 -11 0 0 -11 11 0 0 -21 14 -9 0 30 15 0 0 11 -15 0 0 51c0,4 1,7 1,8 1,1 2,2 3,3 1,1 3,1 5,1 1,0 3,0 6,-1z"/>
  <path id="1" class="fil1" d="M1683 908l15 2c-2,8 -6,15 -13,20 -6,5 -14,7 -24,7 -13,0 -23,-3 -30,-11 -8,-8 -12,-19 -12,-33 0,-14 4,-26 12,-34 7,-8 17,-12 29,-12 11,0 21,4 28,12 7,8 11,19 11,33 0,1 0,2 0,4l-65 0c1,10 4,17 9,22 4,5 10,7 18,7 5,0 9,-1 13,-4 4,-3 7,-7 9,-13zm-48 -24l48 0c0,-7 -2,-13 -5,-16 -5,-6 -11,-9 -18,-9 -7,0 -13,3 -17,7 -5,5 -7,11 -8,18z"/>
  <path id="2" class="fil1" d="M1618 1096l15 -2c1,5 3,10 7,13 3,3 9,5 15,5 7,0 12,-2 15,-4 4,-3 5,-6 5,-10 0,-3 -1,-6 -4,-8 -2,-1 -7,-3 -15,-5 -11,-3 -18,-5 -22,-7 -5,-2 -8,-5 -10,-8 -2,-4 -3,-7 -3,-12 0,-4 1,-7 3,-10 1,-4 4,-6 7,-9 2,-1 5,-3 9,-4 4,-1 8,-2 13,-2 7,0 12,1 18,3 5,2 8,5 11,8 2,4 4,8 5,14l-14 2c-1,-5 -3,-8 -6,-11 -3,-2 -8,-4 -13,-4 -7,0 -12,2 -15,4 -2,2 -4,5 -4,8 0,2 1,3 2,5 1,1 3,3 6,4 1,0 5,1 12,3 11,3 18,5 22,7 4,2 7,5 10,8 2,3 3,7 3,12 0,5 -1,10 -4,14 -3,4 -7,8 -12,10 -6,2 -12,4 -19,4 -11,0 -19,-3 -25,-7 -6,-5 -10,-12 -12,-21z"/>
  <path id="3" class="fil1" d="M1656 1295l2 13c-4,1 -8,1 -11,1 -5,0 -9,-1 -12,-2 -3,-2 -5,-4 -6,-7 -2,-3 -2,-9 -2,-17l0 -50 -11 0 0 -11 11 0 0 -22 14 -9 0 31 15 0 0 11 -15 0 0 51c0,4 1,6 1,8 1,1 2,2 3,2 1,1 3,2 5,2 1,0 3,-1 6,-1z"/>
  <path class="fil1" d="M1278 2179l2 13c-4,1 -8,1 -11,1 -6,0 -10,-1 -13,-2 -2,-2 -5,-4 -6,-7 -1,-3 -2,-8 -2,-17l0 -50 -10 0 0 -11 10 0 0 -22 15 -9 0 31 15 0 0 11 -15 0 0 51c0,4 0,7 1,8 0,1 1,2 2,3 2,0 3,1 5,1 2,0 4,-1 7,-1z"/>
  <path id="1" class="fil1" d="M1305 2350l15 2c-2,9 -7,16 -13,21 -7,5 -15,7 -25,7 -12,0 -22,-4 -30,-11 -7,-8 -11,-19 -11,-33 0,-15 4,-26 11,-34 8,-8 18,-12 29,-12 12,0 21,4 29,12 7,8 11,19 11,33 0,1 0,2 0,4l-65 0c1,9 3,17 8,22 5,5 11,7 18,7 6,0 10,-1 14,-4 4,-3 7,-7 9,-14zm-48 -23l48 0c0,-7 -2,-13 -5,-17 -5,-5 -11,-8 -18,-8 -7,0 -13,2 -17,7 -5,4 -8,10 -8,18z"/>
  <path id="2" class="fil1" d="M1240 2539l15 -3c0,6 3,11 6,14 4,3 9,4 16,4 7,0 12,-1 15,-4 3,-2 5,-6 5,-9 0,-4 -1,-6 -4,-8 -2,-1 -7,-3 -15,-5 -11,-3 -19,-5 -23,-7 -4,-2 -7,-5 -9,-8 -2,-4 -3,-8 -3,-12 0,-4 1,-7 2,-11 2,-3 4,-6 7,-8 3,-1 6,-3 10,-4 4,-1 8,-2 12,-2 7,0 13,1 18,3 5,2 9,5 12,8 2,3 4,8 5,14l-15 2c0,-5 -2,-8 -5,-11 -3,-3 -8,-4 -14,-4 -6,0 -11,1 -14,4 -3,2 -4,4 -4,7 0,2 0,4 2,5 1,2 3,3 5,4 2,1 6,2 13,4 10,3 18,5 22,7 4,2 7,4 9,8 3,3 4,7 4,12 0,5 -1,10 -4,14 -3,4 -7,7 -13,10 -5,2 -11,3 -18,3 -11,0 -20,-2 -26,-7 -5,-4 -9,-11 -11,-20z"/>
  <path id="3" class="fil1" d="M1278 2738l2 13c-4,0 -8,1 -11,1 -6,0 -10,-1 -13,-3 -2,-1 -5,-4 -6,-6 -1,-3 -2,-9 -2,-18l0 -49 -10 0 0 -12 10 0 0 -21 15 -9 0 30 15 0 0 12 -15 0 0 50c0,4 0,7 1,8 0,2 1,2 2,3 2,1 3,1 5,1 2,0 4,0 7,0z"/>
 </g>
</svg>
