<?xml version="1.0" encoding="UTF-8"?>
<!DOCTYPE svg PUBLIC "-//W3C//DTD SVG 1.1//EN" "http://www.w3.org/Graphics/SVG/1.1/DTD/svg11.dtd">
<!-- Creator: CorelDRAW X7 -->
<svg xmlns="http://www.w3.org/2000/svg" xml:space="preserve" width="5in" height="3in" version="1.1" style="shape-rendering:geometricPrecision; text-rendering:geometricPrecision; image-rendering:optimizeQuality; fill-rule:evenodd; clip-rule:evenodd"
viewBox="0 0 5000 3000"
 xmlns:xlink="http://www.w3.org/1999/xlink">
 <defs>
  <style type="text/css">
   <![CDATA[
    .str0 {stroke:#373435;stroke-width:27.7795}
    .str1 {stroke:#373435;stroke-width:20.8346}
    .fil0 {fill:none}
    .fil1 {fill:#373435;fill-rule:nonzero}
   ]]>
  </style>
 </defs>
 <g id="Layer_x0020_1">
  <metadata id="CorelCorpID_0Corel-Layer"/>
  <line class="fil0 str0" x1="801" y1="807" x2="801" y2= "2745" />
  <line class="fil0 str0" x1="1768" y1="805" x2="1768" y2= "2743" />
  <line class="fil0 str0" x1="2735" y1="805" x2="2735" y2= "2743" />
  <line class="fil0 str0" x1="3701" y1="805" x2="3701" y2= "2743" />
  <line class="fil0 str0" x1="4668" y1="805" x2="4668" y2= "2743" />
  <line class="fil0 str0" x1="801" y1="807" x2="4668" y2= "805" />
  <line class="fil0 str0" x1="801" y1="2745" x2="4668" y2= "2745" />
  <line class="fil0 str0" x1="801" y1="1776" x2="4668" y2= "1776" />
  <line class="fil0 str0" x1="801" y1="807" x2="333" y2= "340" />
  <path class="fil1" d="M853 972c0,-28 3,-50 9,-68 5,-17 14,-30 25,-40 12,-9 26,-13 44,-13 12,0 24,2 33,7 10,5 18,13 24,23 6,9 11,21 15,35 3,14 5,33 5,56 0,28 -3,51 -8,68 -6,18 -15,31 -26,40 -12,10 -26,14 -43,14 -23,0 -41,-8 -55,-24 -15,-20 -23,-53 -23,-98zm30 1c0,39 4,65 14,78 9,13 20,19 34,19 13,0 24,-6 34,-19 9,-13 13,-39 13,-78 0,-40 -4,-66 -13,-79 -10,-13 -21,-19 -35,-19 -13,0 -24,6 -32,17 -10,15 -15,41 -15,81z"/>
  <path class="fil1" d="M1912 1090l-30 0 0 -187c-7,7 -16,14 -27,21 -12,6 -22,11 -31,15l0 -29c16,-7 30,-17 43,-28 12,-10 21,-21 26,-31l19 0 0 239z"/>
  <path class="fil1" d="M2790 1027l30 -4c3,17 9,29 17,36 8,7 18,11 30,11 13,0 25,-5 35,-14 9,-10 14,-22 14,-36 0,-13 -5,-24 -13,-33 -9,-9 -20,-13 -34,-13 -6,0 -12,1 -21,3l4 -26c1,0 3,1 4,1 13,0 24,-4 34,-10 10,-7 15,-17 15,-30 0,-11 -4,-20 -11,-27 -7,-7 -17,-10 -28,-10 -11,0 -21,3 -29,10 -7,8 -12,18 -14,33l-30 -5c4,-20 12,-35 25,-46 13,-11 28,-16 47,-16 13,0 25,2 36,8 11,6 20,13 25,23 6,9 9,20 9,30 0,11 -3,20 -8,29 -6,8 -14,15 -25,20 14,3 25,10 33,20 8,10 12,23 12,38 0,21 -8,39 -23,54 -15,14 -34,21 -58,21 -21,0 -38,-6 -52,-19 -14,-12 -22,-28 -24,-48z"/>
  <path class="fil1" d="M3940 1062l0 28 -158 0c0,-7 1,-14 4,-20 4,-11 10,-21 19,-32 9,-10 22,-22 39,-36 25,-21 43,-38 52,-50 9,-13 14,-25 14,-36 0,-11 -4,-21 -13,-29 -8,-8 -19,-12 -32,-12 -14,0 -26,4 -34,13 -9,8 -13,20 -13,35l-30 -3c2,-23 10,-40 23,-52 14,-12 32,-17 55,-17 22,0 41,6 54,19 13,12 20,28 20,47 0,9 -2,19 -6,28 -4,9 -10,19 -19,29 -9,10 -25,25 -46,42 -17,15 -28,25 -33,30 -5,6 -10,11 -13,16l117 0z"/>
  <path class="fil1" d="M957 2069l0 -57 -104 0 0 -27 109 -154 24 0 0 154 32 0 0 27 -32 0 0 57 -29 0zm0 -84l0 -107 -75 107 75 0z"/>
  <path class="fil1" d="M1824 2004l30 -3c3,15 8,26 16,34 8,7 18,11 30,11 15,0 27,-5 36,-16 10,-10 15,-24 15,-42 0,-17 -5,-30 -14,-40 -9,-9 -22,-14 -37,-14 -9,0 -18,2 -26,6 -7,5 -13,10 -17,17l-28 -4 23 -122 118 0 0 28 -95 0 -12 64c14,-10 29,-15 45,-15 20,0 38,7 52,22 15,14 22,33 22,55 0,22 -7,41 -19,56 -15,20 -36,29 -63,29 -21,0 -39,-6 -53,-18 -13,-12 -21,-28 -23,-48z"/>
  <path class="fil1" d="M2790 1859l0 -28 155 0 0 22c-15,16 -31,38 -45,65 -15,27 -27,54 -35,83 -6,20 -10,41 -11,65l-30 0c0,-19 4,-41 11,-68 7,-27 17,-52 30,-77 13,-25 27,-45 42,-62l-117 0z"/>
  <path class="fil1" d="M3936 1890l-29 2c-3,-11 -7,-20 -11,-25 -8,-8 -18,-12 -30,-12 -9,0 -18,2 -25,7 -9,7 -16,17 -22,30 -5,13 -8,31 -8,55 7,-11 16,-19 26,-24 10,-5 21,-8 32,-8 20,0 36,7 50,22 14,14 21,33 21,56 0,15 -3,29 -10,41 -6,13 -15,23 -27,30 -11,7 -24,10 -38,10 -24,0 -44,-9 -60,-27 -15,-18 -23,-47 -23,-88 0,-47 9,-80 26,-101 15,-18 35,-27 60,-27 19,0 34,5 46,15 12,11 19,25 22,44zm-120 103c0,10 2,20 6,29 4,9 10,16 18,21 8,5 16,7 24,7 13,0 24,-5 32,-15 9,-10 14,-23 14,-40 0,-17 -5,-30 -13,-39 -9,-10 -20,-15 -34,-15 -13,0 -24,5 -33,15 -10,9 -14,21 -14,37z"/>
  <path class="fil1" d="M1351 1509l-44 0 0 -280c-11,10 -25,21 -42,31 -17,10 -33,17 -46,22l0 -42c24,-12 46,-26 64,-42 19,-17 32,-33 39,-48l29 0 0 359z"/>
  <path class="fil1" d="M1351 2484l-44 0 0 -280c-11,10 -25,21 -42,31 -17,10 -33,17 -46,22l0 -42c24,-12 46,-26 64,-42 19,-17 32,-33 39,-48l29 0 0 359z"/>
  <path class="fil1" d="M2317 2484l-44 0 0 -280c-10,10 -24,21 -41,31 -18,10 -33,17 -47,22l0 -42c25,-12 46,-26 65,-42 18,-17 31,-33 39,-48l28 0 0 359z"/>
  <path class="fil1" d="M4267 2478l-44 0 0 -280c-10,10 -24,20 -41,30 -18,10 -33,18 -47,23l0 -43c25,-11 46,-25 65,-42 18,-16 31,-32 39,-48l28 0 0 360z"/>
  <path class="fil1" d="M3277 2478l-44 0 0 -280c-10,10 -24,20 -41,30 -18,10 -33,18 -47,23l0 -43c25,-11 46,-25 65,-42 18,-16 31,-32 39,-48l28 0 0 360z"/>
  <rect class="fil0 str1" x="1060" y="996" width="500" height="1608" rx="142" ry="142"/>
  <rect class="fil0 str1" x="943" y="2096" width="3567" height="533" rx="113" ry="100"/>
  <path class="fil1" d="M1282 608c14,10 28,17 40,22l-9 22c-17,-6 -34,-16 -51,-29 -18,10 -37,14 -59,14 -21,0 -41,-5 -58,-15 -18,-11 -31,-25 -41,-44 -9,-19 -14,-40 -14,-64 0,-23 5,-45 14,-64 10,-19 23,-34 41,-44 17,-10 37,-15 59,-15 22,0 42,5 59,15 18,11 32,26 41,44 9,19 14,40 14,64 0,20 -3,37 -9,53 -6,16 -15,29 -27,41zm-70 -40c19,5 34,12 45,22 19,-17 28,-42 28,-76 0,-19 -3,-36 -10,-50 -6,-15 -16,-26 -28,-34 -13,-8 -27,-12 -43,-12 -23,0 -43,8 -58,24 -16,16 -24,40 -24,72 0,31 8,55 23,72 16,16 35,24 59,24 11,0 22,-2 32,-6 -10,-6 -20,-11 -31,-14l7 -22z"/>
  <path id="1" class="fil1" d="M1361 633l0 -238 106 0c21,0 37,2 48,6 11,5 20,12 27,23 6,11 10,23 10,36 0,17 -6,31 -17,43 -11,11 -28,19 -50,22 8,4 14,8 19,12 9,8 18,19 26,31l41 65 -39 0 -32 -49c-9,-15 -17,-26 -23,-33 -6,-8 -11,-13 -16,-16 -4,-3 -9,-5 -14,-6 -4,-1 -10,-2 -18,-2l-36 0 0 106 -32 0zm32 -133l68 0c14,0 25,-1 33,-4 8,-3 15,-8 19,-15 4,-6 6,-13 6,-21 0,-11 -4,-21 -12,-28 -8,-7 -21,-11 -39,-11l-75 0 0 79z"/>
  <path class="fil1" d="M2273 608c15,10 29,17 41,22l-9 22c-17,-6 -35,-16 -52,-29 -17,10 -37,14 -58,14 -22,0 -41,-5 -59,-15 -17,-11 -31,-25 -40,-44 -10,-19 -15,-40 -15,-64 0,-23 5,-45 15,-64 9,-19 23,-34 41,-44 17,-10 37,-15 59,-15 22,0 41,5 59,15 18,11 31,26 41,44 9,19 13,40 13,64 0,20 -3,37 -9,53 -5,16 -15,29 -27,41zm-69 -40c18,5 33,12 45,22 19,-17 28,-42 28,-76 0,-19 -3,-36 -10,-50 -7,-15 -16,-26 -29,-34 -12,-8 -27,-12 -42,-12 -24,0 -43,8 -59,24 -15,16 -23,40 -23,72 0,31 8,55 23,72 15,16 35,24 59,24 11,0 22,-2 32,-6 -10,-6 -21,-11 -32,-14l8 -22z"/>
  <path id="1" class="fil1" d="M2353 633l0 -238 106 0c21,0 37,2 48,6 11,5 20,12 27,23 6,11 9,23 9,36 0,17 -5,31 -16,43 -11,11 -28,19 -51,22 9,4 15,8 19,12 10,8 18,19 26,31l42 65 -40 0 -31 -49c-9,-15 -17,-26 -23,-33 -6,-8 -11,-13 -16,-16 -5,-3 -10,-5 -14,-6 -4,-1 -10,-2 -18,-2l-37 0 0 106 -31 0zm31 -133l68 0c15,0 26,-1 34,-4 8,-3 14,-8 18,-15 5,-6 7,-13 7,-21 0,-11 -4,-21 -12,-28 -9,-7 -22,-11 -39,-11l-76 0 0 79z"/>
  <path class="fil1" d="M3257 608c14,10 28,17 40,22l-9 22c-17,-6 -34,-16 -51,-29 -18,10 -37,14 -59,14 -21,0 -41,-5 -58,-15 -18,-11 -31,-25 -41,-44 -9,-19 -14,-40 -14,-64 0,-23 5,-45 14,-64 10,-19 23,-34 41,-44 17,-10 37,-15 59,-15 22,0 42,5 59,15 18,11 32,26 41,44 9,19 14,40 14,64 0,20 -3,37 -9,53 -6,16 -15,29 -27,41zm-70 -40c19,5 34,12 45,22 19,-17 28,-42 28,-76 0,-19 -3,-36 -10,-50 -6,-15 -16,-26 -28,-34 -13,-8 -27,-12 -43,-12 -23,0 -43,8 -58,24 -16,16 -24,40 -24,72 0,31 8,55 23,72 16,16 35,24 59,24 11,0 22,-2 32,-6 -10,-6 -20,-11 -31,-14l7 -22z"/>
  <path id="1" class="fil1" d="M3336 633l0 -238 106 0c21,0 37,2 48,6 11,5 20,12 27,23 6,11 10,23 10,36 0,17 -6,31 -17,43 -11,11 -28,19 -50,22 8,4 14,8 19,12 9,8 18,19 26,31l41 65 -39 0 -32 -49c-9,-15 -17,-26 -23,-33 -6,-8 -11,-13 -16,-16 -4,-3 -9,-5 -14,-6 -4,-1 -10,-2 -18,-2l-36 0 0 106 -32 0zm32 -133l68 0c14,0 25,-1 33,-4 8,-3 15,-8 19,-15 4,-6 6,-13 6,-21 0,-11 -4,-21 -12,-28 -8,-7 -21,-11 -39,-11l-75 0 0 79z"/>
  <path class="fil1" d="M4211 608c15,10 28,17 41,22l-10 22c-17,-6 -34,-16 -51,-29 -18,10 -37,14 -59,14 -21,0 -41,-5 -58,-15 -18,-11 -31,-25 -41,-44 -9,-19 -14,-40 -14,-64 0,-23 5,-45 14,-64 10,-19 23,-34 41,-44 18,-10 37,-15 59,-15 22,0 42,5 60,15 17,11 31,26 40,44 9,19 14,40 14,64 0,20 -3,37 -9,53 -6,16 -15,29 -27,41zm-69 -40c18,5 33,12 45,22 18,-17 27,-42 27,-76 0,-19 -3,-36 -10,-50 -6,-15 -16,-26 -28,-34 -13,-8 -27,-12 -43,-12 -23,0 -43,8 -58,24 -16,16 -23,40 -23,72 0,31 7,55 23,72 15,16 34,24 58,24 12,0 22,-2 32,-6 -10,-6 -20,-11 -31,-14l8 -22z"/>
  <path id="1" class="fil1" d="M4290 633l0 -238 106 0c21,0 37,2 49,6 11,5 19,12 26,23 7,11 10,23 10,36 0,17 -6,31 -17,43 -10,11 -27,19 -50,22 8,4 14,8 19,12 9,8 18,19 26,31l41 65 -39 0 -32 -49c-9,-15 -17,-26 -23,-33 -6,-8 -11,-13 -16,-16 -4,-3 -9,-5 -14,-6 -4,-1 -9,-2 -18,-2l-36 0 0 106 -32 0zm32 -133l68 0c14,0 25,-1 33,-4 9,-3 15,-8 19,-15 4,-6 6,-13 6,-21 0,-11 -4,-21 -12,-28 -8,-7 -21,-11 -39,-11l-75 0 0 79z"/>
  <line class="fil0 str0" x1="1105" y1="338" x2="1547" y2= "338" />
  <line class="fil0 str0" x1="2097" y1="338" x2="2310" y2= "338" />
  <line class="fil0 str0" x1="4272" y1="338" x2="4501" y2= "338" />
  <path class="fil1" d="M389 1449l0 -239 90 0c16,0 28,1 37,3 11,2 21,5 29,11 8,5 15,13 19,23 5,10 8,20 8,32 0,21 -7,38 -20,52 -13,14 -36,21 -70,21l-61 0 0 97 -32 0zm32 -125l62 0c20,0 34,-4 43,-12 9,-7 13,-18 13,-32 0,-10 -3,-18 -8,-25 -5,-7 -11,-12 -20,-14 -5,-2 -15,-3 -29,-3l-61 0 0 86z"/>
  <path class="fil1" d="M389 2424l0 -239 90 0c16,0 28,1 37,3 11,2 21,5 29,11 8,5 15,13 19,23 5,10 8,20 8,32 0,21 -7,38 -20,52 -13,14 -36,21 -70,21l-61 0 0 97 -32 0zm32 -125l62 0c20,0 34,-4 43,-12 9,-7 13,-18 13,-32 0,-10 -3,-18 -8,-25 -5,-7 -11,-12 -20,-14 -5,-2 -15,-3 -29,-3l-61 0 0 86z"/>
  <line class="fil0 str0" x1="376" y1="1167" x2="572" y2= "1167" />
 </g>
</svg>
