<?xml version="1.0" encoding="UTF-8"?>
<!DOCTYPE svg PUBLIC "-//W3C//DTD SVG 1.1//EN" "http://www.w3.org/Graphics/SVG/1.1/DTD/svg11.dtd">
<!-- Creator: CorelDRAW X7 -->
<svg xmlns="http://www.w3.org/2000/svg" xml:space="preserve" width="8.5in" height="9in" version="1.1" style="shape-rendering:geometricPrecision; text-rendering:geometricPrecision; image-rendering:optimizeQuality; fill-rule:evenodd; clip-rule:evenodd"
viewBox="0 0 8500 9000"
 xmlns:xlink="http://www.w3.org/1999/xlink">
 <defs>
  <style type="text/css">
   <![CDATA[
    .str1 {stroke:#373435;stroke-width:41.6654}
    .str0 {stroke:#373435;stroke-width:27.7795}
    .fil0 {fill:none}
    .fil1 {fill:#373435;fill-rule:nonzero}
   ]]>
  </style>
 </defs>
 <g id="Layer_x0020_1">
  <metadata id="CorelCorpID_0Corel-Layer"/>
  <g id="_2497244352224">
   <circle class="fil0 str0" cx="1883" cy="5268" r="234"/>
   <circle class="fil0 str0" cx="2430" cy="6147" r="234"/>
   <circle class="fil0 str0" cx="1883" cy="7026" r="234"/>
   <circle class="fil0 str0" cx="1336" cy="7904" r="234"/>
   <line class="fil0 str0" x1="2007" y1="5467" x2="2306" y2= "5948" />
   <line class="fil0 str0" x1="2007" y1="7225" x2="2306" y2= "7705" />
   <line class="fil0 str0" x1="2554" y1="6346" x2="2853" y2= "6827" />
   <line class="fil0 str0" x1="1460" y1="8103" x2="1759" y2= "8584" />
   <line class="fil0 str0" x1="2306" y1="6346" x2="2007" y2= "6827" />
   <line class="fil0 str0" x1="1759" y1="5467" x2="1460" y2= "5948" />
   <line class="fil0 str0" x1="1759" y1="7225" x2="1460" y2= "7705" />
   <line class="fil0 str0" x1="1212" y1="8103" x2="913" y2= "8584" />
   <g>
    <path class="fil1" d="M1869 5315l0 -214 28 0 0 214 -28 0zm87 -12l-73 132 -73 -132 146 0z"/>
   </g>
   <g>
    <path class="fil1" d="M2416 6193l0 -213 28 0 0 213 -28 0zm86 -11l-72 132 -73 -132 145 0z"/>
   </g>
   <g>
    <path class="fil1" d="M1956 6990l-146 0 73 -132 73 132zm-87 203l0 -214 28 0 0 214 -28 0z"/>
   </g>
   <g>
    <path class="fil1" d="M1409 7869l-145 0 72 -132 73 132zm-87 203l0 -214 28 0 0 214 -28 0z"/>
   </g>
   <path class="fil1" d="M1336 5985l0 -22 121 0 0 17c-12,13 -24,30 -35,51 -12,21 -21,42 -28,64 -4,16 -7,33 -8,52l-24 0c1,-15 3,-33 9,-53 5,-21 13,-41 24,-61 10,-19 21,-35 32,-48l-91 0z"/>
   <path class="fil1" d="M2308 7852l23 -3c2,13 7,22 13,28 6,5 14,8 23,8 11,0 20,-3 28,-11 7,-7 11,-17 11,-28 0,-10 -4,-19 -11,-26 -7,-6 -15,-10 -26,-10 -4,0 -10,1 -16,3l2 -20c2,0 3,0 4,0 10,0 19,-3 27,-8 7,-5 11,-13 11,-23 0,-9 -3,-15 -8,-21 -6,-6 -13,-8 -22,-8 -9,0 -17,3 -23,8 -5,6 -9,14 -11,26l-23 -5c3,-15 9,-27 19,-35 10,-9 22,-13 37,-13 10,0 20,2 28,7 9,4 15,10 20,17 4,8 7,16 7,24 0,8 -2,16 -7,22 -4,7 -10,12 -19,16 11,3 20,8 26,16 6,8 9,18 9,30 0,16 -6,30 -18,41 -12,12 -27,17 -45,17 -16,0 -30,-5 -41,-14 -11,-10 -17,-23 -18,-38z"/>
   <path class="fil1" d="M1835 8783l0 -44 -81 0 0 -21 85 -121 19 0 0 121 25 0 0 21 -25 0 0 44 -23 0zm0 -65l0 -84 -59 84 59 0z"/>
   <path class="fil1" d="M789 8731l23 -4c3,13 7,23 14,29 6,5 14,8 23,8 11,0 20,-4 27,-11 8,-8 11,-17 11,-28 0,-10 -3,-19 -10,-26 -7,-7 -16,-10 -26,-10 -5,0 -10,1 -16,2l2 -20c2,1 3,1 4,1 10,0 18,-3 26,-8 8,-5 12,-13 12,-23 0,-9 -3,-16 -9,-21 -5,-6 -13,-8 -22,-8 -8,0 -16,2 -22,8 -6,6 -10,14 -11,25l-23 -4c3,-15 9,-27 19,-36 10,-8 22,-12 37,-12 10,0 19,2 28,6 9,5 15,11 20,18 4,8 6,16 6,24 0,8 -2,15 -6,22 -4,7 -11,12 -19,16 11,2 19,8 25,16 7,8 10,18 10,30 0,16 -6,30 -18,41 -12,11 -27,17 -45,17 -17,0 -30,-5 -41,-15 -11,-9 -17,-22 -19,-37z"/>
   <path class="fil1" d="M2977 7004l0 22 -124 0c0,-6 1,-11 3,-16 3,-9 8,-17 15,-25 7,-8 17,-18 30,-28 20,-17 34,-30 41,-40 7,-9 11,-19 11,-27 0,-9 -3,-17 -10,-23 -6,-7 -15,-10 -25,-10 -11,0 -20,4 -27,10 -6,7 -10,16 -10,28l-23 -3c1,-17 7,-31 18,-40 10,-9 25,-14 42,-14 18,0 32,5 43,15 10,10 15,22 15,37 0,8 -1,15 -4,22 -3,7 -8,15 -15,23 -8,8 -19,19 -36,33 -13,11 -22,19 -26,23 -4,4 -7,9 -10,13l92 0z"/>
   <path class="fil1" d="M313 4958l0 5c-13,-6 -24,-14 -32,-23 -12,-12 -22,-26 -28,-43 -7,-17 -10,-34 -10,-52 0,-26 6,-50 19,-72 13,-22 30,-37 51,-46l0 5c-11,6 -19,14 -26,24 -7,10 -12,22 -15,38 -3,15 -5,31 -5,48 0,18 2,34 4,49 3,12 5,21 8,28 4,7 8,14 13,20 5,7 12,13 21,19z"/>
   <path id="1" class="fil1" d="M475 4731l4 59 -4 0c-5,-18 -12,-31 -22,-38 -10,-8 -21,-12 -35,-12 -11,0 -22,3 -31,9 -9,6 -16,15 -22,28 -5,12 -8,28 -8,47 0,16 3,29 8,41 5,11 12,20 22,26 10,6 22,9 35,9 11,0 21,-2 29,-7 9,-5 18,-14 28,-28l4 2c-8,15 -18,27 -30,34 -11,7 -25,10 -41,10 -28,0 -51,-10 -66,-31 -12,-16 -18,-35 -18,-56 0,-17 4,-33 12,-48 8,-14 18,-25 32,-33 13,-8 28,-12 44,-12 12,0 24,3 37,9 3,2 6,3 7,3 2,0 4,-1 6,-2 2,-3 4,-6 5,-10l4 0z"/>
   <path id="2" class="fil1" d="M498 4732l0 -5c13,6 24,13 32,22 12,12 22,27 28,44 7,16 10,34 10,52 0,26 -6,50 -19,71 -13,22 -30,38 -51,47l0 -5c11,-6 19,-14 26,-24 7,-10 12,-22 15,-38 3,-15 5,-31 5,-48 0,-18 -1,-34 -4,-49 -2,-12 -5,-21 -8,-28 -3,-7 -8,-14 -13,-20 -5,-7 -12,-13 -21,-19z"/>
  </g>
  <g>
   <circle class="fil0 str0" cx="1336" cy="768" r="234"/>
   <circle class="fil0 str0" cx="1883" cy="1647" r="234"/>
   <circle class="fil0 str0" cx="2430" cy="2526" r="234"/>
   <circle class="fil0 str0" cx="2977" cy="3404" r="234"/>
   <line class="fil0 str0" x1="1460" y1="967" x2="1759" y2= "1448" />
   <line class="fil0 str0" x1="2554" y1="2725" x2="2853" y2= "3205" />
   <line class="fil0 str0" x1="2007" y1="1846" x2="2306" y2= "2327" />
   <line class="fil0 str0" x1="3100" y1="3603" x2="3400" y2= "4084" />
   <line class="fil0 str0" x1="1759" y1="1846" x2="1460" y2= "2327" />
   <line class="fil0 str0" x1="1212" y1="967" x2="913" y2= "1448" />
   <line class="fil0 str0" x1="2306" y1="2725" x2="2007" y2= "3205" />
   <line class="fil0 str0" x1="2853" y1="3603" x2="2554" y2= "4084" />
   <g>
    <path class="fil1" d="M1322 815l0 -214 28 0 0 214 -28 0zm87 -12l-73 132 -72 -132 145 0z"/>
   </g>
   <g>
    <path class="fil1" d="M1956 1612l-146 0 73 -132 73 132zm-87 202l0 -214 28 0 0 214 -28 0z"/>
   </g>
   <g>
    <path class="fil1" d="M2502 2490l-145 0 73 -132 72 132zm-86 203l0 -214 28 0 0 214 -28 0z"/>
   </g>
   <g>
    <path class="fil1" d="M2963 3451l0 -214 28 0 0 214 -28 0zm86 -11l-72 132 -73 -132 145 0z"/>
   </g>
   <path class="fil1" d="M780 1494l0 -22 121 0 0 18c-12,13 -24,29 -35,50 -12,21 -21,43 -27,65 -5,16 -8,33 -9,51l-24 0c1,-14 4,-32 9,-53 6,-21 14,-41 24,-60 10,-19 21,-36 33,-49l-92 0z"/>
   <path class="fil1" d="M1325 2488l23 -3c3,13 7,22 13,28 7,6 14,8 24,8 10,0 20,-3 27,-11 7,-7 11,-16 11,-27 0,-11 -3,-20 -10,-27 -7,-6 -16,-10 -27,-10 -4,0 -9,1 -16,3l3 -20c1,0 3,0 4,0 9,0 18,-3 26,-8 8,-5 12,-13 12,-23 0,-8 -3,-15 -9,-21 -6,-5 -13,-8 -22,-8 -9,0 -16,3 -22,8 -6,6 -10,14 -12,26l-23 -4c3,-16 10,-28 20,-36 9,-9 22,-13 37,-13 10,0 19,2 28,7 8,4 15,10 19,17 5,8 7,16 7,24 0,8 -2,16 -6,22 -5,7 -11,12 -20,16 11,3 20,8 26,16 6,8 9,18 9,30 0,16 -6,30 -18,41 -11,12 -26,17 -45,17 -16,0 -30,-4 -40,-14 -11,-10 -17,-23 -19,-38z"/>
   <path class="fil1" d="M1952 3413l0 -45 -81 0 0 -21 85 -120 19 0 0 120 25 0 0 21 -25 0 0 45 -23 0zm0 -66l0 -84 -58 84 58 0z"/>
   <path class="fil1" d="M2430 4231l23 -4c2,13 7,23 13,29 6,5 14,8 23,8 11,0 20,-4 28,-11 7,-8 11,-17 11,-28 0,-10 -4,-19 -11,-26 -6,-7 -15,-10 -26,-10 -4,0 -9,1 -16,2l3 -20c1,1 2,1 3,1 10,0 19,-3 27,-8 8,-5 11,-13 11,-23 0,-9 -2,-16 -8,-21 -6,-6 -13,-8 -22,-8 -9,0 -16,2 -22,8 -6,6 -10,14 -12,25l-23 -4c3,-15 9,-27 19,-36 10,-8 23,-12 37,-12 10,0 20,2 28,6 9,5 16,11 20,18 5,8 7,16 7,24 0,8 -2,15 -7,22 -4,7 -10,12 -19,16 11,2 20,8 26,16 6,8 9,18 9,30 0,16 -6,30 -18,41 -12,11 -27,17 -45,17 -16,0 -30,-5 -41,-15 -10,-9 -17,-22 -18,-37z"/>
   <path class="fil1" d="M3530 4266l0 22 -123 0c0,-5 0,-11 2,-16 4,-8 9,-17 16,-25 7,-8 17,-17 30,-28 20,-16 33,-30 41,-39 7,-10 10,-19 10,-28 0,-9 -3,-17 -9,-23 -7,-6 -15,-9 -26,-9 -11,0 -20,3 -26,10 -7,6 -10,15 -10,27l-24 -2c2,-18 8,-31 18,-40 11,-10 25,-14 43,-14 18,0 32,5 42,15 11,10 16,22 16,37 0,7 -2,14 -5,22 -3,7 -8,15 -15,23 -7,7 -19,18 -35,32 -14,12 -23,20 -27,24 -4,4 -7,8 -9,12l91 0z"/>
   <path class="fil1" d="M313 458l0 5c-13,-6 -24,-14 -32,-23 -12,-12 -22,-26 -28,-43 -7,-17 -10,-34 -10,-52 0,-26 6,-50 19,-72 13,-22 30,-37 51,-46l0 5c-11,6 -19,14 -26,24 -7,10 -12,22 -15,38 -3,15 -5,31 -5,48 0,18 2,34 4,49 3,12 5,21 8,28 4,7 8,14 13,20 5,7 12,13 21,19z"/>
   <path id="1" class="fil1" d="M438 350l-67 0 -11 27c-3,7 -5,12 -5,15 0,3 1,5 4,7 2,2 8,3 16,4l0 5 -54 0 0 -5c7,-1 12,-3 14,-5 4,-4 9,-12 14,-25l61 -142 4 0 60 144c5,11 9,19 13,22 4,3 10,5 17,6l0 5 -68 0 0 -5c7,-1 11,-2 14,-4 2,-2 3,-4 3,-7 0,-3 -1,-9 -5,-17l-10 -25zm-4 -9l-29 -70 -30 70 59 0z"/>
   <path id="2" class="fil1" d="M512 232l0 -5c13,6 24,13 33,22 12,12 21,27 28,44 6,16 10,34 10,52 0,26 -7,50 -20,71 -13,22 -30,38 -51,47l0 -5c11,-6 20,-14 26,-24 7,-10 12,-22 15,-38 4,-15 5,-31 5,-48 0,-18 -1,-34 -4,-49 -2,-12 -5,-21 -8,-28 -3,-7 -7,-14 -13,-20 -5,-7 -12,-13 -21,-19z"/>
  </g>
  <circle class="fil0 str1" cx="6383" cy="768" r="234"/>
  <circle class="fil0 str1" cx="5836" cy="1647" r="234"/>
  <circle class="fil0 str1" cx="6383" cy="2526" r="234"/>
  <circle class="fil0 str1" cx="6930" cy="3404" r="234"/>
  <line class="fil0 str1" x1="6507" y1="967" x2="6806" y2= "1448" />
  <line class="fil0 str1" x1="6507" y1="2725" x2="6806" y2= "3205" />
  <line class="fil0 str1" x1="5960" y1="1846" x2="6259" y2= "2327" />
  <line class="fil0 str1" x1="7054" y1="3603" x2="7353" y2= "4084" />
  <line class="fil0 str1" x1="5712" y1="1846" x2="5413" y2= "2327" />
  <line class="fil0 str1" x1="6259" y1="967" x2="5960" y2= "1448" />
  <line class="fil0 str1" x1="6259" y1="2725" x2="5960" y2= "3205" />
  <line class="fil0 str1" x1="6806" y1="3603" x2="6507" y2= "4084" />
  <g>
   <path class="fil1" d="M6362 754l0 -153 42 0 0 153 -42 0zm130 -17l-109 198 -109 -198 218 0z"/>
  </g>
  <g>
   <path class="fil1" d="M5815 1633l0 -153 42 0 0 153 -42 0zm130 -17l-109 198 -109 -198 218 0z"/>
  </g>
  <g>
   <path class="fil1" d="M6492 2556l-218 0 109 -198 109 198zm-130 137l0 -154 42 0 0 154 -42 0z"/>
  </g>
  <g>
   <path class="fil1" d="M7039 3435l-218 0 109 -198 109 198zm-130 137l0 -154 42 0 0 154 -42 0z"/>
  </g>
  <path class="fil1" d="M5276 2389l0 -34 123 0 0 26c-10,10 -21,25 -31,43 -10,19 -18,39 -24,59 -5,21 -8,40 -8,57l-34 0c0,-26 6,-53 16,-80 10,-26 23,-50 40,-71l-82 0z"/>
  <path class="fil1" d="M5820 3373l35 -5c1,9 4,16 9,21 5,4 11,7 17,7 8,0 14,-3 19,-9 5,-5 7,-13 7,-22 0,-9 -2,-17 -7,-22 -5,-5 -11,-8 -17,-8 -5,0 -10,1 -17,3l4 -29c10,0 17,-2 22,-6 5,-5 8,-11 8,-18 0,-6 -2,-11 -6,-15 -4,-4 -8,-6 -15,-6 -6,0 -11,2 -15,7 -5,4 -7,10 -8,18l-33 -5c2,-12 6,-21 10,-28 5,-6 11,-12 20,-16 8,-3 17,-5 27,-5 18,0 32,5 43,16 8,10 13,20 13,32 0,16 -9,29 -27,39 11,2 19,7 25,15 7,8 10,18 10,29 0,17 -6,31 -18,42 -12,12 -27,17 -44,17 -17,0 -31,-4 -42,-14 -11,-10 -18,-23 -20,-38z"/>
  <path class="fil1" d="M6447 4295l0 -38 -76 0 0 -31 81 -119 30 0 0 119 23 0 0 31 -23 0 0 38 -35 0zm0 -69l0 -64 -42 64 42 0z"/>
  <path class="fil1" d="M7354 4231l34 -5c1,9 4,16 9,21 5,4 11,7 17,7 8,0 14,-3 19,-9 5,-5 7,-13 7,-22 0,-9 -2,-17 -7,-22 -5,-5 -10,-8 -17,-8 -5,0 -10,1 -17,3l4 -29c10,0 17,-2 22,-6 5,-5 8,-11 8,-18 0,-6 -2,-11 -6,-15 -3,-4 -8,-6 -15,-6 -6,0 -11,2 -15,7 -5,4 -7,10 -8,18l-33 -5c2,-12 6,-21 10,-28 5,-6 12,-12 20,-16 8,-4 17,-5 28,-5 17,0 31,5 42,16 8,10 13,20 13,32 0,16 -9,29 -27,39 11,2 19,7 26,15 6,8 9,18 9,29 0,17 -6,31 -18,42 -12,12 -27,17 -44,17 -17,0 -31,-4 -42,-14 -11,-10 -18,-23 -19,-38z"/>
  <path class="fil1" d="M6944 1629l0 33 -126 0c2,-13 6,-24 13,-36 6,-11 20,-26 40,-45 16,-15 26,-25 29,-30 5,-7 8,-15 8,-22 0,-8 -2,-14 -7,-18 -4,-5 -10,-7 -17,-7 -8,0 -14,2 -18,7 -5,4 -7,12 -8,22l-35 -3c2,-20 8,-34 20,-43 11,-8 25,-12 42,-12 18,0 32,4 43,14 10,10 16,23 16,38 0,8 -2,16 -5,24 -3,7 -8,15 -14,23 -4,6 -12,14 -24,24 -11,11 -18,18 -21,21 -3,3 -6,7 -7,10l71 0z"/>
  <path class="fil1" d="M4816 231l0 6c-9,5 -16,11 -20,17 -6,7 -10,17 -13,29 -4,15 -7,36 -7,62 0,25 2,45 6,59 4,14 9,25 15,34 5,6 11,11 19,15l0 7c-21,-7 -38,-21 -52,-42 -14,-22 -22,-46 -22,-73 0,-28 8,-52 22,-72 14,-21 31,-35 52,-42z"/>
  <path id="1" class="fil1" d="M4934 316c17,4 28,8 35,14 9,8 14,18 14,30 0,13 -5,24 -15,32 -13,10 -32,16 -56,16l-88 0 0 -5c8,0 14,-1 16,-2 3,-2 5,-4 6,-6 1,-2 2,-8 2,-18l0 -112c0,-9 -1,-15 -2,-18 -1,-2 -3,-4 -6,-6 -3,-1 -8,-2 -16,-2l0 -4 83 0c20,0 34,2 42,5 8,4 15,9 19,16 5,7 7,14 7,22 0,9 -3,16 -9,22 -6,7 -16,12 -32,16zm-46 -4c12,0 21,-1 27,-4 6,-2 10,-6 13,-11 3,-5 5,-11 5,-19 0,-8 -2,-14 -5,-19 -3,-5 -7,-8 -13,-11 -6,-2 -15,-4 -27,-3l0 67zm0 10l0 56 0 6c0,5 1,8 3,10 3,3 6,4 11,4 6,0 12,-2 18,-5 6,-3 10,-7 13,-13 3,-5 4,-12 4,-19 0,-8 -1,-15 -5,-21 -3,-7 -8,-11 -15,-14 -6,-2 -16,-4 -29,-4z"/>
  <path id="2" class="fil1" d="M4995 460l0 -6c9,-6 16,-12 20,-17 6,-8 10,-18 13,-29 4,-15 7,-36 7,-63 0,-25 -2,-45 -6,-58 -4,-14 -9,-26 -15,-34 -5,-6 -11,-11 -19,-16l0 -6c21,7 38,21 52,42 15,21 22,46 22,73 0,27 -7,51 -22,72 -14,21 -31,35 -52,42z"/>
  <g>
   <circle class="fil0 str0" cx="7477" cy="5268" r="234"/>
   <circle class="fil0 str0" cx="6930" cy="6147" r="234"/>
   <circle class="fil0 str0" cx="6383" cy="7026" r="234"/>
   <circle class="fil0 str0" cx="5836" cy="7904" r="234"/>
   <line class="fil0 str0" x1="7601" y1="5467" x2="7900" y2= "5948" />
   <line class="fil0 str0" x1="6507" y1="7225" x2="6806" y2= "7705" />
   <line class="fil0 str0" x1="7054" y1="6346" x2="7353" y2= "6827" />
   <line class="fil0 str0" x1="5960" y1="8103" x2="6259" y2= "8584" />
   <line class="fil0 str0" x1="6806" y1="6346" x2="6507" y2= "6827" />
   <line class="fil0 str0" x1="7353" y1="5467" x2="7054" y2= "5948" />
   <line class="fil0 str0" x1="6259" y1="7225" x2="5960" y2= "7705" />
   <line class="fil0 str0" x1="5712" y1="8103" x2="5413" y2= "8584" />
   <g>
    <path class="fil1" d="M7463 5315l0 -214 28 0 0 214 -28 0zm86 -12l-72 132 -73 -132 145 0z"/>
   </g>
   <g>
    <path class="fil1" d="M7002 6112l-145 0 73 -132 72 132zm-86 202l0 -214 28 0 0 214 -28 0z"/>
   </g>
   <g>
    <path class="fil1" d="M6456 6990l-146 0 73 -132 73 132zm-87 203l0 -214 28 0 0 214 -28 0z"/>
   </g>
   <g>
    <path class="fil1" d="M5822 7951l0 -214 28 0 0 214 -28 0zm87 -11l-73 132 -72 -132 145 0z"/>
   </g>
   <path class="fil1" d="M5289 8621l0 -22 121 0 0 18c-12,12 -24,29 -35,50 -12,21 -21,43 -27,65 -5,15 -8,33 -9,51l-24 0c1,-15 4,-32 9,-53 6,-21 13,-41 24,-60 10,-20 21,-36 33,-49l-92 0z"/>
   <path class="fil1" d="M7355 6973l22 -3c3,13 8,22 14,28 6,6 14,9 23,9 11,0 20,-4 27,-12 8,-7 11,-16 11,-27 0,-11 -3,-20 -10,-26 -7,-7 -15,-11 -26,-11 -4,0 -10,1 -16,3l2 -20c2,0 3,0 4,0 10,0 19,-2 26,-8 8,-5 12,-12 12,-23 0,-8 -3,-15 -8,-21 -6,-5 -13,-8 -22,-8 -9,0 -17,3 -23,8 -6,6 -10,15 -11,26l-23 -4c3,-16 9,-28 19,-36 10,-9 22,-13 37,-13 10,0 20,2 28,7 9,4 15,10 20,18 4,7 7,15 7,24 0,8 -3,15 -7,21 -4,7 -11,12 -19,16 11,3 19,8 26,16 6,8 9,18 9,30 0,16 -6,30 -18,42 -12,11 -27,17 -45,17 -17,0 -30,-5 -41,-15 -11,-10 -17,-23 -18,-38z"/>
   <path class="fil1" d="M6882 7904l0 -44 -81 0 0 -21 85 -121 19 0 0 121 25 0 0 21 -25 0 0 44 -23 0zm0 -65l0 -84 -59 84 59 0z"/>
   <path class="fil1" d="M6261 8731l23 -4c3,13 7,23 13,29 7,5 14,8 23,8 11,0 20,-4 28,-11 7,-8 11,-17 11,-28 0,-10 -4,-19 -10,-26 -7,-7 -16,-10 -27,-10 -4,0 -9,1 -16,2l3 -20c1,1 2,1 3,1 10,0 19,-3 27,-8 8,-5 12,-13 12,-23 0,-9 -3,-16 -9,-21 -6,-6 -13,-8 -22,-8 -9,0 -16,2 -22,8 -6,6 -10,14 -12,25l-23 -4c3,-15 9,-27 19,-36 10,-8 23,-12 37,-12 11,0 20,2 28,6 9,5 16,11 20,18 5,8 7,16 7,24 0,8 -2,15 -7,22 -4,7 -10,12 -19,16 11,2 20,8 26,16 6,8 9,18 9,30 0,16 -6,30 -18,41 -12,11 -27,17 -45,17 -16,0 -30,-5 -41,-15 -10,-9 -17,-22 -18,-37z"/>
   <path class="fil1" d="M8036 6140l0 22 -123 0c0,-6 1,-11 3,-16 3,-8 8,-17 15,-25 7,-8 17,-17 30,-28 20,-16 34,-30 41,-39 7,-10 11,-19 11,-28 0,-9 -3,-17 -10,-23 -6,-6 -15,-9 -25,-9 -12,0 -20,3 -27,10 -7,6 -10,15 -10,27l-24 -2c2,-18 8,-31 19,-40 10,-10 24,-14 42,-14 18,0 32,5 43,15 10,10 15,22 15,37 0,7 -1,14 -4,22 -3,7 -8,14 -16,22 -7,8 -18,19 -35,33 -14,12 -22,20 -26,24 -4,4 -7,8 -10,12l91 0z"/>
   <path class="fil1" d="M4813 4958l0 5c-13,-6 -24,-14 -32,-23 -12,-12 -22,-26 -28,-43 -7,-17 -10,-34 -10,-52 0,-26 6,-50 19,-72 13,-22 30,-37 51,-46l0 5c-11,6 -19,14 -26,24 -7,10 -12,22 -15,38 -3,15 -5,31 -5,48 0,18 2,34 4,49 3,12 5,21 8,28 4,7 8,14 13,20 5,7 12,13 21,19z"/>
   <path id="1" class="fil1" d="M4823 4908l0 -5 7 0c7,0 12,-3 15,-7 2,-3 3,-9 3,-19l0 -112c0,-10 -1,-17 -4,-20 -3,-4 -8,-5 -14,-5l-7 0 0 -5 70 0c26,0 46,3 59,9 14,6 24,15 33,29 8,14 12,29 12,47 0,24 -8,44 -22,61 -16,18 -41,27 -75,27l-77 0zm49 -13c11,2 20,3 27,3 20,0 36,-7 49,-20 13,-14 20,-33 20,-57 0,-23 -7,-42 -20,-56 -13,-14 -29,-20 -50,-20 -7,0 -16,1 -26,3l0 147z"/>
   <path id="2" class="fil1" d="M5012 4732l0 -5c13,6 24,13 33,22 12,12 21,27 28,44 6,16 10,34 10,52 0,26 -7,50 -20,71 -13,22 -30,38 -51,47l0 -5c11,-6 20,-14 26,-24 7,-10 12,-22 15,-38 4,-15 5,-31 5,-48 0,-18 -1,-34 -4,-49 -2,-12 -5,-21 -8,-28 -3,-7 -7,-14 -13,-20 -5,-7 -12,-13 -21,-19z"/>
  </g>
 </g>
</svg>
